<svg width="240" height="264" viewBox="0 0 240 264" fill="none" xmlns="http://www.w3.org/2000/svg">
<path d="M55.5964 33.1945L46.0217 11.045C44.922 8.50107 45.6499 5.53613 47.8027 3.79068C50.4046 1.681 54.2136 2.02773 56.3918 4.57257L73.7878 24.8959L90.8868 41.2007C95.0631 45.183 98.7154 49.6807 101.756 54.5854L166.304 158.711L181.216 177.199C182.704 179.045 184.428 180.735 186.298 182.192C201.743 194.233 202.344 217.723 187.214 230.157L184.179 232.652C167.282 246.538 141.691 236.842 138.237 215.246L131.038 189.534C129.263 183.196 126.578 177.149 123.066 171.583L93.0186 123.961L66.5112 65.8703L55.5964 33.1945Z" fill="white"/>
<path d="M68.9067 38.4203L86.4892 53.9267L72.8348 61.7086L67.7468 38.9085L52.3326 8.01779L53.4635 8.34202L68.9067 38.4203Z" fill="#B3B3B3" stroke="black" stroke-width="2"/>
<rect x="-1.36192" y="-0.364876" width="12.863" height="24.1547" transform="matrix(-0.864547 0.502621 -0.497374 -0.867496 176.762 211.894)" fill="#5B6670" stroke="black" stroke-width="2"/>
<path d="M192.853 207.841C193.002 208.09 193.072 208.668 192.501 209.802C191.958 210.882 190.953 212.211 189.518 213.701C186.658 216.671 182.251 220.117 176.971 223.311C171.692 226.505 166.601 228.804 162.654 229.953C160.673 230.529 159.036 230.798 157.833 230.774C156.571 230.749 156.098 230.415 155.949 230.166C155.8 229.917 155.73 229.339 156.3 228.205C156.844 227.124 157.849 225.796 159.284 224.306C162.144 221.336 166.551 217.89 171.83 214.696C177.11 211.502 182.201 209.203 186.148 208.054C188.129 207.478 189.765 207.209 190.968 207.233C192.23 207.258 192.704 207.592 192.853 207.841Z" fill="#4A565E" stroke="black" stroke-width="2"/>
<path d="M180.779 186.145C180.928 186.394 180.998 186.972 180.428 188.106C179.884 189.187 178.879 190.515 177.444 192.005C174.584 194.975 170.177 198.421 164.898 201.615C159.618 204.809 154.527 207.108 150.58 208.257C148.599 208.833 146.963 209.103 145.76 209.078C144.498 209.053 144.024 208.719 143.875 208.47C143.726 208.221 143.656 207.643 144.227 206.509C144.77 205.429 145.775 204.1 147.21 202.61C150.07 199.641 154.477 196.194 159.757 193C165.036 189.807 170.127 187.507 174.074 186.359C176.055 185.782 177.692 185.513 178.895 185.537C180.157 185.562 180.63 185.896 180.779 186.145Z" fill="#4A565E" stroke="black" stroke-width="2"/>
<path d="M90.1462 56.8218L167.628 187.795L150.842 197.962L73.9254 67.1511C70.707 61.3035 73.5669 59.8662 75.2669 58.9171L83.5241 54.3076C87.3663 52.2901 89.2075 55.1162 90.1462 56.8218Z" fill="#EBF9FF" stroke="black" stroke-width="2"/>
<rect width="7.12923" height="8.46182" transform="matrix(0.51507 0.857108 -0.857227 0.515006 117.424 103.417)" fill="#5B6670"/>
<rect width="7.12923" height="8.46182" transform="matrix(0.51507 0.857108 -0.857227 0.515006 125.74 116.929)" fill="#5B6670"/>
<rect width="7.12923" height="8.46182" transform="matrix(0.51507 0.857108 -0.857227 0.515006 133.017 130.441)" fill="#5B6670"/>
<rect width="7.12923" height="8.46182" transform="matrix(0.51507 0.857108 -0.857227 0.515006 141.333 143.953)" fill="#5B6670"/>
<rect width="7.12923" height="8.46182" transform="matrix(0.51507 0.857108 -0.857227 0.515006 148.609 156.425)" fill="#5B6670"/>
<rect width="7.12923" height="8.46182" transform="matrix(0.51507 0.857108 -0.857227 0.515006 155.886 168.898)" fill="#5B6670"/>
<rect width="7.12923" height="8.46182" transform="matrix(0.51507 0.857108 -0.857227 0.515006 109.108 89.9055)" fill="#5B6670"/>
</svg>
