<svg width="270" height="294" viewBox="0 0 270 294" fill="none" xmlns="http://www.w3.org/2000/svg">
<path d="M62.9587 36.9666L52.3118 12.2851C51.0931 9.4599 51.9006 6.16893 54.2886 4.22869C57.1834 1.87662 61.426 2.26284 63.8485 5.09899L83.1748 27.725L101.911 45.6286C106.729 50.2321 110.941 55.4298 114.447 61.0966L185.988 176.747L202.556 197.331C204.213 199.389 206.1 201.25 208.182 202.876L208.614 203.213C225.755 216.605 226.088 242.426 209.296 256.254L205.904 259.048C187.118 274.518 158.633 263.737 154.798 239.705L146.904 211.455C144.861 204.143 141.768 197.165 137.723 190.74L104.546 138.047L75.0884 73.3556L62.9587 36.9666Z" fill="white"/>
<path d="M77.0107 42.4322L96.6493 59.6716L81.434 68.2825L75.7179 42.9719L58.4698 8.66442L59.7317 9.02626L77.0107 42.4322Z" fill="#B3B3B3" stroke="black" stroke-width="1.15521"/>
<rect x="199.867" y="234.923" width="15.3783" height="27.9452" transform="rotate(150 199.867 234.923)" fill="#5B6670" stroke="black" stroke-width="1.15521"/>
<path d="M216.914 232.27C217.229 232.795 217.199 233.665 216.545 234.962C215.906 236.229 214.747 237.746 213.131 239.415C209.906 242.747 204.956 246.592 199.046 250.143C193.135 253.694 187.418 256.259 182.961 257.543C180.729 258.186 178.845 258.497 177.427 258.467C175.975 258.435 175.192 258.054 174.877 257.529C174.562 257.004 174.592 256.134 175.246 254.837C175.885 253.57 177.044 252.053 178.66 250.384C181.885 247.052 186.834 243.208 192.745 239.656C198.655 236.105 204.373 233.54 208.83 232.256C211.062 231.614 212.945 231.302 214.364 231.333C215.816 231.364 216.599 231.746 216.914 232.27Z" fill="#4A565E" stroke="black" stroke-width="1.15521"/>
<path d="M202.513 206.29C202.828 206.815 202.798 207.685 202.144 208.982C201.505 210.249 200.346 211.766 198.73 213.435C195.505 216.767 190.555 220.612 184.645 224.163C178.734 227.714 173.017 230.28 168.56 231.563C166.328 232.206 164.444 232.517 163.026 232.487C161.574 232.455 160.791 232.074 160.476 231.549C160.161 231.024 160.191 230.154 160.845 228.857C161.484 227.59 162.643 226.073 164.259 224.404C167.484 221.072 172.433 217.228 178.344 213.676C184.254 210.125 189.972 207.56 194.429 206.276C196.661 205.634 198.544 205.322 199.963 205.353C201.415 205.384 202.198 205.766 202.513 206.29Z" fill="#4A565E" stroke="black" stroke-width="1.15521"/>
<path d="M100.733 62.891L187.389 208.373L168.685 219.625L82.6603 74.3242C79.0601 67.8292 82.2473 66.2394 84.1417 65.1893L93.3429 60.089C97.6247 57.8571 99.6834 60.9967 100.733 62.891Z" fill="#EBF9FF" stroke="black" stroke-width="1.15521"/>
<rect x="131.668" y="114.943" width="7.92322" height="9.4043" transform="rotate(59 131.668 114.943)" fill="#5B6670"/>
<rect x="140.91" y="129.961" width="7.92322" height="9.4043" transform="rotate(59 140.91 129.961)" fill="#5B6670"/>
<rect x="148.996" y="144.979" width="7.92322" height="9.4043" transform="rotate(59 148.996 144.979)" fill="#5B6670"/>
<rect x="158.238" y="159.996" width="7.92322" height="9.4043" transform="rotate(59 158.238 159.996)" fill="#5B6670"/>
<rect x="166.324" y="173.858" width="7.92322" height="9.4043" transform="rotate(59 166.324 173.858)" fill="#5B6670"/>
<rect x="174.411" y="187.721" width="7.92322" height="9.4043" transform="rotate(59 174.411 187.721)" fill="#5B6670"/>
<rect x="122.427" y="99.9253" width="7.92322" height="9.4043" transform="rotate(59 122.427 99.9253)" fill="#5B6670"/>
</svg>
