<svg width="265" height="264" viewBox="0 0 265 264" fill="none" xmlns="http://www.w3.org/2000/svg">
<path d="M75.9557 35.5349L95.1737 52.6136L80.1939 61.2472L74.6837 36.0774L57.8839 1.99984L59.1218 2.35482L75.9557 35.5349Z" fill="#B3B3B3" stroke="black" stroke-width="2"/>
<rect x="-1.35526" y="-0.363145" width="14.353" height="26.767" transform="matrix(-0.862076 0.506779 -0.493186 -0.869924 193.905 226.839)" fill="#5B6670" stroke="black" stroke-width="2"/>
<path d="M212.539 222.783C212.729 223.104 212.784 223.785 212.152 225.047C211.547 226.255 210.435 227.734 208.855 229.387C205.706 232.683 200.861 236.508 195.063 240.053C189.266 243.599 183.674 246.158 179.336 247.44C177.16 248.083 175.355 248.389 174.023 248.365C172.632 248.341 172.067 247.971 171.878 247.651C171.689 247.33 171.634 246.649 172.265 245.387C172.87 244.179 173.983 242.7 175.562 241.047C178.711 237.751 183.556 233.926 189.354 230.38C195.152 226.835 200.744 224.276 205.081 222.994C207.257 222.35 209.062 222.045 210.394 222.069C211.785 222.093 212.35 222.462 212.539 222.783Z" fill="#4A565E" stroke="black" stroke-width="2"/>
<path d="M198.184 198.341C198.374 198.661 198.429 199.342 197.797 200.604C197.192 201.812 196.08 203.291 194.5 204.944C191.351 208.24 186.506 212.065 180.708 215.611C174.911 219.156 169.318 221.715 164.981 222.997C162.805 223.641 161 223.946 159.668 223.922C158.277 223.898 157.712 223.529 157.523 223.208C157.334 222.887 157.279 222.206 157.91 220.944C158.515 219.736 159.627 218.257 161.207 216.604C164.356 213.308 169.201 209.483 174.999 205.938C180.797 202.392 186.389 199.833 190.726 198.551C192.902 197.908 194.707 197.602 196.039 197.626C197.43 197.65 197.995 198.02 198.184 198.341Z" fill="#4A565E" stroke="black" stroke-width="2"/>
<path d="M99.1738 55.7949L183.688 200.246L165.271 211.523L81.3755 67.2495C77.866 60.7994 81.003 59.2038 82.868 58.1508L91.9264 53.0363C96.1411 50.7971 98.1502 53.9136 99.1738 55.7949Z" fill="#EBF9FF" stroke="black" stroke-width="2"/>
<rect width="7.83029" height="9.30418" transform="matrix(0.508304 0.861178 -0.853109 0.521734 129.393 107.33)" fill="#5B6670"/>
<rect width="7.83029" height="9.30418" transform="matrix(0.508304 0.861178 -0.853109 0.521734 138.114 122.08)" fill="#5B6670"/>
<rect width="7.83029" height="9.30418" transform="matrix(0.508304 0.861178 -0.853109 0.521734 146.421 136.717)" fill="#5B6670"/>
<rect width="7.83029" height="9.30418" transform="matrix(0.508304 0.861178 -0.853109 0.521734 155.436 152)" fill="#5B6670"/>
<rect width="7.83029" height="9.30418" transform="matrix(0.508304 0.861178 -0.853109 0.521734 163.573 165.673)" fill="#5B6670"/>
<rect width="7.83029" height="9.30418" transform="matrix(0.508304 0.861178 -0.853109 0.521734 171.883 180.302)" fill="#5B6670"/>
<rect width="7.83029" height="9.30418" transform="matrix(0.508304 0.861178 -0.853109 0.521734 120.671 92.582)" fill="#5B6670"/>
</svg>
