<svg width="212" height="181" viewBox="0 0 212 181" fill="none" xmlns="http://www.w3.org/2000/svg">
<path d="M139.723 148.626C140.267 148.626 140.618 149.476 140.777 151.176L140.913 153.012C140.913 154.395 140.663 157.999 140.165 163.824H140.369V163.926L140.505 163.824H140.777L144.755 164.13H145.027L146.727 163.62H146.965C147.327 163.847 147.577 164.164 147.713 164.572C147.713 165.433 146.749 165.966 144.823 166.17L141.355 165.83H140.709L139.077 166.272C138.465 166.045 138.159 165.683 138.159 165.184L138.873 153.522V153.012L138.669 149.612C138.669 149.045 139.02 148.717 139.723 148.626ZM155.207 152.876C156.204 152.876 156.703 153.273 156.703 154.066L156.397 154.712L156.193 160.934C156.193 163.745 156.76 165.49 157.893 166.17L157.961 166.68C157.893 167.337 157.587 167.666 157.043 167.666H156.839C155.139 166.51 154.289 164.742 154.289 162.362H154.051C153.144 164.901 152.045 166.17 150.753 166.17C149.552 165.83 148.951 164.935 148.951 163.484C148.951 160.288 150.232 157.103 152.793 153.93C153.654 153.227 154.459 152.876 155.207 152.876ZM151.093 162.124L150.957 163.076V163.722H151.297C152.997 159.483 153.847 156.899 153.847 155.97H153.711C152.396 157.443 151.524 159.495 151.093 162.124ZM163.197 154.542C165.124 154.701 166.087 155.641 166.087 157.364L166.155 157.806L166.087 163.11C166.087 163.722 166.438 164.549 167.141 165.592V165.66C166.96 166.317 166.631 166.646 166.155 166.646C164.75 166.057 164.047 164.81 164.047 162.906V162.464L163.945 162.396L164.047 162.26V162.192L164.149 157.5C164.149 156.843 163.866 156.514 163.299 156.514H162.891C161.758 156.967 161.191 159.449 161.191 163.96C161.191 165.524 160.794 166.306 160.001 166.306C159.389 166.306 159.072 165.921 159.049 165.15V161.75C159.049 157.353 159.434 155.154 160.205 155.154L160.545 155.052L161.259 155.154C161.871 154.746 162.517 154.542 163.197 154.542ZM171.675 154.474L173.069 154.27C173.635 154.27 173.953 154.621 174.021 155.324C174.021 155.936 173.284 156.333 171.811 156.514C170.881 157.239 170.417 158.169 170.417 159.302V160.424C170.87 162.917 171.641 164.164 172.729 164.164H173.069C173.703 164.164 174.655 163.563 175.925 162.362H176.129C176.582 162.362 176.945 162.679 177.217 163.314C176.899 164.289 175.879 165.173 174.157 165.966C173.839 166.102 173.443 166.17 172.967 166.17C170.632 166.17 169.113 164.334 168.411 160.662V159.914C168.411 157.262 169.499 155.449 171.675 154.474ZM181.991 153.794C182.898 153.817 184.428 155.403 186.581 158.554L186.649 159.132C186.649 159.767 185.096 160.254 181.991 160.594L181.889 160.696V160.832C182.365 162.872 182.864 163.892 183.385 163.892H183.793C184.518 163.892 185.618 163.11 187.091 161.546H187.295C187.748 161.546 188.1 161.875 188.349 162.532C188.349 163.076 187.397 164.017 185.493 165.354C184.994 165.649 184.394 165.864 183.691 166C181.855 166 180.574 164.277 179.849 160.832C178.806 160.673 178.285 160.243 178.285 159.54C178.285 159.041 178.67 158.713 179.441 158.554V158.69L179.781 158.554V157.704C179.781 155.097 180.518 153.794 181.991 153.794ZM182.195 156.242H181.889L181.753 157.5V158.554H181.889C183.158 158.509 183.793 158.373 183.793 158.146C183.204 157.262 182.671 156.627 182.195 156.242ZM193.668 145.362C194.302 145.498 194.62 145.815 194.62 146.314L194.416 147.81V148.252C194.416 149.249 194.529 150.303 194.756 151.414H194.824C197.453 150.621 199.085 150.224 199.72 150.224C200.377 150.405 200.706 150.734 200.706 151.21C200.706 151.981 199.924 152.366 198.36 152.366L194.824 153.624C194.824 156.684 195.152 160.843 195.81 166.102C195.674 166.714 195.345 167.02 194.824 167.02H194.756C193.962 167.02 193.566 166 193.566 163.96C193.271 162.441 193.022 159.143 192.818 154.066H192.206C190.075 153.93 189.01 153.431 189.01 152.57C189.01 152.321 189.248 152.015 189.724 151.652H190.064L191.628 152.06H192.716L192.41 147.81C192.41 146.178 192.829 145.362 193.668 145.362ZM208.576 152.23C209.188 152.23 209.607 153.261 209.834 155.324C209.607 155.891 209.233 156.174 208.712 156.174C208.349 156.106 207.986 155.687 207.624 154.916L207.012 154.712C205.946 154.712 204.983 155.415 204.122 156.82V157.126C204.122 157.466 205.72 158.033 208.916 158.826C210.253 159.619 210.922 160.583 210.922 161.716C210.922 163.575 209.426 165.161 206.434 166.476L205.176 166.68C203.272 166.476 202.32 165.524 202.32 163.824V163.722C202.32 163.178 202.671 162.861 203.374 162.77C203.918 162.77 204.28 163.337 204.462 164.47L204.734 164.674H205.312C206.604 164.674 207.805 163.79 208.916 162.022V161.58C208.916 160.9 207.431 160.265 204.462 159.676C202.898 159.041 202.116 158.157 202.116 157.024C202.116 155.551 203.351 154.168 205.822 152.876C206.91 152.74 207.828 152.525 208.576 152.23Z" fill="black"/>
<path d="M116.903 128.674C116.135 129.634 115.915 131.404 115.362 132.526C114.467 134.343 113.617 136.204 112.537 137.919C111.658 139.316 110.969 141.385 110.483 142.969C110.054 144.369 109.456 145.817 109.456 147.292C109.456 149.404 108.589 152.821 110.626 154.126C112.576 155.375 113.946 156.152 116.247 156.152C120.751 156.152 125.424 156.408 130 156.408" stroke="#5B6670" stroke-width="3" stroke-linecap="round"/>
<path d="M154.165 0.774958L154.413 0.80423C160.326 1.50134 165.219 5.72953 166.766 11.4794L167.93 15.8086C169.217 20.5928 167.941 25.7023 164.556 29.3196L161.842 32.2203C158.357 35.9443 158.259 41.7023 161.614 45.5432C165.036 49.4595 164.857 55.3519 161.205 59.0544L128.529 92.1825C125.333 95.4226 123.123 99.504 122.157 103.951L120.251 112.719C119.186 117.619 116.615 122.063 112.897 125.428L100.756 136.418C98.4735 138.484 95.1637 138.953 92.3972 137.603L90.1066 136.485C88.0617 135.487 85.594 136.14 84.3107 138.019C83.5254 139.169 83.3055 140.614 83.7131 141.946L84.523 144.591C85.7472 148.591 84.4417 152.933 81.2153 155.595L76.9902 159.079C69.5189 165.242 58.5628 164.614 51.8448 157.638L11.6148 115.863C5.10745 109.105 5.03911 98.4333 11.4594 91.5933L20.9297 81.5038C21.9781 80.3869 23.7146 80.2786 24.8937 81.2566C26.0945 82.2526 27.8681 82.1196 28.9069 80.9556L31.8516 77.656C33.4443 75.8712 34.088 73.4327 33.5834 71.0944L33.0933 68.8229C32.2155 64.7543 33.499 60.5207 36.4885 57.6246L43.1685 51.1532C46.9929 47.4482 51.9399 45.1187 57.2321 44.5307L69.363 43.1829C74.4989 42.6123 79.314 40.401 83.0936 36.877L114.249 7.82897C117.801 4.51734 123.305 4.50151 126.875 7.79265C130.483 11.1179 136.056 11.0627 139.597 7.6665L142.814 4.58164C145.838 1.68061 150.002 0.284265 154.165 0.774958Z" fill="white"/>
<path d="M33.9894 95.5928L46.5099 82.8991L57.2311 93.7685L44.7105 106.462L33.9894 95.5928Z" fill="#BFBEDE" stroke="black" stroke-width="1.5"/>
<path d="M63.412 125.422L75.9325 112.728L86.6537 123.598L74.1331 136.291L63.412 125.422Z" fill="#BFBEDE" stroke="black" stroke-width="1.5"/>
<path d="M45.2124 106.971L57.733 94.2773L75.0835 111.868L62.5629 124.561L45.2124 106.971Z" fill="#BFBEDE" stroke="black" stroke-width="1.5"/>
<mask id="path-7-inside-1_308_47" fill="white">
<path d="M15.844 106.269C13.5572 103.953 13.5572 100.196 15.844 97.8795L25.4839 88.1127C26.0555 87.5335 26.9824 87.5335 27.5541 88.1127L81.7248 142.996C82.2964 143.576 82.2964 144.515 81.7248 145.094L72.0849 154.861C69.7981 157.177 66.0906 157.177 63.8039 154.861L15.844 106.269Z"/>
</mask>
<path d="M15.844 106.269C13.5572 103.953 13.5572 100.196 15.844 97.8795L25.4839 88.1127C26.0555 87.5335 26.9824 87.5335 27.5541 88.1127L81.7248 142.996C82.2964 143.576 82.2964 144.515 81.7248 145.094L72.0849 154.861C69.7981 157.177 66.0906 157.177 63.8039 154.861L15.844 106.269Z" fill="#AF9CCA" stroke="black" stroke-width="4" mask="url(#path-7-inside-1_308_47)"/>
<path d="M144.917 12.5462L130.716 26.165C129.653 27.1847 129.624 28.8754 130.653 29.9304L139.36 38.8657C140.387 39.9196 142.075 39.936 143.123 38.9022L157.723 24.4893C158.228 23.9909 158.512 23.3111 158.512 22.6017V13.9174C158.512 12.3905 157.226 11.1789 155.702 11.2698L146.595 11.8129C145.966 11.8504 145.371 12.1103 144.917 12.5462Z" fill="#9A81BB" stroke="black" stroke-width="2"/>
<path d="M91.9282 128.585L41.7502 78.1431C40.73 77.1176 40.7196 75.4639 41.7268 74.4257L57.2838 58.3886C57.7206 57.9382 58.3133 57.6568 58.9375 57.5932C75.519 55.9043 77.8288 54.1831 85.7145 47.6968L116.425 17.2853C117.471 16.2501 119.159 16.2636 120.188 17.3154L152.302 50.1495C153.31 51.1796 153.311 52.8254 152.304 53.8566L126.057 80.7549C111.388 93.1234 112.018 103.612 111.964 112.085C111.96 112.798 111.66 113.474 111.143 113.964L95.6316 128.641C94.5863 129.63 92.943 129.605 91.9282 128.585Z" fill="#FFF9E3" stroke="black" stroke-width="2"/>
</svg>
