<svg width="100" height="100" viewBox="0 0 100 100" fill="none" xmlns="http://www.w3.org/2000/svg">
<rect x="2" y="2" width="96" height="96" rx="21.8889" fill="#FDFDFD" stroke="black" stroke-width="4"/>
<path d="M31.0054 40.5779H22.3844C21.0675 40.5779 20 41.6454 20 42.9623V59.299C20 60.6159 21.0675 61.6834 22.3844 61.6834H31.0844C31.6464 61.6834 32.1903 61.8819 32.6202 62.2439L49.7876 76.6991C51.3384 78.0049 53.7079 76.9025 53.7079 74.8752V25.5378C53.7079 23.4453 51.205 22.3676 49.6848 23.8056L32.644 39.9257C32.2013 40.3445 31.6149 40.5779 31.0054 40.5779Z" fill="black" stroke="black" stroke-width="3.48492"/>
<path d="M62.4719 38.4L80 60.6609" stroke="black" stroke-width="7" stroke-linecap="round"/>
<path d="M80 38.4L62.4719 60.6609" stroke="black" stroke-width="7" stroke-linecap="round"/>
</svg>
