<svg width="158" height="141" viewBox="0 0 158 141" fill="none" xmlns="http://www.w3.org/2000/svg">
<path d="M116.445 120.542C52.6129 149.308 20.8455 109.607 10.5835 81.933C9.02149 77.7206 9.57806 73.0893 11.6026 69.0786C12.7053 66.8942 14.2357 64.9539 16.1031 63.3727L19.1989 60.7513C20.2037 59.9005 21.1176 58.9479 21.926 57.9087L21.9925 57.8232C24.9204 54.0594 29.1702 51.5501 33.88 50.8041L35.044 50.6198C38.4255 50.0842 41.5311 48.434 43.8675 45.9314C46.2038 43.4288 49.3095 41.7786 52.691 41.2431L53.8846 41.054C56.8794 40.5797 59.7157 39.3907 62.1535 37.5878L62.9248 37.0174C64.9403 35.5268 67.2853 34.5438 69.7612 34.1516C73.1004 33.6227 76.1773 32.0236 78.529 29.5948L82.8521 25.13C84.7514 23.1685 87.2364 21.8769 89.9331 21.4498C93.7979 20.8377 97.1589 18.4648 99.0293 15.0278L101.342 10.7772C102.133 9.32556 103.552 8.3233 105.184 8.06476L105.368 8.0357C106.244 7.89693 107.063 7.51209 107.729 6.92599C109.409 5.44706 111.901 5.3645 113.676 6.72899L121.552 12.7854C164.797 48.9354 146.48 96.4771 121.948 117.145C120.304 118.53 118.405 119.659 116.445 120.542Z" fill="white"/>
<mask id="path-2-inside-1_180_236" fill="white">
<path fill-rule="evenodd" clip-rule="evenodd" d="M106.361 19.1195C108.013 18.8578 109.56 18.3386 110.967 17.6096C112.29 16.924 113.927 16.8994 115.058 17.8703C130.697 31.2991 139.227 52.5007 135.659 74.2627C130.339 106.715 100.13 128.124 68.1866 122.082C44.0304 117.513 25.7994 98.5535 20.6468 75.5472C20.2865 73.9386 21.2851 72.3865 22.7368 71.6057C25.6119 70.0592 27.8838 67.6292 29.2466 64.7344C30.0403 63.0486 31.8464 61.9265 33.7067 62.0316C34.9175 62.1 36.1479 62.0414 37.3851 61.8455C43.0542 60.9476 47.695 57.3511 50.4421 52.3907C51.3359 50.7767 53.2469 49.9074 55.0415 50.3351C57.9727 51.0337 61.0613 51.182 64.1874 50.6869C72.3967 49.3867 78.9887 43.946 82.4197 36.6431C83.1345 35.1217 84.775 34.2239 86.4532 34.319C87.6651 34.3877 88.8966 34.3292 90.1351 34.1331C97.3668 32.9877 102.925 27.4509 105.014 20.2935C105.194 19.6752 105.725 19.2202 106.361 19.1195Z"/>
</mask>
<path fill-rule="evenodd" clip-rule="evenodd" d="M106.361 19.1195C108.013 18.8578 109.56 18.3386 110.967 17.6096C112.29 16.924 113.927 16.8994 115.058 17.8703C130.697 31.2991 139.227 52.5007 135.659 74.2627C130.339 106.715 100.13 128.124 68.1866 122.082C44.0304 117.513 25.7994 98.5535 20.6468 75.5472C20.2865 73.9386 21.2851 72.3865 22.7368 71.6057C25.6119 70.0592 27.8838 67.6292 29.2466 64.7344C30.0403 63.0486 31.8464 61.9265 33.7067 62.0316C34.9175 62.1 36.1479 62.0414 37.3851 61.8455C43.0542 60.9476 47.695 57.3511 50.4421 52.3907C51.3359 50.7767 53.2469 49.9074 55.0415 50.3351C57.9727 51.0337 61.0613 51.182 64.1874 50.6869C72.3967 49.3867 78.9887 43.946 82.4197 36.6431C83.1345 35.1217 84.775 34.2239 86.4532 34.319C87.6651 34.3877 88.8966 34.3292 90.1351 34.1331C97.3668 32.9877 102.925 27.4509 105.014 20.2935C105.194 19.6752 105.725 19.2202 106.361 19.1195Z" fill="#FFAFDE"/>
<path d="M135.659 74.2627L133.192 73.8582L135.659 74.2627ZM68.1866 122.082L67.722 124.538L68.1866 122.082ZM82.4197 36.6431L84.6824 37.7061L82.4197 36.6431ZM22.7368 71.6057L21.5526 69.4039L22.7368 71.6057ZM33.7067 62.0316L33.5657 64.5276L33.7067 62.0316ZM105.014 20.2935L107.414 20.9938L105.014 20.2935ZM110.967 17.6096L112.117 19.8293L110.967 17.6096ZM115.058 17.8703L113.429 19.767L115.058 17.8703ZM109.817 15.3899C108.645 15.9971 107.354 16.4311 105.97 16.6503L106.752 21.5887C108.672 21.2846 110.475 20.6802 112.117 19.8293L109.817 15.3899ZM138.126 74.6671C141.841 52.0079 132.959 29.9462 116.686 15.9736L113.429 19.767C128.435 32.6521 136.613 52.9935 133.192 73.8582L138.126 74.6671ZM67.722 124.538C101.073 130.847 132.583 108.478 138.126 74.6671L133.192 73.8582C128.095 104.952 99.1873 125.402 68.6513 119.626L67.722 124.538ZM18.2072 76.0936C23.565 100.016 42.5287 119.773 67.722 124.538L68.6513 119.626C45.5321 115.252 28.0337 97.0907 23.0863 75.0008L18.2072 76.0936ZM26.9847 63.6695C25.8471 66.086 23.9498 68.1145 21.5526 69.4039L23.9211 73.8074C27.274 72.0039 29.9205 69.1723 31.5085 65.7993L26.9847 63.6695ZM36.9941 59.3762C35.9344 59.5441 34.8824 59.594 33.8477 59.5356L33.5657 64.5276C34.9525 64.606 36.3614 64.5388 37.7762 64.3147L36.9941 59.3762ZM48.2551 51.1795C45.8361 55.5474 41.8157 58.6126 36.9941 59.3762L37.7762 64.3147C44.2928 63.2826 49.5539 59.1547 52.6291 53.6018L48.2551 51.1795ZM63.7963 48.2177C61.0011 48.6604 58.2423 48.5279 55.6211 47.9032L54.462 52.767C57.7031 53.5394 61.1214 53.7037 64.5785 53.1561L63.7963 48.2177ZM80.157 35.58C77.0437 42.2066 71.1101 47.0593 63.7963 48.2177L64.5785 53.1561C73.6833 51.7141 80.9337 45.6854 84.6824 37.7061L80.157 35.58ZM89.744 31.6638C88.6833 31.8318 87.6303 31.8817 86.5947 31.823L86.3118 36.815C87.6998 36.8937 89.11 36.8266 90.5262 36.6023L89.744 31.6638ZM102.614 19.5931C100.754 25.9654 95.881 30.6918 89.744 31.6638L90.5262 36.6023C98.8525 35.2835 105.096 28.9365 107.414 20.9938L102.614 19.5931ZM52.6291 53.6018C52.9928 52.9451 53.7861 52.606 54.462 52.767L55.6211 47.9032C52.7077 47.2089 49.6789 48.6084 48.2551 51.1795L52.6291 53.6018ZM84.6824 37.7061C84.9279 37.1837 85.5664 36.7728 86.3118 36.815L86.5947 31.823C83.9837 31.675 81.3411 33.0596 80.157 35.58L84.6824 37.7061ZM23.0863 75.0008C23.0588 74.878 23.0658 74.7149 23.1915 74.4912C23.3268 74.2506 23.5783 73.9917 23.9211 73.8074L21.5526 69.4039C19.4385 70.541 17.5298 73.0688 18.2072 76.0936L23.0863 75.0008ZM31.5085 65.7993C31.8866 64.996 32.7664 64.4825 33.5657 64.5276L33.8477 59.5356C30.9264 59.3706 28.1939 61.1011 26.9847 63.6695L31.5085 65.7993ZM107.414 20.9938C107.315 21.3317 107.043 21.5427 106.752 21.5887L105.97 16.6503C104.407 16.8978 103.073 18.0187 102.614 19.5931L107.414 20.9938ZM112.117 19.8293C112.428 19.6683 112.739 19.6066 112.981 19.6166C113.209 19.626 113.343 19.693 113.429 19.767L116.686 15.9736C114.567 14.1541 111.765 14.3804 109.817 15.3899L112.117 19.8293Z" fill="black" mask="url(#path-2-inside-1_180_236)"/>
</svg>
