<svg width="180" height="192" viewBox="0 0 180 192" fill="none" xmlns="http://www.w3.org/2000/svg">
<path d="M40.2697 36.8991L38.4098 25.1817C37.0412 16.5594 42.4204 8.30048 50.8599 6.06649C52.2807 5.69041 53.7441 5.5 55.2138 5.5H56L108.619 0.466869C111.236 0.216547 113.5 2.27424 113.5 4.90319C113.5 5.29929 113.553 5.69363 113.657 6.07579L117.284 19.3732C118.662 24.4269 117.333 29.8342 113.768 33.6728C109.41 38.3666 108.473 45.2937 111.428 50.9767L116.904 61.5073C118.621 64.8104 119.749 68.388 120.237 72.0789L128.815 137.027C129.551 142.601 127.335 148.157 122.965 151.695C120.697 153.531 117.975 154.718 115.087 155.13L66.3643 162.091C59.3107 163.098 53 157.625 53 150.5L45.0644 90.7498C44.6898 87.9292 44.6931 85.0712 45.0741 82.2515L48.5607 56.451C49.1502 52.0885 47.5979 47.7098 44.3923 44.6928C42.1931 42.623 40.7431 39.8818 40.2697 36.8991Z" fill="white"/>
<path d="M60.5763 46.2205L59.2372 36.6924L95.8555 31.546L97.1946 41.0741C106.638 53.9974 109.668 61.9923 110.003 64.3743L117.705 124.828C119.602 138.326 119.006 141.649 116.153 142.05L68.627 148.729C64.468 149.314 63.9483 138.051 63.1671 132.493L54.6863 72.1486C54.2399 68.9726 57.9448 53.8775 60.5763 46.2205Z" fill="#EAD9D1" stroke="black" stroke-width="2"/>
<path d="M49.385 33.2187L47.488 19.7206L102.026 12.0558L103.923 25.5539C104.548 30.0003 102.107 31.4769 100.808 31.6594L55.6199 38.0102C51.2569 38.6234 49.6454 35.0713 49.385 33.2187Z" fill="#384A59"/>
<path d="M47.488 19.7206L49.385 33.2187C49.6454 35.0713 51.2569 38.6234 55.6199 38.0102L100.808 31.6594C102.107 31.4769 104.548 30.0003 103.923 25.5539L102.026 12.0558L47.0579 19.781" stroke="black" stroke-width="2"/>
<path d="M101.05 12.0293C101.051 12.0292 101.05 12.0319 101.046 12.0374C101.049 12.032 101.05 12.0293 101.05 12.0293ZM99.4751 11.7935C100.151 11.9248 100.611 12.0743 100.888 12.2159C100.661 12.4283 100.26 12.6988 99.6463 13.0114C98.4152 13.6385 96.5479 14.3263 94.1532 15.0258C89.3785 16.4205 82.6735 17.8144 75.1758 18.8681C67.6781 19.9219 60.8485 20.4301 55.8744 20.4055C53.3797 20.3932 51.3951 20.2467 50.0389 19.9833C49.3628 19.8519 48.9028 19.7024 48.6258 19.5609C48.853 19.3484 49.254 19.0779 49.8677 18.7653C51.0987 18.1383 52.9661 17.4504 55.3608 16.7509C60.1355 15.3562 66.8405 13.9623 74.3382 12.9086C81.8359 11.8549 88.6654 11.3466 93.6396 11.3712C96.1343 11.3835 98.1189 11.53 99.4751 11.7935ZM48.4185 19.4262C48.4187 19.4261 48.421 19.4283 48.4245 19.4329C48.42 19.4285 48.4182 19.4262 48.4185 19.4262ZM48.4636 19.7475C48.4634 19.7475 48.4644 19.7448 48.4676 19.7393C48.4654 19.7447 48.4639 19.7474 48.4636 19.7475ZM101.089 12.3438C101.094 12.3482 101.096 12.3505 101.096 12.3505C101.095 12.3506 101.093 12.3484 101.089 12.3438Z" fill="#2C3E49" stroke="black" stroke-width="2"/>
<path d="M110.338 66.7563C95.5396 72.0749 67.3832 74.1427 54.7578 74.5676L63.2386 134.912C89.1824 135.152 110.043 129.953 118.025 127.212L110.338 66.7563Z" fill="#6AB872" stroke="black" stroke-width="1.5"/>
<path d="M66.9219 106.028L65.6639 97.0764L67.5372 96.8131L68.7952 105.764L66.9219 106.028ZM70.7864 105.484L69.8266 98.6547L71.6379 98.4002L71.7861 99.4547L71.8978 99.439C72.1042 98.6573 72.715 98.097 73.6889 97.9601C75.2086 97.7465 76.1582 98.5619 76.3875 100.193L77.0082 104.61L75.1969 104.865L74.6337 100.857C74.4986 99.8958 74.0301 99.443 73.1741 99.5633C72.3366 99.681 71.9125 100.354 72.0424 101.278L72.5978 105.23L70.7864 105.484ZM81.5008 104.124C79.646 104.385 78.4746 103.702 78.1796 102.548L78.1699 102.524L79.9502 102.274L79.9661 102.297C80.1681 102.698 80.6264 102.944 81.3398 102.844C82.0345 102.746 82.4641 102.382 82.4005 101.929L82.3987 101.917C82.3473 101.551 82.0421 101.36 81.3256 101.302L80.1502 101.221C78.8083 101.125 78.0734 100.576 77.9295 99.5528L77.9286 99.5466C77.7482 98.2626 78.7692 97.2461 80.4751 97.0064C82.2678 96.7544 83.3859 97.5082 83.6146 98.5957L83.6181 98.6205L81.9371 98.8568L81.9265 98.8266C81.7758 98.4746 81.3246 98.1901 80.6485 98.2851C80.022 98.3732 79.6163 98.7275 79.6808 99.1865L79.6817 99.1927C79.7332 99.5587 80.0171 99.7339 80.7461 99.7896L81.9153 99.8719C83.3209 99.9717 84.0401 100.453 84.1822 101.464L84.183 101.47C84.3731 102.822 83.25 103.878 81.5008 104.124ZM88.2374 103.177C86.7052 103.393 85.7866 102.573 85.5582 100.948L84.9375 96.531L86.7488 96.2765L87.3111 100.278C87.4471 101.245 87.8837 101.696 88.7398 101.576C89.633 101.45 90.0323 100.781 89.9024 99.8564L89.348 95.9112L91.1593 95.6566L92.1191 102.486L90.3078 102.741L90.1596 101.686L90.0479 101.702C89.8424 102.49 89.2113 103.04 88.2374 103.177ZM93.9987 102.222L92.6718 92.7809L94.4831 92.5264L95.81 101.968L93.9987 102.222ZM97.5005 93.6964C96.9422 93.7749 96.4142 93.3936 96.3357 92.8353C96.2564 92.2708 96.6588 91.7588 97.2171 91.6804C97.7754 91.6019 98.2972 91.984 98.3765 92.5485C98.455 93.1068 98.0587 93.6179 97.5005 93.6964ZM97.6958 101.703L96.7359 94.8729L98.5473 94.6183L99.5071 101.448L97.6958 101.703ZM101.331 101.192L100.371 94.362L102.182 94.1074L102.331 95.162L102.442 95.1463C102.649 94.3645 103.259 93.8043 104.233 93.6674C105.753 93.4538 106.703 94.2692 106.932 95.9006L107.553 100.317L105.741 100.572L105.178 96.5646C105.043 95.6031 104.574 95.1502 103.718 95.2706C102.881 95.3882 102.457 96.0614 102.587 96.9857L103.142 100.937L101.331 101.192Z" fill="white"/>
<path d="M113.354 163.56L118 152.26L122.646 163.56C123.03 164.494 123.802 165.214 124.76 165.534L136.67 169.5L124.76 173.466C123.802 173.786 123.03 174.506 122.646 175.44L118 186.74L113.354 175.44C112.97 174.506 112.198 173.786 111.24 173.466L99.3297 169.5L111.24 165.534C112.198 165.214 112.97 164.494 113.354 163.56Z" fill="white" stroke="black" stroke-width="4"/>
<path d="M150.354 41.5599L155 30.2595L159.646 41.5599C160.03 42.4939 160.802 43.2144 161.76 43.5335L173.67 47.5L161.76 51.4665C160.802 51.7856 160.03 52.5061 159.646 53.4401L155 64.7405L150.354 53.4401C149.97 52.5061 149.198 51.7856 148.24 51.4665L136.33 47.5L148.24 43.5335C149.198 43.2144 149.97 42.4939 150.354 41.5599Z" fill="white" stroke="black" stroke-width="4"/>
<path d="M20.3539 70.5599L25 59.2595L29.6461 70.5599C30.0301 71.4939 30.8019 72.2144 31.7601 72.5335L43.6703 76.5L31.7601 80.4665C30.8019 80.7856 30.0301 81.5061 29.6461 82.4401L25 93.7405L20.3539 82.4401C19.9699 81.5061 19.1981 80.7856 18.2399 80.4665L6.32974 76.5L18.2399 72.5335C19.1981 72.2144 19.9699 71.4939 20.3539 70.5599Z" fill="white" stroke="black" stroke-width="4"/>
</svg>
