<svg width="228" height="265" viewBox="0 0 228 265" fill="none" xmlns="http://www.w3.org/2000/svg">
<path d="M61.4961 47.4978L59.102 32.4147C57.3402 21.3159 64.2646 10.6847 75.1282 7.80899C76.957 7.3249 78.8408 7.07979 80.7326 7.07979H81.7447L149.478 0.60097C152.846 0.278747 155.761 2.92748 155.761 6.31155C155.761 6.82143 155.829 7.32904 155.963 7.82096L160.631 24.9378C162.405 31.4432 160.694 38.4036 156.106 43.3448C150.495 49.3868 149.289 58.3036 153.093 65.6189L160.142 79.1743C162.353 83.4262 163.805 88.0313 164.433 92.7825L175.474 176.385C176.422 183.561 173.57 190.713 167.944 195.267C165.025 197.63 161.521 199.158 157.803 199.689L95.086 208.649C86.0064 209.946 77.883 202.901 77.883 193.729L67.668 116.816C67.1858 113.185 67.19 109.507 67.6805 105.877L72.1685 72.6656C72.9274 67.0501 70.9292 61.4137 66.8029 57.53C63.972 54.8657 62.1055 51.3372 61.4961 47.4978Z" fill="white"/>
<path d="M90.2099 59.4968L88.4861 47.2319L135.622 40.6074L137.346 52.8722C149.502 69.5076 153.403 79.7988 153.834 82.865L163.748 160.683C166.19 178.059 165.422 182.335 161.75 182.852L100.573 191.449C95.2193 192.202 94.5504 177.704 93.5448 170.55L82.628 92.8724C82.0534 88.7841 86.8224 69.3532 90.2099 59.4968Z" fill="#EAD9D1" stroke="black" stroke-width="1.28723"/>
<path d="M75.8041 42.7603L73.3622 25.3851L143.565 15.5187L146.007 32.8939C146.812 38.6175 143.67 40.5182 141.998 40.7531L83.8299 48.9282C78.2137 49.7175 76.1393 45.1451 75.8041 42.7603Z" fill="#384A59"/>
<path d="M73.3622 25.3851L75.8041 42.7603C76.1393 45.1451 78.2137 49.7175 83.8299 48.9282L141.998 40.7532C143.67 40.5182 146.812 38.6175 146.007 32.8939L143.565 15.5187L72.8087 25.4629" stroke="black" stroke-width="1.28723"/>
<path d="M142.928 15.6089C142.933 15.6451 142.929 15.8276 142.554 16.1821C142.199 16.5188 141.617 16.9037 140.794 17.3227C139.157 18.1568 136.709 19.0554 133.612 19.96C127.428 21.7664 118.765 23.5662 109.093 24.9256C99.4203 26.2849 90.5969 26.9427 84.1544 26.9108C80.9282 26.8948 78.3271 26.7059 76.5231 26.3554C75.6169 26.1794 74.9515 25.9698 74.5168 25.7442C74.0591 25.5066 74.0048 25.3324 73.9997 25.2962C73.9946 25.26 73.9988 25.0775 74.3732 24.723C74.7289 24.3863 75.3108 24.0014 76.1334 23.5824C77.7709 22.7483 80.2192 21.8497 83.316 20.9451C89.5001 19.1387 98.1631 17.3389 107.835 15.9796C117.507 14.6202 126.331 13.9624 132.773 13.9943C136 14.0103 138.601 14.1992 140.405 14.5497C141.311 14.7257 141.976 14.9353 142.411 15.1609C142.869 15.3985 142.923 15.5727 142.928 15.6089Z" fill="#2C3E49" stroke="black" stroke-width="1.28723"/>
<path d="M154.265 85.9313C135.216 92.7776 98.9719 95.4394 82.72 95.9863L93.6369 173.664C127.033 173.973 153.886 167.281 164.16 163.752L154.265 85.9313Z" fill="#6AB872" stroke="black" stroke-width="1.28723"/>
<path d="M98.4551 137.031L96.8357 125.509L99.2472 125.17L100.867 136.692L98.4551 137.031ZM103.43 136.332L102.194 127.54L104.526 127.213L104.717 128.57L104.86 128.55C105.126 127.543 105.912 126.822 107.166 126.646C109.122 126.371 110.344 127.421 110.64 129.521L111.439 135.206L109.107 135.534L108.382 130.375C108.208 129.138 107.605 128.555 106.503 128.71C105.425 128.861 104.879 129.728 105.046 130.918L105.761 136.004L103.43 136.332ZM117.222 134.581C114.834 134.916 113.326 134.037 112.946 132.551L112.934 132.521L115.226 132.198L115.246 132.228C115.506 132.745 116.096 133.061 117.014 132.932C117.909 132.807 118.462 132.338 118.38 131.755L118.377 131.739C118.311 131.268 117.918 131.022 116.996 130.948L115.483 130.843C113.756 130.72 112.81 130.014 112.624 128.696L112.623 128.688C112.391 127.035 113.705 125.727 115.901 125.418C118.209 125.094 119.648 126.064 119.943 127.464L119.947 127.496L117.783 127.8L117.77 127.761C117.576 127.308 116.995 126.942 116.124 127.064C115.318 127.178 114.796 127.634 114.879 128.225L114.88 128.233C114.946 128.704 115.312 128.929 116.25 129.001L117.755 129.107C119.565 129.235 120.49 129.854 120.673 131.156L120.674 131.164C120.919 132.905 119.473 134.264 117.222 134.581ZM125.893 133.362C123.921 133.639 122.738 132.584 122.444 130.492L121.645 124.807L123.977 124.479L124.701 129.629C124.876 130.875 125.438 131.455 126.54 131.3C127.69 131.139 128.204 130.277 128.036 129.087L127.323 124.009L129.654 123.681L130.89 132.472L128.558 132.8L128.367 131.443L128.224 131.463C127.959 132.477 127.147 133.186 125.893 133.362ZM133.309 132.132L131.601 119.979L133.933 119.652L135.641 131.805L133.309 132.132ZM137.817 121.158C137.098 121.259 136.419 120.768 136.318 120.049C136.215 119.323 136.734 118.664 137.452 118.563C138.171 118.462 138.843 118.953 138.945 119.68C139.046 120.399 138.536 121.057 137.817 121.158ZM138.068 131.463L136.833 122.672L139.164 122.344L140.4 131.136L138.068 131.463ZM142.747 130.806L141.512 122.014L143.844 121.687L144.034 123.044L144.178 123.024C144.444 122.018 145.23 121.297 146.484 121.12C148.44 120.845 149.662 121.895 149.957 123.995L150.756 129.68L148.425 130.008L147.7 124.85C147.526 123.612 146.923 123.029 145.821 123.184C144.743 123.335 144.197 124.202 144.364 125.392L145.079 130.478L142.747 130.806Z" fill="white"/>
<path d="M194.518 43.0895L199.962 29.409L205.407 43.0895C205.781 44.0294 206.546 44.7595 207.503 45.0886L221.777 50L207.503 54.9114C206.546 55.2405 205.781 55.9706 205.407 56.9105L199.962 70.591L194.518 56.9105C194.144 55.9706 193.378 55.2405 192.422 54.9114L178.147 50L192.422 45.0886C193.378 44.7595 194.144 44.0294 194.518 43.0895Z" fill="white" stroke="black" stroke-width="4"/>
<path d="M165.518 232.089L170.962 218.409L176.407 232.089C176.781 233.029 177.546 233.759 178.503 234.089L192.777 239L178.503 243.911C177.546 244.241 176.781 244.971 176.407 245.911L170.962 259.591L165.518 245.911C165.144 244.971 164.378 244.241 163.422 243.911L149.147 239L163.422 234.089C164.378 233.759 165.144 233.029 165.518 232.089Z" fill="white" stroke="black" stroke-width="4"/>
<path d="M22.518 124.089L27.9623 110.409L33.4066 124.089C33.7806 125.029 34.5461 125.759 35.5027 126.089L49.7772 131L35.5027 135.911C34.5461 136.241 33.7806 136.971 33.4066 137.911L27.9623 151.591L22.518 137.911C22.1439 136.971 21.3784 136.241 20.4218 135.911L6.14728 131L20.4218 126.089C21.3784 125.759 22.1439 125.029 22.518 124.089Z" fill="white" stroke="black" stroke-width="4"/>
</svg>
