<svg width="213" height="360" viewBox="0 0 213 360" fill="none" xmlns="http://www.w3.org/2000/svg">
<path d="M2.95279 165.335L35.5721 25.4256C39.0438 10.5352 52.3177 0 67.6075 0C69.8632 0 72.1129 0.232013 74.3211 0.692377L196.498 26.164C205.82 28.1074 212.5 36.3235 212.5 45.8456C212.5 46.9467 212.41 48.0459 212.23 49.1321L189.111 188.653C185.912 207.959 173.4 224.447 155.666 232.723C144.81 237.789 132.675 239.45 120.857 237.488L42.4274 224.468C24.1061 221.427 9.10691 208.235 3.75062 190.452C1.29321 182.293 1.01812 173.633 2.95279 165.335Z" fill="white"/>
<rect x="52.3912" y="6.59303" width="151.246" height="196.228" rx="20.2608" transform="rotate(12 52.3912 6.59303)" fill="#A2A2A2" stroke="black"/>
<rect x="69.6271" y="32.4922" width="108.242" height="62.2711" rx="9.88041" transform="rotate(12 69.6271 32.4922)" fill="#A9C869" stroke="black"/>
<circle cx="66.1544" cy="127.259" r="13.3406" transform="rotate(12 66.1544 127.259)" fill="#F4F4F4" stroke="black"/>
<circle cx="102.417" cy="134.967" r="13.3406" transform="rotate(12 102.417 134.967)" fill="#F4F4F4" stroke="black"/>
<circle cx="139.647" cy="142.881" r="13.3406" transform="rotate(12 139.647 142.881)" fill="#F4F4F4" stroke="black"/>
<path d="M47.4578 174.83C48.5356 169.76 53.5198 166.523 58.5903 167.601L129.182 182.606C134.252 183.683 137.489 188.668 136.411 193.738L130.041 223.71L41.0871 204.802L47.4578 174.83Z" fill="#FDD546" stroke="black"/>
<path d="M68.725 196.028C69.2352 193.627 71.5945 192.095 73.9948 192.605L104.455 199.08C106.856 199.59 108.388 201.95 107.878 204.35L104.898 218.366L65.7458 210.044L68.725 196.028Z" fill="#4C4C4C" stroke="black"/>
<path d="M90.2151 84.9769L87.5199 81.0344L89.1566 73.3344L93.1891 70.9854L90.2151 84.9769ZM96.302 55.8785L93.328 69.87L90.5929 66.1153L92.2362 58.384L96.302 55.8785ZM115.25 90.2981L112.554 86.3556L114.191 78.6556L118.224 76.3067L115.25 90.2981ZM105.683 74.8188C105.077 74.0793 104.458 73.348 103.826 72.6249L106.401 71.4383L114.946 73.2547L116.785 75.3793L114.228 76.6351L105.683 74.8188ZM102.43 71.8047L105.404 57.8133L108.139 61.568L106.49 69.3306L102.43 71.8047ZM121.336 61.1998L118.362 75.1912L115.627 71.4365L117.271 63.7052L121.336 61.1998ZM124.998 93.8097L128.941 91.1145L136.672 92.7578L138.99 96.7837L124.998 93.8097ZM127.326 78.2415L130.014 82.2153L128.384 89.884L124.352 92.2329L127.326 78.2415ZM130.717 80.1401C130.111 79.4005 129.492 78.6692 128.861 77.9461L131.436 76.7596L139.981 78.5759L141.819 80.7006L139.262 81.9564L130.717 80.1401ZM131.727 62.0015L145.718 64.9755L141.901 67.6973L134.232 66.0673L131.727 62.0015ZM146.371 66.521L143.397 80.5124L140.662 76.7577L142.305 69.0265L146.371 66.521Z" fill="#2C3E49"/>
<path d="M136.529 136.154L145.076 143.099C145.382 143.348 145.287 143.838 144.91 143.955L134.165 147.274" stroke="black" stroke-width="1.97722" stroke-linecap="round"/>
<path d="M72.4644 122.536L61.8312 125.404C61.4498 125.507 61.3372 125.994 61.6345 126.254L70.1006 133.657" stroke="black" stroke-width="1.97722" stroke-linecap="round"/>
<path fill-rule="evenodd" clip-rule="evenodd" d="M101.13 129.134C101.125 129.16 101.105 129.181 101.079 129.186C98.9058 129.691 97.1096 131.407 96.6151 133.734C95.934 136.938 97.9795 140.088 101.184 140.769C104.388 141.45 107.538 139.404 108.219 136.2C108.714 133.873 107.771 131.575 105.99 130.23C105.969 130.214 105.96 130.188 105.965 130.162L106.376 128.228C106.386 128.181 106.44 128.155 106.482 128.18C109.301 129.868 110.875 133.217 110.153 136.611C109.245 140.884 105.045 143.611 100.773 142.703C96.5003 141.795 93.7729 137.595 94.681 133.322C95.4026 129.928 98.2017 127.509 101.464 127.113C101.513 127.107 101.551 127.153 101.541 127.2L101.13 129.134Z" fill="black"/>
<path d="M103.24 131.099L104.267 126.264" stroke="black" stroke-width="1.97722" stroke-linecap="round"/>
<path d="M95.2284 218.924L73.6976 214.78C64.5719 213.023 55.7268 218.92 53.8388 228.02L34.1455 322.931C32.1649 332.477 38.6012 341.73 48.2398 343.193L70.4852 346.569C79.4523 347.93 87.9087 342.012 89.7011 333.121L108.68 238.977C110.547 229.717 104.505 220.71 95.2284 218.924Z" fill="white"/>
<rect x="69.5492" y="198.915" width="36.7732" height="134.835" transform="rotate(12 69.5492 198.915)" fill="#FDD546" stroke="#4C4C4C" stroke-width="2.04296"/>
<path d="M70.9586 231.588C70.8413 232.14 71.1936 232.683 71.7454 232.8C72.2972 232.917 72.8396 232.565 72.9569 232.013L70.9586 231.588ZM75.7877 217.256C75.4805 216.783 74.8478 216.649 74.3747 216.956L66.6646 221.963C66.1914 222.27 66.0569 222.903 66.3642 223.376C66.6715 223.849 67.3041 223.984 67.7772 223.676L74.6307 219.226L79.0814 226.079C79.3887 226.552 80.0213 226.687 80.4944 226.379C80.9676 226.072 81.102 225.44 80.7948 224.966L75.7877 217.256ZM72.9569 232.013L75.9302 218.025L73.9319 217.6L70.9586 231.588L72.9569 232.013Z" fill="#4C4C4C"/>
<path d="M88.9435 235.411C88.8262 235.963 89.1784 236.505 89.7302 236.623C90.2821 236.74 90.8245 236.388 90.9418 235.836L88.9435 235.411ZM93.7726 221.079C93.4653 220.606 92.8327 220.471 92.3596 220.779L84.6494 225.786C84.1763 226.093 84.0418 226.726 84.3491 227.199C84.6563 227.672 85.289 227.806 85.7621 227.499L92.6156 223.048L97.0663 229.902C97.3735 230.375 98.0061 230.509 98.4793 230.202C98.9524 229.895 99.0869 229.262 98.7796 228.789L93.7726 221.079ZM90.9418 235.836L93.9151 221.848L91.9168 221.423L88.9435 235.411L90.9418 235.836Z" fill="#4C4C4C"/>
<rect x="47.8866" y="300.829" width="36.7732" height="30.6444" transform="rotate(12 47.8866 300.829)" fill="#4C4C4C" stroke="#4C4C4C" stroke-width="2.04296"/>
<rect x="60.1985" y="315.175" width="6.12887" height="20.4296" transform="rotate(12 60.1985 315.175)" fill="#D52116"/>
</svg>
