<svg width="305" height="255" viewBox="0 0 305 255" fill="none" xmlns="http://www.w3.org/2000/svg">
<path d="M127.617 32.4371L118.406 11.1254C117.348 8.67847 118.049 5.82673 120.119 4.14769C122.622 2.1177 126.287 2.45131 128.382 4.89992L145.116 24.4528L161.325 39.9125C165.501 43.895 169.153 48.3929 172.192 53.2977L234.109 153.199L248.453 170.987C249.885 172.762 251.517 174.368 253.316 175.77L253.64 176.023C268.494 187.606 268.782 209.973 254.23 221.934L251.308 224.336C235.054 237.697 210.433 228.369 207.111 207.592L200.287 183.215C198.513 176.878 195.829 170.832 192.317 165.266L163.614 119.765L138.116 63.8752L127.617 32.4371Z" fill="white"/>
<path d="M140.42 37.465L157.333 52.3841L144.199 59.8711L139.305 37.9348L124.477 8.21411L125.565 8.52605L140.42 37.465Z" fill="#B3B3B3" stroke="black" stroke-width="2"/>
<rect x="-1.36178" y="-0.364916" width="12.2986" height="23.1614" transform="matrix(-0.864458 0.502669 -0.497326 -0.867585 244.067 204.368)" fill="#5B6670" stroke="black" stroke-width="2"/>
<path d="M259.615 200.488C259.748 200.71 259.823 201.25 259.276 202.338C258.756 203.373 257.792 204.647 256.413 206.08C253.664 208.934 249.428 212.248 244.352 215.32C239.275 218.391 234.381 220.602 230.588 221.706C228.684 222.26 227.114 222.518 225.962 222.495C224.752 222.471 224.314 222.15 224.181 221.928C224.049 221.706 223.973 221.166 224.521 220.078C225.041 219.043 226.005 217.769 227.384 216.336C230.132 213.482 234.369 210.168 239.445 207.096C244.521 204.025 249.416 201.814 253.209 200.71C255.112 200.156 256.682 199.898 257.834 199.921C259.045 199.946 259.483 200.266 259.615 200.488Z" fill="#4A565E" stroke="black" stroke-width="2"/>
<path d="M248.001 179.614C248.134 179.836 248.209 180.376 247.662 181.464C247.141 182.499 246.178 183.774 244.798 185.206C242.05 188.06 237.814 191.374 232.737 194.446C227.661 197.517 222.766 199.728 218.974 200.832C217.07 201.386 215.5 201.644 214.348 201.621C213.137 201.597 212.7 201.276 212.567 201.054C212.435 200.832 212.359 200.293 212.906 199.205C213.427 198.17 214.39 196.895 215.77 195.462C218.518 192.608 222.755 189.294 227.831 186.223C232.907 183.151 237.802 180.94 241.595 179.836C243.498 179.283 245.068 179.024 246.22 179.047C247.431 179.072 247.869 179.392 248.001 179.614Z" fill="#4A565E" stroke="black" stroke-width="2"/>
<path d="M160.851 55.1697L235.383 181.182L219.236 190.964L145.248 65.1077C142.152 59.4816 144.903 58.0987 146.538 57.1856L154.481 52.7507C158.177 50.8096 159.948 53.5287 160.851 55.1697Z" fill="#EBF9FF" stroke="black" stroke-width="2"/>
<rect width="6.85846" height="8.14053" transform="matrix(0.515021 0.857199 -0.857136 0.515055 187.091 100)" fill="#5B6670"/>
<rect width="6.85846" height="8.14053" transform="matrix(0.515021 0.857199 -0.857136 0.515055 195.09 113)" fill="#5B6670"/>
<rect width="6.85846" height="8.14053" transform="matrix(0.515021 0.857199 -0.857136 0.515055 202.09 126)" fill="#5B6670"/>
<rect width="6.85846" height="8.14053" transform="matrix(0.515021 0.857199 -0.857136 0.515055 210.089 139)" fill="#5B6670"/>
<rect width="6.85846" height="8.14053" transform="matrix(0.515021 0.857199 -0.857136 0.515055 217.089 151)" fill="#5B6670"/>
<rect width="6.85846" height="8.14053" transform="matrix(0.515021 0.857199 -0.857136 0.515055 224.088 163)" fill="#5B6670"/>
<rect width="6.85846" height="8.14053" transform="matrix(0.515021 0.857199 -0.857136 0.515055 179.091 87)" fill="#5B6670"/>
<path d="M139.235 83.5115C132.12 83.5115 121.459 78.6733 114.983 75.7994C106.84 72.1864 104.989 71.0194 96.1571 68.5C82.0683 64.4812 87.0392 65.6323 73.1195 61" stroke="#5B6670" stroke-width="3" stroke-linecap="round"/>
<path d="M11.8974 36.872H12.2374C12.8721 36.872 13.2347 37.246 13.3254 37.994C13.3254 38.6513 12.4301 38.98 10.6394 38.98C7.76072 40.068 5.82272 41.6547 4.82539 43.74L4.58739 44.726V44.93C4.58739 45.9273 5.25606 46.426 6.59339 46.426L10.3334 46.222C12.8494 46.222 14.5494 47.446 15.4334 49.894L15.6374 51.084C15.6374 53.4413 13.7334 55.5947 9.92539 57.544C8.79206 57.8613 7.79472 58.0767 6.93339 58.19C4.62139 58.19 2.98939 56.8867 2.03739 54.28C1.76539 53.396 1.62939 52.5007 1.62939 51.594C1.62939 51.322 1.84472 51.0387 2.27539 50.744H2.68339C3.38606 50.744 3.73739 51.6393 3.73739 53.43C4.32672 55.198 5.25606 56.082 6.52539 56.082H7.44339C9.27939 56.082 11.0927 55.0167 12.8834 52.886C13.3594 52.206 13.5974 51.4693 13.5974 50.676C13.5974 49.5653 12.7247 48.7833 10.9794 48.33H10.8434L6.38939 48.432C3.91872 48.1373 2.68339 47.1173 2.68339 45.372L2.54739 44.93C2.54739 42.5953 4.29272 40.3287 7.78339 38.13C9.30206 37.2913 10.6734 36.872 11.8974 36.872ZM18.156 46.8C18.9494 46.8 19.4934 48.5453 19.788 52.036C20.1734 53.6453 20.4567 54.45 20.638 54.45H20.842C21.4087 53.022 21.692 51.6053 21.692 50.2L21.488 47.854C21.7374 47.242 22.0887 46.936 22.542 46.936C23.3807 46.936 23.8 48.4207 23.8 51.39C24.2987 54.4727 24.548 57.34 24.548 59.992V61.59C24.548 66.4633 23.1654 69.75 20.4 71.45L19.652 71.586C18.36 71.586 17.1587 70.3847 16.048 67.982L15.742 65.942V65.84C15.742 64.344 16.1614 63.596 17 63.596L17.85 64.14L17.748 66.282C17.748 67.3247 18.2807 68.3787 19.346 69.444H19.788C21.0347 69.444 21.9527 67.064 22.542 62.304L22.61 60.332C22.5874 58.0427 22.4967 56.5807 22.338 55.946C21.4314 56.7393 20.7174 57.136 20.196 57.136C19.04 57.136 18.0087 54.042 17.102 47.854L17 47.786C17 47.2647 17.3854 46.936 18.156 46.8ZM30.5541 43.604C31.9821 43.604 32.8321 44.6013 33.1041 46.596V46.902C33.1041 49.1007 31.9708 51.118 29.7041 52.954C31.0188 54.246 33.3194 54.892 36.6061 54.892C37.1048 55.0507 37.3541 55.402 37.3541 55.946C37.3541 56.558 36.9574 56.864 36.1641 56.864C33.9428 56.864 31.6081 56.2973 29.1601 55.164V56.15C29.1601 58.4847 28.6614 59.652 27.6641 59.652C26.9614 59.652 26.6101 58.3033 26.6101 55.606V52.954L26.5081 52.002L26.7461 50.914L26.5081 47.65V47.514C26.5081 46.902 26.8254 46.4827 27.4601 46.256C28.3441 44.488 29.3754 43.604 30.5541 43.604ZM28.8541 51.05C29.5114 51.05 30.2481 49.8713 31.0641 47.514V46.052L30.6561 45.61H30.3501C29.3528 46.29 28.8541 48.1033 28.8541 51.05ZM38.8921 39.286C39.7534 39.4673 40.1841 39.8527 40.1841 40.442C39.9574 41.0767 39.5947 41.394 39.0961 41.394C38.2574 41.2353 37.8381 40.816 37.8381 40.136C38.0647 39.5693 38.4161 39.286 38.8921 39.286ZM40.1841 44.046C40.5467 44.046 40.8527 44.3747 41.1021 45.032L40.7961 47.446V49.044C40.7961 50.9027 41.1134 53.3393 41.7481 56.354C41.5214 56.7847 41.1361 57 40.5921 57C39.6627 57 39.0507 54.28 38.7561 48.84V47.65C38.7561 45.2473 39.2321 44.046 40.1841 44.046ZM47.9177 45.542C49.8444 45.7007 50.8077 46.6413 50.8077 48.364L50.8757 48.806L50.8077 54.11C50.8077 54.722 51.1591 55.5493 51.8617 56.592V56.66C51.6804 57.3173 51.3517 57.646 50.8757 57.646C49.4704 57.0567 48.7677 55.81 48.7677 53.906V53.464L48.6657 53.396L48.7677 53.26V53.192L48.8697 48.5C48.8697 47.8427 48.5864 47.514 48.0197 47.514H47.6117C46.4784 47.9673 45.9117 50.4493 45.9117 54.96C45.9117 56.524 45.5151 57.306 44.7217 57.306C44.1097 57.306 43.7924 56.9207 43.7697 56.15V52.75C43.7697 48.3527 44.1551 46.154 44.9257 46.154L45.2657 46.052L45.9797 46.154C46.5917 45.746 47.2377 45.542 47.9177 45.542ZM58.4014 43.944C59.4441 43.944 59.9654 44.4427 59.9654 45.44C60.1014 45.44 60.1694 45.61 60.1694 45.95H60.3054L60.1694 46.936L60.3054 53.804L60.1014 59.244C62.1414 59.244 63.5128 60.74 64.2154 63.732C64.2154 64.344 63.7961 64.6953 62.9574 64.786C62.5721 64.786 62.1414 63.936 61.6654 62.236C61.2121 61.5787 60.6908 61.25 60.1014 61.25H59.9654C59.2401 66.078 58.6054 68.492 58.0614 68.492C57.4041 69.6933 56.4521 70.294 55.2054 70.294C53.3694 69.8633 52.4514 68.9453 52.4514 67.54V67.336C52.4514 65.2053 53.9701 62.8933 57.0074 60.4L58.0614 59.754L58.1974 56.082V55.232H58.0614C57.2908 56.2067 56.5541 56.694 55.8514 56.694H55.6474C54.0834 56.694 53.1881 55.4927 52.9614 53.09V52.342C52.9614 49.4407 54.0268 46.9247 56.1574 44.794C56.8148 44.2273 57.5628 43.944 58.4014 43.944ZM55.0014 51.9V53.532C55.0921 54.28 55.2621 54.654 55.5114 54.654H55.8514C56.4861 54.654 57.2681 52.3193 58.1974 47.65V45.95C56.8374 45.95 55.7721 47.9333 55.0014 51.9ZM54.4574 67.404C54.5481 67.9707 54.8654 68.254 55.4094 68.254C56.4974 68.254 57.2794 66.316 57.7554 62.44H57.5514C55.4888 64.2307 54.4574 65.8853 54.4574 67.404ZM65.1515 44.794C66.0582 44.8167 67.5882 46.4033 69.7415 49.554L69.8095 50.132C69.8095 50.7667 68.2568 51.254 65.1515 51.594L65.0495 51.696V51.832C65.5255 53.872 66.0242 54.892 66.5455 54.892H66.9535C67.6788 54.892 68.7782 54.11 70.2515 52.546H70.4555C70.9088 52.546 71.2602 52.8747 71.5095 53.532C71.5095 54.076 70.5575 55.0167 68.6535 56.354C68.1548 56.6487 67.5542 56.864 66.8515 57C65.0155 57 63.7348 55.2773 63.0095 51.832C61.9668 51.6733 61.4455 51.2427 61.4455 50.54C61.4455 50.0413 61.8308 49.7127 62.6015 49.554V49.69L62.9415 49.554V48.704C62.9415 46.0973 63.6782 44.794 65.1515 44.794ZM65.3555 47.242H65.0495L64.9135 48.5V49.554H65.0495C66.3188 49.5087 66.9535 49.3727 66.9535 49.146C66.3642 48.262 65.8315 47.6273 65.3555 47.242Z" fill="black"/>
</svg>
