<svg width="170" height="171" viewBox="0 0 170 171" fill="none" xmlns="http://www.w3.org/2000/svg">
<path d="M133.318 10.6112L142.949 21.7394L148.525 28.3151L157.857 38.2079C164.7 46.0243 164.344 57.7991 157.041 65.1875L130.249 92.2913C127.046 95.5316 124.831 99.6161 123.861 104.068L121.896 113.09C120.828 117.995 118.25 122.441 114.525 125.806L102.15 136.984C99.8347 139.076 96.4805 139.551 93.6751 138.184L91.3435 137.048C89.2744 136.041 86.7793 136.701 85.4795 138.6C84.6814 139.766 84.458 141.233 84.8724 142.584L85.6918 145.255C86.9324 149.299 85.6107 153.692 82.3445 156.38L78.0326 159.929C70.4661 166.156 59.3836 165.521 52.5784 158.469L11.8001 116.216C5.19281 109.369 5.12348 98.5421 11.6425 91.6117L21.2186 81.4314C22.2824 80.3005 24.0418 80.1908 25.2379 81.1808C26.4559 82.189 28.2531 82.0543 29.3071 80.8756L32.2852 77.5457C33.9039 75.7358 34.5581 73.2604 34.0449 70.8871L33.5508 68.6019C32.661 64.487 33.9609 60.2044 36.9878 57.2783L43.8488 50.6458C47.6723 46.9497 52.614 44.6266 57.8995 44.0406L70.4422 42.6501C75.5714 42.0814 80.3812 39.8763 84.1595 36.361L114.052 8.55007C118.718 4.20906 125.882 4.00867 130.783 8.08207L133.318 10.6112Z" fill="white"/>
<path d="M34.4459 95.6841L47.1529 82.8289L58.0357 93.8385L45.3286 106.694L34.4459 95.6841Z" fill="#BFBEDE" stroke="black" stroke-width="1.5"/>
<path d="M64.2752 125.861L76.9823 113.006L87.865 124.016L75.158 136.871L64.2752 125.861Z" fill="#BFBEDE" stroke="black" stroke-width="1.5"/>
<path d="M45.824 107.195L58.5311 94.3397L76.1349 112.149L63.4278 125.004L45.824 107.195Z" fill="#BFBEDE" stroke="black" stroke-width="1.5"/>
<mask id="path-5-inside-1_195_215" fill="white">
<path d="M16.0102 106.432C13.721 104.117 13.721 100.365 16.0102 98.0507L25.8493 88.1034C26.4216 87.5248 27.3495 87.5248 27.9218 88.1034L82.8677 143.653C83.44 144.232 83.44 145.17 82.8677 145.749L73.0286 155.696C70.7394 158.01 67.0279 158.01 64.7387 155.696L16.0102 106.432Z"/>
</mask>
<path d="M16.0102 106.432C13.721 104.117 13.721 100.365 16.0102 98.0507L25.8493 88.1034C26.4216 87.5248 27.3495 87.5248 27.9218 88.1034L82.8677 143.653C83.44 144.232 83.44 145.17 82.8677 145.749L73.0286 155.696C70.7394 158.01 67.0279 158.01 64.7387 155.696L16.0102 106.432Z" fill="#AF9CCA" stroke="black" stroke-width="4" mask="url(#path-5-inside-1_195_215)"/>
<path d="M93.2262 129.088L42.3078 78.0115C41.2851 76.9855 41.2747 75.3287 42.2844 74.29L58.0852 58.0364C58.522 57.5871 59.1143 57.3064 59.7378 57.2431C76.5616 55.534 78.9024 53.7936 86.8994 47.2298L118.063 16.436C119.108 15.4035 120.793 15.4169 121.822 16.4661L154.427 49.7308C155.437 50.7613 155.438 52.4102 154.429 53.4419L127.799 80.6732C112.921 93.1914 113.567 103.806 113.512 112.38C113.508 113.094 113.207 113.771 112.688 114.261L96.9256 129.144C95.8808 130.13 94.2406 130.106 93.2262 129.088Z" fill="#FFF9E3" stroke="black" stroke-width="2"/>
</svg>
