<svg width="211" height="219" viewBox="0 0 211 219" fill="none" xmlns="http://www.w3.org/2000/svg">
<path d="M169.5 19.5L175.711 26.365C177.892 28.7751 180.416 30.8499 183.203 32.5221L186.5 34.5L201.5 45C205.661 48.5211 208.25 53.5534 208.696 58.9862L209.156 64.6082C210.003 74.9306 205.953 85.0514 198.221 91.9417L169.744 117.317C163.545 122.841 160 130.749 160 139.052V146.497C160 154.032 155.367 160.793 148.34 163.514C145.812 164.492 143.533 166.022 141.671 167.991L130.728 179.559C128.283 182.144 126.532 185.307 125.639 188.751C124.267 194.042 120.893 198.593 116.229 201.443L114.5 202.5L102.537 212.316C97.6635 216.315 91.5547 218.5 85.2509 218.5C79.8709 218.5 74.6113 216.908 70.1348 213.923L56.4311 204.787C54.1526 203.268 52.072 201.472 50.2373 199.439L18.2732 164.019C16.7617 162.344 15.426 160.519 14.2869 158.571L6.66206 145.535C2.80092 138.934 2.40979 130.862 5.61457 123.918C6.20366 122.642 6.90658 121.421 7.7148 120.271L15.7593 108.823C18.1043 105.486 21.9275 103.5 26.0062 103.5C32.0773 103.5 37.2741 99.1456 38.3368 93.1682L39.3946 87.2178C40.1136 83.1736 42.0764 79.4545 45.0096 76.5789L57.799 64.0402C63.1101 58.8332 70.0245 55.5732 77.4208 54.7887L86.5556 53.8199C94.5733 52.9695 102.002 49.2133 107.44 43.2604L132.333 16.0094C140.319 7.26689 153.699 6.17203 163 13.5L169.5 19.5Z" fill="white"/>
<path d="M38.0542 123.263L55.4692 105.848L70.4819 120.86L53.0668 138.275L38.0542 123.263Z" fill="#BFBEDE" stroke="black"/>
<path d="M76.7071 162.122L94.1221 144.707L109.135 159.72L91.7198 177.135L76.7071 162.122Z" fill="#BFBEDE" stroke="black"/>
<path d="M53.0377 138.246L70.4527 120.831L94.3161 144.694L76.901 162.109L53.0377 138.246Z" fill="#BFBEDE" stroke="black"/>
<path d="M15.0805 126.425L27.6951 113.81C28.2905 113.215 29.256 113.215 29.8514 113.81L102.049 186.008C102.644 186.603 102.644 187.569 102.049 188.164L89.4344 200.779C86.4667 203.746 81.6552 203.746 78.6875 200.779L15.0805 137.172C12.1129 134.204 12.1129 129.393 15.0805 126.425Z" fill="#AF9CCA" stroke="black"/>
<path d="M116.052 166.655L49.2386 100.407C47.8134 98.9938 47.799 96.6943 49.2063 95.2633L69.8279 74.2951C70.4276 73.6854 71.2362 73.3052 72.0872 73.2197C94.2006 70.9964 97.2861 68.7283 107.81 60.1901L148.755 20.1969C150.188 18.798 152.48 18.8163 153.89 20.238L196.586 63.2962C197.994 64.7159 197.995 67.0045 196.589 68.4257L161.669 103.723C142.131 119.973 142.923 133.758 142.856 144.903C142.85 145.891 142.431 146.827 141.709 147.501L121.105 166.732C119.673 168.068 117.442 168.034 116.052 166.655Z" fill="#FFF9E3" stroke="black"/>
</svg>
