<svg width="313" height="73" viewBox="0 0 313 73" fill="none" xmlns="http://www.w3.org/2000/svg">
<path d="M15.3193 14.242C15.3193 17.4382 14.2579 20.4289 13.1163 23.3971C12.1733 25.8488 11.2469 28.3018 10.3376 30.77C9.86644 32.0489 9.40529 33.3295 8.94274 34.6114C8.64181 35.4454 7.75003 36.8993 7.95748 37.8329C8.02928 38.156 8.59946 37.6379 8.87632 37.4565C11.2608 35.8942 13.601 34.2435 15.8949 32.5523C22.2233 27.8867 28.3832 22.9805 35.0577 18.803C38.4881 16.6558 42.0694 14.9688 45.7406 13.3231C47.1784 12.6786 43.1406 17.6303 44.5 16.8324C45.1798 16.4334 47.1144 13.2219 48 13.2219C48 13.7643 49.7763 12.8796 49.5045 13.3342C47.7301 16.3023 45.8622 19.2087 43.7036 21.9137C39.1372 27.6362 34.3401 33.1614 29.4893 38.641C25.8937 42.7027 22.4617 47.2999 20.5445 52.4125C19.984 53.9069 19.5009 55.3716 19.216 56.9514C19.1209 57.4786 18.2637 59.5628 18.9503 58.4348C20.8226 55.3588 24.2771 53.0037 26.9874 50.763C34.2106 44.7914 41.7262 39.1967 48.6188 32.8401C50.0681 31.5036 51.5525 30.2069 53.047 28.9212C53.664 28.3904 54.3004 27.7509 55.0507 27.4046C55.6125 27.1453 56.1843 26.9089 56.7223 26.5965C57.4883 26.1517 63.3763 21.6171 63.6967 22.0576C64.1631 22.6989 61.0035 26.3298 60.6966 26.7404C57.286 31.3032 53.5232 35.6052 50.0801 40.1466C46.6591 44.6587 43.9542 49.5611 41.3456 54.5712C39.7644 57.6082 38.438 60.8046 36.7293 63.7707C36.4051 64.3334 38.3388 62.468 38 63.0139C37.5139 63.797 37.548 60.5173 37 61.222C36.2045 62.2448 35.9003 65.7539 36.685 64.7227C41.3298 58.6193 46.342 52.7713 51.4639 47.0655C57.9119 39.8826 64.327 32.7062 70.4274 25.2238C72.1863 23.0664 74.4582 19.8487 77.28 18.9358C80.4973 17.8949 82.8785 15.6935 85.9259 14.3527C86.3769 14.1542 86.811 14.0744 87.2543 13.8877C88.3509 13.426 86.9756 15.2977 86.889 15.4265C84.11 19.5641 81.3374 23.7785 79.2173 28.3013C77.2162 32.5702 75.8873 37.1805 74.7006 41.7296C73.7676 45.3059 72.3073 48.7938 71.7559 52.4568C71.3979 54.8349 71.3995 57.1632 71.302 59.5529C71.2274 61.3799 70.6491 63.1734 70.2503 64.9441C70.135 65.4559 70.0165 66.4004 70.4274 65.5198C75.3729 54.9224 81.0577 44.5538 86.723 34.3236C89.9721 28.4564 93.2428 22.042 98.2804 17.4745C99.9103 15.9967 101.761 14.8223 103.439 13.4006C106.21 11.0541 102.882 19.89 105.5 17.3764C106.219 16.6857 108.084 14.3489 109.019 13.9281C109.143 13.8722 97.081 30.1133 107 15.7219C101.708 25.8806 103.313 20.4089 103 20.7219C100.351 23.3714 109.917 11.6554 108.565 15.0722C107.125 18.7085 105.589 22.3176 104.391 26.043C103.079 30.1224 102.078 34.2968 100.694 38.3532C99.0708 43.1088 96.8944 47.6419 95.0257 52.3018C94.0201 54.8094 93.3276 57.3808 92.4574 59.9293C91.9634 61.376 91.6606 62.9399 91.0404 64.3353C90.9647 64.5056 91.592 63.1938 91.926 62.8186C94.3541 60.0912 96.9402 57.5007 99.3321 54.7373C102.961 50.5452 106.087 46.0393 109.019 41.3422C109.944 39.8588 110.937 38.4129 111.819 36.903C112.369 35.962 112.809 34.9736 113.557 34.1686C117.078 30.3823 120.874 26.8811 124.517 23.209C126.082 21.6311 127.462 19.8533 129.277 18.5483C130.091 17.9635 130.969 17.5406 131.691 16.8324C131.969 16.5596 132.983 15.0612 133.373 15.0612C133.668 15.0612 130.528 25.1524 130.252 25.9323C127.594 33.4352 125.421 41.0507 123.443 48.7593C122.248 53.4178 121.103 57.9864 119.336 62.4644C117.146 68.016 126.525 55.6143 124.5 61.222C124.5 61.222 123.901 61.8259 124 61.722C125.021 60.6468 117.192 65.5551 118 64.3353C121.032 59.756 122.578 67.1659 125.624 62.5972C130.274 55.6227 133.95 48.127 139.064 41.4307C143.499 35.6225 148.238 30.1441 153.068 24.6592C153.272 24.4265 156.834 20.1769 157.152 20.4635C157.351 20.6419 156.798 21.7615 156.776 21.8141C155.514 24.7773 153.799 27.5412 152.237 30.3493C145.174 43.0528 139.198 50.0667 134.274 63.7707C133.87 64.8932 134.406 63.2181 134 64.3353C133.29 66.2878 131.625 56.5365 128.5 67.222C138.218 49.3862 153.161 36.3571 167.315 21.6591C169.237 19.6637 170.94 17.4363 172.895 15.4818C173.409 14.9675 172.866 16.3743 172.839 16.4892C169.555 30.3558 166.745 44.347 163.086 58.1248C162.601 59.9503 161.985 61.7878 161.647 63.6489C161.549 64.1865 162.418 62.8672 162.732 62.4201C168.19 54.6523 173.827 47.0011 180.079 39.8477C185.604 33.5264 191.666 27.5712 198.445 22.6001C201.105 20.6492 203.799 18.7732 206.526 16.921C207.59 16.1987 207.019 17.3005 206.77 18.1609C204.869 24.7258 201.592 30.9996 198.91 37.2683C196.707 42.418 194.581 47.6086 192.245 52.7003C191.025 55.3617 189.524 57.756 188.105 60.2946C187.797 60.8467 188.961 59.3627 189.367 58.8776C192.427 55.2194 195.977 52.0404 199.508 48.8479C208.544 40.6757 217.72 32.6653 226.707 24.4378C228.865 22.4623 231.027 20.4872 233.294 18.6369C233.622 18.3698 235.028 16.8988 235.619 17.076C235.945 17.1738 233.063 22.1297 233.029 22.1905C227.872 31.4253 223.507 41.1241 218.903 50.6413C215.582 57.5071 211 67.2219 214.5 64.7219C214.798 64.0275 211.537 65.2242 212 64.7219C215.972 60.4122 219.461 60.9483 223.541 56.741C228.969 51.1443 234.622 45.8195 240.656 40.8772C247.558 35.2245 255.04 30.2214 261.546 24.0946C263.207 22.5303 265.112 20.7138 265.908 18.493C265.991 18.2607 265.996 17.9523 265.996 18.338C265.996 19.0095 266.002 19.6813 265.996 20.3528C265.876 34.3304 257.662 46.4557 248.527 56.3757C248.278 56.6466 247.399 57.3351 247.354 57.7927C247.296 58.3665 248.437 57.3329 248.859 56.9403C253.781 52.3655 257.663 46.2528 260.395 40.1687C261.552 37.5907 262.413 34.9198 263.074 32.1759C263.509 30.3668 263.522 29.5669 265.044 28.4563C269.655 25.0915 274.359 21.8006 279.059 18.5594C282.177 16.4091 285.006 16.0317 288 13.7219C288.198 13.5688 289.002 14.1769 289.306 14.2219C289.781 14.2922 289.428 13.2083 289.399 13.456C288.949 17.3125 288.268 21.1971 287.229 24.9359C283.783 37.3356 277.778 48.4611 271.775 59.7411C271.27 60.6897 269.782 62.3886 269.782 63.5271C269.782 63.7277 269.839 63.1261 269.915 62.9404C270.255 62.1065 270.92 61.3297 271.465 60.6267C275.334 55.6342 279.819 51.0835 284.207 46.5563C290.238 40.3337 296.499 34.7352 303.458 29.5855" stroke="#A8DAFD" stroke-width="14" stroke-linecap="round"/>
<path d="M100.008 26.088C102.184 26.088 103.448 27.656 103.8 30.792C103.8 33.384 103.192 35.016 101.976 35.688H101.688C100.76 35.624 100.296 35.288 100.296 34.68L100.488 31.08V29.304L100.2 28.968H99.72C98.696 28.968 97.496 31.816 96.12 37.512L95.832 41.112V42.168C95.832 45.496 97.32 47.448 100.296 48.024H102.312C105.64 48.024 109.672 45.88 114.408 41.592H114.6C115.464 41.592 115.96 42.136 116.088 43.224C115.352 45.144 114.488 46.104 113.496 46.104C108.92 49.368 104.808 51 101.16 51C97.512 51 94.936 49 93.432 45L93 41.592V40.968C93 36.008 94.392 31.448 97.176 27.288C98.072 26.488 99.016 26.088 100.008 26.088ZM125.592 32.904C127.96 32.904 129.752 34.664 130.968 38.184L131.16 39.192C131.16 42.616 129.56 46.12 126.36 49.704C125.08 50.888 123.784 51.48 122.472 51.48C120.552 51.48 119.192 50.376 118.392 48.168C118.104 47.144 117.96 46.248 117.96 45.48V44.904C117.96 39.848 119.8 36.008 123.48 33.384C124.12 33.064 124.824 32.904 125.592 32.904ZM120.792 45.384C120.792 47.56 121.352 48.648 122.472 48.648C124.808 48.648 126.744 45.656 128.28 39.672V38.76C127.736 36.776 126.728 35.784 125.256 35.784C124.68 35.784 124.392 36.184 124.392 36.984C124.392 37.528 123.752 37.96 122.472 38.28C121.352 40.168 120.792 42.536 120.792 45.384ZM139.527 34.824C142.247 35.048 143.607 36.376 143.607 38.808L143.703 39.432L143.607 46.92C143.607 47.784 144.103 48.952 145.095 50.424V50.52C144.839 51.448 144.375 51.912 143.703 51.912C141.719 51.08 140.727 49.32 140.727 46.632V46.008L140.583 45.912L140.727 45.72V45.624L140.871 39C140.871 38.072 140.471 37.608 139.671 37.608H139.095C137.495 38.248 136.695 41.752 136.695 48.12C136.695 50.328 136.135 51.432 135.015 51.432C134.151 51.432 133.703 50.888 133.671 49.8V45C133.671 38.792 134.215 35.688 135.303 35.688L135.783 35.544L136.791 35.688C137.655 35.112 138.567 34.824 139.527 34.824ZM152.263 21.864C153.159 22.056 153.607 22.504 153.607 23.208L153.319 25.32V25.944C153.319 27.352 153.479 28.84 153.799 30.408H153.895C157.607 29.288 159.911 28.728 160.807 28.728C161.735 28.984 162.199 29.448 162.199 30.12C162.199 31.208 161.095 31.752 158.887 31.752L153.895 33.528C153.895 37.848 154.359 43.72 155.287 51.144C155.095 52.008 154.631 52.44 153.895 52.44H153.799C152.679 52.44 152.119 51 152.119 48.12C151.703 45.976 151.351 41.32 151.063 34.152H150.199C147.191 33.96 145.687 33.256 145.687 32.04C145.687 31.688 146.023 31.256 146.695 30.744H147.175L149.383 31.32H150.919L150.487 25.32C150.487 23.016 151.079 21.864 152.263 21.864ZM164.238 25.992C165.454 26.248 166.062 26.792 166.062 27.624C165.742 28.52 165.23 28.968 164.526 28.968C163.342 28.744 162.75 28.152 162.75 27.192C163.07 26.392 163.566 25.992 164.238 25.992ZM166.062 32.712C166.574 32.712 167.006 33.176 167.358 34.104L166.926 37.512V39.768C166.926 42.392 167.374 45.832 168.27 50.088C167.95 50.696 167.406 51 166.638 51C165.326 51 164.462 47.16 164.046 39.48V37.8C164.046 34.408 164.718 32.712 166.062 32.712ZM176.98 34.824C179.7 35.048 181.06 36.376 181.06 38.808L181.156 39.432L181.06 46.92C181.06 47.784 181.556 48.952 182.548 50.424V50.52C182.292 51.448 181.828 51.912 181.156 51.912C179.172 51.08 178.18 49.32 178.18 46.632V46.008L178.036 45.912L178.18 45.72V45.624L178.324 39C178.324 38.072 177.924 37.608 177.124 37.608H176.548C174.948 38.248 174.148 41.752 174.148 48.12C174.148 50.328 173.588 51.432 172.468 51.432C171.604 51.432 171.156 50.888 171.124 49.8V45C171.124 38.792 171.668 35.688 172.756 35.688L173.236 35.544L174.244 35.688C175.108 35.112 176.02 34.824 176.98 34.824ZM185.973 36.552L186.837 36.072C187.605 36.072 188.165 36.536 188.517 37.464C188.005 39.832 187.749 42.264 187.749 44.76C187.749 46.008 188.117 47.368 188.853 48.84H189.141C190.069 48.84 191.173 45.176 192.453 37.848C192.901 37.464 193.333 37.272 193.749 37.272C194.741 37.272 195.237 39.032 195.237 42.552C195.653 46.424 196.117 48.36 196.629 48.36L197.349 48.072C198.277 48.424 198.741 48.92 198.741 49.56C198.165 50.776 197.365 51.384 196.341 51.384C195.189 51.384 194.085 50.232 193.029 47.928C191.749 50.616 190.453 51.96 189.141 51.96C187.189 51.96 185.829 49.928 185.061 45.864L184.917 44.328V43.848C184.917 41.288 185.269 38.856 185.973 36.552ZM204.076 33.768C205.356 33.8 207.516 36.04 210.556 40.488L210.652 41.304C210.652 42.2 208.46 42.888 204.076 43.368L203.932 43.512V43.704C204.604 46.584 205.308 48.024 206.044 48.024H206.62C207.644 48.024 209.196 46.92 211.276 44.712H211.564C212.204 44.712 212.7 45.176 213.052 46.104C213.052 46.872 211.708 48.2 209.02 50.088C208.316 50.504 207.468 50.808 206.476 51C203.884 51 202.076 48.568 201.052 43.704C199.58 43.48 198.844 42.872 198.844 41.88C198.844 41.176 199.388 40.712 200.476 40.488V40.68L200.956 40.488V39.288C200.956 35.608 201.996 33.768 204.076 33.768ZM204.364 37.224H203.932L203.74 39V40.488H203.932C205.724 40.424 206.62 40.232 206.62 39.912C205.788 38.664 205.036 37.768 204.364 37.224Z" fill="black"/>
<rect x="2" y="7" width="309" height="63" rx="18" stroke="black" stroke-width="4"/>
</svg>
