<svg width="150" height="155" viewBox="0 0 150 155" fill="none" xmlns="http://www.w3.org/2000/svg">
<path d="M145.067 20.4912L137.136 13.4236L130.055 7.18345C125.585 3.24334 118.748 3.754 114.912 8.31448L99.0458 27.18L23.4733 118.316L8.68515 133.122C4.10767 137.704 4.66608 145.283 9.86583 149.145L10.6107 149.698C14.7404 152.766 20.4752 152.431 24.2196 148.903L66.0012 109.542C72.8577 103.083 84.1049 108.09 83.893 117.508L83.4389 137.675C83.3049 143.63 88.0954 148.53 94.0516 148.53H129.925C135.903 148.53 140.702 143.595 140.536 137.619L138.594 67.7518C138.565 66.6942 138.693 65.6382 138.976 64.6187L148.233 31.2546C149.315 27.3565 148.087 23.1825 145.067 20.4912Z" fill="white"/>
<path d="M28.1504 127.846L35.1976 112.996L43.0739 120.696L28.7032 128.534L10.8779 144.896V144.071L28.1504 127.846Z" fill="#B3B3B3"/>
<rect width="10.4172" height="18.332" transform="matrix(0.721043 0.69289 -0.696423 0.717632 123.614 19.7689)" fill="#5B6670"/>
<ellipse cx="15.815" cy="4.21697" rx="15.815" ry="4.21697" transform="matrix(-0.733023 -0.680204 0.683789 -0.72968 139.081 34.7875)" fill="#4A565E"/>
<ellipse cx="15.815" cy="4.21697" rx="15.815" ry="4.21697" transform="matrix(-0.733023 -0.680204 0.683789 -0.72968 125.815 47.9879)" fill="#4A565E"/>
<path d="M36.441 109.971L109.676 32.4191L119.764 41.7693L46.5282 118.908C43.2119 122.208 41.6919 120.558 40.7246 119.596L36.0265 114.921C33.9262 112.721 35.4738 110.933 36.441 109.971Z" fill="#EBF9FF"/>
<rect width="4.99086" height="5.92582" transform="matrix(0.683789 -0.72968 0.733023 0.680204 62.5571 82.2618)" fill="#5B6670"/>
<rect width="4.99086" height="5.92582" transform="matrix(0.683789 -0.72968 0.733023 0.680204 70.019 74.2867)" fill="#5B6670"/>
<rect width="4.99086" height="5.92582" transform="matrix(0.683789 -0.72968 0.733023 0.680204 77.4807 66.5865)" fill="#5B6670"/>
<rect width="4.99086" height="5.92582" transform="matrix(0.683789 -0.72968 0.733023 0.680204 85.2188 58.3364)" fill="#5B6670"/>
<rect width="4.99086" height="5.92582" transform="matrix(0.683789 -0.72968 0.733023 0.680204 92.1277 50.9113)" fill="#5B6670"/>
<rect width="4.99086" height="5.92582" transform="matrix(0.683789 -0.72968 0.733023 0.680204 99.5896 43.211)" fill="#5B6670"/>
<path d="M67.9463 91.1328C67.6699 88.5203 64.1233 84.3494 62.4191 82.4702L36.1649 110.246C35.1976 111.117 33.6776 112.721 36.1649 115.058L40.5866 119.458C41.6921 120.696 43.0739 122.071 45.9757 119.458L70.019 94.1579C69.5768 94.1579 67.9463 92.0953 67.9463 91.1328Z" fill="#EAD9D1"/>
<rect width="4.99086" height="5.92582" transform="matrix(0.683789 -0.72968 0.733023 0.680204 55.0955 90.237)" fill="#5B6670"/>
<path d="M99.0511 70.1016V63.7048H123.946V70.1016C129.031 79.4836 130.302 85.0275 130.302 86.6267L129.772 127.14C129.772 136.202 129.064 138.334 127.124 138.334H94.8137C91.9862 138.334 92.695 130.871 92.695 127.14V86.6267C92.695 84.4945 96.5793 74.8992 99.0511 70.1016Z" fill="#EAD9D1"/>
<path d="M92.808 60.5064V51.4442H129.885V60.5064C129.885 63.4916 128.12 64.2379 127.237 64.2379H96.5157C93.5495 64.2379 92.808 61.7502 92.808 60.5064Z" fill="#384A59"/>
<ellipse cx="111.347" cy="51.4442" rx="18.5388" ry="2.66534" fill="#2C3E49"/>
<path d="M130.302 88.226C119.938 90.3582 100.973 89.1144 92.5156 88.226V128.739C109.789 131.298 124.184 129.805 129.762 128.739L130.302 88.226Z" fill="#6AB872"/>
<path d="M99.3678 109.086V103.749H100.485V109.086H99.3678ZM101.672 109.086V105.014H102.752V105.643H102.818C103.003 105.203 103.406 104.925 103.987 104.925C104.893 104.925 105.381 105.48 105.381 106.453V109.086H104.301V106.697C104.301 106.124 104.064 105.82 103.554 105.82C103.055 105.82 102.752 106.179 102.752 106.73V109.086H101.672ZM108.047 109.171C106.941 109.171 106.313 108.675 106.235 107.976L106.231 107.962H107.293L107.3 107.976C107.385 108.228 107.633 108.409 108.058 108.409C108.472 108.409 108.754 108.232 108.754 107.962V107.954C108.754 107.736 108.591 107.599 108.177 107.507L107.496 107.363C106.72 107.196 106.335 106.815 106.335 106.205V106.201C106.335 105.436 107.015 104.925 108.032 104.925C109.101 104.925 109.693 105.458 109.737 106.113V106.127H108.735L108.731 106.109C108.672 105.891 108.432 105.687 108.029 105.687C107.655 105.687 107.389 105.861 107.389 106.135V106.138C107.389 106.357 107.541 106.482 107.962 106.575L108.639 106.719C109.452 106.893 109.833 107.233 109.833 107.836V107.84C109.833 108.646 109.09 109.171 108.047 109.171ZM112.063 109.171C111.15 109.171 110.68 108.616 110.68 107.647V105.014H111.76V107.399C111.76 107.976 111.978 108.276 112.489 108.276C113.021 108.276 113.31 107.917 113.31 107.366V105.014H114.389V109.086H113.31V108.457H113.243C113.058 108.901 112.644 109.171 112.063 109.171ZM115.51 109.086V103.457H116.59V109.086H115.51ZM118.258 104.389C117.925 104.389 117.647 104.123 117.647 103.79C117.647 103.454 117.925 103.187 118.258 103.187C118.59 103.187 118.864 103.454 118.864 103.79C118.864 104.123 118.59 104.389 118.258 104.389ZM117.714 109.086V105.014H118.794V109.086H117.714ZM119.881 109.086V105.014H120.961V105.643H121.027C121.212 105.203 121.615 104.925 122.196 104.925C123.102 104.925 123.59 105.48 123.59 106.453V109.086H122.51V106.697C122.51 106.124 122.274 105.82 121.763 105.82C121.264 105.82 120.961 106.179 120.961 106.73V109.086H119.881Z" fill="white"/>
</svg>
