<svg width="131" height="135" viewBox="0 0 131 135" fill="none" xmlns="http://www.w3.org/2000/svg">
<path d="M126.05 17.2766L119.765 11.6916L114.602 7.15327C110.135 3.22655 103.313 3.73606 99.4787 8.28288L86.5 23.6729L20.5 103.05L7.93828 115.592C3.75833 119.765 4.26757 126.679 9.01389 130.195C12.7691 132.977 17.9769 132.673 21.3828 129.473L55.3124 97.5955C62.1729 91.15 73.4061 96.1606 73.1937 105.572L72.9016 118.51C72.7672 124.465 77.5578 129.365 83.5143 129.365H112.085C118.063 129.365 122.862 124.43 122.696 118.453L121.045 59.2197C121.015 58.1594 121.145 57.1006 121.429 56.0786L129.225 28.0566C130.311 24.1517 129.079 19.969 126.05 17.2766Z" fill="white"/>
<path d="M24.5847 111.35L30.7392 98.4156L37.6178 105.122L25.0674 111.949L9.5 126.2V125.482L24.5847 111.35Z" fill="#B3B3B3"/>
<rect width="9.08584" height="15.9876" transform="matrix(0.721982 0.691913 -0.697395 0.716687 107.956 17.218)" fill="#5B6670"/>
<ellipse cx="13.7945" cy="3.67751" rx="13.7945" ry="3.67751" transform="matrix(-0.733942 -0.679212 0.684776 -0.728753 121.464 30.2988)" fill="#4A565E"/>
<ellipse cx="13.7945" cy="3.67751" rx="13.7945" ry="3.67751" transform="matrix(-0.733942 -0.679212 0.684776 -0.728753 109.878 41.7959)" fill="#4A565E"/>
<path d="M31.8252 95.7809L95.7842 28.236L104.594 36.3797L40.6346 103.565C37.7384 106.44 36.4109 105.002 35.5662 104.164L31.4631 100.092C29.6288 98.1761 30.9804 96.6192 31.8252 95.7809Z" fill="#EBF9FF"/>
<rect width="4.3524" height="5.16874" transform="matrix(0.684776 -0.728754 0.733942 0.679212 54.6333 71.6473)" fill="#5B6670"/>
<rect width="4.3524" height="5.16874" transform="matrix(0.684776 -0.728754 0.733942 0.679212 61.1499 64.7013)" fill="#5B6670"/>
<rect width="4.3524" height="5.16874" transform="matrix(0.684776 -0.728754 0.733942 0.679212 67.6665 57.9948)" fill="#5B6670"/>
<rect width="4.3524" height="5.16874" transform="matrix(0.684776 -0.728754 0.733942 0.679212 74.4243 50.8091)" fill="#5B6670"/>
<rect width="4.3524" height="5.16874" transform="matrix(0.684776 -0.728754 0.733942 0.679212 80.4583 44.3421)" fill="#5B6670"/>
<rect width="4.3524" height="5.16874" transform="matrix(0.684776 -0.728754 0.733942 0.679212 86.9749 37.6354)" fill="#5B6670"/>
<path d="M59.3398 79.3738C59.0985 77.0983 56.0011 73.4656 54.5127 71.8289L31.5841 96.0205C30.7393 96.779 29.4119 98.1762 31.5841 100.212L35.4457 104.044C36.4112 105.122 37.6179 106.32 40.1521 104.044L61.15 82.0085C60.7638 82.0085 59.3398 80.2121 59.3398 79.3738Z" fill="#EAD9D1"/>
<rect width="4.3524" height="5.16874" transform="matrix(0.684776 -0.728754 0.733942 0.679212 48.1167 78.5935)" fill="#5B6670"/>
<path d="M86.5046 61.0562V55.4848H108.246V61.0562C112.687 69.2277 113.797 74.0562 113.797 75.4491L113.335 110.735C113.335 118.628 112.716 120.485 111.022 120.485H82.8039C80.3345 120.485 80.9536 113.985 80.9535 110.735V75.4491C80.9535 73.5919 84.3458 65.2348 86.5046 61.0562Z" fill="#EAD9D1"/>
<path d="M81.0522 52.6991V44.8063H113.433V52.6991C113.433 55.2991 111.891 55.9491 111.12 55.9491H84.2903C81.6998 55.9491 81.0522 53.7825 81.0522 52.6991Z" fill="#384A59"/>
<ellipse cx="97.2428" cy="44.8062" rx="16.1905" ry="2.32143" fill="#2C3E49"/>
<path d="M113.797 76.842C104.745 78.6991 88.1826 77.6158 80.7969 76.842V112.128C95.8826 114.356 108.454 113.056 113.325 112.128L113.797 76.842Z" fill="#6AB872"/>
<path d="M85.2559 95.9135V90.5771H86.3728V95.9135H85.2559ZM87.5598 95.9135V91.8419H88.6397V92.4705H88.7062C88.8911 92.0305 89.2942 91.7531 89.8748 91.7531C90.7809 91.7531 91.269 92.3078 91.269 93.2804V95.9135H90.1892V93.5245C90.1892 92.9513 89.9525 92.6481 89.4422 92.6481C88.9429 92.6481 88.6397 93.0068 88.6397 93.5578V95.9135H87.5598ZM93.9353 95.9985C92.8296 95.9985 92.2009 95.503 92.1233 94.804L92.1196 94.7892H93.1809L93.1883 94.804C93.2734 95.0555 93.5211 95.2367 93.9464 95.2367C94.3606 95.2367 94.6417 95.0592 94.6417 94.7892V94.7818C94.6417 94.5637 94.4789 94.4268 94.0648 94.3344L93.3843 94.1901C92.6077 94.0237 92.2231 93.6428 92.2231 93.0327V93.029C92.2231 92.2635 92.9036 91.7531 93.9205 91.7531C94.9893 91.7531 95.581 92.2856 95.6253 92.9402V92.955H94.6232L94.6195 92.9365C94.5603 92.7183 94.3199 92.5149 93.9168 92.5149C93.5433 92.5149 93.2771 92.6887 93.2771 92.9624V92.9661C93.2771 93.1843 93.4287 93.31 93.8503 93.4025L94.527 93.5467C95.3406 93.7205 95.7215 94.0607 95.7215 94.6635V94.6672C95.7215 95.4734 94.9782 95.9985 93.9353 95.9985ZM97.9514 95.9985C97.038 95.9985 96.5684 95.4438 96.5684 94.4749V91.8419H97.6482V94.2271C97.6482 94.804 97.8664 95.1036 98.3767 95.1036C98.9092 95.1036 99.1977 94.7449 99.1977 94.1938V91.8419H100.278V95.9135H99.1977V95.2848H99.1311C98.9462 95.7285 98.532 95.9985 97.9514 95.9985ZM101.398 95.9135V90.285H102.478V95.9135H101.398ZM104.146 91.2169C103.813 91.2169 103.536 90.9506 103.536 90.6178C103.536 90.2813 103.813 90.015 104.146 90.015C104.479 90.015 104.752 90.2813 104.752 90.6178C104.752 90.9506 104.479 91.2169 104.146 91.2169ZM103.602 95.9135V91.8419H104.682V95.9135H103.602ZM105.769 95.9135V91.8419H106.849V92.4705H106.916C107.1 92.0305 107.504 91.7531 108.084 91.7531C108.99 91.7531 109.478 92.3078 109.478 93.2804V95.9135H108.398V93.5245C108.398 92.9513 108.162 92.6481 107.651 92.6481C107.152 92.6481 106.849 93.0068 106.849 93.5578V95.9135H105.769Z" fill="white"/>
</svg>
