<svg width="132" height="136" viewBox="0 0 132 136" fill="none" xmlns="http://www.w3.org/2000/svg">
<path d="M126.559 18.1025L120.265 12.5L115.109 7.96081C110.64 4.02643 103.809 4.53661 99.9743 9.09125L87 24.5L21 104L8.42628 116.574C4.25042 120.75 4.75954 127.66 9.50228 131.179C13.2629 133.969 18.4821 133.664 21.8923 130.455L55.8067 98.5428C62.6649 92.0893 73.9062 97.0981 73.694 106.513L73.4013 119.501C73.2671 125.456 78.0576 130.356 84.0139 130.356H112.585C118.563 130.356 123.363 125.421 123.196 119.445L121.544 60.0971C121.515 59.0383 121.644 57.9811 121.928 56.9606L129.73 28.8729C130.813 24.972 129.584 20.7943 126.559 18.1025Z" fill="white"/>
<path d="M25.0847 112.955L31.2392 99.9215L38.1178 106.679L25.5674 113.558L10 127.919V127.195L25.0847 112.955Z" fill="#B3B3B3"/>
<rect x="108.456" y="18.1023" width="9.11921" height="16.0506" transform="rotate(44 108.456 18.1023)" fill="#5B6670"/>
<ellipse cx="114.357" cy="19.1416" rx="13.8433" ry="3.69249" transform="rotate(-137 114.357 19.1416)" fill="#4A565E"/>
<ellipse cx="102.772" cy="30.7267" rx="13.8433" ry="3.69249" transform="rotate(-137 102.772 30.7267)" fill="#4A565E"/>
<path d="M32.3253 97.2667L96.2843 29.2047L105.094 37.4107L41.1347 105.111C38.2385 108.007 36.911 106.559 36.0663 105.714L31.9633 101.611C30.129 99.6802 31.4806 98.1114 32.3253 97.2667Z" fill="#EBF9FF"/>
<rect x="55.1333" y="72.9483" width="4.37013" height="5.18703" transform="rotate(-47 55.1333 72.9483)" fill="#5B6670"/>
<rect x="61.6499" y="65.9491" width="4.37013" height="5.18703" transform="rotate(-47 61.6499 65.9491)" fill="#5B6670"/>
<rect x="68.1665" y="59.1912" width="4.37013" height="5.18703" transform="rotate(-47 68.1665 59.1912)" fill="#5B6670"/>
<rect x="74.9244" y="51.9506" width="4.37013" height="5.18703" transform="rotate(-47 74.9244 51.9506)" fill="#5B6670"/>
<rect x="80.9583" y="45.434" width="4.37013" height="5.18703" transform="rotate(-47 80.9583 45.434)" fill="#5B6670"/>
<rect x="87.4749" y="38.676" width="4.37013" height="5.18703" transform="rotate(-47 87.4749 38.676)" fill="#5B6670"/>
<path d="M59.8397 80.7338C59.5984 78.441 56.501 74.7804 55.0126 73.1312L32.0839 97.508C31.2392 98.2723 29.9117 99.6802 32.0839 101.732L35.9456 105.593C36.911 106.679 38.1178 107.886 40.652 105.593L61.6499 83.3887C61.2637 83.3887 59.8397 81.5786 59.8397 80.7338Z" fill="#EAD9D1"/>
<rect x="48.6167" y="79.9476" width="4.37013" height="5.18703" transform="rotate(-47 48.6167 79.9476)" fill="#5B6670"/>
<path d="M87.0276 62.4967V56.8164H108.858V62.4967C113.317 70.8277 114.432 75.7506 114.432 77.1706L113.967 113.146C113.967 121.193 113.346 123.086 111.645 123.086H83.3119C80.8324 123.086 81.454 116.459 81.4539 113.146V77.1706C81.4539 75.2772 84.8601 66.7568 87.0276 62.4967Z" fill="#EAD9D1"/>
<path d="M81.5532 53.9763V45.9293H114.066V53.9763C114.066 56.6271 112.518 57.2898 111.744 57.2898H84.8046C82.2035 57.2898 81.5532 55.0808 81.5532 53.9763Z" fill="#384A59"/>
<ellipse cx="97.81" cy="45.9293" rx="16.2566" ry="2.36677" fill="#2C3E49"/>
<path d="M114.432 78.5907C105.343 80.4841 88.7128 79.3796 81.2969 78.5907V114.566C96.4442 116.838 109.067 115.512 113.958 114.566L114.432 78.5907Z" fill="#6AB872"/>
<path d="M85.8233 97.8979V92.5616H86.9401V97.8979H85.8233ZM88.1272 97.8979V93.8264H89.2071V94.455H89.2736C89.4585 94.015 89.8616 93.7376 90.4422 93.7376C91.3482 93.7376 91.8364 94.2923 91.8364 95.2649V97.8979H90.7566V95.509C90.7566 94.9358 90.5199 94.6325 90.0095 94.6325C89.5103 94.6325 89.2071 94.9913 89.2071 95.5423V97.8979H88.1272ZM94.5027 97.983C93.397 97.983 92.7683 97.4875 92.6906 96.7885L92.687 96.7737H93.7483L93.7557 96.7885C93.8408 97.04 94.0885 97.2212 94.5138 97.2212C94.928 97.2212 95.209 97.0437 95.209 96.7737V96.7663C95.209 96.5482 95.0463 96.4113 94.6321 96.3189L93.9517 96.1746C93.1751 96.0082 92.7905 95.6273 92.7905 95.0171V95.0134C92.7905 94.2479 93.4709 93.7376 94.4879 93.7376C95.5567 93.7376 96.1484 94.2701 96.1927 94.9247V94.9395H95.1905L95.1869 94.921C95.1277 94.7028 94.8873 94.4994 94.4842 94.4994C94.1107 94.4994 93.8444 94.6732 93.8444 94.9469V94.9506C93.8444 95.1688 93.9961 95.2945 94.4177 95.387L95.0944 95.5312C95.908 95.705 96.2889 96.0452 96.2889 96.648V96.6517C96.2889 97.4579 95.5456 97.983 94.5027 97.983ZM98.5188 97.983C97.6054 97.983 97.1357 97.4283 97.1357 96.4594V93.8264H98.2156V96.2116C98.2156 96.7885 98.4338 97.0881 98.9441 97.0881C99.4766 97.0881 99.7651 96.7294 99.7651 96.1783V93.8264H100.845V97.8979H99.7651V97.2693H99.6985C99.5136 97.713 99.0994 97.983 98.5188 97.983ZM101.965 97.8979V92.2695H103.045V97.8979H101.965ZM104.713 93.2014C104.38 93.2014 104.103 92.9351 104.103 92.6023C104.103 92.2658 104.38 91.9995 104.713 91.9995C105.046 91.9995 105.32 92.2658 105.32 92.6023C105.32 92.9351 105.046 93.2014 104.713 93.2014ZM104.169 97.8979V93.8264H105.249V97.8979H104.169ZM106.337 97.8979V93.8264H107.416V94.455H107.483C107.668 94.015 108.071 93.7376 108.652 93.7376C109.558 93.7376 110.046 94.2923 110.046 95.2649V97.8979H108.966V95.509C108.966 94.9358 108.729 94.6325 108.219 94.6325C107.72 94.6325 107.416 94.9913 107.416 95.5423V97.8979H106.337Z" fill="white"/>
</svg>
