<svg width="266" height="294" viewBox="0 0 266 294" fill="none" xmlns="http://www.w3.org/2000/svg">
<path d="M62.9587 36.9666L52.3118 12.2851C51.0931 9.4599 51.9006 6.16893 54.2886 4.22869C57.1834 1.87662 61.426 2.26284 63.8485 5.09899L83.1748 27.725L101.911 45.6286C106.729 50.2321 110.941 55.4298 114.447 61.0966L185.988 176.747L202.556 197.331C204.213 199.389 206.1 201.25 208.182 202.876L208.614 203.213C225.755 216.605 226.088 242.426 209.296 256.254L205.904 259.048C187.118 274.518 158.633 263.737 154.798 239.705L146.904 211.455C144.861 204.143 141.768 197.165 137.723 190.74L104.546 138.047L75.0884 73.3556L62.9587 36.9666Z" fill="white"/>
<path d="M76.4761 37.6083L95.6782 54.7157L80.6922 63.3846L75.2037 38.1533L58.4339 4.00032L59.6715 4.35518L76.4761 37.6083Z" fill="#B3B3B3" stroke="black"/>
<rect x="-0.676534" y="-0.181279" width="15.3752" height="27.8029" transform="matrix(-0.861268 0.508151 -0.491799 -0.870709 195.609 229.31)" fill="#5B6670" stroke="black"/>
<path d="M213 226.328C213.327 226.884 213.278 227.783 212.627 229.086C211.988 230.363 210.836 231.888 209.239 233.565C206.049 236.912 201.164 240.777 195.338 244.353C189.512 247.929 183.877 250.52 179.487 251.825C177.288 252.479 175.429 252.801 174.025 252.778C172.593 252.753 171.793 252.375 171.466 251.82C171.14 251.265 171.188 250.366 171.84 249.062C172.479 247.785 173.63 246.26 175.228 244.583C178.417 241.236 183.303 237.371 189.129 233.795C194.955 230.219 200.589 227.628 204.98 226.323C207.179 225.669 209.038 225.347 210.441 225.371C211.874 225.395 212.674 225.773 213 226.328Z" fill="#4A565E" stroke="black"/>
<path d="M198.985 200.476C199.311 201.032 199.263 201.931 198.611 203.234C197.972 204.511 196.821 206.036 195.223 207.713C192.034 211.06 187.149 214.925 181.322 218.501C175.496 222.077 169.862 224.668 165.471 225.973C163.272 226.627 161.413 226.949 160.01 226.926C158.577 226.901 157.777 226.523 157.451 225.968C157.124 225.413 157.173 224.513 157.825 223.21C158.463 221.933 159.615 220.408 161.212 218.731C164.402 215.384 169.287 211.519 175.113 207.943C180.94 204.367 186.574 201.776 190.964 200.471C193.163 199.817 195.023 199.495 196.426 199.518C197.858 199.543 198.658 199.921 198.985 200.476Z" fill="#4A565E" stroke="black"/>
<path d="M99.6753 57.9015L184.061 202.661L165.636 213.983L81.8686 69.4013C78.3649 62.9372 81.5031 61.3348 83.3688 60.2774L92.4308 55.1418C96.6471 52.8931 98.6534 56.0162 99.6753 57.9015Z" fill="#EBF9FF" stroke="black"/>
<rect width="7.83962" height="9.31734" transform="matrix(0.506932 0.861986 -0.852279 0.523088 129.848 109.547)" fill="#5B6670"/>
<rect width="7.83962" height="9.31734" transform="matrix(0.506932 0.861986 -0.852279 0.523088 138.556 124.329)" fill="#5B6670"/>
<rect width="7.83962" height="9.31734" transform="matrix(0.506932 0.861986 -0.852279 0.523088 146.85 138.997)" fill="#5B6670"/>
<rect width="7.83962" height="9.31734" transform="matrix(0.506932 0.861986 -0.852279 0.523088 155.852 154.312)" fill="#5B6670"/>
<rect width="7.83962" height="9.31734" transform="matrix(0.506932 0.861986 -0.852279 0.523088 163.977 168.015)" fill="#5B6670"/>
<rect width="7.83962" height="9.31734" transform="matrix(0.506932 0.861986 -0.852279 0.523088 172.273 182.675)" fill="#5B6670"/>
<path d="M114.19 113.931C118.23 114.634 126.033 111.033 129.595 109.249L99.3828 57.3656C98.4984 55.5197 96.7551 52.5176 92.1638 55.2956L83.6348 60.1292C81.2963 61.2785 78.631 62.7889 81.2842 68.3267L108.749 115.783C108.941 115.11 112.746 113.517 114.19 113.931Z" fill="#EAD9D1" stroke="black"/>
<rect width="7.83962" height="9.31734" transform="matrix(0.506932 0.861986 -0.852279 0.523088 121.139 94.7676)" fill="#5B6670"/>
</svg>
