<svg width="266" height="264" viewBox="0 0 266 264" fill="none" xmlns="http://www.w3.org/2000/svg">
<path d="M76.4397 35.5163L95.6577 52.5951L80.6778 61.2286L75.1677 36.0589L58.3678 1.98129L59.6058 2.33626L76.4397 35.5163Z" fill="#B3B3B3" stroke="black" stroke-width="2"/>
<rect x="-1.35526" y="-0.363145" width="14.353" height="26.767" transform="matrix(-0.862076 0.506779 -0.493186 -0.869924 194.389 226.821)" fill="#5B6670" stroke="black" stroke-width="2"/>
<path d="M213.023 222.765C213.213 223.086 213.268 223.767 212.636 225.028C212.031 226.237 210.919 227.715 209.339 229.369C206.19 232.665 201.345 236.489 195.547 240.035C189.75 243.581 184.157 246.139 179.82 247.422C177.644 248.065 175.839 248.37 174.507 248.347C173.116 248.322 172.551 247.953 172.362 247.632C172.173 247.311 172.118 246.63 172.749 245.368C173.354 244.16 174.466 242.682 176.046 241.028C179.195 237.732 184.04 233.908 189.838 230.362C195.636 226.816 201.228 224.258 205.565 222.975C207.741 222.332 209.546 222.027 210.878 222.05C212.269 222.075 212.834 222.444 213.023 222.765Z" fill="#4A565E" stroke="black" stroke-width="2"/>
<path d="M198.668 198.322C198.858 198.643 198.913 199.324 198.281 200.586C197.676 201.794 196.564 203.272 194.984 204.926C191.835 208.222 186.99 212.046 181.192 215.592C175.395 219.138 169.802 221.696 165.465 222.979C163.289 223.622 161.484 223.927 160.152 223.904C158.761 223.879 158.196 223.51 158.007 223.189C157.817 222.868 157.762 222.187 158.394 220.926C158.999 219.717 160.111 218.239 161.691 216.585C164.84 213.289 169.685 209.465 175.483 205.919C181.28 202.373 186.873 199.815 191.21 198.532C193.386 197.889 195.191 197.584 196.523 197.607C197.914 197.632 198.479 198.001 198.668 198.322Z" fill="#4A565E" stroke="black" stroke-width="2"/>
<path d="M99.6578 55.7763L184.172 200.227L165.755 211.504L81.8594 67.2309C78.35 60.7808 81.487 59.1853 83.352 58.1323L92.4104 53.0177C96.6251 50.7785 98.6342 53.8951 99.6578 55.7763Z" fill="#EBF9FF" stroke="black" stroke-width="2"/>
<rect width="7.83029" height="9.30418" transform="matrix(0.508304 0.861178 -0.853109 0.521734 129.876 107.312)" fill="#5B6670"/>
<rect width="7.83029" height="9.30418" transform="matrix(0.508304 0.861178 -0.853109 0.521734 138.598 122.062)" fill="#5B6670"/>
<rect width="7.83029" height="9.30418" transform="matrix(0.508304 0.861178 -0.853109 0.521734 146.905 136.698)" fill="#5B6670"/>
<rect width="7.83029" height="9.30418" transform="matrix(0.508304 0.861178 -0.853109 0.521734 155.92 151.981)" fill="#5B6670"/>
<rect width="7.83029" height="9.30418" transform="matrix(0.508304 0.861178 -0.853109 0.521734 164.057 165.655)" fill="#5B6670"/>
<rect width="7.83029" height="9.30418" transform="matrix(0.508304 0.861178 -0.853109 0.521734 172.367 180.283)" fill="#5B6670"/>
<path d="M114.221 111.671C118.262 112.376 126.063 108.791 129.624 107.015L99.3649 55.2414C98.4789 53.3996 96.7329 50.4038 92.1435 53.1707L83.618 57.9844C81.2802 59.1287 78.616 60.633 81.2741 66.1585L108.781 113.513C108.973 112.843 112.777 111.257 114.221 111.671Z" fill="#EAD9D1" stroke="black"/>
<rect width="7.83029" height="9.30418" transform="matrix(0.508304 0.861178 -0.853109 0.521734 121.155 92.5635)" fill="#5B6670"/>
</svg>
