<svg width="523" height="545" viewBox="0 0 523 545" fill="none" xmlns="http://www.w3.org/2000/svg">
<path d="M363.561 430.318L368.994 416.634L374.428 430.318C374.801 431.258 375.566 431.989 376.522 432.319L390.781 437.236L376.522 442.153C375.566 442.482 374.801 443.213 374.428 444.153L368.994 457.837L363.561 444.153C363.188 443.213 362.423 442.482 361.466 442.153L347.208 437.236L361.466 432.319C362.423 431.989 363.188 431.258 363.561 430.318Z" fill="white" stroke="black" stroke-width="4"/>
<path d="M123.913 489.365L129.346 475.682L134.78 489.365C135.153 490.305 135.918 491.036 136.874 491.366L151.133 496.283L136.874 501.2C135.918 501.53 135.153 502.26 134.78 503.201L129.346 516.884L123.913 503.201C123.54 502.26 122.775 501.53 121.819 501.2L107.56 496.283L121.819 491.366C122.775 491.036 123.54 490.305 123.913 489.365Z" fill="white" stroke="black" stroke-width="4"/>
<path d="M152.871 130.078L158.304 116.395L163.737 130.078C164.11 131.018 164.875 131.749 165.832 132.079L180.09 136.996L165.832 141.913C164.875 142.243 164.11 142.973 163.737 143.914L158.304 157.597L152.871 143.914C152.497 142.973 151.732 142.243 150.776 141.913L136.518 136.996L150.776 132.079C151.732 131.749 152.497 131.018 152.871 130.078Z" fill="white" stroke="black" stroke-width="4"/>
<path d="M231.334 160.609L316.016 65.5824C319.032 62.1982 322.8 59.5732 327.017 57.9195C330.367 56.6056 333.933 55.9313 337.531 55.9313L338.895 55.9313C347.092 55.9313 355.046 58.728 361.448 63.8611L365.059 66.7568C368.113 69.2054 370.865 72.0095 373.258 75.1099L379.661 83.4071C381.22 85.4284 382.476 87.6682 383.386 90.0548C386.572 98.4069 385.27 107.81 379.935 114.974L319.03 196.748C313.804 203.766 316.004 213.8 323.687 217.98C325.6 219.021 327.252 220.485 328.518 222.26L337.804 235.291C340.206 238.661 341.091 242.884 340.244 246.936L339.933 248.427C338.401 255.755 343.196 262.912 350.545 264.267C353.466 264.806 356.123 266.308 358.093 268.536L364.167 275.404C367.788 279.499 370.531 284.294 372.227 289.494L373.574 293.623C375.181 298.55 375.556 303.797 374.664 308.902L373.93 313.109C373.19 317.342 371.058 321.204 367.873 324.08L366.415 325.396C359.954 331.229 358.926 341.01 364.032 348.07C365.507 350.109 366.513 352.45 366.978 354.925L369.219 366.853C369.51 368.402 369.656 369.974 369.656 371.55C369.656 379.792 365.662 387.52 358.944 392.272L341.452 404.648C336.234 408.339 331.573 412.764 327.612 417.785L316.609 431.731L299.775 451.013C294.706 456.82 288.97 462.005 282.685 466.46L281.492 467.306C274.978 471.923 267.862 475.622 260.342 478.297L250.809 481.688C247.767 482.77 244.563 483.323 241.335 483.323L237.853 483.323C230.367 483.323 223.399 487.144 219.364 493.46C211.844 505.231 195.419 507.082 185.469 497.279L175.317 487.275L116.403 438.737L70.065 399.465C58.4898 389.655 57.8218 372.002 68.6229 361.352C73.8989 356.15 76.6852 348.923 76.2711 341.515L74.9643 318.141L75.8273 299.395C76.55 283.698 80.4259 268.309 87.2229 254.15C96.5112 234.802 110.943 218.397 128.932 206.738L144.779 196.467L170.378 183.195C177.56 179.472 185.529 177.528 193.616 177.528C208.022 177.528 221.741 171.374 231.334 160.609Z" fill="white"/>
<path d="M226.435 189.614L317.958 80.4508C337.037 56.8366 382.801 82.6319 361.044 116.48L275.901 229.762L299.757 224.874C311.454 223.189 343.881 250.635 319.108 275.545L317.958 276.967L331.631 272.837C349.095 266.709 377.109 313.696 344.437 329.375L327.621 335.465C348.647 334.02 372.125 369.143 342.692 388.678L313.127 398.519C310.562 413.074 287.842 442.573 260.627 457.042C255.309 459.869 241.223 465.43 227.42 465.055C221.39 467.591 211.919 475.371 203.276 490.011L72.7403 384.065L92.8289 359.202C91.9471 356.893 93.1777 317.001 94.8647 295.436C96.4858 255.697 120.823 230.221 132.789 222.451C134.55 220.271 164.155 206.276 175.699 197.499C192.857 184.455 211.035 191.778 219.28 198.47L226.435 189.614Z" fill="#FED90F"/>
<path d="M275.901 229.762L361.044 116.48C382.801 82.6319 337.037 56.8366 317.958 80.4508L226.435 189.614L219.28 198.47M275.901 229.762L299.757 224.874C311.454 223.189 343.881 250.635 319.108 275.545L317.958 276.967M275.901 229.762L268.746 238.617M317.958 276.967L331.631 272.837C349.095 266.709 377.109 313.696 344.437 329.375L327.621 335.465M317.958 276.967L248.629 305.754M248.629 305.754C235.009 320.265 227.376 344.148 265.642 357.91M248.629 305.754C239.599 308.952 218.132 311.681 204.504 297.011M265.642 357.91L327.621 335.465M265.642 357.91C239.034 384.627 269.767 409.947 280.96 407.94L313.127 398.519M327.621 335.465C348.647 334.02 372.125 369.143 342.692 388.678L313.127 398.519M313.127 398.519C310.562 413.074 287.842 442.573 260.627 457.042C255.309 459.869 241.223 465.43 227.42 465.055C221.39 467.591 211.919 475.371 203.276 490.011L72.7403 384.065L92.8289 359.202C91.9471 356.893 93.1777 317.001 94.8647 295.436C96.4858 255.697 120.823 230.221 132.789 222.451C134.55 220.271 164.155 206.276 175.699 197.499C192.857 184.455 211.035 191.778 219.28 198.47M204.504 297.011C204.468 316.531 202.085 358.434 192.839 369.878M204.504 297.011C203.279 288.411 200.878 273.565 198.439 263.103M268.746 238.617C294.658 258.056 301.934 277.21 294.643 284.826C280.712 302.068 237.425 278.221 208.896 260.719M268.746 238.617L219.28 198.47M208.896 260.719C203.611 257.477 198.833 254.453 194.841 251.948C195.952 253.609 197.2 257.791 198.439 263.103M208.896 260.719C207.179 259.325 199.334 261.995 198.439 263.103" stroke="black" stroke-width="3.5"/>
<path d="M334.292 97.9156C336.87 94.8534 339.28 92.2323 341.195 90.1495C341.242 90.0984 341.289 90.0476 341.335 89.9972C342.301 88.9465 343.141 88.0305 343.803 87.2727C343.933 87.123 344.058 86.9777 344.177 86.837C344.246 87.0421 344.321 87.2598 344.402 87.4878C344.739 88.4367 345.189 89.611 345.674 90.8808C345.783 91.1647 345.894 91.4533 346.005 91.7453C347.239 94.9785 348.586 98.6059 349.062 100.999C350.116 106.305 348.498 109.345 346.26 110.995C343.944 112.702 340.81 113.038 338.715 112.592C336.335 112.085 334.753 111.11 333.729 109.937C332.701 108.76 332.183 107.325 332.034 105.811C331.73 102.739 332.962 99.4944 334.292 97.9156Z" fill="#E22C21" stroke="black" stroke-width="1.61041"/>
</svg>
