<svg width="226" height="219" viewBox="0 0 226 219" fill="none" xmlns="http://www.w3.org/2000/svg">
<path d="M187.682 0.5H196.196C201.914 0.5 207.48 2.33698 212.074 5.74011L212.761 6.24884C216.505 9.02198 219.353 12.832 220.954 17.2073L221.264 18.0555C224.168 25.9917 222.349 34.8869 216.563 41.0462C212.668 45.1921 210.5 50.6665 210.5 56.3548V66.2052C210.5 75.6171 206.481 84.5812 199.454 90.8427L169.744 117.317C163.545 122.841 160 130.749 160 139.052V146.497C160 154.032 155.367 160.793 148.34 163.514C145.812 164.492 143.533 166.022 141.671 167.991L130.728 179.559C128.283 182.144 126.532 185.307 125.639 188.751C124.267 194.042 120.893 198.593 116.229 201.443L114.5 202.5L102.537 212.316C97.6635 216.315 91.5547 218.5 85.2509 218.5C79.8709 218.5 74.6113 216.908 70.1348 213.923L56.4311 204.787C54.1526 203.268 52.072 201.472 50.2373 199.439L18.2732 164.019C16.7617 162.344 15.426 160.519 14.2869 158.571L6.66206 145.535C2.80092 138.934 2.40979 130.862 5.61457 123.918C6.20366 122.642 6.90658 121.421 7.7148 120.271L15.7593 108.823C18.1043 105.486 21.9275 103.5 26.0062 103.5C32.0773 103.5 37.2741 99.1456 38.3368 93.1682L39.3946 87.2178C40.1136 83.1736 42.0764 79.4545 45.0096 76.5789L57.799 64.0402C63.1101 58.8332 70.0245 55.5732 77.4208 54.7887L86.5556 53.8199C94.5733 52.9695 102.002 49.2133 107.44 43.2604L137.607 10.2352C142.84 4.50721 151.289 3.05406 158.134 6.70492L159.166 7.25517C165.032 10.3836 172.244 9.3855 177.04 4.78155C179.902 2.03418 183.715 0.5 187.682 0.5Z" fill="white"/>
<path d="M38.0542 123.262L55.4692 105.847L70.4819 120.86L53.0668 138.275L38.0542 123.262Z" fill="#BFBEDE" stroke="black"/>
<path d="M76.7071 162.122L94.1221 144.707L109.135 159.72L91.7198 177.135L76.7071 162.122Z" fill="#BFBEDE" stroke="black"/>
<path d="M53.0377 138.246L70.4527 120.831L94.3161 144.694L76.901 162.109L53.0377 138.246Z" fill="#BFBEDE" stroke="black"/>
<path d="M15.0805 126.425L27.6951 113.81C28.2905 113.215 29.256 113.215 29.8514 113.81L102.049 186.008C102.644 186.603 102.644 187.569 102.049 188.164L89.4344 200.779C86.4667 203.746 81.6552 203.746 78.6875 200.779L15.0805 137.172C12.1129 134.204 12.1129 129.392 15.0805 126.425Z" fill="#AF9CCA" stroke="black"/>
<path d="M186.824 13.925L168.02 31.7132C166.535 33.1177 166.495 35.4684 167.932 36.9223L179.374 48.5046C180.782 49.9291 183.075 49.9514 184.51 48.5544L203.898 29.6764C204.603 28.9903 205 28.0486 205 27.0651V15.8653C205 13.7683 203.235 12.1038 201.141 12.227L189.115 12.9344C188.259 12.9848 187.448 13.3356 186.824 13.925Z" fill="#9A81BB" stroke="black"/>
<path d="M116.052 166.655L49.2386 100.407C47.8134 98.9938 47.799 96.6943 49.2063 95.2633L69.8279 74.2951C70.4276 73.6854 71.2362 73.3052 72.0872 73.2197C94.2006 70.9964 97.2861 68.7283 107.81 60.1901L148.755 20.1969C150.188 18.798 152.48 18.8163 153.89 20.238L196.586 63.2962C197.994 64.7159 197.995 67.0045 196.589 68.4257L161.669 103.723C142.131 119.973 142.923 133.758 142.856 144.903C142.85 145.891 142.431 146.827 141.709 147.501L121.105 166.732C119.673 168.068 117.442 168.034 116.052 166.655Z" fill="#FFF9E3" stroke="black"/>
</svg>
