<svg width="170" height="170" viewBox="0 0 170 170" fill="none" xmlns="http://www.w3.org/2000/svg">
<path d="M154.165 0.774958L154.413 0.80423C160.326 1.50134 165.219 5.72953 166.766 11.4794L167.93 15.8086C169.217 20.5928 167.941 25.7023 164.556 29.3196L161.842 32.2203C158.357 35.9443 158.259 41.7023 161.614 45.5432C165.036 49.4595 164.857 55.3519 161.205 59.0544L128.529 92.1825C125.333 95.4226 123.123 99.504 122.157 103.951L120.251 112.719C119.186 117.619 116.615 122.063 112.897 125.428L100.756 136.418C98.4735 138.484 95.1637 138.953 92.3972 137.603L90.1066 136.485C88.0617 135.487 85.594 136.14 84.3107 138.019C83.5254 139.169 83.3055 140.614 83.7131 141.946L84.523 144.591C85.7472 148.591 84.4417 152.933 81.2153 155.595L76.9902 159.079C69.5189 165.242 58.5628 164.614 51.8448 157.638L11.6148 115.863C5.10745 109.105 5.03911 98.4333 11.4594 91.5933L20.9297 81.5038C21.9781 80.3869 23.7146 80.2786 24.8937 81.2566C26.0945 82.2526 27.8681 82.1196 28.9069 80.9556L31.8516 77.656C33.4443 75.8712 34.088 73.4327 33.5834 71.0944L33.0933 68.8229C32.2155 64.7543 33.499 60.5207 36.4885 57.6246L43.1685 51.1532C46.9929 47.4482 51.9399 45.1187 57.2321 44.5307L69.363 43.1829C74.4989 42.6123 79.314 40.401 83.0936 36.877L114.249 7.82897C117.801 4.51734 123.305 4.50151 126.875 7.79265C130.483 11.1179 136.056 11.0627 139.597 7.6665L142.814 4.58164C145.838 1.68061 150.002 0.284265 154.165 0.774958Z" fill="white"/>
<path d="M33.9894 95.5928L46.5099 82.8991L57.2311 93.7685L44.7105 106.462L33.9894 95.5928Z" fill="#BFBEDE" stroke="black" stroke-width="1.5"/>
<path d="M63.412 125.422L75.9325 112.728L86.6537 123.598L74.1331 136.291L63.412 125.422Z" fill="#BFBEDE" stroke="black" stroke-width="1.5"/>
<path d="M45.2124 106.971L57.733 94.2773L75.0835 111.868L62.5629 124.561L45.2124 106.971Z" fill="#BFBEDE" stroke="black" stroke-width="1.5"/>
<mask id="path-5-inside-1_195_215" fill="white">
<path d="M15.844 106.269C13.5572 103.953 13.5572 100.196 15.844 97.8795L25.4839 88.1127C26.0555 87.5335 26.9824 87.5335 27.5541 88.1127L81.7248 142.996C82.2964 143.576 82.2964 144.515 81.7248 145.094L72.0849 154.861C69.7981 157.177 66.0906 157.177 63.8039 154.861L15.844 106.269Z"/>
</mask>
<path d="M15.844 106.269C13.5572 103.953 13.5572 100.196 15.844 97.8795L25.4839 88.1127C26.0555 87.5335 26.9824 87.5335 27.5541 88.1127L81.7248 142.996C82.2964 143.576 82.2964 144.515 81.7248 145.094L72.0849 154.861C69.7981 157.177 66.0906 157.177 63.8039 154.861L15.844 106.269Z" fill="#AF9CCA" stroke="black" stroke-width="4" mask="url(#path-5-inside-1_195_215)"/>
<path d="M144.917 12.5461L130.716 26.1649C129.653 27.1845 129.624 28.8753 130.653 29.9303L139.36 38.8656C140.387 39.9195 142.075 39.9358 143.123 38.902L157.723 24.4891C158.228 23.9908 158.512 23.3109 158.512 22.6015V13.9173C158.512 12.3904 157.226 11.1787 155.702 11.2696L146.595 11.8128C145.966 11.8503 145.371 12.1102 144.917 12.5461Z" fill="#9A81BB" stroke="black" stroke-width="2"/>
<path d="M91.9282 128.585L41.7502 78.1431C40.73 77.1176 40.7196 75.4639 41.7268 74.4257L57.2838 58.3886C57.7206 57.9382 58.3133 57.6568 58.9375 57.5932C75.519 55.9043 77.8288 54.1831 85.7145 47.6968L116.425 17.2853C117.471 16.2501 119.159 16.2636 120.188 17.3154L152.302 50.1495C153.31 51.1796 153.311 52.8254 152.304 53.8566L126.057 80.7549C111.388 93.1234 112.018 103.612 111.964 112.085C111.96 112.798 111.66 113.474 111.143 113.964L95.6316 128.641C94.5863 129.63 92.943 129.605 91.9282 128.585Z" fill="#FFF9E3" stroke="black" stroke-width="2"/>
</svg>
