<svg width="150" height="143" viewBox="0 0 150 143" fill="none" xmlns="http://www.w3.org/2000/svg">
<path d="M149.936 68.5212C149.964 69.1798 149.983 69.8407 149.993 70.5038L149.493 70.5109C149.498 70.8401 149.5 71.1698 149.5 71.5C149.5 71.8302 149.498 72.1599 149.493 72.4891L149.993 72.4962C149.983 73.1593 149.964 73.8202 149.936 74.4788L149.437 74.4573C149.408 75.1156 149.371 75.7715 149.324 76.425L149.822 76.4608C149.775 77.1215 149.718 77.7797 149.652 78.4354L149.154 78.3851C149.088 79.0407 149.012 79.6937 148.928 80.344L149.424 80.4087C149.338 81.0648 149.243 81.7183 149.139 82.3688L148.645 82.2898C148.541 82.9405 148.428 83.5883 148.305 84.2331L148.797 84.3264C148.673 84.9768 148.54 85.6241 148.398 86.2682L147.91 86.1607C147.768 86.8034 147.618 87.443 147.458 88.0792L147.943 88.201C147.782 88.8432 147.611 89.4821 147.432 90.1175L146.951 89.9818C146.772 90.6146 146.585 91.2439 146.389 91.8696L146.866 92.0192C146.668 92.6512 146.46 93.2794 146.244 93.9039L145.772 93.7405C145.557 94.3614 145.334 94.9786 145.102 95.5918L145.569 95.7688C145.335 96.3882 145.092 97.0036 144.84 97.6149L144.378 97.4246C144.128 98.0319 143.869 98.6352 143.602 99.2342L144.059 99.4378C143.789 100.043 143.511 100.643 143.225 101.239L142.774 101.023C142.49 101.615 142.197 102.202 141.896 102.786L142.34 103.015C142.037 103.603 141.725 104.186 141.406 104.765L140.968 104.524C140.65 105.099 140.325 105.669 139.991 106.234L140.422 106.488C140.086 107.058 139.742 107.623 139.39 108.183L138.967 107.917C138.617 108.473 138.26 109.025 137.895 109.571L138.311 109.848C137.944 110.399 137.569 110.943 137.186 111.483L136.778 111.194C136.399 111.73 136.011 112.26 135.617 112.785L136.017 113.086C135.619 113.614 135.215 114.138 134.803 114.656L134.412 114.344C134.003 114.858 133.587 115.367 133.164 115.87L133.547 116.192C133.121 116.698 132.689 117.198 132.249 117.693L131.876 117.36C131.439 117.851 130.996 118.336 130.546 118.816L130.911 119.158C130.459 119.64 130 120.116 129.534 120.586L129.179 120.234C128.716 120.701 128.248 121.161 127.772 121.616L128.118 121.977C127.64 122.434 127.157 122.884 126.666 123.328L126.331 122.958C125.844 123.399 125.351 123.834 124.852 124.262L125.178 124.642C124.677 125.072 124.169 125.496 123.656 125.914L123.34 125.526C122.831 125.94 122.316 126.348 121.795 126.749L122.1 127.145C121.576 127.549 121.047 127.945 120.512 128.335L120.217 127.931C119.687 128.318 119.151 128.698 118.61 129.071L118.894 129.483C118.349 129.858 117.799 130.226 117.244 130.587L116.971 130.168C116.422 130.526 115.867 130.877 115.307 131.221L115.568 131.648C115.005 131.994 114.436 132.333 113.863 132.665L113.612 132.232C113.045 132.56 112.472 132.882 111.895 133.196L112.134 133.635C111.553 133.951 110.968 134.26 110.378 134.561L110.15 134.116C109.566 134.415 108.978 134.706 108.384 134.99L108.6 135.441C108.004 135.726 107.404 136.004 106.799 136.274L106.595 135.818C105.996 136.085 105.393 136.346 104.785 136.598L104.977 137.06C104.368 137.314 103.754 137.56 103.136 137.798L102.956 137.332C102.344 137.568 101.727 137.797 101.107 138.019L101.275 138.489C100.653 138.711 100.028 138.925 99.3988 139.131L99.2431 138.656C98.6191 138.861 97.9913 139.058 97.3599 139.247L97.5033 139.726C96.8717 139.915 96.2365 140.096 95.5978 140.27L95.4667 139.787C94.8328 139.96 94.1955 140.124 93.5548 140.28L93.6735 140.766C93.0333 140.923 92.3899 141.071 91.7433 141.212L91.6371 140.723C90.9955 140.863 90.3508 140.994 89.703 141.118L89.7967 141.609C89.1493 141.732 88.4988 141.848 87.8455 141.955L87.7643 141.462C87.1168 141.569 86.4665 141.667 85.8133 141.758L85.882 142.253C85.229 142.343 84.5733 142.426 83.9149 142.5L83.8588 142.003C83.2071 142.077 82.5528 142.142 81.896 142.2L81.9396 142.698C81.2827 142.755 80.6235 142.805 79.9618 142.846L79.9308 142.347C79.2765 142.388 78.6199 142.42 77.9611 142.445L77.9797 142.945C77.3207 142.969 76.6596 142.986 75.9964 142.994L75.9902 142.494C75.6606 142.498 75.3306 142.5 75 142.5C74.6694 142.5 74.3394 142.498 74.0098 142.494L74.0036 142.994C73.3404 142.986 72.6792 142.969 72.0203 142.945L72.0389 142.445C71.3801 142.42 70.7235 142.388 70.0692 142.347L70.0382 142.846C69.3765 142.805 68.7173 142.755 68.0604 142.698L68.104 142.2C67.4472 142.142 66.7929 142.077 66.1411 142.003L66.085 142.5C65.4267 142.426 64.771 142.343 64.118 142.253L64.1867 141.758C63.5335 141.667 62.8831 141.569 62.2356 141.462L62.1545 141.955C61.5011 141.848 60.8507 141.732 60.2033 141.609L60.297 141.118C59.6492 140.994 59.0045 140.863 58.3629 140.723L58.2567 141.212C57.6101 141.071 56.9667 140.923 56.3265 140.766L56.4452 140.28C55.8045 140.124 55.1671 139.96 54.5332 139.787L54.4021 140.27C53.7635 140.096 53.1283 139.915 52.4967 139.726L52.6401 139.247C52.0087 139.058 51.3809 138.861 50.7569 138.656L50.6011 139.131C49.972 138.925 49.3466 138.711 48.7252 138.489L48.8931 138.019C48.2728 137.797 47.6564 137.568 47.0441 137.332L46.864 137.798C46.2461 137.56 45.6324 137.314 45.0228 137.06L45.2149 136.598C44.6073 136.346 44.004 136.085 43.405 135.818L43.201 136.274C42.5961 136.004 41.9957 135.726 41.3997 135.441L41.6156 134.99C41.0223 134.706 40.4336 134.415 39.8496 134.116L39.6221 134.561C39.032 134.26 38.4466 133.951 37.8661 133.635L38.1051 133.196C37.5278 132.882 36.9554 132.56 36.3879 132.232L36.1375 132.665C35.5638 132.333 34.9952 131.994 34.4317 131.648L34.6934 131.221C34.1332 130.877 33.5782 130.526 33.0285 130.168L32.7557 130.587C32.2005 130.226 31.6508 129.858 31.1065 129.483L31.3902 129.071C30.8488 128.698 30.3128 128.318 29.7825 127.931L29.488 128.335C28.953 127.945 28.4236 127.549 27.9001 127.145L28.2052 126.749C27.6842 126.348 27.1689 125.94 26.6596 125.526L26.3441 125.914C25.8308 125.496 25.3234 125.072 24.8222 124.642L25.1479 124.262C24.6489 123.834 24.156 123.399 23.6694 122.958L23.3336 123.328C22.8434 122.884 22.3595 122.434 21.882 121.977L22.2276 121.616C21.7524 121.161 21.2835 120.701 20.8213 120.234L20.4661 120.586C20.0004 120.116 19.5413 119.64 19.089 119.158L19.4536 118.816C19.0038 118.336 18.5607 117.851 18.1245 117.36L17.7507 117.692C17.3112 117.198 16.8786 116.698 16.453 116.192L16.8357 115.87C16.4128 115.367 15.9969 114.858 15.5882 114.344L15.1969 114.656C14.7851 114.138 14.3805 113.614 13.9833 113.086L14.383 112.785C13.9885 112.26 13.6013 111.73 13.2216 111.194L12.8136 111.483C12.4311 110.943 12.0561 110.399 11.6887 109.848L12.1045 109.571C11.7398 109.025 11.3826 108.473 11.0333 107.917L10.6099 108.183C10.2581 107.623 9.9141 107.058 9.57807 106.488L10.0088 106.234C9.67524 105.669 9.34963 105.099 9.03205 104.524L8.59438 104.765C8.27467 104.186 7.96305 103.603 7.65965 103.015L8.104 102.786C7.80311 102.202 7.51038 101.615 7.22594 101.023L6.77525 101.239C6.48888 100.643 6.21086 100.043 5.94133 99.4378L6.39802 99.2342C6.13104 98.6352 5.87244 98.0319 5.62237 97.4246L5.16003 97.6149C4.90831 97.0036 4.66517 96.3882 4.43075 95.7688L4.89838 95.5918C4.6663 94.9785 4.44282 94.3614 4.2281 93.7405L3.75556 93.9039C3.53962 93.2794 3.33246 92.6512 3.13422 92.0192L3.61129 91.8696C3.41501 91.2439 3.22754 90.6146 3.04901 89.9818L2.5678 90.1175C2.38854 89.4821 2.21823 88.8432 2.05702 88.201L2.54198 88.0792C2.38228 87.443 2.23157 86.8034 2.08998 86.1606L1.60169 86.2682C1.4598 85.6241 1.32701 84.9768 1.20345 84.3264L1.69466 84.2331C1.57216 83.5883 1.45879 82.9405 1.3547 82.2898L0.860974 82.3688C0.756905 81.7182 0.662032 81.0648 0.576486 80.4086L1.07229 80.344C0.987515 79.6937 0.911966 79.0407 0.845771 78.3851L0.3483 78.4353C0.282105 77.7797 0.225197 77.1215 0.177703 76.4608L0.676416 76.425C0.629441 75.7715 0.591743 75.1156 0.563447 74.4573L0.0639083 74.4788C0.0355969 73.8202 0.0166303 73.1593 0.00713166 72.4962L0.50708 72.4891C0.502365 72.1599 0.5 71.8302 0.5 71.5C0.5 71.1698 0.502365 70.8401 0.50708 70.5109L0.00713177 70.5038C0.0166305 69.8407 0.0355971 69.1798 0.0639087 68.5212L0.563447 68.5427C0.591743 67.8844 0.629441 67.2285 0.676417 66.575L0.177704 66.5392C0.225197 65.8785 0.282105 65.2203 0.348301 64.5646L0.845772 64.6149C0.911967 63.9593 0.987516 63.3063 1.07229 62.656L0.576487 62.5913C0.662033 61.9352 0.756906 61.2817 0.860975 60.6312L1.3547 60.7102C1.45879 60.0595 1.57216 59.4117 1.69466 58.7669L1.20345 58.6736C1.32701 58.0232 1.4598 57.3759 1.60169 56.7318L2.08998 56.8393C2.23157 56.1966 2.38228 55.557 2.54198 54.9208L2.05702 54.799C2.21823 54.1568 2.38854 53.5179 2.5678 52.8825L3.04901 53.0182C3.22754 52.3854 3.41501 51.7561 3.61129 51.1304L3.13422 50.9808C3.33246 50.3488 3.53962 49.7206 3.75556 49.0961L4.2281 49.2595C4.44283 48.6386 4.6663 48.0215 4.89839 47.4082L4.43076 47.2312C4.66518 46.6118 4.90832 45.9964 5.16003 45.3851L5.62237 45.5754C5.87244 44.9681 6.13104 44.3648 6.39803 43.7658L5.94133 43.5622C6.21087 42.9575 6.48889 42.357 6.77525 41.7609L7.22594 41.9774C7.51038 41.3853 7.80311 40.7976 8.104 40.2144L7.65965 39.9851C7.96305 39.3971 8.27467 38.8135 8.59438 38.2347L9.03206 38.4764C9.34963 37.9014 9.67525 37.3311 10.0088 36.7656L9.57807 36.5116C9.9141 35.9418 10.2581 35.3768 10.6099 34.8168L11.0333 35.0827C11.3826 34.5266 11.7398 33.9754 12.1045 33.4292L11.6887 33.1515C12.0561 32.6015 12.4311 32.0565 12.8137 31.5169L13.2216 31.806C13.6013 31.2703 13.9885 30.7398 14.383 30.2146L13.9833 29.9143C14.3805 29.3855 14.7851 28.8622 15.1969 28.3443L15.5883 28.6555C15.9969 28.1416 16.4128 27.6331 16.8357 27.1303L16.453 26.8085C16.8786 26.3025 17.3112 25.8021 17.7507 25.3075L18.1245 25.6396C18.5607 25.1488 19.0038 24.6636 19.4536 24.1844L19.089 23.8422C19.5413 23.3603 20.0004 22.8842 20.4661 22.4142L20.8213 22.7661C21.2835 22.2995 21.7524 21.8388 22.2276 21.3843L21.8821 21.023C22.3595 20.5663 22.8434 20.1158 23.3337 19.6715L23.6694 20.042C24.1561 19.601 24.6489 19.1662 25.1479 18.7377L24.8222 18.3583C25.3234 17.9279 25.8308 17.5039 26.3441 17.0863L26.6596 17.4741C27.1689 17.0599 27.6842 16.652 28.2052 16.2507L27.9001 15.8546C28.4236 15.4513 28.953 15.0546 29.488 14.6647L29.7825 15.0687C30.3128 14.6822 30.8488 14.3022 31.3902 13.9291L31.1065 13.5174C31.6508 13.1423 32.2006 12.7739 32.7557 12.4125L33.0285 12.8315C33.5782 12.4737 34.1332 12.1226 34.6934 11.7785L34.4317 11.3525C34.9952 11.0063 35.5638 10.6672 36.1375 10.3353L36.3879 10.768C36.9554 10.4396 37.5278 10.1182 38.1051 9.80401L37.8661 9.36485C38.4466 9.04885 39.032 8.74003 39.6221 8.43852L39.8496 8.88377C40.4337 8.58537 41.0224 8.29416 41.6156 8.01029L41.3998 7.55927C41.9957 7.27411 42.5961 6.9963 43.201 6.72597L43.405 7.18245C44.004 6.91473 44.6073 6.65439 45.2149 6.40155L45.0228 5.93993C45.6324 5.68626 46.2462 5.44009 46.864 5.20154L47.0441 5.66799C47.6564 5.43158 48.2728 5.20271 48.8931 4.98149L48.7252 4.51054C49.3466 4.28891 49.972 4.07492 50.6012 3.86867L50.7569 4.3438C51.3809 4.13924 52.0087 3.94235 52.6401 3.75326L52.4967 3.27428C53.1283 3.08513 53.7635 2.90373 54.4022 2.73021L54.5333 3.21271C55.1672 3.04048 55.8045 2.87605 56.4452 2.71954L56.3265 2.23382C56.9667 2.07744 57.6101 1.92892 58.2567 1.78835L58.3629 2.27694C59.0045 2.13748 59.6492 2.00591 60.297 1.88234L60.2033 1.3912C60.8507 1.26769 61.5012 1.15214 62.1545 1.04464L62.2357 1.53801C62.8832 1.43147 63.5335 1.3329 64.1867 1.2424L64.118 0.747128C64.771 0.656648 65.4267 0.574188 66.0851 0.499858L66.1412 0.996701C66.7929 0.923114 67.4472 0.857545 68.104 0.8001L68.0604 0.302001C68.7173 0.244553 69.3766 0.195178 70.0382 0.153982L70.0692 0.653016C70.7235 0.612277 71.3801 0.579587 72.0389 0.555049L72.0203 0.0553957C72.6793 0.0308516 73.3404 0.0144127 74.0036 0.00618049L74.0098 0.506142C74.3394 0.502052 74.6694 0.5 75 0.5C75.3306 0.5 75.6606 0.502052 75.9902 0.506142L75.9964 0.00618072C76.6596 0.014413 77.3208 0.0308521 77.9797 0.0553963L77.9611 0.55505C78.6199 0.579588 79.2765 0.612278 79.9308 0.653017L79.9618 0.153983C80.6235 0.195179 81.2827 0.244554 81.9396 0.302003L81.896 0.800101C82.5528 0.857547 83.2071 0.923116 83.8589 0.996703L83.915 0.49986C84.5733 0.57419 85.229 0.65665 85.882 0.74713L85.8133 1.2424C86.4665 1.3329 87.1169 1.43147 87.7644 1.53802L87.8456 1.04465C88.4989 1.15215 89.1493 1.2677 89.7967 1.3912L89.703 1.88234C90.3508 2.00591 90.9955 2.13748 91.6371 2.27695L91.7433 1.78836C92.3899 1.92892 93.0333 2.07745 93.6735 2.23383L93.5548 2.71955C94.1955 2.87606 94.8329 3.04049 95.4668 3.21272L95.5979 2.73021C96.2365 2.90374 96.8717 3.08514 97.5033 3.27428L97.3599 3.75326C97.9913 3.94235 98.6191 4.13924 99.2431 4.3438L99.3989 3.86868C100.028 4.07492 100.653 4.28892 101.275 4.51055L101.107 4.98149C101.727 5.20271 102.344 5.43159 102.956 5.668L103.136 5.20155C103.754 5.4401 104.368 5.68626 104.977 5.93993L104.785 6.40156C105.393 6.6544 105.996 6.91474 106.595 7.18246L106.799 6.72597C107.404 6.99631 108.004 7.27412 108.6 7.55928L108.384 8.0103C108.978 8.29417 109.566 8.58537 110.15 8.88378L110.378 8.43853C110.968 8.74004 111.553 9.04886 112.134 9.36486L111.895 9.80402C112.472 10.1182 113.045 10.4396 113.612 10.768L113.863 10.3353C114.436 10.6672 115.005 11.0064 115.568 11.3525L115.307 11.7785C115.867 12.1226 116.422 12.4737 116.972 12.8316L117.244 12.4125C117.799 12.7739 118.349 13.1423 118.894 13.5174L118.61 13.9291C119.151 14.3023 119.687 14.6822 120.218 15.0687L120.512 14.6647C121.047 15.0546 121.576 15.4513 122.1 15.8546L121.795 16.2507C122.316 16.652 122.831 17.0599 123.34 17.4742L123.656 17.0863C124.169 17.5039 124.677 17.9279 125.178 18.3584L124.852 18.7377C125.351 19.1662 125.844 19.601 126.331 20.042L126.666 19.6715C127.157 20.1158 127.64 20.5663 128.118 21.023L127.772 21.3843C128.248 21.8389 128.716 22.2995 129.179 22.7661L129.534 22.4142C130 22.8842 130.459 23.3603 130.911 23.8422L130.546 24.1844C130.996 24.6637 131.439 25.1488 131.876 25.6396L132.249 25.3075C132.689 25.8021 133.121 26.3025 133.547 26.8085L133.164 27.1303C133.587 27.6332 134.003 28.1416 134.412 28.6555L134.803 28.3443C135.215 28.8622 135.62 29.3855 136.017 29.9143L135.617 30.2146C136.012 30.7398 136.399 31.2703 136.778 31.806L137.186 31.5169C137.569 32.0566 137.944 32.6015 138.311 33.1515L137.895 33.4292C138.26 33.9754 138.617 34.5266 138.967 35.0828L139.39 34.8168C139.742 35.3768 140.086 35.9418 140.422 36.5116L139.991 36.7656C140.325 37.3311 140.65 37.9014 140.968 38.4764L141.406 38.2347C141.725 38.8135 142.037 39.3971 142.34 39.9851L141.896 40.2144C142.197 40.7976 142.49 41.3853 142.774 41.9774L143.225 41.7609C143.511 42.357 143.789 42.9575 144.059 43.5622L143.602 43.7658C143.869 44.3648 144.128 44.9681 144.378 45.5754L144.84 45.3851C145.092 45.9964 145.335 46.6118 145.569 47.2312L145.102 47.4082C145.334 48.0215 145.557 48.6386 145.772 49.2595L146.244 49.0961C146.46 49.7206 146.668 50.3488 146.866 50.9808L146.389 51.1304C146.585 51.7561 146.772 52.3854 146.951 53.0182L147.432 52.8825C147.611 53.5179 147.782 54.1568 147.943 54.799L147.458 54.9208C147.618 55.557 147.768 56.1966 147.91 56.8394L148.398 56.7318C148.54 57.3759 148.673 58.0232 148.797 58.6736L148.305 58.7669C148.428 59.4117 148.541 60.0595 148.645 60.7102L149.139 60.6312C149.243 61.2817 149.338 61.9352 149.424 62.5914L148.928 62.656C149.012 63.3063 149.088 63.9593 149.154 64.6149L149.652 64.5647C149.718 65.2203 149.775 65.8785 149.822 66.5392L149.324 66.575C149.371 67.2285 149.408 67.8844 149.437 68.5427L149.936 68.5212Z" fill="#DDDDDD" stroke="black" stroke-dasharray="2 2"/>
<path d="M64.3439 63L67.9639 62.88C68.2706 62.88 68.5173 62.9533 68.7039 63.1C68.8906 63.2333 68.9839 63.42 68.9839 63.66C68.9839 63.9 68.8906 64.0933 68.7039 64.24C68.5173 64.3733 68.2706 64.44 67.9639 64.44L65.1639 64.34C65.0973 67.34 65.0639 69.4133 65.0639 70.56L65.1639 77.18C65.1639 77.4867 65.0906 77.7333 64.9439 77.92C64.7973 78.1067 64.5973 78.2 64.3439 78.2C64.0906 78.2 63.8906 78.1067 63.7439 77.92C63.5973 77.7333 63.5239 77.4867 63.5239 77.18L63.6239 70.56C63.6239 69.4 63.5906 67.32 63.5239 64.32L60.5039 64.42C59.8639 64.42 59.5439 64.1667 59.5439 63.66C59.5439 63.1533 59.8639 62.9 60.5039 62.9L64.3439 63ZM77.5041 73.16C77.5041 74.16 77.5774 74.98 77.7241 75.62C77.8708 76.2467 78.0441 76.6 78.2441 76.68C78.3241 76.72 78.4174 76.7467 78.5241 76.76C78.6441 76.7733 78.7241 76.7933 78.7641 76.82C78.8174 76.8467 78.8441 76.9 78.8441 76.98C78.8441 77.34 78.7441 77.6333 78.5441 77.86C78.3574 78.0867 78.0708 78.2 77.6841 78.2C77.2974 78.2 76.9974 77.9533 76.7841 77.46C76.5708 76.9667 76.4641 76.3333 76.4641 75.56C76.1308 76.3067 75.6374 76.9333 74.9841 77.44C74.3441 77.9467 73.6174 78.2 72.8041 78.2C72.0041 78.2 71.3108 77.9333 70.7241 77.4C69.6574 76.4267 69.1241 75.0333 69.1241 73.22C69.1241 71.7667 69.5441 70.5 70.3841 69.42C71.2241 68.34 72.3041 67.8 73.6241 67.8C74.6241 67.8 75.4908 68.14 76.2241 68.82C76.2241 68.14 76.4774 67.8 76.9841 67.8C77.5974 67.8 77.9041 68.2733 77.9041 69.22C77.9041 70.1533 77.7708 71.4667 77.5041 73.16ZM76.3441 73.34L76.2441 70.26C75.4441 69.4867 74.6041 69.1 73.7241 69.1C72.8574 69.1 72.1108 69.4933 71.4841 70.28C70.8574 71.0667 70.5441 72.0133 70.5441 73.12C70.5441 74.2133 70.7441 75.12 71.1441 75.84C71.5574 76.5467 72.1374 76.9 72.8841 76.9C73.6308 76.9 74.3108 76.5667 74.9241 75.9C75.5374 75.2333 76.0108 74.38 76.3441 73.34ZM85.3499 76.9C86.2032 76.9 86.9499 76.5067 87.5899 75.72C88.2432 74.9333 88.5699 74.0133 88.5699 72.96C88.5699 71.8933 88.3365 70.9867 87.8699 70.24C87.4032 69.48 86.7699 69.1 85.9699 69.1C84.5699 69.1 83.4165 70.2533 82.5099 72.56V75.74C83.3099 76.5133 84.2565 76.9 85.3499 76.9ZM81.2699 74.2L81.2899 73.44V73.12C81.2899 72.56 81.2299 71.74 81.1099 70.66C80.9899 69.58 80.9299 68.9267 80.9299 68.7C80.9299 68.46 80.9965 68.2533 81.1299 68.08C81.2765 67.8933 81.4699 67.8 81.7099 67.8C81.9499 67.8 82.1365 67.8933 82.2699 68.08C82.4165 68.2533 82.4899 68.4533 82.4899 68.68C82.4899 68.9067 82.4832 69.1933 82.4699 69.54C82.4699 69.8733 82.4699 70.1533 82.4699 70.38C82.9099 69.5667 83.4032 68.9333 83.9499 68.48C84.4965 68.0267 85.2032 67.8 86.0699 67.8C86.9365 67.8 87.6832 68.08 88.3099 68.64C88.9365 69.2 89.3832 69.8467 89.6499 70.58C89.9165 71.3133 90.0499 72.0467 90.0499 72.78C90.0499 74.2333 89.6099 75.5 88.7299 76.58C87.8499 77.66 86.7232 78.2 85.3499 78.2C84.3499 78.2 83.4032 77.8733 82.5099 77.22C82.4832 78.8333 82.4699 80.0267 82.4699 80.8C82.4699 81.5867 82.4032 82.08 82.2699 82.28C82.1365 82.4933 81.9299 82.6 81.6499 82.6C81.3699 82.6 81.1365 82.48 80.9499 82.24C80.7765 82.0133 80.6899 81.68 80.6899 81.24C80.6899 80.8 80.7165 80.2733 80.7699 79.66C80.8232 79.06 80.9032 78.2667 81.0099 77.28C81.1165 76.28 81.2032 75.38 81.2699 74.58V74.2Z" fill="#5B5B5B"/>
</svg>
