<svg width="174" height="320" viewBox="0 0 174 320" fill="none" xmlns="http://www.w3.org/2000/svg">
<path d="M63.0992 15.6497L69.7003 11.0172C79.4744 3.85893 91.2746 0 103.39 0H112.422C119.621 0 126.732 1.59093 133.245 4.659C143.998 9.7249 152.537 18.5374 157.26 29.446L165.471 48.4079C171.097 61.4022 174 75.4121 174 89.5723V124.194V173.875C174 188.254 170.303 202.391 163.265 214.93L159.034 222.467C156.664 226.689 155.112 231.321 154.459 236.12L153.512 243.087C151.46 258.172 138.578 269.421 123.354 269.421H88.7793C76.5806 269.421 66.6916 279.31 66.6916 291.509C66.6916 293.796 66.3363 296.07 65.6382 298.248L65.2763 299.378C61.3394 311.665 49.9157 320 37.014 320H31.5908H27.4973C14.1924 320 2.79605 310.474 0.436034 297.38C0.145923 295.771 0 294.138 0 292.503V253.451C0 246.476 1.41335 239.573 4.15475 233.158L14.5128 208.923C16.3553 204.612 20.5916 201.815 25.2798 201.815C33.299 201.815 38.9452 193.936 36.3677 186.343L32.6517 175.395C31.9492 173.325 31.5908 171.154 31.5908 168.968V107.167V76.2548C31.5908 62.1053 35.6453 48.252 43.2742 36.3352C48.4727 28.215 55.2071 21.1883 63.0992 15.6497Z" fill="white"/>
<path d="M63.542 227.352L45.6032 299.206L16.7251 292.015C8.71167 290.02 3.83703 281.907 5.83733 273.895L16.5324 231.056C18.5327 223.044 26.6505 218.166 34.6639 220.161L63.542 227.352Z" fill="#A2A2A2" stroke="black" stroke-width="2"/>
<path d="M75.2161 251.394V223.347C75.2161 222.795 75.6638 222.347 76.2161 222.347H127.87C128.423 222.347 128.87 222.795 128.87 223.347V251.394C128.87 251.947 128.423 252.394 127.87 252.394H109.311C108.759 252.394 108.311 252.842 108.311 253.394V255.901C108.311 256.454 107.864 256.901 107.311 256.901H97.7781C97.2258 256.901 96.7781 256.454 96.7781 255.901V253.394C96.7781 252.842 96.3304 252.394 95.7781 252.394H76.2161C75.6638 252.394 75.2161 251.947 75.2161 251.394Z" fill="#DCF5F8" stroke="black" stroke-width="2"/>
<path fill-rule="evenodd" clip-rule="evenodd" d="M74.6534 34.2062C66.4407 34.8453 49.4395 41.0446 47.1357 60.7291V174.49C47.1357 178.644 49.8235 193.791 64.4142 226.258H140.888C141.844 223.888 142.929 221.285 144.076 218.532C150.096 204.088 157.846 185.494 157.846 174.49V58.4922C156.247 51.036 148.823 35.74 131.929 34.2062H74.6534ZM75.5956 47.947C68.1833 47.947 62.1744 53.9559 62.1744 61.3683C62.1744 68.7806 68.1833 74.7895 75.5956 74.7895H129.386C136.799 74.7895 142.808 68.7806 142.808 61.3683C142.808 53.9559 136.799 47.947 129.386 47.947H75.5956Z" fill="#2ED1E2"/>
<path d="M47.1357 60.7291L46.1425 60.6129L46.1357 60.6708V60.7291H47.1357ZM74.6534 34.2062V33.2062H74.6145L74.5758 33.2092L74.6534 34.2062ZM47.1357 174.49L46.1357 174.49L46.1357 174.49L47.1357 174.49ZM64.4142 226.258L63.5021 226.668L63.7673 227.258H64.4142V226.258ZM140.888 226.258V227.258H141.563L141.815 226.632L140.888 226.258ZM144.076 218.532L144.999 218.917L144.999 218.917L144.076 218.532ZM157.846 58.4922H158.846V58.3862L158.824 58.2824L157.846 58.4922ZM131.929 34.2062L132.019 33.2103L131.974 33.2062H131.929V34.2062ZM48.1289 60.8453C49.2452 51.3073 53.9052 45.0753 59.271 41.1314C64.6662 37.1658 70.7853 35.5102 74.731 35.2032L74.5758 33.2092C70.3088 33.5412 63.821 35.3049 58.0865 39.5199C52.3225 43.7565 47.33 50.4664 46.1425 60.6129L48.1289 60.8453ZM48.1357 174.49V60.7291H46.1357V174.49H48.1357ZM65.3264 225.848C58.0446 209.645 53.7421 197.784 51.2617 189.471C48.7742 181.134 48.1357 176.42 48.1357 174.49L46.1357 174.49C46.1357 176.714 46.8411 181.651 49.3452 190.043C51.8563 198.459 56.1931 210.404 63.5021 226.668L65.3264 225.848ZM140.888 225.258H64.4142V227.258H140.888V225.258ZM143.153 218.148C142.006 220.899 140.919 223.507 139.96 225.884L141.815 226.632C142.769 224.268 143.851 221.671 144.999 218.917L143.153 218.148ZM156.846 174.49C156.846 179.812 154.961 187.074 152.273 194.896C149.595 202.69 146.166 210.92 143.153 218.148L144.999 218.917C148.007 211.701 151.462 203.411 154.165 195.546C156.857 187.709 158.846 180.173 158.846 174.49H156.846ZM156.846 58.4922V174.49H158.846V58.4922H156.846ZM131.838 35.2021C139.972 35.9405 145.824 39.9828 149.858 44.7725C153.908 49.5807 156.099 55.1145 156.869 58.702L158.824 58.2824C157.994 54.4137 155.673 48.5714 151.388 43.4841C147.087 38.3783 140.78 34.0057 132.019 33.2103L131.838 35.2021ZM74.6534 35.2062H131.929V33.2062H74.6534V35.2062ZM63.1744 61.3683C63.1744 54.5082 68.7356 48.947 75.5956 48.947V46.947C67.631 46.947 61.1744 53.4036 61.1744 61.3683H63.1744ZM75.5956 73.7895C68.7356 73.7895 63.1744 68.2283 63.1744 61.3683H61.1744C61.1744 69.3329 67.631 75.7895 75.5956 75.7895V73.7895ZM129.386 73.7895H75.5956V75.7895H129.386V73.7895ZM141.808 61.3683C141.808 68.2283 136.247 73.7895 129.386 73.7895V75.7895C137.351 75.7895 143.808 69.3329 143.808 61.3683H141.808ZM129.386 48.947C136.247 48.947 141.808 54.5082 141.808 61.3683H143.808C143.808 53.4036 137.351 46.947 129.386 46.947V48.947ZM75.5956 48.947H129.386V46.947H75.5956V48.947Z" fill="black"/>
<rect x="89.4122" y="12.5179" width="25.5177" height="44.0157" rx="12.7589" fill="#CB97E7" stroke="black" stroke-width="2"/>
<path d="M62.1743 107.384C62.9423 98.4366 71.0269 95.1345 74.9733 94.6019H130.009C139.224 95.6245 142.381 103.549 142.808 107.384V162.986C136.408 202.355 122.436 210.706 116.25 209.961H88.7321C73.1174 209.961 64.5208 178.644 62.1743 162.986V107.384Z" fill="#DCF5F8" stroke="black" stroke-width="1.5"/>
<path d="M66.0896 152.535V145.341H67.5951V148.262H70.8355V145.341H72.3411V152.535H70.8355V149.504H67.5951V152.535H66.0896ZM75.4369 152.619C74.39 152.619 73.6472 151.971 73.6472 150.974V150.964C73.6472 149.977 74.4099 149.399 75.7759 149.319L77.102 149.239V148.786C77.102 148.312 76.7779 148.043 76.1797 148.043C75.6562 148.043 75.3222 148.227 75.2076 148.551L75.1976 148.571H73.8516L73.8566 148.527C73.9712 147.564 74.8786 146.926 76.2595 146.926C77.7151 146.926 78.5377 147.614 78.5377 148.786V152.535H77.102V151.807H77.0122C76.7331 152.315 76.1548 152.619 75.4369 152.619ZM75.068 150.885C75.068 151.303 75.4219 151.558 75.9255 151.558C76.5985 151.558 77.102 151.114 77.102 150.536V150.132L75.9952 150.202C75.3721 150.241 75.068 150.476 75.068 150.875V150.885ZM79.9635 152.535V147.046H81.4192V147.893H81.5089C81.7582 147.3 82.3015 146.926 83.0842 146.926C84.3056 146.926 84.9637 147.674 84.9637 148.985V152.535H83.508V149.314C83.508 148.542 83.1889 148.133 82.501 148.133C81.828 148.133 81.4192 148.616 81.4192 149.359V152.535H79.9635ZM88.3337 152.619C86.9627 152.619 86.1053 151.548 86.1053 149.793V149.783C86.1053 148.018 86.9428 146.956 88.3337 146.956C89.0864 146.956 89.6996 147.325 89.9738 147.923H90.0635V144.947H91.5192V152.535H90.0635V151.682H89.9738C89.6896 152.275 89.1064 152.619 88.3337 152.619ZM88.8272 151.413C89.5999 151.413 90.0785 150.805 90.0785 149.798V149.788C90.0785 148.781 89.5949 148.163 88.8272 148.163C88.0595 148.163 87.5859 148.781 87.5859 149.783V149.793C87.5859 150.805 88.0595 151.413 88.8272 151.413ZM97.8405 152.649C96.3499 152.649 95.5024 151.981 95.3977 151.039L95.3927 151.019H96.8235L96.8335 151.039C96.9481 151.378 97.2821 151.622 97.8554 151.622C98.4138 151.622 98.7927 151.383 98.7927 151.019V151.009C98.7927 150.715 98.5733 150.531 98.015 150.406L97.0977 150.212C96.0508 149.987 95.5323 149.474 95.5323 148.651V148.646C95.5323 147.614 96.4496 146.926 97.8205 146.926C99.2613 146.926 100.059 147.644 100.119 148.527V148.546H98.7677L98.7628 148.522C98.683 148.227 98.3589 147.953 97.8156 147.953C97.3121 147.953 96.9531 148.188 96.9531 148.556V148.561C96.9531 148.856 97.1575 149.025 97.7258 149.15L98.6381 149.344C99.7349 149.578 100.248 150.037 100.248 150.85V150.855C100.248 151.941 99.2463 152.649 97.8405 152.649ZM102.935 152.619C101.888 152.619 101.146 151.971 101.146 150.974V150.964C101.146 149.977 101.908 149.399 103.274 149.319L104.6 149.239V148.786C104.6 148.312 104.276 148.043 103.678 148.043C103.155 148.043 102.821 148.227 102.706 148.551L102.696 148.571H101.35L101.355 148.527C101.47 147.564 102.377 146.926 103.758 146.926C105.214 146.926 106.036 147.614 106.036 148.786V152.535H104.6V151.807H104.511C104.232 152.315 103.653 152.619 102.935 152.619ZM102.566 150.885C102.566 151.303 102.92 151.558 103.424 151.558C104.097 151.558 104.6 151.114 104.6 150.536V150.132L103.494 150.202C102.871 150.241 102.566 150.476 102.566 150.875V150.885ZM107.462 152.535V147.046H108.918V147.893H109.007C109.257 147.3 109.8 146.926 110.583 146.926C111.804 146.926 112.462 147.674 112.462 148.985V152.535H111.006V149.314C111.006 148.542 110.687 148.133 109.999 148.133C109.326 148.133 108.918 148.616 108.918 149.359V152.535H107.462ZM114.616 146.203C114.167 146.203 113.793 145.845 113.793 145.396C113.793 144.942 114.167 144.583 114.616 144.583C115.064 144.583 115.433 144.942 115.433 145.396C115.433 145.845 115.064 146.203 114.616 146.203ZM113.883 152.535V147.046H115.339V152.535H113.883ZM119.083 152.555C117.746 152.555 117.208 152.121 117.208 151.054V148.143H116.361V147.046H117.208V145.735H118.679V147.046H119.81V148.143H118.679V150.72C118.679 151.214 118.888 151.433 119.382 151.433C119.571 151.433 119.671 151.423 119.81 151.408V152.49C119.631 152.525 119.362 152.555 119.083 152.555ZM121.765 146.203C121.316 146.203 120.942 145.845 120.942 145.396C120.942 144.942 121.316 144.583 121.765 144.583C122.213 144.583 122.582 144.942 122.582 145.396C122.582 145.845 122.213 146.203 121.765 146.203ZM121.032 152.535V147.046H122.487V152.535H121.032ZM123.828 152.535V151.697L126.625 148.232V148.143H123.868V147.046H128.345V147.973L125.708 151.348V151.438H128.41V152.535H123.828ZM132.019 152.649C130.349 152.649 129.337 151.558 129.337 149.798V149.793C129.337 148.048 130.359 146.926 131.959 146.926C133.56 146.926 134.557 148.023 134.557 149.683V150.137H130.778C130.793 151.039 131.276 151.563 132.049 151.563C132.687 151.563 133.041 151.224 133.141 151.014L133.156 150.984H134.512L134.502 151.034C134.332 151.722 133.624 152.649 132.019 152.649ZM131.984 148.018C131.351 148.018 130.883 148.447 130.793 149.224H133.161C133.071 148.427 132.617 148.018 131.984 148.018ZM135.748 152.535V147.046H137.204V147.898H137.294C137.468 147.305 137.967 146.956 138.679 146.956C138.874 146.956 139.078 146.986 139.223 147.026V148.297C139.003 148.247 138.779 148.212 138.555 148.212C137.727 148.212 137.204 148.686 137.204 149.464V152.535H135.748Z" fill="#303030"/>
</svg>
