<svg width="174" height="320" viewBox="0 0 174 320" fill="none" xmlns="http://www.w3.org/2000/svg">
<path d="M62.9313 15.6158L69.5 11C79.2455 3.85328 91.0159 0 103.101 0H112.088C119.274 0 126.37 1.58976 132.869 4.65532C143.587 9.711 152.095 18.5005 156.798 29.3776L165.001 48.347C170.608 61.3116 173.5 75.2869 173.5 89.4118V124V173.611C173.5 187.963 169.814 202.074 162.796 214.593L158.575 222.124C156.213 226.337 154.666 230.957 154.016 235.744L153.066 242.741C151.023 257.782 138.18 269 123 269H88.5569C76.3752 269 66.5 278.875 66.5 291.057C66.5 293.338 66.146 295.606 65.4506 297.779L65.0906 298.904C61.1642 311.174 49.7583 319.5 36.8756 319.5H31.5H27.4509C14.166 319.5 2.78764 309.987 0.434182 296.912C0.145302 295.307 0 293.68 0 292.049V253.039C0 246.085 1.40736 239.203 4.13736 232.807L14.4725 208.593C16.3087 204.291 20.5347 201.5 25.2121 201.5C33.2072 201.5 38.8377 193.646 36.2709 186.074L32.5571 175.118C31.8571 173.053 31.5 170.888 31.5 168.707V107V76.1183C31.5 62.0015 35.5408 48.1798 43.1449 36.2861C48.3317 28.1735 55.053 21.152 62.9313 15.6158Z" fill="white"/>
<path d="M63.9624 226.633L45.834 299.342L16.5998 292.054C8.31898 289.989 3.27979 281.602 5.34443 273.321L15.9961 230.6C18.0607 222.319 26.4474 217.28 34.7282 219.345L63.9624 226.633Z" fill="#A2A2A2" stroke="black"/>
<path d="M75 251V223C75 222.448 75.4477 222 76 222H127.5C128.052 222 128.5 222.448 128.5 223V251C128.5 251.552 128.052 252 127.5 252H109C108.448 252 108 252.448 108 253V255.5C108 256.052 107.552 256.5 107 256.5H97.5C96.9477 256.5 96.5 256.052 96.5 255.5V253C96.5 252.448 96.0523 252 95.5 252H76C75.4477 252 75 251.552 75 251Z" fill="#DCF5F8" stroke="black"/>
<path fill-rule="evenodd" clip-rule="evenodd" d="M74.4389 34.1526C66.2498 34.7907 49.2974 40.9803 47.0002 60.6341V174.217C47.0003 178.365 49.6803 193.488 64.2292 225.904H140.483C141.436 223.538 142.518 220.939 143.662 218.191C149.665 203.769 157.393 185.204 157.393 174.217V58.4007C155.798 50.9561 148.396 35.684 131.55 34.1526H74.4389ZM75.396 47.8719C67.9953 47.8719 61.9957 53.8714 61.9957 61.2722C61.9957 68.6729 67.9953 74.6724 75.396 74.6724H128.997C136.398 74.6724 142.397 68.6729 142.397 61.2722C142.397 53.8714 136.398 47.8719 128.997 47.8719H75.396Z" fill="#2ED1E2"/>
<path d="M47.0002 60.6341L46.5036 60.576L46.5002 60.6049V60.6341H47.0002ZM74.4389 34.1526V33.6526H74.4194L74.4 33.6541L74.4389 34.1526ZM47.0002 174.217L46.5002 174.217L46.5002 174.217L47.0002 174.217ZM64.2292 225.904L63.773 226.109L63.9055 226.404H64.2292V225.904ZM140.483 225.904V226.404H140.821L140.947 226.091L140.483 225.904ZM143.662 218.191L144.124 218.383L144.124 218.383L143.662 218.191ZM157.393 58.4007H157.893V58.3477L157.882 58.2959L157.393 58.4007ZM131.55 34.1526L131.595 33.6546L131.572 33.6526H131.55V34.1526ZM47.4969 60.6921C48.6277 51.0171 53.3572 44.6758 58.8065 40.6652C64.2705 36.6437 70.4637 34.9639 74.4777 34.6511L74.4 33.6541C70.2251 33.9794 63.8474 35.7135 58.2137 39.8598C52.5653 44.0169 47.67 50.5973 46.5036 60.576L47.4969 60.6921ZM47.5002 174.217V60.6341H46.5002V174.217H47.5002ZM64.6853 225.699C57.4177 209.507 53.119 197.643 50.6381 189.317C48.1536 180.98 47.5003 176.218 47.5002 174.217L46.5002 174.217C46.5003 176.365 47.187 181.238 49.6797 189.603C52.176 197.98 56.4917 209.886 63.773 226.109L64.6853 225.699ZM140.483 225.404H64.2292V226.404H140.483V225.404ZM143.2 217.999C142.057 220.747 140.974 223.348 140.019 225.717L140.947 226.091C141.899 223.728 142.979 221.132 144.124 218.383L143.2 217.999ZM156.893 174.217C156.893 179.621 154.987 186.94 152.306 194.754C149.629 202.553 146.203 210.785 143.2 217.999L144.124 218.383C147.124 211.175 150.563 202.914 153.252 195.078C155.935 187.257 157.893 179.801 157.893 174.217H156.893ZM156.893 58.4007V174.217H157.893V58.4007H156.893ZM131.504 34.6505C139.77 35.402 145.718 39.5201 149.808 44.3811C153.905 49.2513 156.121 54.8534 156.904 58.5055L157.882 58.2959C157.069 54.5034 154.787 48.7472 150.573 43.7373C146.351 38.7183 140.175 34.4347 131.595 33.6546L131.504 34.6505ZM74.4389 34.6526H131.55V33.6526H74.4389V34.6526ZM62.4957 61.2722C62.4957 54.1475 68.2714 48.3719 75.396 48.3719V47.3719C67.7191 47.3719 61.4957 53.5953 61.4957 61.2722H62.4957ZM75.396 74.1724C68.2714 74.1724 62.4957 68.3968 62.4957 61.2722H61.4957C61.4957 68.9491 67.7191 75.1724 75.396 75.1724V74.1724ZM128.997 74.1724H75.396V75.1724H128.997V74.1724ZM141.897 61.2722C141.897 68.3968 136.122 74.1724 128.997 74.1724V75.1724C136.674 75.1724 142.897 68.9491 142.897 61.2722H141.897ZM128.997 48.3719C136.122 48.3719 141.897 54.1475 141.897 61.2722H142.897C142.897 53.5953 136.674 47.3719 128.997 47.3719V48.3719ZM75.396 48.3719H128.997V47.3719H75.396V48.3719Z" fill="black"/>
<rect x="88.6582" y="12" width="26.4386" height="44.9438" rx="13.2193" fill="#CB97E7" stroke="black"/>
<path d="M61.9957 107.216C62.7614 98.2827 70.8228 94.9859 74.7578 94.4541H129.635C138.824 95.4751 141.972 103.388 142.397 107.216V162.732C136.016 202.039 122.084 210.377 115.916 209.633H88.4772C72.9073 209.633 64.3354 178.365 61.9957 162.732V107.216Z" fill="#DCF5F8" stroke="black"/>
<path d="M65.7955 152.312V145.118H67.301V148.04H70.5414V145.118H72.047V152.312H70.5414V149.281H67.301V152.312H65.7955ZM75.1428 152.397C74.0959 152.397 73.3531 151.749 73.3531 150.752V150.742C73.3531 149.755 74.1158 149.176 75.4818 149.097L76.8079 149.017V148.563C76.8079 148.09 76.4838 147.82 75.8856 147.82C75.3621 147.82 75.0281 148.005 74.9135 148.329L74.9035 148.349H73.5575L73.5625 148.304C73.6771 147.342 74.5844 146.704 75.9654 146.704C77.421 146.704 78.2436 147.392 78.2436 148.563V152.312H76.8079V151.584H76.7181C76.439 152.093 75.8607 152.397 75.1428 152.397ZM74.7739 150.662C74.7739 151.081 75.1278 151.335 75.6313 151.335C76.3043 151.335 76.8079 150.891 76.8079 150.313V149.909L75.7011 149.979C75.078 150.019 74.7739 150.253 74.7739 150.652V150.662ZM79.6694 152.312V146.823H81.1251V147.671H81.2148C81.4641 147.078 82.0074 146.704 82.7901 146.704C84.0115 146.704 84.6696 147.451 84.6696 148.763V152.312H83.2139V149.092C83.2139 148.319 82.8948 147.91 82.2069 147.91C81.5338 147.91 81.1251 148.394 81.1251 149.136V152.312H79.6694ZM88.0396 152.397C86.6686 152.397 85.8112 151.325 85.8112 149.57V149.56C85.8112 147.795 86.6487 146.734 88.0396 146.734C88.7923 146.734 89.4055 147.102 89.6797 147.701H89.7694V144.725H91.2251V152.312H89.7694V151.46H89.6797C89.3955 152.053 88.8123 152.397 88.0396 152.397ZM88.5331 151.19C89.3058 151.19 89.7844 150.582 89.7844 149.575V149.565C89.7844 148.558 89.3008 147.94 88.5331 147.94C87.7654 147.94 87.2918 148.558 87.2918 149.56V149.57C87.2918 150.582 87.7654 151.19 88.5331 151.19ZM97.5464 152.427C96.0558 152.427 95.2083 151.759 95.1036 150.816L95.0986 150.797H96.5294L96.5394 150.816C96.654 151.155 96.988 151.4 97.5613 151.4C98.1197 151.4 98.4986 151.16 98.4986 150.797V150.787C98.4986 150.492 98.2792 150.308 97.7209 150.183L96.8036 149.989C95.7567 149.765 95.2382 149.251 95.2382 148.429V148.424C95.2382 147.392 96.1555 146.704 97.5264 146.704C98.9672 146.704 99.7648 147.422 99.8246 148.304V148.324H98.4736L98.4686 148.299C98.3889 148.005 98.0648 147.731 97.5215 147.731C97.0179 147.731 96.659 147.965 96.659 148.334V148.339C96.659 148.633 96.8634 148.802 97.4317 148.927L98.344 149.121C99.4408 149.356 99.9542 149.814 99.9542 150.627V150.632C99.9542 151.719 98.9522 152.427 97.5464 152.427ZM102.641 152.397C101.594 152.397 100.852 151.749 100.852 150.752V150.742C100.852 149.755 101.614 149.176 102.98 149.097L104.306 149.017V148.563C104.306 148.09 103.982 147.82 103.384 147.82C102.861 147.82 102.527 148.005 102.412 148.329L102.402 148.349H101.056L101.061 148.304C101.176 147.342 102.083 146.704 103.464 146.704C104.92 146.704 105.742 147.392 105.742 148.563V152.312H104.306V151.584H104.217C103.937 152.093 103.359 152.397 102.641 152.397ZM102.272 150.662C102.272 151.081 102.626 151.335 103.13 151.335C103.803 151.335 104.306 150.891 104.306 150.313V149.909L103.2 149.979C102.576 150.019 102.272 150.253 102.272 150.652V150.662ZM107.168 152.312V146.823H108.624V147.671H108.713C108.963 147.078 109.506 146.704 110.289 146.704C111.51 146.704 112.168 147.451 112.168 148.763V152.312H110.712V149.092C110.712 148.319 110.393 147.91 109.705 147.91C109.032 147.91 108.624 148.394 108.624 149.136V152.312H107.168ZM114.322 145.981C113.873 145.981 113.499 145.622 113.499 145.173C113.499 144.72 113.873 144.361 114.322 144.361C114.77 144.361 115.139 144.72 115.139 145.173C115.139 145.622 114.77 145.981 114.322 145.981ZM113.589 152.312V146.823H115.045V152.312H113.589ZM118.788 152.332C117.452 152.332 116.914 151.898 116.914 150.831V147.92H116.066V146.823H116.914V145.512H118.385V146.823H119.516V147.92H118.385V150.497C118.385 150.991 118.594 151.21 119.088 151.21C119.277 151.21 119.377 151.2 119.516 151.185V152.267C119.337 152.302 119.068 152.332 118.788 152.332ZM121.47 145.981C121.022 145.981 120.648 145.622 120.648 145.173C120.648 144.72 121.022 144.361 121.47 144.361C121.919 144.361 122.288 144.72 122.288 145.173C122.288 145.622 121.919 145.981 121.47 145.981ZM120.738 152.312V146.823H122.193V152.312H120.738ZM123.534 152.312V151.474L126.331 148.01V147.92H123.574V146.823H128.051V147.751L125.414 151.126V151.215H128.116V152.312H123.534ZM131.725 152.427C130.055 152.427 129.043 151.335 129.043 149.575V149.57C129.043 147.825 130.065 146.704 131.665 146.704C133.265 146.704 134.263 147.8 134.263 149.46V149.914H130.484C130.499 150.816 130.982 151.34 131.755 151.34C132.393 151.34 132.747 151.001 132.847 150.792L132.862 150.762H134.218L134.208 150.811C134.038 151.499 133.33 152.427 131.725 152.427ZM131.69 147.795C131.057 147.795 130.588 148.224 130.499 149.002H132.867C132.777 148.204 132.323 147.795 131.69 147.795ZM135.454 152.312V146.823H136.91V147.676H136.999C137.174 147.083 137.672 146.734 138.385 146.734C138.58 146.734 138.784 146.763 138.929 146.803V148.075C138.709 148.025 138.485 147.99 138.261 147.99C137.433 147.99 136.91 148.463 136.91 149.241V152.312H135.454Z" fill="#303030"/>
</svg>
