<svg width="451" height="400" viewBox="0 0 451 400" fill="none" xmlns="http://www.w3.org/2000/svg">
<path d="M271.163 116.043C283.018 14.3982 343.759 -1.95061 375.705 2.7026C377.635 2.9837 379 4.6769 379 6.62714V150.93C379 151.49 378.894 152.023 378.672 152.537C355.421 206.307 306.168 312.397 290.518 317.377C290.141 317.497 289.831 317.586 289.475 317.759C265.271 329.556 176.002 356.937 6.57398 374.873C4.15407 375.129 2 373.235 2 370.802V316.104C2 313.466 4.48941 310.779 7.05378 310.16C22.092 306.527 65.3557 291.763 88.6044 283.59C88.853 283.502 89.0804 283.396 89.3078 283.263C133.221 257.566 194.757 236.747 227.167 235.522C228.916 235.456 230.47 234.355 231.04 232.7L270.964 116.923C271.061 116.641 271.128 116.339 271.163 116.043Z" fill="#FED90F" stroke="black" stroke-width="3.7"/>
<path d="M292.5 273C291.333 283.833 281.4 306.4 251 310" stroke="black" stroke-width="3.7" stroke-linecap="round"/>
<path d="M205.518 111.089L210.962 97.409L216.407 111.089C216.781 112.029 217.546 112.759 218.503 113.089L232.777 118L218.503 122.911C217.546 123.241 216.781 123.971 216.407 124.911L210.962 138.591L205.518 124.911C205.144 123.971 204.378 123.241 203.422 122.911L189.147 118L203.422 113.089C204.378 112.759 205.144 112.029 205.518 111.089Z" fill="white" stroke="black" stroke-width="4"/>
<path d="M234.518 367.089L239.962 353.409L245.407 367.089C245.781 368.029 246.546 368.759 247.503 369.089L261.777 374L247.503 378.911C246.546 379.241 245.781 379.971 245.407 380.911L239.962 394.591L234.518 380.911C234.144 379.971 233.378 379.241 232.422 378.911L218.147 374L232.422 369.089C233.378 368.759 234.144 368.029 234.518 367.089Z" fill="white" stroke="black" stroke-width="4"/>
<path d="M417.518 184.089L422.962 170.409L428.407 184.089C428.781 185.029 429.546 185.759 430.503 186.089L444.777 191L430.503 195.911C429.546 196.241 428.781 196.971 428.407 197.911L422.962 211.591L417.518 197.911C417.144 196.971 416.378 196.241 415.422 195.911L401.147 191L415.422 186.089C416.378 185.759 417.144 185.029 417.518 184.089Z" fill="white" stroke="black" stroke-width="4"/>
</svg>
