<svg width="475" height="461" viewBox="0 0 475 461" fill="none" xmlns="http://www.w3.org/2000/svg">
<path d="M85.5826 303.483L43.6358 315.135C24.1593 320.545 9.24216 336.237 4.82467 355.963C3.94424 359.894 3.5 363.91 3.5 367.939V380.417C3.5 381.374 3.43203 382.329 3.2966 383.276C1.55678 395.44 10.9954 406.325 23.2835 406.325H25.5H46.9582C60.9406 406.325 74.8776 404.733 88.5 401.581L92.8927 400.564C103.596 398.087 114.547 396.836 125.533 396.836C133.497 396.836 141.448 396.179 149.305 394.871L194.5 387.348L206.641 383.508C218.477 379.764 230.817 377.859 243.231 377.859C256.651 377.859 269.977 375.633 282.668 371.271L301.625 364.756C307.19 362.844 312.515 360.294 317.494 357.159C327.687 350.741 336.216 342.002 342.386 331.658L347 323.923L361 300.45L388 253.007L396.5 235.028L403.474 221.729C405.949 217.009 410.839 214.053 416.167 214.053C424.083 214.053 430.5 207.636 430.5 199.72V197.924C430.5 194.147 431.825 190.49 434.244 187.591L440.894 179.62C443.945 175.964 446.393 171.843 448.146 167.415L454 152.625L458.794 143.331C461.229 138.609 462.5 133.373 462.5 128.059V125.235C462.5 119.064 464.718 113.099 468.75 108.428C472.782 103.756 475 97.7914 475 91.6207V77.7141V74.1353C475 60.6534 468.714 47.9425 458 39.7591L454.616 37.1838C442.904 28.2707 430.297 20.598 417 14.2892C410.695 10.9747 403.975 8.51783 397.019 6.9839L386.246 4.60822C374.783 2.08034 363.079 0.805176 351.34 0.805176H347C335.31 0.805176 324.577 7.26398 319.102 17.5928L310 34.765L290 71.2218L272 112.673L259.004 136.687C254.6 144.826 254.323 154.572 258.259 162.947C261.609 170.077 261.93 178.259 259.148 185.629L252 204.564L239.629 244.515C237.947 249.949 234.159 254.482 229.111 257.104C226.082 258.677 222.718 259.499 219.304 259.499H205.261C198.12 259.499 191.013 260.47 184.134 262.384L176.002 264.648C168.016 266.871 160.243 269.796 152.773 273.388L106.711 295.54C99.9172 298.807 92.8465 301.465 85.5826 303.483Z" fill="white"/>
<path d="M294.392 142.032C309.227 39.1147 372.117 26.7326 401.98 33.4629C402.103 33.4905 402.223 33.5047 402.349 33.5069C403.349 33.5242 404.146 34.3489 404.128 35.349L401.593 181.999C401.583 182.553 401.46 183.102 401.233 183.608C367.687 258.289 328.924 320.327 312.97 343.142C312.506 343.806 311.887 344.281 311.131 344.57C224.949 377.505 88.9366 392.89 27.1871 396.811C24.8061 396.963 22.853 395.043 22.8942 392.657L23.8613 336.727C23.8927 334.909 25.1172 333.329 26.8694 332.846L106.683 310.803C107.108 310.686 107.511 310.5 107.878 310.255C153.931 279.543 214.414 267.961 247.636 263.089C249.438 262.825 250.855 261.394 251.129 259.593C260.339 199.214 281.186 161.931 293.699 143.821C294.066 143.29 294.3 142.671 294.392 142.032Z" fill="#FED90F" stroke="black" stroke-width="4"/>
<path d="M311.05 299.344C309.697 310.142 299.375 332.508 268.918 335.579" stroke="black" stroke-width="3.7" stroke-linecap="round"/>
<path d="M250.5 262.132C258.167 260.3 272.8 258.935 284 262.132" stroke="black" stroke-width="4" stroke-linecap="round"/>
<path d="M418.301 197.556C349.262 207.411 291.872 171.184 270.87 150.591C266.751 146.811 274.151 133.845 276.972 132.649C286.831 95.2979 307.41 48.744 316 36.4576C325.126 23.4056 343.483 5.43029 376.5 16.9807L402.5 25.4706L421.105 32.4625C448.938 48.9585 455.71 67.6868 455.5 83.9014C456.591 105.819 435.474 153.069 421.105 179.609C423.047 182.083 419.468 196.411 418.301 197.556Z" fill="#C9C4ED"/>
<path d="M421.105 179.609C423.047 182.083 419.468 196.411 418.301 197.556C349.262 207.411 291.872 171.184 270.87 150.591C266.751 146.811 274.151 133.845 276.972 132.649M421.105 179.609C395.977 182.809 331.971 177.898 276.972 132.649M421.105 179.609C435.474 153.069 456.591 105.819 455.5 83.9014C455.71 67.6868 448.938 48.9585 421.105 32.4625L402.5 25.4706L376.5 16.9807C343.483 5.43029 325.126 23.4056 316 36.4576C307.41 48.744 286.831 95.2979 276.972 132.649" stroke="black" stroke-width="4"/>
<path d="M226.518 427.585L231.962 413.921L237.407 427.585C237.781 428.525 238.547 429.254 239.503 429.583L253.771 434.486L239.503 439.389C238.547 439.718 237.781 440.448 237.407 441.388L231.962 455.052L226.518 441.388C226.143 440.448 225.378 439.718 224.421 439.389L210.154 434.486L224.421 429.583C225.378 429.254 226.143 428.525 226.518 427.585Z" fill="white" stroke="black" stroke-width="4"/>
<path d="M439.518 284.754L444.962 271.089L450.407 284.754C450.781 285.694 451.547 286.423 452.503 286.752L466.771 291.655L452.503 296.558C451.547 296.887 450.781 297.617 450.407 298.557L444.962 312.221L439.518 298.557C439.143 297.617 438.378 296.887 437.421 296.558L423.154 291.655L437.421 286.752C438.378 286.423 439.143 285.694 439.518 284.754Z" fill="white" stroke="black" stroke-width="4"/>
<path d="M198.518 176.881L203.962 163.217L209.407 176.881C209.781 177.821 210.547 178.551 211.503 178.88L225.771 183.783L211.503 188.686C210.547 189.015 209.781 189.744 209.407 190.684L203.962 204.349L198.518 190.684C198.143 189.744 197.378 189.015 196.421 188.686L182.154 183.783L196.421 178.88C197.378 178.551 198.143 177.821 198.518 176.881Z" fill="white" stroke="black" stroke-width="4"/>
</svg>
