<svg width="155" height="150" viewBox="0 0 155 150" fill="none" xmlns="http://www.w3.org/2000/svg">
<path d="M60.2043 20.0137L76.0879 27.8441C77.625 28.6019 110.434 32.4413 112.037 32.8379C112.776 33.0207 122.35 33.0872 132.97 33.1001C144.167 33.1136 153.026 43.8781 150.985 55.0536C150.785 56.1498 150.476 57.2221 149.684 57.9582C145.138 62.184 126.958 71.1051 112.315 77.8378C107.332 80.1288 106.752 87.1952 111.289 90.7908C111.74 91.1483 112.153 91.5549 112.52 92.0027L117.284 97.8114C124.62 106.756 123.611 119.745 115.057 126.481L107.004 132.823C101.693 137.005 93.7047 134.977 90.3878 128.605C87.0575 122.206 79.0368 120.321 72.912 123.252C46.3083 135.984 20.8553 120.07 10.4241 109.112C2.13454 98.4292 7.10066 72.5923 12.8443 53.7361C15.4967 45.0284 21.1242 37.8326 28.2748 32.5656L41.0921 23.1246C43.7539 21.1639 46.1942 18.5177 49.511 18.1047C53.2202 17.6429 57.7425 18.9634 60.2043 20.0137Z" fill="#DDDDDD" stroke="black" stroke-dasharray="2 2"/>
<path d="M57.1011 65.9677L60.7211 65.8477C61.0277 65.8477 61.2744 65.921 61.4611 66.0677C61.6477 66.201 61.7411 66.3877 61.7411 66.6277C61.7411 66.8677 61.6477 67.061 61.4611 67.2077C61.2744 67.341 61.0277 67.4077 60.7211 67.4077L57.9211 67.3077C57.8544 70.3077 57.8211 72.381 57.8211 73.5277L57.9211 80.1477C57.9211 80.4544 57.8477 80.701 57.7011 80.8877C57.5544 81.0744 57.3544 81.1677 57.1011 81.1677C56.8477 81.1677 56.6477 81.0744 56.5011 80.8877C56.3544 80.701 56.2811 80.4544 56.2811 80.1477L56.3811 73.5277C56.3811 72.3677 56.3477 70.2877 56.2811 67.2877L53.2611 67.3877C52.6211 67.3877 52.3011 67.1344 52.3011 66.6277C52.3011 66.121 52.6211 65.8677 53.2611 65.8677L57.1011 65.9677ZM70.2612 76.1277C70.2612 77.1277 70.3345 77.9477 70.4812 78.5877C70.6279 79.2144 70.8012 79.5677 71.0012 79.6477C71.0812 79.6877 71.1745 79.7144 71.2812 79.7277C71.4012 79.741 71.4812 79.761 71.5212 79.7877C71.5745 79.8144 71.6012 79.8677 71.6012 79.9477C71.6012 80.3077 71.5012 80.601 71.3012 80.8277C71.1145 81.0544 70.8279 81.1677 70.4412 81.1677C70.0545 81.1677 69.7545 80.921 69.5412 80.4277C69.3279 79.9344 69.2212 79.301 69.2212 78.5277C68.8879 79.2744 68.3945 79.901 67.7412 80.4077C67.1012 80.9144 66.3745 81.1677 65.5612 81.1677C64.7612 81.1677 64.0679 80.901 63.4812 80.3677C62.4145 79.3944 61.8812 78.001 61.8812 76.1877C61.8812 74.7344 62.3012 73.4677 63.1412 72.3877C63.9812 71.3077 65.0612 70.7677 66.3812 70.7677C67.3812 70.7677 68.2479 71.1077 68.9812 71.7877C68.9812 71.1077 69.2345 70.7677 69.7412 70.7677C70.3545 70.7677 70.6612 71.241 70.6612 72.1877C70.6612 73.121 70.5279 74.4344 70.2612 76.1277ZM69.1012 76.3077L69.0012 73.2277C68.2012 72.4544 67.3612 72.0677 66.4812 72.0677C65.6145 72.0677 64.8679 72.461 64.2412 73.2477C63.6145 74.0344 63.3012 74.981 63.3012 76.0877C63.3012 77.181 63.5012 78.0877 63.9012 78.8077C64.3145 79.5144 64.8945 79.8677 65.6412 79.8677C66.3879 79.8677 67.0679 79.5344 67.6812 78.8677C68.2945 78.201 68.7679 77.3477 69.1012 76.3077ZM78.107 79.8677C78.9603 79.8677 79.707 79.4744 80.347 78.6877C81.0003 77.901 81.327 76.981 81.327 75.9277C81.327 74.861 81.0937 73.9544 80.627 73.2077C80.1603 72.4477 79.527 72.0677 78.727 72.0677C77.327 72.0677 76.1737 73.221 75.267 75.5277V78.7077C76.067 79.481 77.0137 79.8677 78.107 79.8677ZM74.027 77.1677L74.047 76.4077V76.0877C74.047 75.5277 73.987 74.7077 73.867 73.6277C73.747 72.5477 73.687 71.8944 73.687 71.6677C73.687 71.4277 73.7537 71.221 73.887 71.0477C74.0337 70.861 74.227 70.7677 74.467 70.7677C74.707 70.7677 74.8937 70.861 75.027 71.0477C75.1737 71.221 75.247 71.421 75.247 71.6477C75.247 71.8744 75.2403 72.161 75.227 72.5077C75.227 72.841 75.227 73.121 75.227 73.3477C75.667 72.5344 76.1603 71.901 76.707 71.4477C77.2537 70.9944 77.9603 70.7677 78.827 70.7677C79.6937 70.7677 80.4403 71.0477 81.067 71.6077C81.6937 72.1677 82.1403 72.8144 82.407 73.5477C82.6737 74.281 82.807 75.0144 82.807 75.7477C82.807 77.201 82.367 78.4677 81.487 79.5477C80.607 80.6277 79.4803 81.1677 78.107 81.1677C77.107 81.1677 76.1603 80.841 75.267 80.1877C75.2403 81.801 75.227 82.9944 75.227 83.7677C75.227 84.5544 75.1603 85.0477 75.027 85.2477C74.8937 85.461 74.687 85.5677 74.407 85.5677C74.127 85.5677 73.8937 85.4477 73.707 85.2077C73.5337 84.981 73.447 84.6477 73.447 84.2077C73.447 83.7677 73.4737 83.241 73.527 82.6277C73.5803 82.0277 73.6603 81.2344 73.767 80.2477C73.8737 79.2477 73.9603 78.3477 74.027 77.5477V77.1677Z" fill="#5B5B5B"/>
</svg>
