<svg width="319" height="205" viewBox="0 0 319 205" fill="none" xmlns="http://www.w3.org/2000/svg">
<path d="M86.3667 50.0948C86.3667 47.6763 85.6384 43.9447 86.7696 41.8081C87.9943 39.4947 90.2905 37.2405 92.0639 35.3628C95.466 31.7606 103.124 29.3779 108.119 29.3779" stroke="#5B6670" stroke-width="3" stroke-linecap="round"/>
<path d="M122.854 16.892C123.783 15.8267 124.781 15.294 125.846 15.294C126.911 15.294 127.546 16.11 127.75 17.742L127.75 17.844C127.75 18.66 127.285 20.4393 126.356 23.182L127.954 22.842C129.903 22.842 131.037 24.0887 131.354 26.582L131.354 27.092C131.354 30.084 129.473 32.8153 125.71 35.286C124.486 35.762 123.602 36 123.058 36C121.222 36 119.953 34.9347 119.25 32.804C119.295 32.5547 119.579 32.2033 120.1 31.75C120.349 21.5047 120.565 16.382 120.746 16.382C121.131 15.9967 121.483 15.804 121.8 15.804C122.412 16.0307 122.718 16.3933 122.718 16.892L122.854 16.892ZM122.514 26.242L122.65 26.242C124.509 22.7287 125.495 20.0087 125.608 18.082L125.608 17.3L125.268 17.3C124.792 17.3 124.157 18.5807 123.364 21.142C122.797 23.5673 122.514 25.2673 122.514 26.242ZM123.806 28.35L123.296 28.554L122.446 28.486L122.446 28.554L122.31 28.996L122.31 32.532L122.208 33.79L122.956 33.994C124.883 33.994 126.787 32.5433 128.668 29.642C129.189 28.35 129.45 27.2847 129.45 26.446C129.45 25.4033 128.951 24.882 127.954 24.882L127.818 24.882C126.73 24.882 125.393 26.038 123.806 28.35ZM134.65 17.266C135.285 17.4927 135.602 17.844 135.602 18.32L135.942 31.274L135.942 35.456C135.942 36.2267 135.614 36.612 134.956 36.612L134.514 36.612C134.106 36.34 133.902 36.0227 133.902 35.66L133.902 31.716L133.596 18.252C133.596 17.6853 133.948 17.3567 134.65 17.266ZM143.83 23.182C145.507 23.182 146.777 24.4287 147.638 26.922L147.774 27.636C147.774 30.0613 146.641 32.5433 144.374 35.082C143.467 35.9207 142.549 36.34 141.62 36.34C140.26 36.34 139.297 35.558 138.73 33.994C138.526 33.2687 138.424 32.634 138.424 32.09L138.424 31.682C138.424 28.1007 139.727 25.3807 142.334 23.522C142.787 23.2953 143.286 23.182 143.83 23.182ZM140.43 32.022C140.43 33.5633 140.827 34.334 141.62 34.334C143.275 34.334 144.646 32.2147 145.734 27.976L145.734 27.33C145.349 25.9247 144.635 25.222 143.592 25.222C143.184 25.222 142.98 25.5053 142.98 26.072C142.98 26.4573 142.527 26.7633 141.62 26.99C140.827 28.3273 140.43 30.0047 140.43 32.022ZM154.721 23.182C156.398 23.182 157.667 24.4287 158.529 26.922L158.665 27.636C158.665 30.0613 157.531 32.5433 155.265 35.082C154.358 35.9207 153.44 36.34 152.511 36.34C151.151 36.34 150.187 35.558 149.621 33.994C149.417 33.2687 149.315 32.634 149.315 32.09L149.315 31.682C149.315 28.1007 150.618 25.3807 153.225 23.522C153.678 23.2953 154.177 23.182 154.721 23.182ZM151.321 32.022C151.321 33.5633 151.717 34.334 152.511 34.334C154.165 34.334 155.537 32.2147 156.625 27.976L156.625 27.33C156.239 25.9247 155.525 25.222 154.483 25.222C154.075 25.222 153.871 25.5053 153.871 26.072C153.871 26.4573 153.417 26.7633 152.511 26.99C151.717 28.3273 151.321 30.0047 151.321 32.022ZM168.161 17.334C168.547 17.334 168.898 17.6967 169.215 18.422L167.719 27.874L167.719 30.526C167.719 33.2913 168.15 34.674 169.011 34.674C169.578 34.946 169.861 35.3087 169.861 35.762C169.861 36.2833 169.408 36.5893 168.501 36.68C167.504 36.68 166.722 35.762 166.155 33.926L165.815 33.926C164.977 35.762 163.957 36.68 162.755 36.68C161.35 36.68 160.5 35.6147 160.205 33.484C160.205 31.0133 161.86 28.3953 165.169 25.63C165.827 25.63 166.155 24.712 166.155 22.876C166.654 19.1813 167.323 17.334 168.161 17.334ZM162.211 33.212L162.211 34.13L162.755 34.674L162.959 34.674C163.685 34.674 164.535 32.4867 165.509 28.112L165.305 28.112C163.243 30.1747 162.211 31.8747 162.211 33.212ZM189.352 22.944C190.395 22.944 190.916 23.4427 190.916 24.44C191.052 24.44 191.12 24.61 191.12 24.95L191.256 24.95L191.12 25.936L191.256 32.804L191.052 38.244C193.092 38.244 194.464 39.74 195.166 42.732C195.166 43.344 194.747 43.6953 193.908 43.786C193.523 43.786 193.092 42.936 192.616 41.236C192.163 40.5787 191.642 40.25 191.052 40.25L190.916 40.25C190.191 45.078 189.556 47.492 189.012 47.492C188.355 48.6933 187.403 49.294 186.156 49.294C184.32 48.8633 183.402 47.9453 183.402 46.54L183.402 46.336C183.402 44.2053 184.921 41.8933 187.958 39.4L189.012 38.754L189.148 35.082L189.148 34.232L189.012 34.232C188.242 35.2067 187.505 35.694 186.802 35.694L186.598 35.694C185.034 35.694 184.139 34.4927 183.912 32.09L183.912 31.342C183.912 28.4407 184.978 25.9247 187.108 23.794C187.766 23.2273 188.514 22.944 189.352 22.944ZM185.952 30.9L185.952 32.532C186.043 33.28 186.213 33.654 186.462 33.654L186.802 33.654C187.437 33.654 188.219 31.3193 189.148 26.65L189.148 24.95C187.788 24.95 186.723 26.9333 185.952 30.9ZM185.408 46.404C185.499 46.9707 185.816 47.254 186.36 47.254C187.448 47.254 188.23 45.316 188.706 41.44L188.502 41.44C186.44 43.2307 185.408 44.8853 185.408 46.404ZM194.98 17.266C195.615 17.4927 195.932 17.844 195.932 18.32L196.272 31.274L196.272 35.456C196.272 36.2267 195.944 36.612 195.286 36.612L194.844 36.612C194.436 36.34 194.232 36.0227 194.232 35.66L194.232 31.716L193.926 18.252C193.926 17.6853 194.278 17.3567 194.98 17.266ZM200.08 25.766L200.692 25.426C201.236 25.426 201.633 25.7547 201.882 26.412C201.52 28.0893 201.338 29.812 201.338 31.58C201.338 32.464 201.599 33.4273 202.12 34.47L202.324 34.47C202.982 34.47 203.764 31.8747 204.67 26.684C204.988 26.412 205.294 26.276 205.588 26.276C206.291 26.276 206.642 27.5227 206.642 30.016C206.937 32.7587 207.266 34.13 207.628 34.13L208.138 33.926C208.796 34.1753 209.124 34.5267 209.124 34.98C208.716 35.8413 208.15 36.272 207.424 36.272C206.608 36.272 205.826 35.456 205.078 33.824C204.172 35.728 203.254 36.68 202.324 36.68C200.942 36.68 199.978 35.2407 199.434 32.362L199.332 31.274L199.332 30.934C199.332 29.1207 199.582 27.398 200.08 25.766ZM213.311 24.474L214.705 24.27C215.272 24.27 215.589 24.6213 215.657 25.324C215.657 25.936 214.921 26.3327 213.447 26.514C212.518 27.2393 212.053 28.1687 212.053 29.302L212.053 30.424C212.507 32.9173 213.277 34.164 214.365 34.164L214.705 34.164C215.34 34.164 216.292 33.5633 217.561 32.362L217.765 32.362C218.219 32.362 218.581 32.6793 218.853 33.314C218.536 34.2887 217.516 35.1727 215.793 35.966C215.476 36.102 215.079 36.17 214.603 36.17C212.269 36.17 210.75 34.334 210.047 30.662L210.047 29.914C210.047 27.262 211.135 25.4487 213.311 24.474ZM226.008 23.182C227.685 23.182 228.955 24.4287 229.816 26.922L229.952 27.636C229.952 30.0613 228.819 32.5433 226.552 35.082C225.645 35.9207 224.727 36.34 223.798 36.34C222.438 36.34 221.475 35.558 220.908 33.994C220.704 33.2687 220.602 32.634 220.602 32.09L220.602 31.682C220.602 28.1007 221.905 25.3807 224.512 23.522C224.965 23.2953 225.464 23.182 226.008 23.182ZM222.608 32.022C222.608 33.5633 223.005 34.334 223.798 34.334C225.453 34.334 226.824 32.2147 227.912 27.976L227.912 27.33C227.527 25.9247 226.813 25.222 225.77 25.222C225.362 25.222 225.158 25.5053 225.158 26.072C225.158 26.4573 224.705 26.7633 223.798 26.99C223.005 28.3273 222.608 30.0047 222.608 32.022ZM238.293 22.23C238.905 22.23 239.324 23.2613 239.551 25.324C239.324 25.8907 238.95 26.174 238.429 26.174C238.066 26.106 237.703 25.6867 237.341 24.916L236.729 24.712C235.663 24.712 234.7 25.4147 233.839 26.82L233.839 27.126C233.839 27.466 235.437 28.0327 238.633 28.826C239.97 29.6193 240.639 30.5827 240.639 31.716C240.639 33.5747 239.143 35.1613 236.151 36.476L234.893 36.68C232.989 36.476 232.037 35.524 232.037 33.824L232.037 33.722C232.037 33.178 232.388 32.8607 233.091 32.77C233.635 32.77 233.997 33.3367 234.179 34.47L234.451 34.674L235.029 34.674C236.321 34.674 237.522 33.79 238.633 32.022L238.633 31.58C238.633 30.9 237.148 30.2653 234.179 29.676C232.615 29.0413 231.833 28.1573 231.833 27.024C231.833 25.5507 233.068 24.168 235.539 22.876C236.627 22.74 237.545 22.5247 238.293 22.23ZM244.944 23.794C245.851 23.8167 247.381 25.4033 249.534 28.554L249.602 29.132C249.602 29.7667 248.05 30.254 244.944 30.594L244.842 30.696L244.842 30.832C245.318 32.872 245.817 33.892 246.338 33.892L246.746 33.892C247.472 33.892 248.571 33.11 250.044 31.546L250.248 31.546C250.702 31.546 251.053 31.8747 251.302 32.532C251.302 33.076 250.35 34.0167 248.446 35.354C247.948 35.6487 247.347 35.864 246.644 36C244.808 36 243.528 34.2773 242.802 30.832C241.76 30.6733 241.238 30.2427 241.238 29.54C241.238 29.0413 241.624 28.7127 242.394 28.554L242.394 28.69L242.734 28.554L242.734 27.704C242.734 25.0973 243.471 23.794 244.944 23.794ZM245.148 26.242L244.842 26.242L244.706 27.5L244.706 28.554L244.842 28.554C246.112 28.5087 246.746 28.3727 246.746 28.146C246.157 27.262 245.624 26.6273 245.148 26.242ZM272.259 22.23C272.871 22.23 273.291 23.2613 273.517 25.324C273.291 25.8907 272.917 26.174 272.395 26.174C272.033 26.106 271.67 25.6867 271.307 24.916L270.695 24.712C269.63 24.712 268.667 25.4147 267.805 26.82L267.805 27.126C267.805 27.466 269.403 28.0327 272.599 28.826C273.937 29.6193 274.605 30.5827 274.605 31.716C274.605 33.5747 273.109 35.1613 270.117 36.476L268.859 36.68C266.955 36.476 266.003 35.524 266.003 33.824L266.003 33.722C266.003 33.178 266.355 32.8607 267.057 32.77C267.601 32.77 267.964 33.3367 268.145 34.47L268.417 34.674L268.995 34.674C270.287 34.674 271.489 33.79 272.599 32.022L272.599 31.58C272.599 30.9 271.115 30.2653 268.145 29.676C266.581 29.0413 265.799 28.1573 265.799 27.024C265.799 25.5507 267.035 24.168 269.505 22.876C270.593 22.74 271.511 22.5247 272.259 22.23ZM279.863 15.362C280.498 15.498 280.815 15.8153 280.815 16.314L280.611 17.81L280.611 18.252C280.611 19.2493 280.724 20.3033 280.951 21.414L281.019 21.414C283.648 20.6207 285.28 20.224 285.915 20.224C286.572 20.4053 286.901 20.734 286.901 21.21C286.901 21.9807 286.119 22.366 284.555 22.366L281.019 23.624C281.019 26.684 281.348 30.8433 282.005 36.102C281.869 36.714 281.54 37.02 281.019 37.02L280.951 37.02C280.158 37.02 279.761 36 279.761 33.96C279.466 32.4413 279.217 29.1433 279.013 24.066L278.401 24.066C276.27 23.93 275.205 23.4313 275.205 22.57C275.205 22.3207 275.443 22.0147 275.919 21.652L276.259 21.652L277.823 22.06L278.911 22.06L278.605 17.81C278.605 16.178 279.024 15.362 279.863 15.362ZM292.425 22.604C293.853 22.604 294.703 23.6013 294.975 25.596L294.975 25.902C294.975 28.1007 293.842 30.118 291.575 31.954C292.89 33.246 295.19 33.892 298.477 33.892C298.976 34.0507 299.225 34.402 299.225 34.946C299.225 35.558 298.828 35.864 298.035 35.864C295.814 35.864 293.479 35.2973 291.031 34.164L291.031 35.15C291.031 37.4847 290.532 38.652 289.535 38.652C288.832 38.652 288.481 37.3033 288.481 34.606L288.481 31.954L288.379 31.002L288.617 29.914L288.379 26.65L288.379 26.514C288.379 25.902 288.696 25.4827 289.331 25.256C290.215 23.488 291.246 22.604 292.425 22.604ZM290.725 30.05C291.382 30.05 292.119 28.8713 292.935 26.514L292.935 25.052L292.527 24.61L292.221 24.61C291.224 25.29 290.725 27.1033 290.725 30.05ZM300.763 18.286C301.624 18.4673 302.055 18.8527 302.055 19.442C301.828 20.0767 301.466 20.394 300.967 20.394C300.128 20.2353 299.709 19.816 299.709 19.136C299.936 18.5693 300.287 18.286 300.763 18.286ZM302.055 23.046C302.418 23.046 302.724 23.3747 302.973 24.032L302.667 26.446L302.667 28.044C302.667 29.9027 302.984 32.3393 303.619 35.354C303.392 35.7847 303.007 36 302.463 36C301.534 36 300.922 33.28 300.627 27.84L300.627 26.65C300.627 24.2473 301.103 23.046 302.055 23.046ZM309.551 25.902C311.953 25.902 313.37 27.4093 313.801 30.424C313.801 33.0987 312.554 35.014 310.061 36.17C309.789 36.306 309.415 36.374 308.939 36.374L308.701 36.374L307.953 36.306L307.953 36.374L308.089 45.452C307.93 46.1547 307.567 46.506 307.001 46.506C306.366 46.302 306.049 45.9733 306.049 45.52L305.743 27.024C305.743 26.4347 306.094 26.1287 306.797 26.106L307.511 26.412C308.145 26.072 308.825 25.902 309.551 25.902ZM307.851 29.506L307.749 30.56L307.851 34.164L308.803 34.402C310.321 34.402 311.307 33.2913 311.761 31.07L311.761 30.56C311.602 28.7693 310.967 27.874 309.857 27.874L309.347 27.874C308.349 27.874 307.851 28.418 307.851 29.506Z" fill="black"/>
<path d="M99.9524 58.4807L79.5737 49.6516C71.0553 45.9611 61.1515 49.7866 57.326 58.2453L7.77583 167.807C3.61877 176.998 8.33447 187.767 17.9087 190.946L44.9265 199.916C53.5093 202.766 62.8208 198.397 66.1152 189.975L109.026 80.2723C112.36 71.7502 108.349 62.1185 99.9524 58.4807Z" fill="white"/>
<rect x="-0.530597" y="-1.31328" width="36.6029" height="134.705" transform="matrix(0.919893 0.392169 -0.389296 0.921112 67.0384 56.1045)" fill="#FDD546" stroke="#4C4C4C" stroke-width="2"/>
<path d="M62.2399 87.0091C62.0249 87.5178 62.2625 88.1058 62.7705 88.3224C63.2785 88.5389 63.8647 88.3021 64.0797 87.7934L62.2399 87.0091ZM69.6491 73.8634C69.4419 73.3505 68.8594 73.1022 68.3481 73.3088L60.0165 76.6749C59.5052 76.8815 59.2587 77.4647 59.466 77.9776C59.6732 78.4904 60.2556 78.7388 60.7669 78.5322L68.1728 75.54L71.1743 82.9691C71.3815 83.4819 71.9639 83.7303 72.4752 83.5237C72.9865 83.3171 73.233 82.7339 73.0258 82.221L69.6491 73.8634ZM64.0797 87.7934L69.6432 74.6296L67.8034 73.8452L62.2399 87.0091L64.0797 87.7934Z" fill="#4C4C4C"/>
<path d="M79.0917 94.1933C78.8767 94.702 79.1143 95.29 79.6223 95.5066C80.1303 95.7232 80.7165 95.4863 80.9315 94.9776L79.0917 94.1933ZM86.5009 81.0476C86.2937 80.5347 85.7112 80.2864 85.1999 80.493L76.8683 83.8591C76.357 84.0657 76.1106 84.6489 76.3178 85.1618C76.525 85.6746 77.1074 85.923 77.6187 85.7164L85.0246 82.7242L88.0261 90.1533C88.2333 90.6661 88.8157 90.9145 89.327 90.7079C89.8383 90.5013 90.0848 89.9181 89.8776 89.4052L86.5009 81.0476ZM80.9315 94.9776L86.495 81.8138L84.6552 81.0294L79.0917 94.1933L80.9315 94.9776Z" fill="#4C4C4C"/>
<rect x="-0.530597" y="-1.31328" width="36.6029" height="30.5825" transform="matrix(0.919893 0.392169 -0.389296 0.921112 26.504 152.013)" fill="#4C4C4C" stroke="#4C4C4C" stroke-width="2"/>
<rect width="6.1064" height="20.4161" transform="matrix(0.919893 0.392169 -0.389296 0.921112 35.8267 167)" fill="#CBC308"/>
</svg>
