<svg width="100" height="100" viewBox="0 0 100 100" fill="none" xmlns="http://www.w3.org/2000/svg">
<rect x="2" y="2" width="96" height="96" rx="21.8889" fill="#FDFDFD" stroke="black" stroke-width="4"/>
<path d="M31.09 40.5779H22.3844C21.0675 40.5779 20 41.6454 20 42.9623V59.299C20 60.6159 21.0675 61.6834 22.3844 61.6834H31.1688C31.7281 61.6834 32.2696 61.88 32.6986 62.2388L50.0192 76.7261C51.5714 78.0244 53.9334 76.9207 53.9334 74.8971V25.5125C53.9334 23.4238 51.4383 22.3446 49.9161 23.7749L32.7228 39.9311C32.2807 40.3466 31.6967 40.5779 31.09 40.5779Z" fill="black" stroke="black" stroke-width="3.48492"/>
<path d="M61.3987 35.2C66.3756 41.0666 73.3432 49.68 61.3987 65.9999" stroke="black" stroke-width="5" stroke-linecap="round"/>
<path d="M66.828 26C76.1031 33.8667 90.4456 49.12 68.1853 72.8" stroke="black" stroke-width="5" stroke-linecap="round"/>
</svg>
