<svg width="95" height="164" viewBox="0 0 95 164" fill="none" xmlns="http://www.w3.org/2000/svg">
<path d="M4.7697 36.8991L2.90979 25.1817C1.54118 16.5594 6.92042 8.30048 15.3599 6.06649C16.7807 5.69041 18.2441 5.5 19.7138 5.5H20.5L73.1191 0.466869C75.7361 0.216547 78 2.27424 78 4.90319C78 5.29929 78.0528 5.69363 78.157 6.07579L81.7836 19.3732C83.1619 24.4269 81.8326 29.8342 78.2681 33.6728C73.9096 38.3666 72.9727 45.2937 75.9279 50.9767L81.4038 61.5073C83.1214 64.8104 84.2494 68.388 84.7368 72.0789L93.3148 137.027C94.0511 142.601 91.8353 148.157 87.465 151.695C85.1974 153.531 82.4749 154.718 79.5868 155.13L30.8643 162.091C23.8107 163.098 17.5 157.625 17.5 150.5L9.56443 90.7498C9.18982 87.9292 9.19308 85.0712 9.57413 82.2515L13.0607 56.451C13.6502 52.0885 12.0979 47.7098 8.8923 44.6928C6.69314 42.623 5.24314 39.8818 4.7697 36.8991Z" fill="white"/>
<path d="M25.0762 46.2205L23.7372 36.6924L60.3554 31.546L61.6945 41.0741C71.138 53.9974 74.1684 61.9923 74.5031 64.3743L82.2049 124.828C84.1019 138.326 83.5058 141.649 80.6527 142.05L33.127 148.729C28.9679 149.314 28.4482 138.051 27.667 132.493L19.1862 72.1486C18.7398 68.9726 22.4447 53.8775 25.0762 46.2205Z" fill="#EAD9D1" stroke="black" stroke-width="2"/>
<path d="M13.8851 33.2187L11.988 19.7206L66.5259 12.0558L68.4229 25.5539C69.0478 30.0003 66.607 31.4769 65.3085 31.6594L20.12 38.0102C15.7569 38.6234 14.1454 35.0713 13.8851 33.2187Z" fill="#384A59"/>
<path d="M11.988 19.7206L13.8851 33.2187C14.1454 35.0713 15.7569 38.6234 20.12 38.0102L65.3085 31.6594C66.607 31.4769 69.0478 30.0003 68.4229 25.5539L66.5259 12.0558L11.558 19.781" stroke="black" stroke-width="2"/>
<path d="M65.5504 12.0293C65.5507 12.0292 65.5496 12.0319 65.5465 12.0374C65.5486 12.032 65.5502 12.0293 65.5504 12.0293ZM63.9752 11.7935C64.6512 11.9248 65.1112 12.0743 65.3883 12.2159C65.161 12.4283 64.76 12.6988 64.1463 13.0114C62.9153 13.6385 61.0479 14.3263 58.6532 15.0258C53.8786 16.4205 47.1735 17.8144 39.6758 18.8681C32.1781 19.9219 25.3486 20.4301 20.3745 20.4055C17.8797 20.3932 15.8951 20.2467 14.5389 19.9833C13.8629 19.8519 13.4029 19.7024 13.1258 19.5609C13.3531 19.3484 13.7541 19.0779 14.3678 18.7653C15.5988 18.1383 17.4662 17.4504 19.8609 16.7509C24.6355 15.3562 31.3406 13.9623 38.8383 12.9086C46.336 11.8549 53.1655 11.3466 58.1396 11.3712C60.6344 11.3835 62.619 11.53 63.9752 11.7935ZM12.9185 19.4262C12.9188 19.4261 12.921 19.4283 12.9246 19.4329C12.9201 19.4285 12.9183 19.4262 12.9185 19.4262ZM12.9637 19.7475C12.9634 19.7475 12.9645 19.7448 12.9676 19.7393C12.9655 19.7447 12.9639 19.7474 12.9637 19.7475ZM65.5895 12.3438C65.594 12.3482 65.5958 12.3505 65.5956 12.3505C65.5953 12.3506 65.5931 12.3484 65.5895 12.3438Z" fill="#2C3E49" stroke="black" stroke-width="2"/>
<path d="M74.8381 66.7563C60.0395 72.0749 31.8831 74.1427 19.2577 74.5676L27.7385 134.912C53.6823 135.152 74.5434 129.953 82.5249 127.212L74.8381 66.7563Z" fill="#6AB872" stroke="black" stroke-width="1.5"/>
<path d="M31.4218 106.028L30.1638 97.0764L32.0372 96.8131L33.2952 105.764L31.4218 106.028ZM35.2864 105.484L34.3265 98.6547L36.1379 98.4002L36.2861 99.4547L36.3977 99.439C36.6041 98.6573 37.2149 98.097 38.1888 97.9601C39.7086 97.7465 40.6582 98.5619 40.8874 100.193L41.5082 104.61L39.6968 104.865L39.1337 100.857C38.9985 99.8958 38.53 99.443 37.674 99.5633C36.8366 99.681 36.4125 100.354 36.5424 101.278L37.0977 105.23L35.2864 105.484ZM46.0007 104.124C44.1459 104.385 42.9746 103.702 42.6795 102.548L42.6699 102.524L44.4502 102.274L44.4661 102.297C44.668 102.698 45.1263 102.944 45.8397 102.844C46.5345 102.746 46.9641 102.382 46.9004 101.929L46.8987 101.917C46.8472 101.551 46.542 101.36 45.8255 101.302L44.6501 101.221C43.3082 101.125 42.5733 100.576 42.4294 99.5528L42.4286 99.5466C42.2481 98.2626 43.2692 97.2461 44.9751 97.0064C46.7678 96.7544 47.8858 97.5082 48.1146 98.5957L48.1181 98.6205L46.437 98.8568L46.4264 98.8266C46.2757 98.4746 45.8246 98.1901 45.1484 98.2851C44.5219 98.3732 44.1163 98.7275 44.1808 99.1865L44.1817 99.1927C44.2331 99.5587 44.5171 99.7339 45.246 99.7896L46.4152 99.8719C47.8209 99.9717 48.54 100.453 48.6821 101.464L48.683 101.47C48.873 102.822 47.75 103.878 46.0007 104.124ZM52.7373 103.177C51.2051 103.393 50.2866 102.573 50.0582 100.948L49.4374 96.531L51.2488 96.2765L51.8111 100.278C51.9471 101.245 52.3837 101.696 53.2397 101.576C54.133 101.45 54.5323 100.781 54.4024 99.8564L53.8479 95.9112L55.6592 95.6566L56.6191 102.486L54.8077 102.741L54.6595 101.686L54.5479 101.702C54.3423 102.49 53.7112 103.04 52.7373 103.177ZM58.4986 102.222L57.1718 92.7809L58.9831 92.5264L60.31 101.968L58.4986 102.222ZM62.0004 93.6964C61.4421 93.7749 60.9141 93.3936 60.8356 92.8353C60.7563 92.2708 61.1588 91.7588 61.7171 91.6804C62.2754 91.6019 62.7972 91.984 62.8765 92.5485C62.955 93.1068 62.5587 93.6179 62.0004 93.6964ZM62.1957 101.703L61.2359 94.8729L63.0472 94.6183L64.007 101.448L62.1957 101.703ZM65.8308 101.192L64.8709 94.362L66.6823 94.1074L66.8305 95.162L66.9421 95.1463C67.1485 94.3645 67.7593 93.8043 68.7332 93.6674C70.253 93.4538 71.2026 94.2692 71.4318 95.9006L72.0526 100.317L70.2412 100.572L69.678 96.5646C69.5429 95.6031 69.0744 95.1502 68.2184 95.2706C67.381 95.3882 66.9569 96.0614 67.0868 96.9857L67.6421 100.937L65.8308 101.192Z" fill="white"/>
</svg>
