<svg width="121" height="212" viewBox="0 0 121 212" fill="none" xmlns="http://www.w3.org/2000/svg">
<path d="M5.49611 47.4978L3.10196 32.4147C1.34024 21.3159 8.26459 10.6847 19.1282 7.80899C20.957 7.3249 22.8408 7.07979 24.7326 7.07979H25.7447L93.4778 0.60097C96.8465 0.278747 99.7606 2.92748 99.7606 6.31155C99.7606 6.82143 99.8286 7.32904 99.9628 7.82096L104.631 24.9378C106.405 31.4432 104.694 38.4036 100.106 43.3448C94.4953 49.3868 93.2894 58.3036 97.0933 65.6189L104.142 79.1743C106.353 83.4262 107.805 88.0313 108.433 92.7825L119.474 176.385C120.422 183.561 117.57 190.713 111.944 195.267C109.025 197.63 105.521 199.158 101.803 199.689L39.086 208.649C30.0064 209.946 21.883 202.901 21.883 193.729L11.668 116.816C11.1858 113.185 11.19 109.507 11.6805 105.877L16.1685 72.6656C16.9274 67.0501 14.9292 61.4137 10.8029 57.53C7.97202 54.8657 6.10553 51.3372 5.49611 47.4978Z" fill="white"/>
<path d="M34.2099 59.4968L32.4861 47.2319L79.6224 40.6074L81.3461 52.8722C93.5021 69.5076 97.4029 79.7988 97.8338 82.865L107.748 160.683C110.19 178.059 109.422 182.335 105.75 182.852L44.573 191.449C39.2193 192.202 38.5504 177.704 37.5448 170.55L26.628 92.8724C26.0534 88.7841 30.8224 69.3532 34.2099 59.4968Z" fill="#EAD9D1" stroke="black" stroke-width="1.28723"/>
<path d="M19.8042 42.7603L17.3623 25.3851L87.5652 15.5187L90.0072 32.8939C90.8116 38.6175 87.6697 40.5182 85.9982 40.7531L27.83 48.9282C22.2138 49.7175 20.1394 45.1451 19.8042 42.7603Z" fill="#384A59"/>
<path d="M17.3623 25.3851L19.8042 42.7603C20.1394 45.1451 22.2138 49.7175 27.83 48.9282L85.9982 40.7532C87.6697 40.5182 90.8116 38.6175 90.0072 32.8939L87.5652 15.5187L16.8087 25.4629" stroke="black" stroke-width="1.28723"/>
<path d="M86.928 15.6089C86.9331 15.6451 86.9289 15.8276 86.5545 16.1821C86.1988 16.5188 85.6169 16.9037 84.7943 17.3227C83.1569 18.1568 80.7086 19.0554 77.6118 19.96C71.4276 21.7664 62.7647 23.5662 53.0925 24.9256C43.4203 26.2849 34.5969 26.9427 28.1544 26.9108C24.9282 26.8948 22.3271 26.7059 20.5231 26.3554C19.6169 26.1794 18.9515 25.9698 18.5168 25.7442C18.0591 25.5066 18.0048 25.3324 17.9997 25.2962C17.9946 25.26 17.9988 25.0775 18.3732 24.723C18.7289 24.3863 19.3108 24.0014 20.1334 23.5824C21.7709 22.7483 24.2192 21.8497 27.316 20.9451C33.5001 19.1387 42.1631 17.3389 51.8352 15.9796C61.5074 14.6202 70.3309 13.9624 76.7733 13.9943C79.9995 14.0103 82.6007 14.1992 84.4046 14.5497C85.3108 14.7257 85.9763 14.9353 86.411 15.1609C86.8686 15.3985 86.9229 15.5727 86.928 15.6089Z" fill="#2C3E49" stroke="black" stroke-width="1.28723"/>
<path d="M98.2649 85.9313C79.2157 92.7776 42.9718 95.4394 26.72 95.9863L37.6368 173.664C71.0326 173.973 97.8856 167.281 108.16 163.752L98.2649 85.9313Z" fill="#6AB872" stroke="black" stroke-width="1.28723"/>
<path d="M42.455 137.031L40.8357 125.509L43.2471 125.17L44.8665 136.692L42.455 137.031ZM47.4296 136.332L46.1941 127.54L48.5257 127.213L48.7165 128.57L48.8602 128.55C49.1259 127.543 49.9121 126.822 51.1657 126.646C53.122 126.371 54.3444 127.421 54.6395 129.521L55.4385 135.206L53.1069 135.534L52.382 130.375C52.208 129.138 51.605 128.555 50.5031 128.71C49.4251 128.861 48.8792 129.728 49.0464 130.918L49.7612 136.004L47.4296 136.332ZM61.2215 134.581C58.834 134.916 57.3262 134.037 56.9464 132.551L56.9339 132.521L59.2256 132.198L59.246 132.228C59.506 132.745 60.096 133.061 61.0142 132.932C61.9086 132.807 62.4615 132.338 62.3796 131.755L62.3774 131.739C62.3112 131.268 61.9183 131.022 60.9959 130.948L59.483 130.843C57.7556 130.72 56.8096 130.014 56.6244 128.696L56.6233 128.688C56.391 127.035 57.7054 125.727 59.9012 125.418C62.2089 125.094 63.6481 126.064 63.9425 127.464L63.947 127.496L61.7831 127.8L61.7695 127.761C61.5755 127.308 60.9948 126.942 60.1244 127.064C59.3179 127.178 58.7958 127.634 58.8788 128.225L58.8799 128.233C58.9461 128.704 59.3117 128.929 60.25 129.001L61.755 129.107C63.5645 129.235 64.4901 129.854 64.6731 131.156L64.6742 131.164C64.9188 132.905 63.4732 134.264 61.2215 134.581ZM69.8931 133.362C67.9208 133.639 66.7384 132.584 66.4444 130.492L65.6454 124.807L67.977 124.479L68.7008 129.629C68.8759 130.875 69.4379 131.455 70.5398 131.3C71.6896 131.139 72.2036 130.277 72.0364 129.087L71.3227 124.009L73.6543 123.681L74.8898 132.472L72.5582 132.8L72.3674 131.443L72.2237 131.463C71.9591 132.477 71.1467 133.186 69.8931 133.362ZM77.3092 132.132L75.6012 119.979L77.9328 119.652L79.6408 131.805L77.3092 132.132ZM81.8168 121.158C81.0982 121.259 80.4185 120.768 80.3175 120.049C80.2154 119.323 80.7335 118.664 81.4521 118.563C82.1708 118.462 82.8425 118.953 82.9446 119.68C83.0456 120.399 82.5355 121.057 81.8168 121.158ZM82.0683 131.463L80.8327 122.672L83.1643 122.344L84.3999 131.136L82.0683 131.463ZM86.7474 130.806L85.5119 122.014L87.8435 121.687L88.0343 123.044L88.178 123.024C88.4437 122.018 89.2299 121.297 90.4835 121.12C92.4398 120.845 93.6622 121.895 93.9573 123.995L94.7563 129.68L92.4247 130.008L91.6998 124.85C91.5258 123.612 90.9228 123.029 89.8208 123.184C88.7429 123.335 88.197 124.202 88.3642 125.392L89.079 130.478L86.7474 130.806Z" fill="white"/>
</svg>
