<svg width="116" height="162" viewBox="0 0 116 162" fill="none" xmlns="http://www.w3.org/2000/svg">
<path d="M100.396 15.4846L79.8142 6.60611C71.3095 2.93742 61.433 6.75209 57.6025 15.1851L7.82687 124.769C3.6466 133.972 8.37196 144.768 17.9691 147.94L45.2243 156.95C53.7935 159.783 63.0828 155.426 66.3829 147.025L109.485 37.3102C112.839 28.7743 108.817 19.1171 100.396 15.4846Z" fill="white"/>
<rect x="67.3448" y="11.6606" width="36.7732" height="134.835" transform="rotate(23 67.3448 11.6606)" fill="#FDD546" stroke="#4C4C4C" stroke-width="2.04296"/>
<path d="M62.4942 44.0022C62.2737 44.5215 62.516 45.1212 63.0353 45.3416C63.5546 45.5621 64.1543 45.3198 64.3747 44.8005L62.4942 44.0022ZM69.9693 30.8549C69.7579 30.3318 69.1626 30.0791 68.6395 30.2904L60.1156 33.7343C59.5926 33.9456 59.3399 34.541 59.5512 35.064C59.7625 35.5871 60.3579 35.8398 60.8809 35.6285L68.4577 32.5673L71.519 40.144C71.7303 40.6671 72.3256 40.9198 72.8487 40.7085C73.3718 40.4972 73.6245 39.9018 73.4131 39.3787L69.9693 30.8549ZM64.3747 44.8005L69.9625 31.6366L68.0819 30.8384L62.4942 44.0022L64.3747 44.8005Z" fill="#4C4C4C"/>
<path d="M79.4192 51.1863C79.1988 51.7056 79.4411 52.3053 79.9604 52.5257C80.4797 52.7462 81.0793 52.5039 81.2998 51.9846L79.4192 51.1863ZM86.8943 38.0389C86.683 37.5159 86.0876 37.2632 85.5646 37.4745L77.0407 40.9184C76.5176 41.1297 76.2649 41.725 76.4762 42.2481C76.6876 42.7712 77.2829 43.0239 77.806 42.8126L85.3828 39.7513L88.444 47.3281C88.6553 47.8512 89.2507 48.1039 89.7738 47.8926C90.2968 47.6812 90.5495 47.0859 90.3382 46.5628L86.8943 38.0389ZM81.2998 51.9846L86.8875 38.8207L85.0069 38.0225L79.4192 51.1863L81.2998 51.9846Z" fill="#4C4C4C"/>
<rect x="26.6343" y="107.569" width="36.7732" height="30.6444" transform="rotate(23 26.6343 107.569)" fill="#4C4C4C" stroke="#4C4C4C" stroke-width="2.04296"/>
<rect x="35.9824" y="124" width="6.12887" height="20.4296" transform="rotate(23 35.9824 124)" fill="#CBC308"/>
</svg>
