<svg width="115" height="162" viewBox="0 0 115 162" fill="none" xmlns="http://www.w3.org/2000/svg">
<path d="M99.9524 15.4807L79.5737 6.65163C71.0553 2.96106 61.1515 6.78663 57.326 15.2453L7.77583 124.807C3.61877 133.998 8.33447 144.767 17.9087 147.946L44.9265 156.916C53.5093 159.766 62.8208 155.397 66.1152 146.975L109.026 37.2723C112.36 28.7502 108.349 19.1185 99.9524 15.4807Z" fill="white"/>
<rect x="-0.530597" y="-1.31328" width="36.6029" height="134.705" transform="matrix(0.919893 0.392169 -0.389296 0.921112 67.0384 13.1045)" fill="#FDD546" stroke="#4C4C4C" stroke-width="2"/>
<path d="M62.2399 44.0092C62.0249 44.5179 62.2625 45.1059 62.7705 45.3225C63.2785 45.5391 63.8647 45.3023 64.0797 44.7935L62.2399 44.0092ZM69.6491 30.8635C69.4419 30.3506 68.8594 30.1023 68.3481 30.3089L60.0165 33.675C59.5052 33.8816 59.2587 34.4648 59.466 34.9777C59.6732 35.4906 60.2556 35.7389 60.7669 35.5323L68.1728 32.5402L71.1743 39.9692C71.3815 40.4821 71.9639 40.7304 72.4752 40.5238C72.9865 40.3172 73.233 39.734 73.0258 39.2212L69.6491 30.8635ZM64.0797 44.7935L69.6432 31.6297L67.8034 30.8453L62.2399 44.0092L64.0797 44.7935Z" fill="#4C4C4C"/>
<path d="M79.0917 51.1933C78.8767 51.702 79.1143 52.29 79.6223 52.5066C80.1303 52.7232 80.7165 52.4863 80.9315 51.9776L79.0917 51.1933ZM86.5009 38.0476C86.2937 37.5347 85.7112 37.2864 85.1999 37.493L76.8683 40.8591C76.357 41.0657 76.1106 41.6489 76.3178 42.1618C76.525 42.6746 77.1074 42.923 77.6187 42.7164L85.0246 39.7242L88.0261 47.1533C88.2333 47.6661 88.8157 47.9145 89.327 47.7079C89.8383 47.5013 90.0848 46.9181 89.8776 46.4052L86.5009 38.0476ZM80.9315 51.9776L86.495 38.8138L84.6552 38.0294L79.0917 51.1933L80.9315 51.9776Z" fill="#4C4C4C"/>
<rect x="-0.530597" y="-1.31328" width="36.6029" height="30.5825" transform="matrix(0.919893 0.392169 -0.389296 0.921112 26.504 109.013)" fill="#4C4C4C" stroke="#4C4C4C" stroke-width="2"/>
<rect width="6.1064" height="20.4161" transform="matrix(0.919893 0.392169 -0.389296 0.921112 35.8267 124)" fill="#CBC308"/>
</svg>
