<svg width="233" height="72" viewBox="0 0 233 72" fill="none" xmlns="http://www.w3.org/2000/svg">
<path d="M12.4999 15.5C12.4999 18.6832 10.7131 20.3985 9.86328 23.3546C9.16133 25.7962 8.4717 28.2392 7.79479 30.6973C7.44404 31.9709 8.84415 33.2233 8.49982 34.5C8.2758 35.3306 8.84537 36.4266 8.9998 37.3564C9.05325 37.6781 7.29391 37.1806 7.5 37C9.27509 35.4441 10.2241 34.1566 11.9318 32.4723C16.6427 27.8257 21.2283 22.9397 26.1969 18.7792C28.7506 16.6409 31.4166 14.9607 34.1495 13.3218C35.2198 12.6799 32.214 17.6113 33.226 16.8167C33.7321 16.4193 35.1722 13.221 35.8315 13.221C35.8315 13.7612 37.1538 12.8801 36.9514 13.3328C35.6305 16.2887 34.24 19.1833 32.6331 21.8772C29.2338 27.5763 25.6627 33.0789 22.0517 38.536C19.375 42.5811 16.8202 47.1595 15.393 52.2512C14.9758 53.7395 14.6161 55.1982 14.4041 56.7714C14.3333 57.2965 13.6952 59.3722 14.2063 58.2488C15.6001 55.1854 18.1716 52.84 20.1892 50.6084C25.5663 44.6613 31.1611 39.0894 36.2922 32.7589C37.371 31.4278 38.4761 30.1365 39.5886 28.8561C40.0479 28.3274 40.5216 27.6905 41.0802 27.3456C41.4984 27.0874 41.9241 26.8519 42.3246 26.5408C42.8947 26.0979 47.2779 21.5818 47.5164 22.0206C47.8636 22.6592 45.5116 26.2752 45.2831 26.6841C42.7442 31.2283 39.9431 35.5127 37.38 40.0354C34.8333 44.5292 32.8197 49.4114 30.8778 54.4011C29.7007 57.4256 28.7133 60.6089 27.4413 63.5628C27.2 64.1232 28.6395 62.2655 28.3873 62.8091C28.0254 63.5891 28.0508 60.3228 27.6428 61.0246C27.0506 62.0432 26.8242 65.5379 27.4084 64.511C30.866 58.4325 34.5972 52.6085 38.4101 46.9261C43.2101 39.7725 47.9857 32.6256 52.5269 25.1737C53.8363 23.0252 55.5275 19.8207 57.6281 18.9115C60.0231 17.8749 61.7958 15.6825 64.0643 14.3471C64.4001 14.1495 64.7232 14.07 65.0532 13.8841C65.8696 13.4243 64.8457 15.2883 64.7813 15.4166C62.7125 19.5372 60.6485 23.7343 59.0703 28.2387C57.5806 32.4901 56.5914 37.0815 55.7079 41.612C55.0135 45.1736 53.9263 48.6473 53.5158 52.2953C53.2493 54.6636 53.2506 56.9824 53.178 59.3623C53.1225 61.1819 52.6919 62.968 52.3951 64.7315C52.3093 65.2411 53.2099 65.0022 53.5158 64.1251C57.1973 53.5711 60.4403 44.4246 64.6577 34.2363C67.0764 28.3932 69.5112 22.0049 73.2613 17.4562C74.4746 15.9845 75.852 14.8149 77.1016 13.399C79.1641 11.062 76.6865 19.8618 78.6357 17.3585C79.1713 16.6706 80.559 14.3433 81.255 13.9243C81.3476 13.8686 72.3684 30.0433 79.7523 15.7108C75.8131 25.8279 77.0077 20.3785 76.7746 20.6903C74.8023 23.3289 81.924 11.6609 80.9172 15.0638C79.8457 18.6851 78.7021 22.2795 77.8103 25.9896C76.8337 30.0524 76.0883 34.2097 75.0578 38.2494C73.8496 42.9856 72.2295 47.5 70.8384 52.1409C70.0898 54.6383 69.5743 57.1991 68.9265 59.7372C68.5588 61.178 68.3333 62.7355 67.8717 64.1251C67.8153 64.2947 68.2823 62.9883 68.5309 62.6147C70.3384 59.8984 72.2636 57.3185 74.0442 54.5664C76.7453 50.3915 79.0729 45.9041 81.255 41.2261C81.9442 39.7488 82.6831 38.3088 83.34 36.8051C83.7494 35.868 84.0766 34.8837 84.6339 34.0819C87.2547 30.3111 90.0805 26.8242 92.7924 23.1672C93.9577 21.5957 94.9845 19.8252 96.3361 18.5256C96.9418 17.9432 97.5953 17.522 98.1326 16.8167C98.3396 16.545 99.0945 15.0527 99.3852 15.0527C99.6045 15.0527 97.2669 25.1027 97.0613 25.8793C95.0831 33.3516 93.4652 40.9359 91.9931 48.6129C91.1034 53.2523 90.251 57.8022 88.9356 62.2619C87.3049 67.7907 94.2871 55.4399 92.7797 61.0246C92.7797 61.0246 92.334 61.626 92.4075 61.5225C93.1679 60.4517 87.3398 65.3399 87.941 64.1251C90.1979 59.5646 91.3492 66.9442 93.6165 62.3942C97.0779 55.4482 99.8145 47.9832 103.621 41.3143C106.923 35.5299 110.451 30.0739 114.046 24.6114C114.198 24.3797 116.85 20.1475 117.087 20.433C117.234 20.6106 116.823 21.7256 116.807 21.778C115.867 24.7291 114.59 27.4817 113.428 30.2783C108.17 42.9298 103.722 49.915 100.055 63.5628C99.7551 64.6808 100.154 63.0125 99.8517 64.1251C99.3232 66.0697 98.0835 56.3583 95.7574 67C102.992 49.2373 114.116 36.2615 124.652 21.6237C126.083 19.6364 127.351 17.4182 128.806 15.4717C129.188 14.9595 128.785 16.3604 128.764 16.475C126.32 30.2848 124.228 44.2187 121.504 57.9401C121.143 59.7581 120.685 61.588 120.433 63.4416C120.36 63.977 121.006 62.663 121.24 62.2178C125.304 54.4818 129.5 46.8619 134.154 39.7378C138.267 33.4423 142.78 27.5116 147.826 22.5608C149.806 20.6179 151.812 18.7495 153.842 16.9049C154.633 16.1856 154.208 17.2829 154.023 18.1397C152.608 24.6778 150.168 30.9259 148.172 37.1689C146.532 42.2975 144.949 47.4669 143.211 52.5378C142.302 55.1883 141.185 57.5728 140.129 60.101C139.899 60.6509 140.766 59.1729 141.068 58.6898C143.346 55.0465 145.989 51.8806 148.617 48.7011C155.344 40.5624 162.175 32.5848 168.865 24.3909C170.471 22.4235 172.081 20.4566 173.768 18.6138C174.012 18.3478 175.059 16.8828 175.499 17.0593C175.742 17.1567 173.596 22.0924 173.571 22.1529C169.732 31.3498 166.482 41.0089 163.055 50.4872C160.583 57.3249 157.172 67 159.778 64.5102C159.999 63.8186 157.572 65.0105 157.917 64.5102C160.874 60.2181 163.47 60.7521 166.508 56.562C170.549 50.9882 174.757 45.6852 179.249 40.7631C184.386 35.1335 189.956 30.1509 194.799 24.0492C196.036 22.4913 197.455 20.6823 198.046 18.4705C198.108 18.2391 198.112 17.932 198.112 18.3161C198.112 18.9849 198.117 19.654 198.112 20.3227C198.023 34.2431 191.908 46.3188 185.108 56.1981C184.922 56.468 184.269 57.1536 184.235 57.6093C184.192 58.1808 185.041 57.1514 185.355 56.7604C189.019 52.2043 191.909 46.1166 193.942 40.0575C194.804 37.49 195.445 34.83 195.937 32.0974C196.261 30.2957 196.271 29.4991 197.404 28.393C200.836 25.042 204.338 21.7646 207.837 18.5366C210.158 16.3952 212.264 16.0193 214.493 13.719C214.64 13.5665 215.239 14.1721 215.465 14.2169C215.818 14.2869 215.555 13.2074 215.534 13.4541C215.199 17.2948 214.692 21.1635 213.919 24.8871C211.353 37.236 206.883 48.316 202.414 59.5497C202.038 60.4945 200.931 62.1864 200.931 63.3203C200.931 63.52 200.973 62.9209 201.03 62.736C201.283 61.9055 201.778 61.1318 202.183 60.4317C205.064 55.4597 208.403 50.9276 211.669 46.4189C216.158 40.2218 220.819 34.6462 226 29.5176" stroke="#A8DAFD" stroke-width="14" stroke-linecap="round"/>
<rect x="2" y="7" width="229" height="63" rx="18" stroke="black" stroke-width="4"/>
<path d="M86.56 24.504C88.064 24.984 90.928 30.824 95.152 42.024L95.872 42.888V40.2C95.872 33.064 97.632 28.024 101.152 25.08C101.952 25.08 102.448 25.624 102.64 26.712C100.24 30.296 99.04 33.192 99.04 35.4C98.88 35.4 98.784 36.408 98.752 38.424V40.968C98.752 43.176 98.992 46.328 99.472 50.424C99.184 51.224 98.672 51.624 97.936 51.624C97.2 51.624 96.16 50.12 94.816 47.112C93.184 44.52 91.392 40.584 89.44 35.304H89.248V35.592L89.536 41.688C89.536 47.992 88.336 52.056 85.936 53.88L84.736 54.024C83.744 54.024 82.912 53.112 82.24 51.288C82.464 50.296 82.96 49.8 83.728 49.8H84.016L84.928 50.568H85.072C86.192 49.064 86.752 46.216 86.752 42.024C86.752 37.8 86.144 32.456 84.928 25.992C84.928 25.128 85.472 24.632 86.56 24.504ZM107.951 33.768C109.231 33.8 111.391 36.04 114.431 40.488L114.527 41.304C114.527 42.2 112.335 42.888 107.951 43.368L107.807 43.512V43.704C108.479 46.584 109.183 48.024 109.919 48.024H110.495C111.519 48.024 113.071 46.92 115.151 44.712H115.439C116.079 44.712 116.575 45.176 116.927 46.104C116.927 46.872 115.583 48.2 112.895 50.088C112.191 50.504 111.343 50.808 110.351 51C107.759 51 105.951 48.568 104.927 43.704C103.455 43.48 102.719 42.872 102.719 41.88C102.719 41.176 103.263 40.712 104.351 40.488V40.68L104.831 40.488V39.288C104.831 35.608 105.871 33.768 107.951 33.768ZM108.239 37.224H107.807L107.615 39V40.488H107.807C109.599 40.424 110.495 40.232 110.495 39.912C109.663 38.664 108.911 37.768 108.239 37.224ZM125.251 37.128H125.347C125.987 37.128 126.387 37.64 126.547 38.664C125.747 41.896 125.347 44.392 125.347 46.152C126.179 47.56 127.379 48.264 128.947 48.264C129.363 48.648 129.571 49.048 129.571 49.464V50.04C129.283 50.648 128.643 50.952 127.651 50.952C126.755 50.888 125.891 50.52 125.059 49.848H124.627C124.275 53.272 123.811 54.984 123.235 54.984H122.371C121.667 54.6 121.315 54.152 121.315 53.64L122.227 46.44V46.248C120.019 42.184 118.915 39.656 118.915 38.664C118.915 37.896 119.459 37.496 120.547 37.464C121.315 37.464 122.019 38.696 122.659 41.16L122.851 41.352H123.139C123.459 38.536 124.163 37.128 125.251 37.128ZM136.904 21.864C137.8 22.056 138.248 22.504 138.248 23.208L137.96 25.32V25.944C137.96 27.352 138.12 28.84 138.44 30.408H138.536C142.248 29.288 144.552 28.728 145.448 28.728C146.376 28.984 146.84 29.448 146.84 30.12C146.84 31.208 145.736 31.752 143.528 31.752L138.536 33.528C138.536 37.848 139 43.72 139.928 51.144C139.736 52.008 139.272 52.44 138.536 52.44H138.44C137.32 52.44 136.76 51 136.76 48.12C136.344 45.976 135.992 41.32 135.704 34.152H134.84C131.832 33.96 130.328 33.256 130.328 32.04C130.328 31.688 130.664 31.256 131.336 30.744H131.816L134.024 31.32H135.56L135.128 25.32C135.128 23.016 135.72 21.864 136.904 21.864Z" fill="black"/>
</svg>
