<svg width="151" height="156" viewBox="0 0 151 156" fill="none" xmlns="http://www.w3.org/2000/svg">
<path d="M145.567 21.2815L137.636 14.2139L130.555 7.97374C126.085 4.03362 119.248 4.54428 115.412 9.10476L99.5458 27.9703L23.9733 119.107L9.18515 133.912C4.60767 138.495 5.16608 146.073 10.3658 149.935L11.1107 150.489C15.2404 153.556 20.9752 153.221 24.7196 149.694L66.5012 110.332C73.3577 103.873 84.6049 108.88 84.393 118.298L83.9389 138.466C83.8049 144.42 88.5954 149.32 94.5516 149.32H130.425C136.403 149.32 141.202 144.386 141.036 138.41L139.094 68.5421C139.065 67.4845 139.193 66.4285 139.476 65.409L148.733 32.0448C149.815 28.1468 148.587 23.9728 145.567 21.2815Z" fill="#DDDDDD" stroke="black" stroke-dasharray="2 2"/>
<path d="M98.3055 69.1792L101.925 69.0592C102.232 69.0592 102.479 69.1325 102.665 69.2792C102.852 69.4125 102.945 69.5992 102.945 69.8392C102.945 70.0792 102.852 70.2725 102.665 70.4192C102.479 70.5525 102.232 70.6192 101.925 70.6192L99.1255 70.5192C99.0588 73.5192 99.0255 75.5925 99.0255 76.7392L99.1255 83.3592C99.1255 83.6659 99.0521 83.9125 98.9055 84.0992C98.7588 84.2859 98.5588 84.3792 98.3055 84.3792C98.0521 84.3792 97.8521 84.2859 97.7055 84.0992C97.5588 83.9125 97.4855 83.6659 97.4855 83.3592L97.5855 76.7392C97.5855 75.5792 97.5521 73.4992 97.4855 70.4992L94.4655 70.5992C93.8255 70.5992 93.5055 70.3459 93.5055 69.8392C93.5055 69.3325 93.8255 69.0792 94.4655 69.0792L98.3055 69.1792ZM111.466 79.3392C111.466 80.3392 111.539 81.1592 111.686 81.7992C111.832 82.4259 112.006 82.7792 112.206 82.8592C112.286 82.8992 112.379 82.9259 112.486 82.9392C112.606 82.9525 112.686 82.9725 112.726 82.9992C112.779 83.0259 112.806 83.0792 112.806 83.1592C112.806 83.5192 112.706 83.8125 112.506 84.0392C112.319 84.2659 112.032 84.3792 111.646 84.3792C111.259 84.3792 110.959 84.1325 110.746 83.6392C110.532 83.1459 110.426 82.5125 110.426 81.7392C110.092 82.4859 109.599 83.1125 108.946 83.6192C108.306 84.1259 107.579 84.3792 106.766 84.3792C105.966 84.3792 105.272 84.1125 104.686 83.5792C103.619 82.6059 103.086 81.2125 103.086 79.3992C103.086 77.9459 103.506 76.6792 104.346 75.5992C105.186 74.5192 106.266 73.9792 107.586 73.9792C108.586 73.9792 109.452 74.3192 110.186 74.9992C110.186 74.3192 110.439 73.9792 110.946 73.9792C111.559 73.9792 111.866 74.4525 111.866 75.3992C111.866 76.3325 111.732 77.6459 111.466 79.3392ZM110.306 79.5192L110.206 76.4392C109.406 75.6659 108.566 75.2792 107.686 75.2792C106.819 75.2792 106.072 75.6725 105.446 76.4592C104.819 77.2459 104.506 78.1925 104.506 79.2992C104.506 80.3925 104.706 81.2992 105.106 82.0192C105.519 82.7259 106.099 83.0792 106.846 83.0792C107.592 83.0792 108.272 82.7459 108.886 82.0792C109.499 81.4125 109.972 80.5592 110.306 79.5192ZM119.311 83.0792C120.165 83.0792 120.911 82.6859 121.551 81.8992C122.205 81.1125 122.531 80.1925 122.531 79.1392C122.531 78.0725 122.298 77.1659 121.831 76.4192C121.365 75.6592 120.731 75.2792 119.931 75.2792C118.531 75.2792 117.378 76.4325 116.471 78.7392V81.9192C117.271 82.6925 118.218 83.0792 119.311 83.0792ZM115.231 80.3792L115.251 79.6192V79.2992C115.251 78.7392 115.191 77.9192 115.071 76.8392C114.951 75.7592 114.891 75.1059 114.891 74.8792C114.891 74.6392 114.958 74.4325 115.091 74.2592C115.238 74.0725 115.431 73.9792 115.671 73.9792C115.911 73.9792 116.098 74.0725 116.231 74.2592C116.378 74.4325 116.451 74.6325 116.451 74.8592C116.451 75.0859 116.445 75.3725 116.431 75.7192C116.431 76.0525 116.431 76.3325 116.431 76.5592C116.871 75.7459 117.365 75.1125 117.911 74.6592C118.458 74.2059 119.165 73.9792 120.031 73.9792C120.898 73.9792 121.645 74.2592 122.271 74.8192C122.898 75.3792 123.345 76.0259 123.611 76.7592C123.878 77.4925 124.011 78.2259 124.011 78.9592C124.011 80.4125 123.571 81.6792 122.691 82.7592C121.811 83.8392 120.685 84.3792 119.311 84.3792C118.311 84.3792 117.365 84.0525 116.471 83.3992C116.445 85.0125 116.431 86.2059 116.431 86.9792C116.431 87.7659 116.365 88.2592 116.231 88.4592C116.098 88.6725 115.891 88.7792 115.611 88.7792C115.331 88.7792 115.098 88.6592 114.911 88.4192C114.738 88.1925 114.651 87.8592 114.651 87.4192C114.651 86.9792 114.678 86.4525 114.731 85.8392C114.785 85.2392 114.865 84.4459 114.971 83.4592C115.078 82.4592 115.165 81.5592 115.231 80.7592V80.3792Z" fill="#5B5B5B"/>
</svg>
