<svg width="350" height="128" viewBox="0 0 350 128" fill="none" xmlns="http://www.w3.org/2000/svg">
<path d="M6.2293 30.7C7.29463 30.7 8.0313 31.8333 8.4393 34.1V34.236C8.4393 34.7573 8.08796 35.0633 7.3853 35.154C6.81863 35.154 6.4333 34.4513 6.2293 33.046L6.0933 32.944H5.6853C5.18663 33.6693 4.9373 34.6213 4.9373 35.8L5.0393 37.5C5.94596 37.5 6.93196 37.262 7.9973 36.786C8.42796 36.786 8.82463 37.092 9.1873 37.704C9.1873 38.6333 7.91796 39.2453 5.3793 39.54L6.2293 45.082C6.2293 45.558 5.83263 45.864 5.0393 46C4.33663 46 3.9853 44.912 3.9853 42.736L3.3393 39.846L1.1293 40.186C0.653297 40.186 0.369964 39.8347 0.279297 39.132C0.279297 38.452 1.1973 38.0213 3.0333 37.84L2.8973 35.732C3.25996 32.3773 4.37063 30.7 6.2293 30.7ZM16.4474 32.876C17.4447 32.876 17.9434 33.2727 17.9434 34.066L17.6374 34.712L17.4334 40.934C17.4334 43.7447 18 45.49 19.1334 46.17L19.2014 46.68C19.1334 47.3373 18.8274 47.666 18.2834 47.666H18.0794C16.3794 46.51 15.5294 44.742 15.5294 42.362H15.2914C14.3847 44.9007 13.2854 46.17 11.9934 46.17C10.792 45.83 10.1914 44.9347 10.1914 43.484C10.1914 40.288 11.472 37.1033 14.0334 33.93C14.8947 33.2273 15.6994 32.876 16.4474 32.876ZM12.3334 42.124L12.1974 43.076V43.722H12.5374C14.2374 39.4833 15.0874 36.8993 15.0874 35.97H14.9514C13.6367 37.4433 12.764 39.4947 12.3334 42.124ZM26.8511 32.23C27.4631 32.23 27.8824 33.2613 28.1091 35.324C27.8824 35.8907 27.5084 36.174 26.9871 36.174C26.6244 36.106 26.2618 35.6867 25.8991 34.916L25.2871 34.712C24.2218 34.712 23.2584 35.4147 22.3971 36.82V37.126C22.3971 37.466 23.9951 38.0327 27.1911 38.826C28.5284 39.6193 29.1971 40.5827 29.1971 41.716C29.1971 43.5747 27.7011 45.1613 24.7091 46.476L23.4511 46.68C21.5471 46.476 20.5951 45.524 20.5951 43.824V43.722C20.5951 43.178 20.9464 42.8607 21.6491 42.77C22.1931 42.77 22.5558 43.3367 22.7371 44.47L23.0091 44.674H23.5871C24.8791 44.674 26.0804 43.79 27.1911 42.022V41.58C27.1911 40.9 25.7064 40.2653 22.7371 39.676C21.1731 39.0413 20.3911 38.1573 20.3911 37.024C20.3911 35.5507 21.6264 34.168 24.0971 32.876C25.1851 32.74 26.1031 32.5247 26.8511 32.23ZM34.4549 25.362C35.0895 25.498 35.4069 25.8153 35.4069 26.314L35.2029 27.81V28.252C35.2029 29.2493 35.3162 30.3033 35.5429 31.414H35.6109C38.2402 30.6207 39.8722 30.224 40.5069 30.224C41.1642 30.4053 41.4929 30.734 41.4929 31.21C41.4929 31.9807 40.7109 32.366 39.1469 32.366L35.6109 33.624C35.6109 36.684 35.9395 40.8433 36.5969 46.102C36.4609 46.714 36.1322 47.02 35.6109 47.02H35.5429C34.7495 47.02 34.3529 46 34.3529 43.96C34.0582 42.4413 33.8089 39.1433 33.6049 34.066H32.9929C30.8622 33.93 29.7969 33.4313 29.7969 32.57C29.7969 32.3207 30.0349 32.0147 30.5109 31.652H30.8509L32.4149 32.06H33.5029L33.1969 27.81C33.1969 26.178 33.6162 25.362 34.4549 25.362ZM46.5068 36.65L52.6608 36.242C53.2275 36.242 53.5561 36.5933 53.6468 37.296C53.6468 37.9987 52.5815 38.35 50.4508 38.35C48.8868 38.5767 47.5041 38.69 46.3028 38.69C44.8295 38.5087 44.0928 38.0893 44.0928 37.432C44.0928 36.9787 44.3988 36.616 45.0108 36.344L46.3028 36.65H46.5068ZM63.131 32.876C64.1283 32.876 64.627 33.2727 64.627 34.066L64.321 34.712L64.117 40.934C64.117 43.7447 64.6836 45.49 65.817 46.17L65.885 46.68C65.817 47.3373 65.511 47.666 64.967 47.666H64.763C63.063 46.51 62.213 44.742 62.213 42.362H61.975C61.0683 44.9007 59.969 46.17 58.677 46.17C57.4756 45.83 56.875 44.9347 56.875 43.484C56.875 40.288 58.1556 37.1033 60.717 33.93C61.5783 33.2273 62.383 32.876 63.131 32.876ZM59.017 42.124L58.881 43.076V43.722H59.221C60.921 39.4833 61.771 36.8993 61.771 35.97H61.635C60.3203 37.4433 59.4476 39.4947 59.017 42.124ZM66.9727 29.85C68.1514 29.85 68.9107 32.162 69.2507 36.786L69.4547 37.84C70.4974 35.7093 71.3474 34.644 72.0047 34.644C72.0047 34.5533 72.2427 34.4853 72.7187 34.44H72.8547C74.3507 34.44 75.3027 35.6073 75.7107 37.942V38.044C75.7107 40.0387 74.7134 42.2373 72.7187 44.64C71.88 45.5467 70.962 46 69.9647 46C68.8314 45.7507 68.2647 45.184 68.2647 44.3L66.5647 32.094L66.0547 30.836C66.0547 30.428 66.3607 30.0993 66.9727 29.85ZM70.5087 43.654H70.6107C71.7894 43.178 72.8207 41.5573 73.7047 38.792V37.5C73.5007 36.7973 73.24 36.446 72.9227 36.446H72.6507C71.6534 37.0353 70.9394 39.438 70.5087 43.654ZM84.2593 32.23C84.8713 32.23 85.2906 33.2613 85.5173 35.324C85.2906 35.8907 84.9166 36.174 84.3953 36.174C84.0326 36.106 83.67 35.6867 83.3073 34.916L82.6953 34.712C81.63 34.712 80.6666 35.4147 79.8053 36.82V37.126C79.8053 37.466 81.4033 38.0327 84.5993 38.826C85.9366 39.6193 86.6053 40.5827 86.6053 41.716C86.6053 43.5747 85.1093 45.1613 82.1173 46.476L80.8593 46.68C78.9553 46.476 78.0033 45.524 78.0033 43.824V43.722C78.0033 43.178 78.3546 42.8607 79.0573 42.77C79.6013 42.77 79.964 43.3367 80.1453 44.47L80.4173 44.674H80.9953C82.2873 44.674 83.4886 43.79 84.5993 42.022V41.58C84.5993 40.9 83.1146 40.2653 80.1453 39.676C78.5813 39.0413 77.7993 38.1573 77.7993 37.024C77.7993 35.5507 79.0346 34.168 81.5053 32.876C82.5933 32.74 83.5113 32.5247 84.2593 32.23ZM93.2911 33.182C94.9684 33.182 96.2377 34.4287 97.0991 36.922L97.2351 37.636C97.2351 40.0613 96.1017 42.5433 93.8351 45.082C92.9284 45.9207 92.0104 46.34 91.0811 46.34C89.7211 46.34 88.7577 45.558 88.1911 43.994C87.9871 43.2687 87.8851 42.634 87.8851 42.09V41.682C87.8851 38.1007 89.1884 35.3807 91.7951 33.522C92.2484 33.2953 92.7471 33.182 93.2911 33.182ZM89.8911 42.022C89.8911 43.5633 90.2877 44.334 91.0811 44.334C92.7357 44.334 94.1071 42.2147 95.1951 37.976V37.33C94.8097 35.9247 94.0957 35.222 93.0531 35.222C92.6451 35.222 92.4411 35.5053 92.4411 36.072C92.4411 36.4573 91.9877 36.7633 91.0811 36.99C90.2877 38.3273 89.8911 40.0047 89.8911 42.022ZM103.23 32.604C104.658 32.604 105.508 33.6013 105.78 35.596V35.902C105.78 38.1007 104.646 40.118 102.38 41.954C103.694 43.246 105.995 43.892 109.282 43.892C109.78 44.0507 110.03 44.402 110.03 44.946C110.03 45.558 109.633 45.864 108.84 45.864C106.618 45.864 104.284 45.2973 101.836 44.164V45.15C101.836 47.4847 101.337 48.652 100.34 48.652C99.637 48.652 99.2857 47.3033 99.2857 44.606V41.954L99.1837 41.002L99.4217 39.914L99.1837 36.65V36.514C99.1837 35.902 99.501 35.4827 100.136 35.256C101.02 33.488 102.051 32.604 103.23 32.604ZM101.53 40.05C102.187 40.05 102.924 38.8713 103.74 36.514V35.052L103.332 34.61H103.026C102.028 35.29 101.53 37.1033 101.53 40.05ZM111.432 29.85C112.61 29.85 113.37 32.162 113.71 36.786L113.914 37.84C114.956 35.7093 115.806 34.644 116.464 34.644C116.464 34.5533 116.702 34.4853 117.178 34.44H117.314C118.81 34.44 119.762 35.6073 120.17 37.942V38.044C120.17 40.0387 119.172 42.2373 117.178 44.64C116.339 45.5467 115.421 46 114.424 46C113.29 45.7507 112.724 45.184 112.724 44.3L111.024 32.094L110.514 30.836C110.514 30.428 110.82 30.0993 111.432 29.85ZM114.968 43.654H115.07C116.248 43.178 117.28 41.5573 118.164 38.792V37.5C117.96 36.7973 117.699 36.446 117.382 36.446H117.11C116.112 37.0353 115.398 39.438 114.968 43.654ZM122.292 28.286C123.154 28.4673 123.584 28.8527 123.584 29.442C123.358 30.0767 122.995 30.394 122.496 30.394C121.658 30.2353 121.238 29.816 121.238 29.136C121.465 28.5693 121.816 28.286 122.292 28.286ZM123.584 33.046C123.947 33.046 124.253 33.3747 124.502 34.032L124.196 36.446V38.044C124.196 39.9027 124.514 42.3393 125.148 45.354C124.922 45.7847 124.536 46 123.992 46C123.063 46 122.451 43.28 122.156 37.84V36.65C122.156 34.2473 122.632 33.046 123.584 33.046ZM131.318 34.542C133.245 34.7007 134.208 35.6413 134.208 37.364L134.276 37.806L134.208 43.11C134.208 43.722 134.559 44.5493 135.262 45.592V45.66C135.081 46.3173 134.752 46.646 134.276 46.646C132.871 46.0567 132.168 44.81 132.168 42.906V42.464L132.066 42.396L132.168 42.26V42.192L132.27 37.5C132.27 36.8427 131.987 36.514 131.42 36.514H131.012C129.879 36.9673 129.312 39.4493 129.312 43.96C129.312 45.524 128.915 46.306 128.122 46.306C127.51 46.306 127.193 45.9207 127.17 45.15V41.75C127.17 37.3527 127.555 35.154 128.326 35.154L128.666 35.052L129.38 35.154C129.992 34.746 130.638 34.542 131.318 34.542ZM141.802 32.944C142.844 32.944 143.366 33.4427 143.366 34.44C143.502 34.44 143.57 34.61 143.57 34.95H143.706L143.57 35.936L143.706 42.804L143.502 48.244C145.542 48.244 146.913 49.74 147.616 52.732C147.616 53.344 147.196 53.6953 146.358 53.786C145.972 53.786 145.542 52.936 145.066 51.236C144.612 50.5787 144.091 50.25 143.502 50.25H143.366C142.64 55.078 142.006 57.492 141.462 57.492C140.804 58.6933 139.852 59.294 138.606 59.294C136.77 58.8633 135.852 57.9453 135.852 56.54V56.336C135.852 54.2053 137.37 51.8933 140.408 49.4L141.462 48.754L141.598 45.082V44.232H141.462C140.691 45.2067 139.954 45.694 139.252 45.694H139.048C137.484 45.694 136.588 44.4927 136.362 42.09V41.342C136.362 38.4407 137.427 35.9247 139.558 33.794C140.215 33.2273 140.963 32.944 141.802 32.944ZM138.402 40.9V42.532C138.492 43.28 138.662 43.654 138.912 43.654H139.252C139.886 43.654 140.668 41.3193 141.598 36.65V34.95C140.238 34.95 139.172 36.9333 138.402 40.9ZM137.858 56.404C137.948 56.9707 138.266 57.254 138.81 57.254C139.898 57.254 140.68 55.316 141.156 51.44H140.952C138.889 53.2307 137.858 54.8853 137.858 56.404ZM165.142 32.23C165.754 32.23 166.173 33.2613 166.4 35.324C166.173 35.8907 165.799 36.174 165.278 36.174C164.915 36.106 164.553 35.6867 164.19 34.916L163.578 34.712C162.513 34.712 161.549 35.4147 160.688 36.82V37.126C160.688 37.466 162.286 38.0327 165.482 38.826C166.819 39.6193 167.488 40.5827 167.488 41.716C167.488 43.5747 165.992 45.1613 163 46.476L161.742 46.68C159.838 46.476 158.886 45.524 158.886 43.824V43.722C158.886 43.178 159.237 42.8607 159.94 42.77C160.484 42.77 160.847 43.3367 161.028 44.47L161.3 44.674H161.878C163.17 44.674 164.371 43.79 165.482 42.022V41.58C165.482 40.9 163.997 40.2653 161.028 39.676C159.464 39.0413 158.682 38.1573 158.682 37.024C158.682 35.5507 159.917 34.168 162.388 32.876C163.476 32.74 164.394 32.5247 165.142 32.23ZM170.094 35.766L170.706 35.426C171.25 35.426 171.647 35.7547 171.896 36.412C171.533 38.0893 171.352 39.812 171.352 41.58C171.352 42.464 171.613 43.4273 172.134 44.47H172.338C172.995 44.47 173.777 41.8747 174.684 36.684C175.001 36.412 175.307 36.276 175.602 36.276C176.305 36.276 176.656 37.5227 176.656 40.016C176.951 42.7587 177.279 44.13 177.642 44.13L178.152 43.926C178.809 44.1753 179.138 44.5267 179.138 44.98C178.73 45.8413 178.163 46.272 177.438 46.272C176.622 46.272 175.84 45.456 175.092 43.824C174.185 45.728 173.267 46.68 172.338 46.68C170.955 46.68 169.992 45.2407 169.448 42.362L169.346 41.274V40.934C169.346 39.1207 169.595 37.398 170.094 35.766ZM185.331 32.944C186.374 32.944 186.895 33.4427 186.895 34.44C187.031 34.44 187.099 34.61 187.099 34.95H187.235L187.099 35.936L187.235 42.804L187.031 48.244C189.071 48.244 190.442 49.74 191.145 52.732C191.145 53.344 190.726 53.6953 189.887 53.786C189.502 53.786 189.071 52.936 188.595 51.236C188.142 50.5787 187.62 50.25 187.031 50.25H186.895C186.17 55.078 185.535 57.492 184.991 57.492C184.334 58.6933 183.382 59.294 182.135 59.294C180.299 58.8633 179.381 57.9453 179.381 56.54V56.336C179.381 54.2053 180.9 51.8933 183.937 49.4L184.991 48.754L185.127 45.082V44.232H184.991C184.22 45.2067 183.484 45.694 182.781 45.694H182.577C181.013 45.694 180.118 44.4927 179.891 42.09V41.342C179.891 38.4407 180.956 35.9247 183.087 33.794C183.744 33.2273 184.492 32.944 185.331 32.944ZM181.931 40.9V42.532C182.022 43.28 182.192 43.654 182.441 43.654H182.781C183.416 43.654 184.198 41.3193 185.127 36.65V34.95C183.767 34.95 182.702 36.9333 181.931 40.9ZM181.387 56.404C181.478 56.9707 181.795 57.254 182.339 57.254C183.427 57.254 184.209 55.316 184.685 51.44H184.481C182.418 53.2307 181.387 54.8853 181.387 56.404ZM195.379 32.876C196.376 32.876 196.875 33.2727 196.875 34.066L196.569 34.712L196.365 40.934C196.365 43.7447 196.932 45.49 198.065 46.17L198.133 46.68C198.065 47.3373 197.759 47.666 197.215 47.666H197.011C195.311 46.51 194.461 44.742 194.461 42.362H194.223C193.316 44.9007 192.217 46.17 190.925 46.17C189.724 45.83 189.123 44.9347 189.123 43.484C189.123 40.288 190.404 37.1033 192.965 33.93C193.826 33.2273 194.631 32.876 195.379 32.876ZM191.265 42.124L191.129 43.076V43.722H191.469C193.169 39.4833 194.019 36.8993 194.019 35.97H193.883C192.568 37.4433 191.696 39.4947 191.265 42.124ZM203.437 32.604C204.865 32.604 205.715 33.6013 205.987 35.596V35.902C205.987 38.1007 204.853 40.118 202.587 41.954C203.901 43.246 206.202 43.892 209.489 43.892C209.987 44.0507 210.237 44.402 210.237 44.946C210.237 45.558 209.84 45.864 209.047 45.864C206.825 45.864 204.491 45.2973 202.043 44.164V45.15C202.043 47.4847 201.544 48.652 200.547 48.652C199.844 48.652 199.493 47.3033 199.493 44.606V41.954L199.391 41.002L199.629 39.914L199.391 36.65V36.514C199.391 35.902 199.708 35.4827 200.343 35.256C201.227 33.488 202.258 32.604 203.437 32.604ZM201.737 40.05C202.394 40.05 203.131 38.8713 203.947 36.514V35.052L203.539 34.61H203.233C202.235 35.29 201.737 37.1033 201.737 40.05Z" fill="black"/>
<path d="M288.96 11.8421L294.202 5.6107C294.794 4.90644 295.49 4.29586 296.265 3.7997C299.761 1.56159 304.328 1.9661 307.377 4.78398L339.814 34.7675C344.326 38.9378 342.607 46.4309 336.729 48.2185L331.788 49.7212C327.743 50.9513 326.742 56.2164 330.052 58.8456C332.449 60.7484 332.714 64.2898 330.628 66.5281L315.12 83.1675L310.296 89.475C305.194 96.1472 297.274 100.061 288.875 100.061H280C273.596 100.061 267.922 104.188 265.951 110.281L262.313 121.519C261.241 124.831 257.363 126.279 254.383 124.48C253.967 124.229 253.587 123.923 253.252 123.569L230.607 99.6518C221.988 90.5479 222.381 76.1801 231.485 67.5608C235.041 64.1945 237.412 59.7687 238.247 54.9438L238.749 52.0375C240.815 40.0857 249.545 30.3738 261.21 27.0493L268.821 24.8799C276.684 22.639 283.697 18.0987 288.96 11.8421Z" fill="white"/>
<path d="M300.782 9.33797C295.761 11.7202 295.266 28.1919 295.68 36.4967L305.424 46.9349C322.613 48.2976 328.987 43.8291 331.712 40.927C332.254 40.3498 332.042 39.4277 331.364 39.0185C326.415 36.029 320.074 29.4883 316.909 24.2126C316.615 23.7223 316.177 23.3419 315.666 23.085C310.853 20.6641 304.88 13.6257 301.988 9.72796C301.702 9.34256 301.215 9.13225 300.782 9.33797Z" fill="#CC98E8" stroke="black" stroke-width="2"/>
<path d="M257.331 116.098C262.352 113.716 262.846 97.2445 262.433 88.9397L252.688 78.5015C235.499 77.1388 229.125 81.6073 226.4 84.5094C225.859 85.0866 226.07 86.0087 226.748 86.4179C231.698 89.4074 238.038 95.9481 241.203 101.224C241.497 101.714 241.935 102.095 242.446 102.351C247.259 104.772 253.232 111.811 256.124 115.708C256.41 116.094 256.897 116.304 257.331 116.098Z" fill="#CC98E8" stroke="black" stroke-width="2"/>
<path d="M311.456 62.592C311.456 80.0402 297.085 94.2113 279.324 94.2113C261.563 94.2113 247.191 80.0402 247.191 62.592C247.191 45.1439 261.563 30.9728 279.324 30.9728C297.085 30.9728 311.456 45.1439 311.456 62.592Z" fill="#FF73C6" stroke="black" stroke-width="2"/>
<path d="M274.126 31.7118L264.615 34.5947L262.308 89.3694L274.126 93.4055V31.7118Z" fill="#FF94D4" stroke="black" stroke-width="1.65385"/>
<path d="M286.47 32.2883L295.192 35.1712L298.077 88.2163L286.47 93.2541V32.2883Z" fill="#FF94D4" stroke="black" stroke-width="1.65385"/>
<path d="M208.353 90.4482C202.028 90.4482 195.703 90.4482 189.378 90.4482C181.742 90.4482 172.09 83.7117 166.857 78.4781C164.176 75.7971 162.718 73.1307 161.093 69.7C160.051 67.4999 159.903 65.3696 158.876 63.3159" stroke="#5B6670" stroke-width="3" stroke-linecap="round"/>
</svg>
