<svg width="215" height="240" viewBox="0 0 215 240" fill="none" xmlns="http://www.w3.org/2000/svg">
<path d="M3.02148 164.848L35.9046 25.7367C39.4699 10.6538 52.9356 0 68.4342 0C70.6958 0 72.9515 0.229519 75.1667 0.685028L199.039 26.1566C208.331 28.0673 215 36.2472 215 45.734C215 46.8436 214.908 47.9512 214.724 49.0454L191.426 187.727C188.134 207.319 175.365 224.015 157.318 232.321C146.445 237.326 134.324 238.967 122.512 237.032L42.4179 223.918C24.1875 220.933 9.23158 207.859 3.83618 190.192C1.3239 181.965 1.04274 173.219 3.02148 164.848Z" fill="white"/>
<rect x="0.768054" y="1.18275" width="154.731" height="195.707" rx="19.7608" transform="matrix(0.978723 0.205187 -0.210669 0.977558 52.8837 5.8565)" fill="#A2A2A2" stroke="black" stroke-width="2"/>
<rect x="0.57604" y="0.887059" width="110.96" height="61.9249" rx="9.63041" transform="matrix(0.978723 0.205187 -0.210669 0.977558 70.6361 31.9011)" fill="#A9C869" stroke="black" stroke-width="1.5"/>
<path d="M80.748 130.353C79.225 137.42 72.0869 141.946 64.7721 140.413C57.4572 138.879 52.8028 131.881 54.3258 124.814C55.8489 117.746 62.987 113.22 70.3018 114.754C77.6166 116.287 82.2711 123.286 80.748 130.353Z" fill="#F4F4F4" stroke="black" stroke-width="1.5"/>
<path d="M118.101 138.184C116.578 145.251 109.44 149.777 102.125 148.244C94.8103 146.71 90.1558 139.712 91.6789 132.644C93.2019 125.577 100.34 121.051 107.655 122.584C114.97 124.118 119.624 131.116 118.101 138.184Z" fill="#F4F4F4" stroke="black" stroke-width="1.5"/>
<path d="M156.45 146.223C154.927 153.291 147.789 157.817 140.474 156.283C133.159 154.75 128.505 147.751 130.028 140.684C131.551 133.617 138.689 129.091 146.004 130.624C153.319 132.158 157.973 139.156 156.45 146.223Z" fill="#F4F4F4" stroke="black" stroke-width="1.5"/>
<path d="M59.53 168.185L132.814 183.549C137.752 184.584 140.894 189.422 139.831 194.354L133.408 224.161L42.2401 205.048L48.6636 175.241C49.7265 170.309 54.5916 167.15 59.53 168.185Z" fill="#FDD546" stroke="black" stroke-width="1.5"/>
<path d="M75.6037 193.324L107.265 199.962C109.532 200.437 110.974 202.658 110.486 204.922L107.51 218.732L67.6404 210.373L70.6165 196.563C71.1044 194.299 73.3372 192.849 75.6037 193.324Z" fill="#4C4C4C" stroke="black" stroke-width="1.5"/>
<path d="M109.264 72.8441C114.585 66.2663 119.179 61.6248 120.176 59.8968C119.942 60.996 124.319 71.1324 125.241 76.2411C127.311 87.716 118.426 90.2862 113.922 89.3285C103.967 87.212 106.323 76.4791 109.264 72.8441Z" fill="#2C3E49"/>
<path d="M140.009 136.702L148.826 143.686C149.139 143.934 149.041 144.432 148.657 144.547L137.608 147.842" stroke="black" stroke-width="1.97722" stroke-linecap="round"/>
<path d="M74.0186 122.867L63.0833 125.711C62.6954 125.811 62.5797 126.306 62.8833 126.564L71.6176 134.008" stroke="black" stroke-width="1.97722" stroke-linecap="round"/>
<path fill-rule="evenodd" clip-rule="evenodd" d="M105.617 129.491C105.616 129.491 105.616 129.491 105.615 129.492V129.492C105.615 129.492 105.616 129.493 105.616 129.493L105.845 129.541C105.86 129.543 105.875 129.546 105.889 129.548L105.617 129.491ZM106.395 129.654C106.41 129.658 106.424 129.661 106.439 129.665V129.665C106.565 129.692 106.69 129.611 106.718 129.484L106.875 128.754C106.877 128.746 106.872 128.739 106.864 128.737V128.737C106.856 128.735 106.848 128.74 106.847 128.748L106.693 129.46C106.664 129.596 106.53 129.683 106.395 129.654V129.654ZM103.576 129.569V129.569C103.574 129.577 103.568 129.584 103.559 129.586C101.246 130.06 99.3593 131.814 98.8561 134.149C98.1741 137.313 100.255 140.522 103.636 141.231C107.017 141.94 110.241 139.843 110.923 136.678C111.426 134.343 110.425 131.984 108.507 130.623C108.501 130.618 108.498 130.61 108.499 130.602V130.602L108.917 128.662V128.662C108.928 128.611 108.987 128.582 109.032 128.609C111.954 130.305 113.593 133.675 112.858 137.084C111.936 141.364 107.62 144.086 103.219 143.164C98.8185 142.241 95.9985 138.023 96.921 133.743C97.6557 130.334 100.543 127.913 103.911 127.535C103.964 127.529 104.005 127.579 103.994 127.63V127.63L103.576 129.569Z" fill="black"/>
<path d="M105.725 131.539L106.769 126.695" stroke="black" stroke-width="1.97722" stroke-linecap="round"/>
</svg>
