<svg width="213" height="241" viewBox="0 0 213 241" fill="none" xmlns="http://www.w3.org/2000/svg">
<path d="M2.95279 165.335L35.5721 25.4256C39.0438 10.5352 52.3177 0 67.6075 0C69.8632 0 72.1129 0.232013 74.3211 0.692377L196.498 26.164C205.82 28.1074 212.5 36.3235 212.5 45.8456C212.5 46.9467 212.41 48.0459 212.23 49.1321L189.111 188.653C185.912 207.959 173.4 224.447 155.666 232.723C144.81 237.789 132.675 239.45 120.857 237.488L42.4274 224.468C24.1061 221.427 9.10691 208.235 3.75062 190.452C1.29321 182.293 1.01812 173.633 2.95279 165.335Z" fill="white"/>
<rect x="52.3912" y="6.59303" width="151.246" height="196.228" rx="20.2608" transform="rotate(12 52.3912 6.59303)" fill="#A2A2A2" stroke="black"/>
<rect x="69.6271" y="32.4922" width="108.242" height="62.2711" rx="9.88041" transform="rotate(12 69.6271 32.4922)" fill="#A9C869" stroke="black"/>
<circle cx="66.1543" cy="127.259" r="13.3406" transform="rotate(12 66.1543 127.259)" fill="#F4F4F4" stroke="black"/>
<circle cx="102.417" cy="134.967" r="13.3406" transform="rotate(12 102.417 134.967)" fill="#F4F4F4" stroke="black"/>
<circle cx="139.647" cy="142.881" r="13.3406" transform="rotate(12 139.647 142.881)" fill="#F4F4F4" stroke="black"/>
<path d="M47.4577 174.83C48.5355 169.76 53.5196 166.523 58.5902 167.601L129.182 182.606C134.252 183.683 137.489 188.668 136.411 193.738L130.041 223.71L41.087 204.802L47.4577 174.83Z" fill="#FDD546" stroke="black"/>
<path d="M68.7249 196.028C69.2351 193.627 71.5944 192.095 73.9946 192.605L104.455 199.08C106.856 199.59 108.388 201.95 107.878 204.35L104.898 218.366L65.7457 210.044L68.7249 196.028Z" fill="#4C4C4C" stroke="black"/>
<path d="M107.063 73.4298C112.396 66.8382 117.001 62.187 118 60.4555C117.766 61.5569 122.153 71.7144 123.077 76.8338C125.152 88.3326 116.246 90.9081 111.731 89.9484C101.753 87.8276 104.115 77.0723 107.063 73.4298Z" fill="#2C3E49"/>
<path d="M136.529 136.154L145.076 143.099C145.382 143.348 145.287 143.838 144.91 143.955L134.165 147.274" stroke="black" stroke-width="1.97722" stroke-linecap="round"/>
<path d="M72.4644 122.536L61.8312 125.404C61.4498 125.507 61.3372 125.994 61.6345 126.254L70.1006 133.657" stroke="black" stroke-width="1.97722" stroke-linecap="round"/>
<path fill-rule="evenodd" clip-rule="evenodd" d="M101.13 129.134C101.124 129.16 101.105 129.181 101.079 129.186C98.9058 129.691 97.1096 131.407 96.615 133.733C95.9339 136.938 97.9794 140.088 101.184 140.769C104.388 141.45 107.538 139.404 108.219 136.2C108.714 133.873 107.771 131.575 105.99 130.23C105.969 130.214 105.96 130.188 105.965 130.162L106.376 128.228C106.386 128.181 106.44 128.155 106.482 128.18C109.301 129.868 110.875 133.217 110.153 136.611C109.245 140.884 105.045 143.611 100.773 142.703C96.5002 141.795 93.7728 137.595 94.681 133.322C95.4025 129.928 98.2016 127.509 101.464 127.113C101.513 127.107 101.551 127.153 101.541 127.2L101.13 129.134Z" fill="black"/>
<path d="M103.239 131.099L104.267 126.264" stroke="black" stroke-width="1.97722" stroke-linecap="round"/>
</svg>
