<svg width="146" height="111" viewBox="0 0 146 111" fill="none" xmlns="http://www.w3.org/2000/svg">
<path d="M7 53.5V50.9643C7 40.3552 13.2804 30.7523 23 26.5L62.7379 5.10267C66.5438 3.05333 70.7082 1.75465 75.0043 1.2773L81.2953 0.578302C84.7444 0.195063 88.2321 0.346413 91.635 1.02701L105.102 3.72049C110.931 4.88611 116.347 7.57103 120.804 11.5034L127.29 17.2262C129.747 19.3945 131.838 21.9454 133.483 24.7803L139.759 35.6019C143.128 41.4097 142.083 48.7685 137.231 53.4093C135.126 55.4232 133.674 58.0232 133.063 60.8721L131.969 65.9761C130.412 73.2449 125.577 79.3831 118.875 82.6C117.627 83.1989 116.434 83.9045 115.307 84.7089L114.251 85.4633C111.434 87.4758 108.323 89.0424 105.029 90.1082L96.538 92.8554C94.1864 93.6161 91.9257 94.6331 89.7963 95.8879L72.9253 105.83C67.7365 108.887 61.8237 110.5 55.801 110.5H42.1736C35.8519 110.5 29.6576 108.723 24.2968 105.373L19.118 102.136C17.3773 101.048 15.7537 99.7835 14.2729 98.362C7.77592 92.1249 4.44701 83.2849 5.21615 74.3116L7 53.5Z" fill="white"/>
<path d="M30.5863 35.3535C11.922 35.3075 11.6018 49.1264 13.7747 56.0415C7.48668 61.2373 10.336 68.1175 12.5466 70.9082C9.61038 87.3846 21.1989 91.7677 27.3601 91.8997C35.8269 104.662 47.1563 100.264 51.7626 96.47C65.5392 102.434 74.8201 94.3147 77.7385 89.5098C94.0048 93.7092 102.25 83.399 104.34 77.7189C121.993 77.2677 125.548 63.0303 125.118 55.968C132.591 47.8216 128.109 40.1719 124.934 37.3654C124.187 23.5217 112.208 20.7519 106.312 21.0974C98.9623 12.0949 88.8657 15.5317 84.7361 18.3755C70.0836 10.7812 57.5173 18.3085 53.0656 23.0214C39.9164 22.2657 32.6006 30.9279 30.5863 35.3535Z" stroke="black" stroke-width="6"/>
<path d="M113 55C115.167 58.3333 113.6 69 102 67" stroke="black" stroke-width="3" stroke-linecap="round"/>
<path d="M59.5 30.5C60.1885 26.5845 75.3795 19.6255 82.4999 28.9999" stroke="black" stroke-width="3" stroke-linecap="round"/>
<path d="M34.1316 82.0725C30.2746 83.0361 19.4638 77.3902 25.1316 67.0725" stroke="black" stroke-width="3" stroke-linecap="round"/>
<path d="M70.0001 73.4998C75.0001 86.4998 67.4786 93.1941 57.0639 87.7078" stroke="black" stroke-width="3" stroke-linecap="round"/>
<path d="M56.584 47C56.584 51.4183 50.2344 59 38.0841 59C25.9338 59 31.0842 51.4183 31.0842 47C31.0842 42.5817 34.9337 37 47.084 37C59.2343 37 56.584 42.5817 56.584 47Z" fill="#DCF5F8"/>
<path d="M98.5 64C98.5 68.4183 99.6503 76 87.5 76C75.3497 76 74 72.4183 74 68C74 63.5817 77.3497 57 89.5 57C101.65 57 98.5 59.5817 98.5 64Z" fill="#DCF5F8"/>
<path d="M109.557 36.5C109.557 40.9183 106.707 46 94.5565 46C82.4063 46 88.5565 39.4183 88.5565 35C88.5565 30.5817 89.4062 28 101.556 28C113.707 28 109.557 32.0817 109.557 36.5Z" fill="#DCF5F8"/>
</svg>
