<svg width="142" height="110" viewBox="0 0 142 110" fill="none" xmlns="http://www.w3.org/2000/svg">
<path d="M6.9258 53.6405V50.9357C6.9258 40.5565 13.0423 31.1523 22.53 26.944L61.239 5.81222C64.9804 3.76974 69.0831 2.47388 73.3189 1.99672L79.3143 1.32135C82.7234 0.93732 86.1715 1.08893 89.5337 1.77068L102.534 4.40678C108.261 5.56792 113.575 8.23335 117.929 12.129L124.193 17.7324C126.621 19.9042 128.683 22.4528 130.301 25.2803L136.431 35.9961C139.708 41.7238 138.686 48.9439 133.949 53.5378C131.886 55.5383 130.467 58.1086 129.873 60.92L128.775 66.1127C127.274 73.2162 122.577 79.229 116.049 82.406C114.822 83.0032 113.649 83.7059 112.544 84.5063L111.539 85.2343C108.782 87.2308 105.731 88.7873 102.497 89.8483L94.2759 92.5448C91.9648 93.3029 89.7449 94.3149 87.657 95.5623L71.2844 105.344C66.1842 108.391 60.3541 110 54.413 110H41.3397C35.1052 110 28.999 108.228 23.7327 104.891L18.7799 101.753C17.0585 100.662 15.4547 99.396 13.9943 97.9746C7.6672 91.8165 4.43111 83.148 5.17491 74.3502L6.9258 53.6405Z" fill="white"/>
<path d="M30.5863 33.742C11.922 33.6955 11.6018 47.6753 13.7747 54.671C7.48668 59.9274 10.336 66.8878 12.5466 69.7109C9.61038 86.3793 21.1989 90.8135 27.3601 90.947C35.8269 103.858 47.1563 99.4091 51.7626 95.5705C65.5392 101.604 74.8201 93.3902 77.7385 88.5292C94.0048 92.7776 102.25 82.3472 104.34 76.601C121.993 76.1445 125.548 61.7412 125.118 54.5967C132.591 46.3554 128.109 38.6166 124.934 35.7773C124.187 21.7724 112.208 18.9703 106.312 19.3198C98.9623 10.2125 88.8657 13.6893 84.7361 16.5662C70.0836 8.88344 57.5173 16.4984 53.0656 21.2662C39.9165 20.5017 32.6006 29.2649 30.5863 33.742Z" stroke="black" stroke-width="2.5"/>
<path d="M113 53.6174C115.167 56.9896 113.6 67.7805 102 65.7572" stroke="black" stroke-width="2.5" stroke-linecap="round"/>
<path d="M59.5 28.832C60.1885 24.8708 75.3795 17.8308 82.4999 27.3144" stroke="black" stroke-width="2.5" stroke-linecap="round"/>
<path d="M34.1316 81.0053C30.2746 81.9802 19.4638 76.2685 25.1316 65.8305" stroke="black" stroke-width="2.5" stroke-linecap="round"/>
<path d="M70.0001 72.3327C75.0001 85.4842 67.4786 92.2565 57.0639 86.7062" stroke="black" stroke-width="2.5" stroke-linecap="round"/>
<path d="M49 50.5824C49 54.2141 53.1127 57.1582 44 57.1582C34.8873 57.1582 29 54.2141 29 50.5824C29 46.9508 32.8873 39.4543 42 39.4543C51.1127 39.4543 49 46.9508 49 50.5824Z" fill="#CBE2FF"/>
<path d="M79.9257 72.8387C79.9257 76.4704 75.813 79.4145 84.9257 79.4145C94.0384 79.4145 99.9257 76.4704 99.9257 72.8387C99.9257 69.2071 96.0384 61.7106 86.9257 61.7106C77.813 61.7106 79.9257 69.2071 79.9257 72.8387Z" fill="#CBE2FF"/>
<path d="M115.05 33.8898C115.05 37.5215 109.163 37.4305 100.05 37.4305C90.9374 37.4305 100.05 34.4865 100.05 30.8549C100.05 27.2232 98.4375 26.3029 107.55 26.3029C116.663 26.3029 115.05 30.2581 115.05 33.8898Z" fill="#CBE2FF"/>
</svg>
