<svg width="305" height="255" viewBox="0 0 305 255" fill="none" xmlns="http://www.w3.org/2000/svg">
<path d="M127.617 32.4371L118.406 11.1254C117.348 8.67847 118.049 5.82673 120.119 4.14769C122.622 2.1177 126.287 2.45131 128.382 4.89992L145.116 24.4528L161.325 39.9125C165.501 43.895 169.153 48.3929 172.192 53.2977L234.109 153.199L248.453 170.987C249.885 172.762 251.517 174.368 253.316 175.77L253.64 176.023C268.494 187.606 268.782 209.973 254.23 221.934L251.308 224.336C235.054 237.697 210.433 228.369 207.111 207.592L200.287 183.215C198.513 176.878 195.829 170.832 192.317 165.266L163.614 119.765L138.116 63.8752L127.617 32.4371Z" fill="white"/>
<path d="M140.42 37.465L157.333 52.3841L144.199 59.8711L139.305 37.9348L124.477 8.21411L125.565 8.52605L140.42 37.465Z" fill="#B3B3B3" stroke="black" stroke-width="2"/>
<rect x="-1.36178" y="-0.364916" width="12.2986" height="23.1614" transform="matrix(-0.864458 0.502669 -0.497326 -0.867585 244.067 204.368)" fill="#5B6670" stroke="black" stroke-width="2"/>
<path d="M259.615 200.488C259.748 200.71 259.823 201.25 259.276 202.338C258.756 203.373 257.792 204.647 256.413 206.08C253.664 208.934 249.428 212.248 244.352 215.32C239.275 218.391 234.381 220.602 230.588 221.706C228.684 222.26 227.114 222.518 225.962 222.495C224.752 222.471 224.314 222.15 224.181 221.928C224.049 221.706 223.973 221.166 224.521 220.078C225.041 219.043 226.005 217.769 227.384 216.336C230.132 213.482 234.369 210.168 239.445 207.096C244.521 204.025 249.416 201.814 253.209 200.71C255.112 200.156 256.682 199.898 257.834 199.921C259.045 199.946 259.483 200.266 259.615 200.488Z" fill="#4A565E" stroke="black" stroke-width="2"/>
<path d="M248.001 179.614C248.134 179.836 248.209 180.376 247.662 181.464C247.141 182.499 246.178 183.774 244.798 185.206C242.05 188.06 237.814 191.374 232.737 194.446C227.661 197.517 222.766 199.728 218.974 200.832C217.07 201.386 215.5 201.644 214.348 201.621C213.137 201.597 212.7 201.276 212.567 201.054C212.435 200.832 212.359 200.293 212.906 199.205C213.427 198.17 214.39 196.895 215.77 195.462C218.518 192.608 222.755 189.294 227.831 186.223C232.907 183.151 237.802 180.94 241.595 179.836C243.498 179.283 245.068 179.024 246.22 179.047C247.431 179.072 247.869 179.392 248.001 179.614Z" fill="#4A565E" stroke="black" stroke-width="2"/>
<path d="M160.851 55.1697L235.383 181.182L219.236 190.964L145.248 65.1077C142.152 59.4816 144.903 58.0987 146.538 57.1856L154.481 52.7507C158.177 50.8096 159.948 53.5287 160.851 55.1697Z" fill="#EBF9FF" stroke="black" stroke-width="2"/>
<rect width="6.85846" height="8.14053" transform="matrix(0.515021 0.857199 -0.857136 0.515055 187.091 100)" fill="#5B6670"/>
<rect width="6.85846" height="8.14053" transform="matrix(0.515021 0.857199 -0.857136 0.515055 195.09 113)" fill="#5B6670"/>
<rect width="6.85846" height="8.14053" transform="matrix(0.515021 0.857199 -0.857136 0.515055 202.09 126)" fill="#5B6670"/>
<rect width="6.85846" height="8.14053" transform="matrix(0.515021 0.857199 -0.857136 0.515055 210.089 139)" fill="#5B6670"/>
<rect width="6.85846" height="8.14053" transform="matrix(0.515021 0.857199 -0.857136 0.515055 217.089 151)" fill="#5B6670"/>
<rect width="6.85846" height="8.14053" transform="matrix(0.515021 0.857199 -0.857136 0.515055 224.088 163)" fill="#5B6670"/>
<rect width="6.85846" height="8.14053" transform="matrix(0.515021 0.857199 -0.857136 0.515055 179.091 87)" fill="#5B6670"/>
<path d="M139.235 83.5115C132.12 83.5115 121.459 78.6733 114.983 75.7994C106.84 72.1864 104.989 71.0194 96.1571 68.5C82.0683 64.4812 87.0392 65.6323 73.1195 61" stroke="#5B6670" stroke-width="3" stroke-linecap="round"/>
<path d="M11.0341 36.872H11.3741C12.0088 36.872 12.3714 37.246 12.4621 37.994C12.4621 38.6513 11.5668 38.98 9.77611 38.98C6.89744 40.068 4.95944 41.6547 3.96211 43.74L3.72411 44.726V44.93C3.72411 45.9273 4.39278 46.426 5.73011 46.426L9.47011 46.222C11.9861 46.222 13.6861 47.446 14.5701 49.894L14.7741 51.084C14.7741 53.4413 12.8701 55.5947 9.06211 57.544C7.92878 57.8613 6.93144 58.0767 6.07011 58.19C3.75811 58.19 2.12611 56.8867 1.17411 54.28C0.902109 53.396 0.766109 52.5007 0.766109 51.594C0.766109 51.322 0.981443 51.0387 1.41211 50.744H1.82011C2.52278 50.744 2.87411 51.6393 2.87411 53.43C3.46344 55.198 4.39278 56.082 5.66211 56.082H6.58011C8.41611 56.082 10.2294 55.0167 12.0201 52.886C12.4961 52.206 12.7341 51.4693 12.7341 50.676C12.7341 49.5653 11.8614 48.7833 10.1161 48.33H9.98011L5.52611 48.432C3.05544 48.1373 1.82011 47.1173 1.82011 45.372L1.68411 44.93C1.68411 42.5953 3.42944 40.3287 6.92011 38.13C8.43878 37.2913 9.81011 36.872 11.0341 36.872ZM19.2648 44.794C20.1714 44.8167 21.7014 46.4033 23.8548 49.554L23.9228 50.132C23.9228 50.7667 22.3701 51.254 19.2648 51.594L19.1628 51.696V51.832C19.6388 53.872 20.1374 54.892 20.6588 54.892H21.0668C21.7921 54.892 22.8914 54.11 24.3648 52.546H24.5688C25.0221 52.546 25.3734 52.8747 25.6228 53.532C25.6228 54.076 24.6708 55.0167 22.7668 56.354C22.2681 56.6487 21.6674 56.864 20.9648 57C19.1288 57 17.8481 55.2773 17.1228 51.832C16.0801 51.6733 15.5588 51.2427 15.5588 50.54C15.5588 50.0413 15.9441 49.7127 16.7148 49.554V49.69L17.0548 49.554V48.704C17.0548 46.0973 17.7914 44.794 19.2648 44.794ZM19.4688 47.242H19.1628L19.0268 48.5V49.554H19.1628C20.4321 49.5087 21.0668 49.3727 21.0668 49.146C20.4774 48.262 19.9448 47.6273 19.4688 47.242ZM31.4174 43.604C32.8454 43.604 33.6954 44.6013 33.9674 46.596V46.902C33.9674 49.1007 32.834 51.118 30.5674 52.954C31.882 54.246 34.1827 54.892 37.4694 54.892C37.968 55.0507 38.2174 55.402 38.2174 55.946C38.2174 56.558 37.8207 56.864 37.0274 56.864C34.806 56.864 32.4714 56.2973 30.0234 55.164V56.15C30.0234 58.4847 29.5247 59.652 28.5274 59.652C27.8247 59.652 27.4734 58.3033 27.4734 55.606V52.954L27.3714 52.002L27.6094 50.914L27.3714 47.65V47.514C27.3714 46.902 27.6887 46.4827 28.3234 46.256C29.2074 44.488 30.2387 43.604 31.4174 43.604ZM29.7174 51.05C30.3747 51.05 31.1114 49.8713 31.9274 47.514V46.052L31.5194 45.61H31.2134C30.216 46.29 29.7174 48.1033 29.7174 51.05ZM39.7553 39.286C40.6167 39.4673 41.0473 39.8527 41.0473 40.442C40.8207 41.0767 40.458 41.394 39.9593 41.394C39.1207 41.2353 38.7013 40.816 38.7013 40.136C38.928 39.5693 39.2793 39.286 39.7553 39.286ZM41.0473 44.046C41.41 44.046 41.716 44.3747 41.9653 45.032L41.6593 47.446V49.044C41.6593 50.9027 41.9767 53.3393 42.6113 56.354C42.3847 56.7847 41.9993 57 41.4553 57C40.526 57 39.914 54.28 39.6193 48.84V47.65C39.6193 45.2473 40.0953 44.046 41.0473 44.046ZM48.781 45.542C50.7077 45.7007 51.671 46.6413 51.671 48.364L51.739 48.806L51.671 54.11C51.671 54.722 52.0223 55.5493 52.725 56.592V56.66C52.5437 57.3173 52.215 57.646 51.739 57.646C50.3337 57.0567 49.631 55.81 49.631 53.906V53.464L49.529 53.396L49.631 53.26V53.192L49.733 48.5C49.733 47.8427 49.4497 47.514 48.883 47.514H48.475C47.3417 47.9673 46.775 50.4493 46.775 54.96C46.775 56.524 46.3783 57.306 45.585 57.306C44.973 57.306 44.6557 56.9207 44.633 56.15V52.75C44.633 48.3527 45.0183 46.154 45.789 46.154L46.129 46.052L46.843 46.154C47.455 45.746 48.101 45.542 48.781 45.542ZM59.2647 43.944C60.3074 43.944 60.8287 44.4427 60.8287 45.44C60.9647 45.44 61.0327 45.61 61.0327 45.95H61.1687L61.0327 46.936L61.1687 53.804L60.9647 59.244C63.0047 59.244 64.376 60.74 65.0787 63.732C65.0787 64.344 64.6594 64.6953 63.8207 64.786C63.4354 64.786 63.0047 63.936 62.5287 62.236C62.0754 61.5787 61.554 61.25 60.9647 61.25H60.8287C60.1034 66.078 59.4687 68.492 58.9247 68.492C58.2674 69.6933 57.3154 70.294 56.0687 70.294C54.2327 69.8633 53.3147 68.9453 53.3147 67.54V67.336C53.3147 65.2053 54.8334 62.8933 57.8707 60.4L58.9247 59.754L59.0607 56.082V55.232H58.9247C58.154 56.2067 57.4174 56.694 56.7147 56.694H56.5107C54.9467 56.694 54.0514 55.4927 53.8247 53.09V52.342C53.8247 49.4407 54.89 46.9247 57.0207 44.794C57.678 44.2273 58.426 43.944 59.2647 43.944ZM55.8647 51.9V53.532C55.9554 54.28 56.1254 54.654 56.3747 54.654H56.7147C57.3494 54.654 58.1314 52.3193 59.0607 47.65V45.95C57.7007 45.95 56.6354 47.9333 55.8647 51.9ZM55.3207 67.404C55.4114 67.9707 55.7287 68.254 56.2727 68.254C57.3607 68.254 58.1427 66.316 58.6187 62.44H58.4147C56.352 64.2307 55.3207 65.8853 55.3207 67.404ZM66.0148 44.794C66.9214 44.8167 68.4514 46.4033 70.6048 49.554L70.6728 50.132C70.6728 50.7667 69.1201 51.254 66.0148 51.594L65.9128 51.696V51.832C66.3888 53.872 66.8874 54.892 67.4088 54.892H67.8168C68.5421 54.892 69.6414 54.11 71.1148 52.546H71.3188C71.7721 52.546 72.1234 52.8747 72.3728 53.532C72.3728 54.076 71.4208 55.0167 69.5168 56.354C69.0181 56.6487 68.4174 56.864 67.7148 57C65.8788 57 64.5981 55.2773 63.8728 51.832C62.8301 51.6733 62.3088 51.2427 62.3088 50.54C62.3088 50.0413 62.6941 49.7127 63.4648 49.554V49.69L63.8048 49.554V48.704C63.8048 46.0973 64.5414 44.794 66.0148 44.794ZM66.2188 47.242H65.9128L65.7768 48.5V49.554H65.9128C67.1821 49.5087 67.8168 49.3727 67.8168 49.146C67.2274 48.262 66.6948 47.6273 66.2188 47.242Z" fill="black"/>
</svg>
