<svg width="95" height="237" viewBox="0 0 95 237" fill="none" xmlns="http://www.w3.org/2000/svg">
<path d="M4.7697 109.899L2.90979 98.1817C1.54118 89.5594 6.92042 81.3005 15.3599 79.0665C16.7807 78.6904 18.2441 78.5 19.7138 78.5H20.5L73.1191 73.4669C75.7361 73.2165 78 75.2742 78 77.9032C78 78.2993 78.0528 78.6936 78.157 79.0758L81.7836 92.3732C83.1619 97.4269 81.8326 102.834 78.2681 106.673C73.9096 111.367 72.9727 118.294 75.9279 123.977L81.4038 134.507C83.1214 137.81 84.2494 141.388 84.7368 145.079L93.3148 210.027C94.0511 215.601 91.8353 221.157 87.465 224.695C85.1974 226.531 82.4749 227.718 79.5868 228.13L30.8643 235.091C23.8107 236.098 17.5 230.625 17.5 223.5L9.56443 163.75C9.18982 160.929 9.19308 158.071 9.57413 155.251L13.0607 129.451C13.6502 125.089 12.0979 120.71 8.8923 117.693C6.69314 115.623 5.24314 112.882 4.7697 109.899Z" fill="white"/>
<path d="M25.0762 119.22L23.7372 109.692L60.3554 104.546L61.6945 114.074C71.138 126.997 74.1684 134.992 74.5031 137.374L82.2049 197.828C84.1019 211.326 83.5058 214.649 80.6527 215.05L33.127 221.729C28.9679 222.314 28.4482 211.051 27.667 205.493L19.1862 145.148C18.7398 141.972 22.4447 126.877 25.0762 119.22Z" fill="#EAD9D1" stroke="black" stroke-width="2"/>
<path d="M13.8851 106.219L11.988 92.7207L66.5259 85.0559L68.4229 98.554C69.0478 103 66.607 104.477 65.3085 104.66L20.12 111.01C15.7569 111.624 14.1454 108.071 13.8851 106.219Z" fill="#384A59"/>
<path d="M11.988 92.7207L13.8851 106.219C14.1454 108.071 15.7569 111.624 20.12 111.01L65.3085 104.66C66.607 104.477 69.0478 103 68.4229 98.554L66.5259 85.0559L11.558 92.7811" stroke="black" stroke-width="2"/>
<path d="M65.5504 85.0291C65.5507 85.0291 65.5496 85.0318 65.5465 85.0373C65.5486 85.0319 65.5502 85.0292 65.5504 85.0291ZM63.9752 84.7933C64.6512 84.9247 65.1112 85.0742 65.3883 85.2157C65.161 85.4282 64.76 85.6987 64.1463 86.0113C62.9153 86.6383 61.0479 87.3262 58.6532 88.0257C53.8786 89.4204 47.1735 90.8143 39.6758 91.868C32.1781 92.9217 25.3486 93.43 20.3745 93.4054C17.8797 93.3931 15.8951 93.2466 14.5389 92.9831C13.8629 92.8518 13.4029 92.7023 13.1258 92.5607C13.3531 92.3483 13.7541 92.0778 14.3678 91.7652C15.5988 91.1381 17.4662 90.4503 19.8609 89.7508C24.6355 88.3561 31.3406 86.9622 38.8383 85.9085C46.336 84.8547 53.1655 84.3465 58.1396 84.3711C60.6344 84.3834 62.619 84.5299 63.9752 84.7933ZM12.9185 92.4261C12.9188 92.426 12.921 92.4282 12.9246 92.4328C12.9201 92.4284 12.9183 92.4261 12.9185 92.4261ZM12.9637 92.7473C12.9634 92.7474 12.9645 92.7447 12.9676 92.7392C12.9655 92.7446 12.9639 92.7473 12.9637 92.7473ZM65.5895 85.3437C65.594 85.3481 65.5958 85.3504 65.5956 85.3504C65.5953 85.3505 65.5931 85.3483 65.5895 85.3437Z" fill="#2C3E49" stroke="black" stroke-width="2"/>
<path d="M74.8381 139.756C60.0395 145.075 31.8831 147.143 19.2577 147.568L27.7385 207.912C53.6823 208.152 74.5434 202.953 82.5249 200.212L74.8381 139.756Z" fill="#6AB872" stroke="black" stroke-width="1.5"/>
<path d="M31.4218 179.028L30.1638 170.077L32.0372 169.813L33.2952 178.764L31.4218 179.028ZM35.2864 178.485L34.3265 171.655L36.1379 171.4L36.2861 172.455L36.3977 172.439C36.6041 171.657 37.2149 171.097 38.1888 170.96C39.7086 170.747 40.6582 171.562 40.8874 173.193L41.5082 177.61L39.6968 177.865L39.1337 173.857C38.9985 172.896 38.53 172.443 37.674 172.563C36.8366 172.681 36.4125 173.354 36.5424 174.279L37.0977 178.23L35.2864 178.485ZM46.0007 177.124C44.1459 177.385 42.9746 176.702 42.6795 175.548L42.6699 175.524L44.4502 175.274L44.4661 175.297C44.668 175.698 45.1263 175.944 45.8397 175.844C46.5345 175.746 46.9641 175.382 46.9004 174.929L46.8987 174.917C46.8472 174.551 46.542 174.36 45.8255 174.302L44.6501 174.221C43.3082 174.125 42.5733 173.576 42.4294 172.553L42.4286 172.547C42.2481 171.263 43.2692 170.246 44.9751 170.006C46.7678 169.755 47.8858 170.508 48.1146 171.596L48.1181 171.621L46.437 171.857L46.4264 171.827C46.2757 171.475 45.8246 171.19 45.1484 171.285C44.5219 171.373 44.1163 171.728 44.1808 172.187L44.1817 172.193C44.2331 172.559 44.5171 172.734 45.246 172.79L46.4152 172.872C47.8209 172.972 48.54 173.453 48.6821 174.464L48.683 174.47C48.873 175.822 47.75 176.878 46.0007 177.124ZM52.7373 176.177C51.2051 176.393 50.2866 175.573 50.0582 173.948L49.4374 169.531L51.2488 169.277L51.8111 173.278C51.9471 174.245 52.3837 174.696 53.2397 174.576C54.133 174.451 54.5323 173.781 54.4024 172.857L53.8479 168.911L55.6592 168.657L56.6191 175.486L54.8077 175.741L54.6595 174.686L54.5479 174.702C54.3423 175.49 53.7112 176.041 52.7373 176.177ZM58.4986 175.222L57.1718 165.781L58.9831 165.526L60.31 174.968L58.4986 175.222ZM62.0004 166.697C61.4421 166.775 60.9141 166.394 60.8356 165.835C60.7563 165.271 61.1588 164.759 61.7171 164.68C62.2754 164.602 62.7972 164.984 62.8765 165.549C62.955 166.107 62.5587 166.618 62.0004 166.697ZM62.1957 174.703L61.2359 167.873L63.0472 167.618L64.007 174.448L62.1957 174.703ZM65.8308 174.192L64.8709 167.362L66.6823 167.108L66.8305 168.162L66.9421 168.146C67.1485 167.365 67.7593 166.804 68.7332 166.668C70.253 166.454 71.2026 167.269 71.4318 168.901L72.0526 173.317L70.2412 173.572L69.678 169.565C69.5429 168.603 69.0744 168.15 68.2184 168.271C67.381 168.388 66.9569 169.062 67.0868 169.986L67.6421 173.937L65.8308 174.192Z" fill="white"/>
<path d="M35.6893 17.164C36.2333 17.164 36.5846 17.4473 36.7433 18.014L36.5393 20.02V20.666C37.106 25.358 37.4573 29.0073 37.5933 31.614C37.8426 34.0393 38.1033 35.252 38.3753 35.252C38.3753 35.728 37.9786 36.034 37.1853 36.17C36.052 36.17 35.4853 33.8807 35.4853 29.302L34.5333 20.462V20.156C34.5333 18.1613 34.9186 17.164 35.6893 17.164ZM44.5211 24.542C46.4477 24.7007 47.4111 25.6413 47.4111 27.364L47.4791 27.806L47.4111 33.11C47.4111 33.722 47.7624 34.5493 48.4651 35.592V35.66C48.2837 36.3173 47.9551 36.646 47.4791 36.646C46.0737 36.0567 45.3711 34.81 45.3711 32.906V32.464L45.2691 32.396L45.3711 32.26V32.192L45.4731 27.5C45.4731 26.8427 45.1897 26.514 44.6231 26.514H44.2151C43.0817 26.9673 42.5151 29.4493 42.5151 33.96C42.5151 35.524 42.1184 36.306 41.3251 36.306C40.7131 36.306 40.3957 35.9207 40.3731 35.15V31.75C40.3731 27.3527 40.7584 25.154 41.5291 25.154L41.8691 25.052L42.5831 25.154C43.1951 24.746 43.8411 24.542 44.5211 24.542ZM56.3648 22.23C56.9768 22.23 57.3961 23.2613 57.6228 25.324C57.3961 25.8907 57.0221 26.174 56.5008 26.174C56.1381 26.106 55.7754 25.6867 55.4128 24.916L54.8008 24.712C53.7354 24.712 52.7721 25.4147 51.9108 26.82V27.126C51.9108 27.466 53.5088 28.0327 56.7048 28.826C58.0421 29.6193 58.7108 30.5827 58.7108 31.716C58.7108 33.5747 57.2148 35.1613 54.2228 36.476L52.9648 36.68C51.0608 36.476 50.1088 35.524 50.1088 33.824V33.722C50.1088 33.178 50.4601 32.8607 51.1628 32.77C51.7068 32.77 52.0694 33.3367 52.2508 34.47L52.5228 34.674H53.1008C54.3928 34.674 55.5941 33.79 56.7048 32.022V31.58C56.7048 30.9 55.2201 30.2653 52.2508 29.676C50.6868 29.0413 49.9048 28.1573 49.9048 27.024C49.9048 25.5507 51.1401 24.168 53.6108 22.876C54.6988 22.74 55.6168 22.5247 56.3648 22.23ZM61.3165 25.766L61.9285 25.426C62.4725 25.426 62.8692 25.7547 63.1185 26.412C62.7559 28.0893 62.5745 29.812 62.5745 31.58C62.5745 32.464 62.8352 33.4273 63.3565 34.47H63.5605C64.2179 34.47 64.9999 31.8747 65.9065 26.684C66.2239 26.412 66.5299 26.276 66.8245 26.276C67.5272 26.276 67.8785 27.5227 67.8785 30.016C68.1732 32.7587 68.5019 34.13 68.8645 34.13L69.3745 33.926C70.0319 34.1753 70.3605 34.5267 70.3605 34.98C69.9525 35.8413 69.3859 36.272 68.6605 36.272C67.8445 36.272 67.0625 35.456 66.3145 33.824C65.4079 35.728 64.4899 36.68 63.5605 36.68C62.1779 36.68 61.2145 35.2407 60.6705 32.362L60.5685 31.274V30.934C60.5685 29.1207 60.8179 27.398 61.3165 25.766ZM73.0176 17.266C73.6523 17.4927 73.9696 17.844 73.9696 18.32L74.3096 31.274V35.456C74.3096 36.2267 73.9809 36.612 73.3236 36.612H72.8816C72.4736 36.34 72.2696 36.0227 72.2696 35.66V31.716L71.9636 18.252C71.9636 17.6853 72.3149 17.3567 73.0176 17.266ZM77.1653 18.286C78.0267 18.4673 78.4573 18.8527 78.4573 19.442C78.2307 20.0767 77.868 20.394 77.3693 20.394C76.5307 20.2353 76.1113 19.816 76.1113 19.136C76.338 18.5693 76.6893 18.286 77.1653 18.286ZM78.4573 23.046C78.82 23.046 79.126 23.3747 79.3753 24.032L79.0693 26.446V28.044C79.0693 29.9027 79.3867 32.3393 80.0213 35.354C79.7947 35.7847 79.4093 36 78.8653 36C77.936 36 77.324 33.28 77.0293 27.84V26.65C77.0293 24.2473 77.5053 23.046 78.4573 23.046ZM86.191 24.542C88.1177 24.7007 89.081 25.6413 89.081 27.364L89.149 27.806L89.081 33.11C89.081 33.722 89.4323 34.5493 90.135 35.592V35.66C89.9537 36.3173 89.625 36.646 89.149 36.646C87.7437 36.0567 87.041 34.81 87.041 32.906V32.464L86.939 32.396L87.041 32.26V32.192L87.143 27.5C87.143 26.8427 86.8597 26.514 86.293 26.514H85.885C84.7517 26.9673 84.185 29.4493 84.185 33.96C84.185 35.524 83.7883 36.306 82.995 36.306C82.383 36.306 82.0657 35.9207 82.043 35.15V31.75C82.043 27.3527 82.4283 25.154 83.199 25.154L83.539 25.052L84.253 25.154C84.865 24.746 85.511 24.542 86.191 24.542Z" fill="black"/>
<path d="M43.2451 71.7524C43.2451 62.0445 49.7051 53.4566 56.2081 46.9536" stroke="#5B6670" stroke-width="3" stroke-linecap="round"/>
</svg>
