<svg width="167" height="170" viewBox="0 0 167 170" fill="none" xmlns="http://www.w3.org/2000/svg">
<mask id="path-1-inside-1_138_186" fill="white">
<path fill-rule="evenodd" clip-rule="evenodd" d="M166.028 3.17757C166.028 1.42265 164.605 0 162.85 0H3.17757C1.42265 0 0 1.42264 0 3.17756V166.822C0 168.577 1.42264 170 3.17757 170L114.304 170C115.218 170 116.087 169.607 116.69 168.922L165.236 113.748C165.746 113.167 166.028 112.421 166.028 111.649V3.17757Z"/>
</mask>
<path fill-rule="evenodd" clip-rule="evenodd" d="M166.028 3.17757C166.028 1.42265 164.605 0 162.85 0H3.17757C1.42265 0 0 1.42264 0 3.17756V166.822C0 168.577 1.42264 170 3.17757 170L114.304 170C115.218 170 116.087 169.607 116.69 168.922L165.236 113.748C165.746 113.167 166.028 112.421 166.028 111.649V3.17757Z" fill="#FFEDC4"/>
<path d="M165.236 113.748L164.64 113.223L165.236 113.748ZM114.304 170L114.304 169.206L114.304 170ZM116.69 168.922L117.286 169.446L116.69 168.922ZM3.17757 170L3.17756 170.794L3.17757 170ZM3.17757 0.794393H162.85V-0.794393H3.17757V0.794393ZM0.794393 166.822V3.17756H-0.794393V166.822H0.794393ZM114.304 169.206L3.17757 169.206L3.17756 170.794L114.304 170.794L114.304 169.206ZM117.286 169.446L165.832 114.272L164.64 113.223L116.094 168.397L117.286 169.446ZM165.234 3.17757V111.649H166.822V3.17757H165.234ZM165.832 114.272C166.47 113.547 166.822 112.614 166.822 111.649H165.234C165.234 112.228 165.022 112.788 164.64 113.223L165.832 114.272ZM114.304 170.794C115.446 170.794 116.532 170.303 117.286 169.446L116.094 168.397C115.641 168.911 114.989 169.206 114.304 169.206L114.304 170.794ZM-0.794393 166.822C-0.794393 169.016 0.98391 170.794 3.17756 170.794L3.17757 169.206C1.86137 169.206 0.794393 168.139 0.794393 166.822H-0.794393ZM162.85 0.794393C164.167 0.794393 165.234 1.86138 165.234 3.17757H166.822C166.822 0.983916 165.044 -0.794393 162.85 -0.794393V0.794393ZM3.17757 -0.794393C0.983919 -0.794393 -0.794393 0.983905 -0.794393 3.17756H0.794393C0.794393 1.86137 1.86137 0.794393 3.17757 0.794393V-0.794393Z" fill="black" mask="url(#path-1-inside-1_138_186)"/>
<path d="M63.331 64.067L68.4856 63.8961C68.9223 63.8961 69.2735 64.0005 69.5393 64.2094C69.8051 64.3992 69.938 64.665 69.938 65.0068C69.938 65.3485 69.8051 65.6238 69.5393 65.8327C69.2735 66.0225 68.9223 66.1174 68.4856 66.1174L64.4986 65.975C64.4037 70.2468 64.3562 73.1991 64.3562 74.8319L64.4986 84.2582C64.4986 84.6949 64.3942 85.0461 64.1853 85.3119C63.9765 85.5777 63.6917 85.7106 63.331 85.7106C62.9703 85.7106 62.6855 85.5777 62.4766 85.3119C62.2678 85.0461 62.1634 84.6949 62.1634 84.2582L62.3058 74.8319C62.3058 73.1801 62.2583 70.2183 62.1634 65.9466L57.8631 66.089C56.9518 66.089 56.4962 65.7282 56.4962 65.0068C56.4962 64.2853 56.9518 63.9246 57.8631 63.9246L63.331 64.067ZM82.07 78.5341C82.07 79.958 82.1745 81.1256 82.3833 82.0369C82.5922 82.9292 82.839 83.4323 83.1237 83.5463C83.2377 83.6032 83.3706 83.6412 83.5224 83.6602C83.6933 83.6792 83.8072 83.7076 83.8642 83.7456C83.9401 83.7836 83.9781 83.8595 83.9781 83.9734C83.9781 84.4861 83.8357 84.9037 83.5509 85.2265C83.2851 85.5492 82.8769 85.7106 82.3264 85.7106C81.7758 85.7106 81.3486 85.3594 81.0448 84.6569C80.7411 83.9545 80.5892 83.0526 80.5892 81.9515C80.1145 83.0147 79.4121 83.907 78.4818 84.6284C77.5704 85.3499 76.5357 85.7106 75.3776 85.7106C74.2385 85.7106 73.2512 85.3309 72.4158 84.5715C70.897 83.1855 70.1376 81.2015 70.1376 78.6195C70.1376 76.5501 70.7356 74.7464 71.9317 73.2086C73.1278 71.6707 74.6656 70.9018 76.5452 70.9018C77.9691 70.9018 79.2032 71.386 80.2474 72.3542C80.2474 71.386 80.6082 70.9018 81.3296 70.9018C82.2029 70.9018 82.6396 71.5758 82.6396 72.9238C82.6396 74.2528 82.4498 76.1229 82.07 78.5341ZM80.4183 78.7904L80.2759 74.4047C79.1368 73.3035 77.9407 72.7529 76.6876 72.7529C75.4535 72.7529 74.3904 73.313 73.498 74.4332C72.6057 75.5533 72.1595 76.9013 72.1595 78.4771C72.1595 80.0339 72.4443 81.3249 73.0139 82.3502C73.6024 83.3564 74.4283 83.8595 75.4915 83.8595C76.5547 83.8595 77.523 83.3849 78.3963 82.4356C79.2697 81.4863 79.9437 80.2712 80.4183 78.7904ZM93.2418 83.8595C94.4569 83.8595 95.5201 83.2994 96.4314 82.1793C97.3617 81.0591 97.8269 79.7491 97.8269 78.2493C97.8269 76.7304 97.4946 75.4394 96.8301 74.3762C96.1656 73.294 95.2638 72.7529 94.1247 72.7529C92.1312 72.7529 90.4889 74.3952 89.1979 77.6797V82.2078C90.337 83.3089 91.685 83.8595 93.2418 83.8595ZM87.4322 80.0149L87.4607 78.9328V78.4771C87.4607 77.6797 87.3753 76.5121 87.2044 74.9742C87.0335 73.4364 86.9481 72.5061 86.9481 72.1834C86.9481 71.8416 87.043 71.5473 87.2329 71.3005C87.4417 71.0347 87.717 70.9018 88.0588 70.9018C88.4005 70.9018 88.6663 71.0347 88.8562 71.3005C89.065 71.5473 89.1694 71.8321 89.1694 72.1549C89.1694 72.4776 89.1599 72.8858 89.1409 73.3794C89.1409 73.8541 89.1409 74.2528 89.1409 74.5755C89.7675 73.4174 90.4699 72.5156 91.2483 71.8701C92.0268 71.2246 93.033 70.9018 94.2671 70.9018C95.5011 70.9018 96.5643 71.3005 97.4567 72.0979C98.349 72.8953 98.985 73.8161 99.3647 74.8603C99.7444 75.9045 99.9343 76.9488 99.9343 77.993C99.9343 80.0624 99.3078 81.866 98.0547 83.4039C96.8016 84.9417 95.1974 85.7106 93.2418 85.7106C91.8179 85.7106 90.4699 85.2455 89.1979 84.3152C89.1599 86.6124 89.1409 88.3117 89.1409 89.4128C89.1409 90.533 89.046 91.2355 88.8562 91.5202C88.6663 91.824 88.372 91.9759 87.9733 91.9759C87.5746 91.9759 87.2424 91.805 86.9766 91.4633C86.7298 91.1405 86.6064 90.6659 86.6064 90.0394C86.6064 89.4128 86.6443 88.6629 86.7203 87.7896C86.7962 86.9352 86.9101 85.8056 87.062 84.4006C87.2139 82.9767 87.3373 81.6952 87.4322 80.556V80.0149Z" fill="#5B5B5B"/>
<mask id="path-4-inside-2_138_186" fill="white">
<path fill-rule="evenodd" clip-rule="evenodd" d="M166 111.989L123.017 111.036C120.849 110.988 119.038 112.676 118.933 114.842L116.304 169.334L166 112.571V111.989Z"/>
</mask>
<path fill-rule="evenodd" clip-rule="evenodd" d="M166 111.989L123.017 111.036C120.849 110.988 119.038 112.676 118.933 114.842L116.304 169.334L166 112.571V111.989Z" fill="#FFEDC4"/>
<path d="M123.017 111.036L123.037 110.146L123.017 111.036ZM166 111.989H166.89V111.118L166.02 111.099L166 111.989ZM118.933 114.842L118.044 114.799L118.044 114.799L118.933 114.842ZM116.304 169.334L115.415 169.292L115.292 171.841L116.974 169.921L116.304 169.334ZM166 112.571L166.67 113.157L166.89 112.906V112.571H166ZM122.997 111.925L165.98 112.879L166.02 111.099L123.037 110.146L122.997 111.925ZM119.822 114.885C119.903 113.201 121.312 111.888 122.997 111.925L123.037 110.146C120.386 110.087 118.172 112.151 118.044 114.799L119.822 114.885ZM117.193 169.377L119.822 114.885L118.044 114.799L115.415 169.292L117.193 169.377ZM165.33 111.985L115.635 168.748L116.974 169.921L166.67 113.157L165.33 111.985ZM166.89 112.571V111.989H165.11V112.571H166.89Z" fill="black" mask="url(#path-4-inside-2_138_186)"/>
</svg>
