<svg width="213" height="241" viewBox="0 0 213 241" fill="none" xmlns="http://www.w3.org/2000/svg">
<path d="M2.95279 165.335L35.5721 25.4256C39.0438 10.5352 52.3177 0 67.6075 0C69.8632 0 72.1129 0.232013 74.3211 0.692377L196.498 26.164C205.82 28.1074 212.5 36.3235 212.5 45.8456C212.5 46.9467 212.41 48.0459 212.23 49.1321L189.111 188.653C185.912 207.959 173.4 224.447 155.666 232.723C144.81 237.789 132.675 239.45 120.857 237.488L42.4274 224.468C24.1061 221.427 9.10691 208.235 3.75062 190.452C1.29321 182.293 1.01812 173.633 2.95279 165.335Z" fill="white"/>
<rect x="52.3912" y="6.59303" width="151.246" height="196.228" rx="20.2608" transform="rotate(12 52.3912 6.59303)" fill="#A2A2A2" stroke="black"/>
<rect x="69.6271" y="32.4922" width="108.242" height="62.2711" rx="9.88041" transform="rotate(12 69.6271 32.4922)" fill="#A9C869" stroke="black"/>
<circle cx="66.1543" cy="127.259" r="13.3406" transform="rotate(12 66.1543 127.259)" fill="#F4F4F4" stroke="black"/>
<circle cx="102.417" cy="134.967" r="13.3406" transform="rotate(12 102.417 134.967)" fill="#F4F4F4" stroke="black"/>
<circle cx="139.647" cy="142.881" r="13.3406" transform="rotate(12 139.647 142.881)" fill="#F4F4F4" stroke="black"/>
<path d="M47.4577 174.83C48.5355 169.76 53.5196 166.523 58.5902 167.601L129.182 182.606C134.252 183.683 137.489 188.668 136.411 193.738L130.041 223.71L41.087 204.802L47.4577 174.83Z" fill="#FDD546" stroke="black"/>
<path d="M68.7249 196.028C69.2351 193.627 71.5944 192.095 73.9946 192.605L104.455 199.08C106.856 199.59 108.388 201.95 107.878 204.35L104.898 218.366L65.7457 210.044L68.7249 196.028Z" fill="#4C4C4C" stroke="black"/>
<path d="M115.118 74.2946C114.92 75.2255 114.575 75.98 114.083 76.558C113.594 77.1366 113.01 77.5338 112.331 77.7496C111.656 77.9632 110.941 77.99 110.188 77.8299C109.43 77.6687 108.785 77.3517 108.256 76.879C107.726 76.4062 107.355 75.8061 107.144 75.0787C106.933 74.3512 106.926 73.5234 107.123 72.5953C107.321 71.6644 107.664 70.9096 108.153 70.331C108.642 69.7524 109.224 69.3563 109.9 69.1427C110.576 68.9263 111.294 68.8987 112.052 69.06C112.805 69.22 113.447 69.5364 113.976 70.0092C114.51 70.4798 114.882 71.0788 115.093 71.8062C115.307 72.5342 115.315 73.3637 115.118 74.2946ZM113.288 73.9057C113.416 73.3027 113.434 72.7749 113.341 72.3225C113.251 71.8707 113.066 71.5032 112.787 71.2201C112.507 70.937 112.149 70.7491 111.713 70.6564C111.277 70.5637 110.873 70.5897 110.503 70.7346C110.132 70.8795 109.812 71.1397 109.544 71.5154C109.278 71.8916 109.081 72.3812 108.953 72.9842C108.825 73.5873 108.805 74.1147 108.895 74.5665C108.988 75.019 109.174 75.3867 109.454 75.6698C109.733 75.9529 110.091 76.1408 110.527 76.2335C110.964 76.3262 111.367 76.3002 111.738 76.1553C112.108 76.0105 112.427 75.7499 112.692 75.3737C112.961 74.998 113.16 74.5087 113.288 73.9057ZM120.318 73.1694L120.034 74.5032L116.083 73.6633L116.366 72.3295L120.318 73.1694ZM115.91 78.9242L117.369 72.0591C117.468 71.595 117.64 71.2293 117.885 70.9621C118.134 70.6954 118.433 70.5193 118.782 70.4338C119.131 70.3483 119.507 70.3483 119.91 70.434C120.183 70.4919 120.427 70.5656 120.643 70.6551C120.862 70.7452 121.024 70.8188 121.128 70.8757L120.527 72.1422C120.463 72.1052 120.381 72.0661 120.282 72.0248C120.186 71.9841 120.086 71.9525 119.98 71.93C119.719 71.8745 119.524 71.897 119.395 71.9974C119.267 72.095 119.18 72.2522 119.134 72.469L117.681 79.3007L115.91 78.9242ZM124.846 74.1318L124.562 75.4656L120.61 74.6257L120.894 73.2919L124.846 74.1318ZM120.438 79.8866L121.897 73.0215C121.996 72.5574 122.168 72.1917 122.413 71.9245C122.662 71.6578 122.96 71.4817 123.31 71.3962C123.659 71.3107 124.035 71.3107 124.438 71.3964C124.71 71.4543 124.955 71.528 125.171 71.6175C125.39 71.7076 125.551 71.7812 125.655 71.8381L125.055 73.1046C124.99 73.0676 124.909 73.0285 124.81 72.9872C124.714 72.9465 124.613 72.9149 124.508 72.8924C124.247 72.8369 124.052 72.8594 123.923 72.9598C123.794 73.0574 123.707 73.2146 123.661 73.4314L122.209 80.2631L120.438 79.8866Z" fill="#2C3E49"/>
<path d="M136.529 136.154L145.076 143.099C145.382 143.348 145.287 143.838 144.91 143.955L134.165 147.274" stroke="black" stroke-width="1.97722" stroke-linecap="round"/>
<path d="M72.4644 122.536L61.8312 125.404C61.4498 125.507 61.3372 125.994 61.6345 126.254L70.1006 133.657" stroke="black" stroke-width="1.97722" stroke-linecap="round"/>
<path fill-rule="evenodd" clip-rule="evenodd" d="M101.13 129.134C101.125 129.16 101.105 129.181 101.079 129.186C98.9058 129.691 97.1096 131.407 96.6151 133.734C95.934 136.938 97.9795 140.088 101.184 140.769C104.388 141.45 107.538 139.404 108.219 136.2C108.714 133.873 107.771 131.575 105.99 130.23C105.969 130.214 105.96 130.188 105.965 130.162L106.376 128.228C106.386 128.181 106.44 128.155 106.482 128.18C109.301 129.868 110.875 133.217 110.153 136.611C109.245 140.884 105.045 143.611 100.773 142.703C96.5003 141.795 93.7729 137.595 94.681 133.322C95.4026 129.928 98.2017 127.509 101.464 127.113C101.513 127.107 101.551 127.153 101.541 127.2L101.13 129.134Z" fill="black"/>
<path d="M103.239 131.099L104.267 126.264" stroke="black" stroke-width="1.97722" stroke-linecap="round"/>
</svg>
