<svg width="355" height="460" viewBox="0 0 355 460" fill="none" xmlns="http://www.w3.org/2000/svg">
<path d="M131.801 173.551L289.831 13.6725C319.866 -17.2869 364.687 19.2173 333.266 54.7973L233.92 145.363L250.092 136.122L258.967 129.36C259.513 128.944 260.144 128.655 260.816 128.514L276.211 125.273C276.962 125.115 277.74 125.146 278.476 125.364L288.964 128.472C289.536 128.641 290.071 128.921 290.537 129.294L302.7 139.024C303.35 139.544 303.848 140.23 304.14 141.01L308.944 153.82C309.138 154.339 309.238 154.889 309.238 155.443V163.868C309.238 164.759 308.981 165.63 308.497 166.378L299.285 180.615C299.145 180.831 298.959 181.013 298.741 181.149L297.339 182.026C295.836 182.966 296.873 185.281 298.575 184.785C298.898 184.691 299.242 184.706 299.555 184.828L315.215 190.918C315.542 191.045 315.854 191.209 316.143 191.406L324.816 197.32C325.508 197.791 326.058 198.441 326.409 199.201L330.879 208.886C331.231 209.65 331.369 210.496 331.276 211.333L329.676 225.73C329.606 226.362 329.406 226.973 329.088 227.525L321.254 241.131C320.948 241.663 320.538 242.129 320.05 242.501L315.045 246.314C313.302 247.643 313.672 250.365 315.707 251.179L328.098 254.896C329.053 255.183 329.89 255.77 330.484 256.572L338.389 267.244C338.669 267.622 338.889 268.039 339.043 268.483L342.525 278.544C342.815 279.382 342.858 280.286 342.649 281.147L339.015 296.086C338.88 296.64 338.644 297.164 338.318 297.633L331.757 307.064C331.532 307.388 331.266 307.682 330.965 307.938L309.238 326.497L239.465 403.202C220.982 418.841 194.752 425.766 182.629 427.507C181.721 427.638 180.872 428.012 180.178 428.61L157.677 448.023C143.63 463.549 128.72 456.341 123.021 450.796L18.5925 348.677C-2.20109 328.808 -0.814749 315.407 8.42688 302.931L32.5455 277.936C33.3766 277.074 33.8374 275.904 33.8544 274.707C34.8479 204.789 90.9839 169.036 125.332 180.942L131.801 173.551Z" fill="#FED90F"/>
<path d="M125.332 180.942L131.801 173.551L289.831 13.6725C319.866 -17.2869 364.687 19.2173 333.266 54.7973L233.92 145.363M125.332 180.942C90.9839 169.036 34.8479 204.789 33.8544 274.707C33.8374 275.904 33.3766 277.074 32.5455 277.936L8.42688 302.931C-0.814749 315.407 -2.20109 328.808 18.5925 348.677L123.022 450.796C128.72 456.341 143.63 463.549 157.677 448.023L180.178 428.61C180.872 428.012 181.721 427.638 182.629 427.507C194.752 425.766 220.982 418.841 239.465 403.202L309.238 326.497L330.965 307.938C331.266 307.682 331.532 307.388 331.757 307.064L338.318 297.633C338.644 297.164 338.88 296.64 339.015 296.086L342.649 281.147C342.858 280.286 342.815 279.382 342.525 278.544L339.043 268.483C338.889 268.039 338.669 267.622 338.389 267.244L330.484 256.572C329.89 255.77 329.053 255.183 328.098 254.896L315.707 251.179V251.179C313.672 250.365 313.302 247.643 315.045 246.314L320.05 242.501C320.538 242.129 320.948 241.663 321.254 241.131L329.088 227.525C329.406 226.973 329.606 226.362 329.676 225.73L331.276 211.333C331.369 210.496 331.231 209.65 330.879 208.886L326.409 199.201C326.058 198.441 325.508 197.791 324.816 197.32L316.143 191.406C315.854 191.209 315.542 191.045 315.215 190.918L299.555 184.828C299.242 184.706 298.898 184.691 298.575 184.785V184.785C296.873 185.281 295.836 182.966 297.339 182.026L298.741 181.149C298.959 181.013 299.145 180.831 299.285 180.615L308.497 166.378C308.981 165.63 309.238 164.759 309.238 163.868V155.443C309.238 154.889 309.138 154.339 308.944 153.82L304.14 141.01C303.848 140.23 303.35 139.544 302.7 139.024L290.537 129.294C290.071 128.921 289.536 128.641 288.964 128.472L278.476 125.364C277.74 125.146 276.962 125.115 276.211 125.273L260.816 128.514C260.144 128.655 259.513 128.944 258.967 129.36L250.092 136.122L233.92 145.363M125.332 180.942L175.236 189.491M96.6832 256.724C116.169 270.327 193.037 258.851 229.631 251.301C230.035 251.218 230.429 251.074 230.795 250.884C273.393 228.742 243.542 199.88 225.14 198.04L175.236 189.491M233.92 145.363L206.348 174.743C205.942 175.176 205.456 175.526 204.917 175.775L175.236 189.491" stroke="black" stroke-width="3.69661"/>
<rect x="177.421" y="307.145" width="162.996" height="64.8308" rx="32.4154" transform="rotate(-25 177.421 307.145)" fill="#FED90F" stroke="black" stroke-width="3.69661"/>
<rect x="156.899" y="248.126" width="174.217" height="64.8308" rx="32.4154" transform="rotate(-25 156.899 248.126)" fill="#FED90F" stroke="black" stroke-width="3.69661"/>
<rect x="165.2" y="170.193" width="143.657" height="64.8308" rx="32.4154" transform="rotate(-24 165.2 170.193)" fill="#FED90F" stroke="black" stroke-width="3.69661"/>
</svg>
