<svg width="525" height="545" viewBox="0 0 525 545" fill="none" xmlns="http://www.w3.org/2000/svg">
<path d="M231.815 160.482L316.572 65.6049C319.596 62.2202 323.375 59.5964 327.603 57.9463C330.957 56.6374 334.526 55.9675 338.126 55.9712L339.513 55.9726C347.724 55.9809 355.688 58.7792 362.1 63.9085L365.743 66.823C368.806 69.2731 371.566 72.0783 373.967 75.1796L380.402 83.4909C381.963 85.5074 383.22 87.7419 384.133 90.1231C387.337 98.4803 386.034 107.896 380.68 115.069L319.76 196.693C314.512 203.724 316.717 213.774 324.426 217.963C326.343 219.004 327.997 220.467 329.266 222.241L338.594 235.285C341.003 238.654 341.893 242.878 341.047 246.933L340.742 248.395C339.211 255.736 344.019 262.899 351.393 264.262C354.321 264.804 356.984 266.307 358.96 268.535L365.056 275.408C368.691 279.507 371.448 284.307 373.155 289.512L374.513 293.651C376.125 298.567 376.504 303.803 375.616 308.899L374.883 313.111C374.146 317.344 372.01 321.206 368.817 324.081L367.394 325.361C360.907 331.202 359.874 340.997 365.001 348.062C366.478 350.098 367.487 352.436 367.955 354.907L370.216 366.844C370.508 368.389 370.656 369.958 370.658 371.53C370.666 379.771 366.663 387.5 359.928 392.249L342.419 404.594C337.192 408.28 332.523 412.699 328.557 417.716L317.543 431.645L300.693 450.9C295.614 456.703 289.866 461.883 283.568 466.333L282.39 467.165C275.857 471.781 268.719 475.475 261.179 478.144L251.633 481.522C248.586 482.6 245.377 483.15 242.144 483.146L238.645 483.143C231.145 483.135 224.16 486.954 220.117 493.271C212.595 505.025 196.164 506.88 186.211 497.099L175.965 487.031L116.86 438.446L70.3045 399.083C58.7275 389.294 58.0654 371.674 68.8752 361.044C74.1642 355.843 76.9545 348.615 76.5319 341.209L75.1984 317.841L76.0459 299.072C76.7535 283.4 80.6212 268.032 87.4166 253.892C96.7104 234.554 111.167 218.159 129.192 206.519L145.059 196.272L170.7 183.033C177.9 179.316 185.886 177.38 193.989 177.388C208.431 177.403 222.193 171.252 231.815 160.482Z" fill="white"/>
<path d="M226.905 189.504L318.54 80.4639C337.642 56.8757 383.542 82.7102 361.767 116.526L276.532 229.691L300.441 224.829C312.164 223.155 344.698 250.627 319.89 275.505L318.739 276.926L332.44 272.811C349.94 266.702 378.07 313.704 345.335 329.346L328.484 335.417C349.56 333.993 373.131 369.131 343.645 388.63L314.019 398.439C311.463 412.987 288.717 442.455 261.451 456.892C256.123 459.713 242.009 465.258 228.172 464.87C222.13 467.399 212.644 475.166 203.995 489.794L73.0356 383.745L93.1477 358.909C92.2614 356.6 93.4546 316.72 95.1239 295.163C96.7087 255.437 121.079 229.993 133.066 222.236C134.829 220.059 164.492 206.098 176.055 197.336C193.241 184.312 211.471 191.652 219.742 198.35L226.905 189.504Z" fill="#FED90F"/>
<path d="M276.532 229.691L361.767 116.526C383.542 82.7102 337.642 56.8757 318.54 80.4639L226.905 189.504L219.742 198.35M276.532 229.691L300.441 224.829C312.164 223.155 344.698 250.627 319.89 275.505L318.739 276.926M276.532 229.691L269.369 238.537M318.739 276.926L332.44 272.811C349.94 266.702 378.07 313.704 345.335 329.346L328.484 335.417M318.739 276.926L249.271 305.634M249.271 305.634C235.633 320.128 228.005 343.996 266.378 357.793M249.271 305.634C240.223 308.822 218.706 311.528 205.03 296.848M266.378 357.793L328.484 335.417M266.378 357.793C239.733 384.476 270.566 409.82 281.784 407.825L314.019 398.439M328.484 335.417C349.56 333.993 373.131 369.131 343.645 388.63L314.019 398.439M314.019 398.439C311.463 412.987 288.717 442.455 261.451 456.892C256.123 459.713 242.009 465.258 228.172 464.87C222.13 467.399 212.644 475.166 203.995 489.794L73.0356 383.745L93.1477 358.909C92.2614 356.6 93.4546 316.72 95.1239 295.163C96.7087 255.437 121.079 229.993 133.066 222.236C134.829 220.059 164.492 206.098 176.055 197.336C193.241 184.312 211.471 191.652 219.742 198.35M205.03 296.848C205.014 316.364 202.667 358.253 193.41 369.684M205.03 296.848C203.793 288.25 201.372 273.406 198.916 262.944M269.369 238.537C295.363 257.996 302.676 277.152 295.375 284.759C281.428 301.982 238.012 278.097 209.397 260.572M269.369 238.537L219.742 198.35M209.397 260.572C204.096 257.325 199.302 254.297 195.299 251.789C196.413 253.45 197.669 257.632 198.916 262.944M209.397 260.572C207.673 259.176 199.812 261.838 198.916 262.944" stroke="black" stroke-width="3.5"/>
</svg>
