<svg width="373" height="319" viewBox="0 0 373 319" fill="none" xmlns="http://www.w3.org/2000/svg">
<path d="M6.8963 307.259L180.621 11.4945C183.641 6.35387 191.079 6.36904 194.078 11.522L366.184 307.287C369.207 312.482 365.459 319 359.448 319H13.6164C7.59092 319 3.84457 312.455 6.8963 307.259Z" fill="white"/>
<path d="M30.4228 291.378L181.242 41.9528C183.972 37.4379 190.526 37.4515 193.237 41.9776L342.652 291.403C345.447 296.069 342.086 302 336.647 302H36.4129C30.9611 302 27.6019 296.043 30.4228 291.378Z" fill="#FFD21E" stroke="black" stroke-width="10"/>
<path d="M196.368 121.927C198.137 88.769 170.395 99.8217 177.026 121.927C178.316 153.979 178.132 217.532 177.026 220.848C175.368 238.532 198.026 242.953 194.158 220.848C193.79 189.901 193.716 126.79 196.368 121.927Z" fill="black"/>
<ellipse cx="186.5" cy="259.053" rx="10.5" ry="13.2632" fill="black"/>
</svg>
