<svg width="177" height="66" viewBox="0 0 177 66" fill="none" xmlns="http://www.w3.org/2000/svg">
<path d="M15.2613 18.7111C15.2613 21.4368 9.63413 20.9687 8.98854 23.5C8.45531 25.5907 10.0142 26.8952 9.49997 29C9.23353 30.0906 15.5229 31.0709 15.2613 32.1641C15.0911 32.8753 11.5005 34.8044 11.6179 35.6005C11.6585 35.876 9.34351 34.6547 9.50007 34.5C10.8485 33.1677 7.69135 32.0958 8.98854 30.6536C12.5672 26.6747 16.0506 22.4908 19.825 18.9282C21.7649 17.0972 23.7901 15.6585 25.8661 14.2551C26.6792 13.7054 24.3959 17.9282 25.1646 17.2477C25.549 16.9074 26.643 14.1687 27.1438 14.1687C27.1438 14.6313 28.1483 13.8768 27.9946 14.2645C26.9912 16.7956 25.9349 19.2742 24.7142 21.5811C22.1319 26.4612 19.4192 31.173 16.6761 35.846C14.6428 39.3098 12.702 43.2302 11.6178 47.5902C11.3009 48.8647 11.0277 50.1137 10.8666 51.4609C10.8128 51.9105 10.3281 53.6879 10.7164 52.726C11.7751 50.1028 13.7286 48.0944 15.2613 46.1836C19.346 41.091 23.596 36.3198 27.4938 30.899C28.3133 29.7592 29.1528 28.6534 29.9979 27.557C30.3468 27.1043 30.7066 26.559 31.131 26.2636C31.4487 26.0425 31.772 25.8409 32.0763 25.5745C32.5094 25.1952 35.839 21.3281 36.0202 21.7038C36.2839 22.2507 34.4972 25.347 34.3237 25.6972C32.395 29.5884 30.2672 33.2571 28.3201 37.1299C26.3856 40.9779 24.8559 45.1586 23.3808 49.4312C22.4866 52.021 21.7366 54.747 20.7703 57.2764C20.587 57.7563 21.6805 56.1655 21.4889 56.631C21.214 57.2989 21.2333 54.502 20.9234 55.1029C20.4735 55.9751 22.0563 51.3793 22.5 50.5C25.1266 45.295 26.2062 47.8962 29.1026 43.0304C32.7489 36.9048 36.3767 30.7848 39.8264 24.4038C40.8211 22.564 42.1058 19.82 43.7015 19.0415C45.5209 18.1538 46.8674 16.2765 48.5907 15.133C48.8458 14.9638 49.0912 14.8957 49.342 14.7365C49.9621 14.3428 49.1843 15.9389 49.1354 16.0488C47.5639 19.5773 45.9959 23.1713 44.797 27.0283C43.6654 30.6689 42.914 34.6004 42.2429 38.4799C41.7153 41.5297 40.8895 44.5042 40.5776 47.628C40.3752 49.656 40.3761 51.6416 40.321 53.6795C40.2788 55.2376 40.0519 54.9544 39.8264 56.4645C39.7612 56.9009 39.594 48.751 39.8264 48C42.623 38.9626 45.8378 40.8883 49.0415 32.1641C50.8788 27.1606 52.7284 21.6904 55.5771 17.7953C56.4989 16.5351 57.5451 15.5336 58.4944 14.3211C60.0612 12.32 58.1791 19.8552 59.6598 17.7116C60.0666 17.1226 61.1209 15.1298 61.6496 14.771C61.7199 14.7233 54.8989 28.5736 60.508 16.3007C57.5156 24.964 58.4231 20.2977 58.2461 20.5647C56.7478 22.8241 62.1577 12.8328 61.3929 15.7467C60.5789 18.8477 59.7103 21.9255 59.0328 25.1024C58.2909 28.5814 57.7247 32.1413 56.9419 35.6005C56.0241 39.6561 54.7934 43.5218 53.7366 47.4958C53.168 49.6343 52.7764 51.8271 52.2843 54.0005C52.0049 55.2342 51.8507 55.441 51.5 56.631C51.4572 56.7762 51.7949 56.7844 51.9838 56.4645C53.3568 54.1386 54.8193 51.9294 56.1719 49.5728C58.2238 45.9977 59.9919 42.1552 61.6496 38.1495C62.1731 36.8845 62.7344 35.6514 63.2334 34.3638C63.5444 33.5613 63.7929 32.7185 64.2163 32.0319C66.2071 28.803 68.3538 25.8172 70.4139 22.6856C71.2991 21.34 72.0791 19.8239 73.1058 18.7111C73.5659 18.2123 74.0623 17.8517 74.4705 17.2478C74.6278 17.0151 75.2012 15.7372 75.4221 15.7372C75.5886 15.7372 73.8129 24.343 73.6567 25.008C72.154 31.4065 70.925 37.9009 69.8066 44.4748C69.1308 48.4475 68.4833 52.3436 67.4841 56.1624C66.2453 60.8967 71.5493 50.3207 70.4042 55.1029C70.4042 55.1029 70.0656 55.6179 70.1215 55.5293C70.6991 54.6124 66.0433 54.5402 66.5 53.5C68.2144 49.5949 69.3175 60.1718 71.0399 56.2757C73.6693 50.3278 75.7481 43.9356 78.6398 38.225C81.148 33.2718 83.8281 28.5999 86.559 23.9224C86.6748 23.724 88.689 20.0999 88.869 20.3443C88.9811 20.4965 88.6688 21.4512 88.6562 21.4961C87.9427 24.0231 86.9725 26.3801 86.0895 28.7749C82.0951 39.6083 78.7161 45.5897 75.9311 57.2764C75.703 58.2337 76.1609 53.0477 75.9311 54.0005C75.5296 55.6656 74.267 49.3875 72.5 58.5C77.9956 43.2898 86.6121 33.8983 94.6159 21.3639C95.7025 19.6622 96.6658 17.7628 97.7711 16.096C98.0619 15.6574 97.7552 16.857 97.7398 16.9551C95.8826 28.7804 94.2934 40.712 92.2245 52.4616C91.9504 54.0184 91.602 55.5854 91.4107 57.1725C91.3554 57.631 91.8465 56.5059 92.0242 56.1246C95.1109 49.5003 98.2983 42.9754 101.834 36.875C104.958 31.4842 108.386 26.4057 112.22 22.1664C113.724 20.5027 115.248 18.9028 116.79 17.3233C117.391 16.7073 117.068 17.6469 116.927 18.3806C115.853 23.9792 113.999 29.3294 112.483 34.6753C111.237 39.0669 110.035 43.4935 108.714 47.8357C108.024 50.1053 107.175 52.1471 106.373 54.312C106.198 54.7829 106.857 53.5173 107.086 53.1036C108.817 49.9839 110.824 47.2729 112.821 44.5503C117.931 37.5811 123.12 30.7499 128.202 23.7335C129.422 22.0489 130.645 20.3646 131.927 18.7866C132.112 18.5588 132.907 17.3043 133.242 17.4555C133.426 17.5389 131.796 21.7653 131.777 21.8171C128.86 29.6924 126.392 37.9635 123.789 46.0797C121.91 51.9349 118.946 58.763 120.925 56.631C121.093 56.0387 119.738 55.5312 120 55.1029C122.246 51.4275 124.104 54.8695 126.412 51.2815C129.481 46.5087 132.678 41.9678 136.09 37.753C139.993 32.9324 144.224 28.6658 147.903 23.4409C148.842 22.1068 149.92 20.5578 150.37 18.6639C150.417 18.4658 150.42 18.2028 150.42 18.5317C150.42 19.1044 150.423 19.6773 150.42 20.2499C150.351 32.1699 145.707 42.5103 140.541 50.97C140.4 51.2011 139.903 51.7882 139.877 52.1784C139.845 52.6678 140.49 51.7863 140.729 51.4515C143.512 47.5501 145.707 42.3372 147.252 37.1488C147.906 34.9503 148.393 32.6725 148.767 30.3326C149.013 28.7898 149.021 28.1076 149.881 27.1605C152.489 24.291 155.149 21.4846 157.807 18.7205C159.57 16.8868 158.635 19.4252 160.328 17.4555M160.328 17.4555C160.44 17.3249 163.328 16.4616 163.5 16.5C163.768 16.5599 160.344 17.2442 160.328 17.4555ZM160.328 17.4555C160.073 20.7443 163.014 20.9699 162.427 24.1584C160.478 34.7328 157.082 44.2205 153.687 53.84C153.402 54.6489 152.561 56.0977 152.561 57.0687C152.561 57.2397 152.593 56.7267 152.636 56.5683C152.828 55.8572 153.204 55.1947 153.512 54.5952C155.7 50.3376 158.237 46.4568 160.718 42.5961C164.128 37.2895 164.565 34.3916 168.5 30" stroke="#A8DAFD" stroke-width="14" stroke-linecap="round"/>
<path d="M77.9595 20.712L92.3595 19.8C92.7755 19.8 93.1755 20.2 93.5595 21C93.5595 22.216 92.1515 22.824 89.3355 22.824L80.9355 23.304L80.7435 23.4C81.5435 28.616 81.9435 38.52 81.9435 53.112C81.7835 54.52 81.2715 55.224 80.4075 55.224C79.5755 55.224 79.0955 54.584 78.9675 53.304V42.168C78.9675 34.744 78.6315 28.552 77.9595 23.592C72.2315 24.136 69.3675 24.776 69.3675 25.512L68.9355 25.704C67.9435 25.416 67.4475 24.904 67.4475 24.168C67.4475 22.408 70.9515 21.256 77.9595 20.712ZM89.5661 25.992C90.7821 26.248 91.3901 26.792 91.3901 27.624C91.0701 28.52 90.5581 28.968 89.8541 28.968C88.6701 28.744 88.0781 28.152 88.0781 27.192C88.3981 26.392 88.8941 25.992 89.5661 25.992ZM91.3901 32.712C91.9021 32.712 92.3341 33.176 92.6861 34.104L92.2541 37.512V39.768C92.2541 42.392 92.7021 45.832 93.5981 50.088C93.2781 50.696 92.7341 51 91.9661 51C90.6541 51 89.7901 47.16 89.3741 39.48V37.8C89.3741 34.408 90.0461 32.712 91.3901 32.712ZM101.972 36.744C105.364 36.744 107.364 38.872 107.972 43.128C107.972 46.904 106.212 49.608 102.692 51.24C102.308 51.432 101.78 51.528 101.108 51.528H100.772L99.7162 51.432V51.528L99.9082 64.344C99.6842 65.336 99.1722 65.832 98.3722 65.832C97.4762 65.544 97.0282 65.08 97.0282 64.44L96.5962 38.328C96.5962 37.496 97.0922 37.064 98.0842 37.032L99.0922 37.464C99.9882 36.984 100.948 36.744 101.972 36.744ZM99.5722 41.832L99.4282 43.32L99.5722 48.408L100.916 48.744C103.06 48.744 104.452 47.176 105.092 44.04V43.32C104.868 40.792 103.972 39.528 102.404 39.528H101.684C100.276 39.528 99.5722 40.296 99.5722 41.832Z" fill="black"/>
<rect x="2" y="9.15723" width="173" height="53.1371" rx="18" stroke="black" stroke-width="4"/>
</svg>
