<svg width="224" height="346" viewBox="0 0 224 346" fill="none" xmlns="http://www.w3.org/2000/svg">
<path d="M83.8465 17.062C84.6398 17.062 85.0365 18.4447 85.0365 21.21L85.2405 26.514H85.3085L90.7485 24.406C91.2925 19.782 91.7911 17.47 92.2445 17.47L92.6865 17.402C93.0718 17.402 93.4231 17.708 93.7405 18.32C92.9471 22.2187 92.5505 25.596 92.5505 28.452V29.914C92.5505 31.9993 93.0491 33.9827 94.0465 35.864C93.8198 36.4987 93.4571 36.816 92.9585 36.816C91.8705 36.816 91.0658 34.6173 90.5445 30.22V26.752H90.3405C86.9405 27.9533 85.2405 28.724 85.2405 29.064C85.2405 34.4587 84.7418 37.156 83.7445 37.156H83.6085C83.1325 37.156 82.8265 36.7593 82.6905 35.966C83.0305 33.4953 83.2005 31.58 83.2005 30.22L81.7045 31.002L81.3985 31.07C80.8318 30.866 80.5485 30.5147 80.5485 30.016C80.5485 29.5173 81.4325 28.7353 83.2005 27.67V27.602C83.1325 23.7033 82.9851 20.4733 82.7585 17.912C82.7585 17.4133 83.1211 17.13 83.8465 17.062ZM101.828 22.876C102.826 22.876 103.324 23.2727 103.324 24.066L103.018 24.712L102.814 30.934C102.814 33.7447 103.381 35.49 104.514 36.17L104.582 36.68C104.514 37.3373 104.208 37.666 103.664 37.666H103.46C101.76 36.51 100.91 34.742 100.91 32.362H100.672C99.7656 34.9007 98.6662 36.17 97.3742 36.17C96.1729 35.83 95.5722 34.9347 95.5722 33.484C95.5722 30.288 96.8529 27.1033 99.4142 23.93C100.276 23.2273 101.08 22.876 101.828 22.876ZM97.7142 32.124L97.5782 33.076V33.722H97.9182C99.6182 29.4833 100.468 26.8993 100.468 25.97H100.332C99.0176 27.4433 98.1449 29.4947 97.7142 32.124ZM109.818 24.542C111.745 24.7007 112.708 25.6413 112.708 27.364L112.776 27.806L112.708 33.11C112.708 33.722 113.059 34.5493 113.762 35.592V35.66C113.581 36.3173 113.252 36.646 112.776 36.646C111.371 36.0567 110.668 34.81 110.668 32.906V32.464L110.566 32.396L110.668 32.26V32.192L110.77 27.5C110.77 26.8427 110.487 26.514 109.92 26.514H109.512C108.379 26.9673 107.812 29.4493 107.812 33.96C107.812 35.524 107.415 36.306 106.622 36.306C106.01 36.306 105.693 35.9207 105.67 35.15V31.75C105.67 27.3527 106.055 25.154 106.826 25.154L107.166 25.052L107.88 25.154C108.492 24.746 109.138 24.542 109.818 24.542ZM122.818 17.334C123.203 17.334 123.554 17.6967 123.872 18.422L122.376 27.874V30.526C122.376 33.2913 122.806 34.674 123.668 34.674C124.234 34.946 124.518 35.3087 124.518 35.762C124.518 36.2833 124.064 36.5893 123.158 36.68C122.16 36.68 121.378 35.762 120.812 33.926H120.472C119.633 35.762 118.613 36.68 117.412 36.68C116.006 36.68 115.156 35.6147 114.862 33.484C114.862 31.0133 116.516 28.3953 119.826 25.63C120.483 25.63 120.812 24.712 120.812 22.876C121.31 19.1813 121.979 17.334 122.818 17.334ZM116.868 33.212V34.13L117.412 34.674H117.616C118.341 34.674 119.191 32.4867 120.166 28.112H119.962C117.899 30.1747 116.868 31.8747 116.868 33.212ZM145.369 22.23C145.981 22.23 146.4 23.2613 146.627 25.324C146.4 25.8907 146.026 26.174 145.505 26.174C145.142 26.106 144.779 25.6867 144.417 24.916L143.805 24.712C142.739 24.712 141.776 25.4147 140.915 26.82V27.126C140.915 27.466 142.513 28.0327 145.709 28.826C147.046 29.6193 147.715 30.5827 147.715 31.716C147.715 33.5747 146.219 35.1613 143.227 36.476L141.969 36.68C140.065 36.476 139.113 35.524 139.113 33.824V33.722C139.113 33.178 139.464 32.8607 140.167 32.77C140.711 32.77 141.073 33.3367 141.255 34.47L141.527 34.674H142.105C143.397 34.674 144.598 33.79 145.709 32.022V31.58C145.709 30.9 144.224 30.2653 141.255 29.676C139.691 29.0413 138.909 28.1573 138.909 27.024C138.909 25.5507 140.144 24.168 142.615 22.876C143.703 22.74 144.621 22.5247 145.369 22.23ZM155.318 22.876C156.316 22.876 156.814 23.2727 156.814 24.066L156.508 24.712L156.304 30.934C156.304 33.7447 156.871 35.49 158.004 36.17L158.072 36.68C158.004 37.3373 157.698 37.666 157.154 37.666H156.95C155.25 36.51 154.4 34.742 154.4 32.362H154.162C153.256 34.9007 152.156 36.17 150.864 36.17C149.663 35.83 149.062 34.9347 149.062 33.484C149.062 30.288 150.343 27.1033 152.904 23.93C153.766 23.2273 154.57 22.876 155.318 22.876ZM151.204 32.124L151.068 33.076V33.722H151.408C153.108 29.4833 153.958 26.8993 153.958 25.97H153.822C152.508 27.4433 151.635 29.4947 151.204 32.124ZM163.308 24.542C165.235 24.7007 166.198 25.6413 166.198 27.364L166.266 27.806L166.198 33.11C166.198 33.722 166.55 34.5493 167.252 35.592V35.66C167.071 36.3173 166.742 36.646 166.266 36.646C164.861 36.0567 164.158 34.81 164.158 32.906V32.464L164.056 32.396L164.158 32.26V32.192L164.26 27.5C164.26 26.8427 163.977 26.514 163.41 26.514H163.002C161.869 26.9673 161.302 29.4493 161.302 33.96C161.302 35.524 160.906 36.306 160.112 36.306C159.5 36.306 159.183 35.9207 159.16 35.15V31.75C159.16 27.3527 159.546 25.154 160.316 25.154L160.656 25.052L161.37 25.154C161.982 24.746 162.628 24.542 163.308 24.542ZM168.726 18.286C169.587 18.4673 170.018 18.8527 170.018 19.442C169.791 20.0767 169.429 20.394 168.93 20.394C168.091 20.2353 167.672 19.816 167.672 19.136C167.899 18.5693 168.25 18.286 168.726 18.286ZM170.018 23.046C170.381 23.046 170.687 23.3747 170.936 24.032L170.63 26.446V28.044C170.63 29.9027 170.947 32.3393 171.582 35.354C171.355 35.7847 170.97 36 170.426 36C169.497 36 168.885 33.28 168.59 27.84V26.65C168.59 24.2473 169.066 23.046 170.018 23.046ZM177.344 15.362C177.978 15.498 178.296 15.8153 178.296 16.314L178.092 17.81V18.252C178.092 19.2493 178.205 20.3033 178.432 21.414H178.5C181.129 20.6207 182.761 20.224 183.396 20.224C184.053 20.4053 184.382 20.734 184.382 21.21C184.382 21.9807 183.6 22.366 182.036 22.366L178.5 23.624C178.5 26.684 178.828 30.8433 179.486 36.102C179.35 36.714 179.021 37.02 178.5 37.02H178.432C177.638 37.02 177.242 36 177.242 33.96C176.947 32.4413 176.698 29.1433 176.494 24.066H175.882C173.751 23.93 172.686 23.4313 172.686 22.57C172.686 22.3207 172.924 22.0147 173.4 21.652H173.74L175.304 22.06H176.392L176.086 17.81C176.086 16.178 176.505 15.362 177.344 15.362ZM185.825 18.286C186.687 18.4673 187.117 18.8527 187.117 19.442C186.891 20.0767 186.528 20.394 186.029 20.394C185.191 20.2353 184.771 19.816 184.771 19.136C184.998 18.5693 185.349 18.286 185.825 18.286ZM187.117 23.046C187.48 23.046 187.786 23.3747 188.035 24.032L187.729 26.446V28.044C187.729 29.9027 188.047 32.3393 188.681 35.354C188.455 35.7847 188.069 36 187.525 36C186.596 36 185.984 33.28 185.689 27.84V26.65C185.689 24.2473 186.165 23.046 187.117 23.046ZM195.633 25.732C196.064 25.732 196.381 26.0493 196.585 26.684C194.568 31.8067 193.502 34.64 193.389 35.184L193.525 35.286H194.579C195.667 35.286 197.152 34.7873 199.033 33.79C199.668 33.79 199.985 34.1867 199.985 34.98C198.716 36.544 196.732 37.326 194.035 37.326L192.471 37.122C191.95 37.462 191.587 37.632 191.383 37.632C190.68 37.632 190.329 36.986 190.329 35.694C190.329 35.422 190.714 35.0027 191.485 34.436L193.831 28.18V28.044H193.729L190.839 28.282C190.068 28.1233 189.683 27.738 189.683 27.126C189.683 26.5593 190 26.276 190.635 26.276C191.859 26.276 193.525 26.0947 195.633 25.732ZM204.083 23.794C204.99 23.8167 206.52 25.4033 208.673 28.554L208.741 29.132C208.741 29.7667 207.188 30.254 204.083 30.594L203.981 30.696V30.832C204.457 32.872 204.956 33.892 205.477 33.892H205.885C206.61 33.892 207.71 33.11 209.183 31.546H209.387C209.84 31.546 210.192 31.8747 210.441 32.532C210.441 33.076 209.489 34.0167 207.585 35.354C207.086 35.6487 206.486 35.864 205.783 36C203.947 36 202.666 34.2773 201.941 30.832C200.898 30.6733 200.377 30.2427 200.377 29.54C200.377 29.0413 200.762 28.7127 201.533 28.554V28.69L201.873 28.554V27.704C201.873 25.0973 202.61 23.794 204.083 23.794ZM204.287 26.242H203.981L203.845 27.5V28.554H203.981C205.25 28.5087 205.885 28.3727 205.885 28.146C205.296 27.262 204.763 26.6273 204.287 26.242ZM216.236 22.604C217.664 22.604 218.514 23.6013 218.786 25.596V25.902C218.786 28.1007 217.652 30.118 215.386 31.954C216.7 33.246 219.001 33.892 222.288 33.892C222.786 34.0507 223.036 34.402 223.036 34.946C223.036 35.558 222.639 35.864 221.846 35.864C219.624 35.864 217.29 35.2973 214.842 34.164V35.15C214.842 37.4847 214.343 38.652 213.346 38.652C212.643 38.652 212.292 37.3033 212.292 34.606V31.954L212.19 31.002L212.428 29.914L212.19 26.65V26.514C212.19 25.902 212.507 25.4827 213.142 25.256C214.026 23.488 215.057 22.604 216.236 22.604ZM214.536 30.05C215.193 30.05 215.93 28.8713 216.746 26.514V25.052L216.338 24.61H216.032C215.034 25.29 214.536 27.1033 214.536 30.05Z" fill="black"/>
<path d="M98 70.7987C98 61.0909 104.46 52.503 110.963 46" stroke="#5B6670" stroke-width="3" stroke-linecap="round"/>
<path d="M40.947 82.4837L42.2999 81.3625C48.0409 76.6041 55.2635 74 62.7202 74H82.5215C89.8419 74 96.941 76.5099 102.635 81.111L122.76 97.3743C129.893 103.139 134.21 111.688 134.615 120.85L139.79 237.933C139.929 241.087 139.601 244.244 138.816 247.302L135.711 259.398C134.569 263.845 132.484 267.994 129.597 271.564L122.531 280.303C117.925 285.998 115.412 293.1 115.412 300.425V314C115.412 331.673 101.085 346 83.4122 346H51.5699C33.8968 346 19.5699 331.673 19.5699 314V300.427C19.5699 296.57 18.8728 292.746 17.5123 289.137L2.23814 248.626C0.760426 244.707 0.066536 240.535 0.195833 236.349L3.81533 119.15C4.23508 105.559 13.1983 93.7173 26.1651 89.6231L30.1616 88.3612C34.1026 87.1169 37.7652 85.121 40.947 82.4837Z" fill="white"/>
<path d="M31 290H105.207V319.544C105.207 327.802 98.5125 334.496 90.2543 334.496H45.9527C37.6946 334.496 31 327.802 31 319.544V290Z" fill="#A2A2A2" stroke="black" stroke-width="2"/>
<path fill-rule="evenodd" clip-rule="evenodd" d="M39.5801 99.1066C31.3617 99.7435 14.3485 105.922 12.0431 125.539V238.914C12.0431 243.054 14.7328 258.15 29.3338 290.506H105.861C106.818 288.144 107.903 285.551 109.051 282.807C115.076 268.412 122.831 249.881 122.831 238.914V123.31C121.23 115.879 113.802 100.635 96.8954 99.1066H39.5801ZM40.4681 112.801C33.0809 112.801 27.0924 118.789 27.0924 126.176C27.0924 133.564 33.0809 139.552 40.4681 139.552H94.4065C101.794 139.552 107.782 133.564 107.782 126.176C107.782 118.789 101.794 112.801 94.4065 112.801H40.4681Z" fill="#2ED1E2"/>
<path d="M12.0431 125.539L11.0499 125.423L11.0431 125.481V125.539H12.0431ZM39.5801 99.1066V98.1066H39.5414L39.5028 98.1096L39.5801 99.1066ZM12.0431 238.914H11.0431V238.914L12.0431 238.914ZM29.3338 290.506L28.4223 290.918L28.6879 291.506H29.3338V290.506ZM105.861 290.506V291.506H106.535L106.788 290.882L105.861 290.506ZM109.051 282.807L109.974 283.193V283.193L109.051 282.807ZM122.831 123.31H123.831V123.204L123.809 123.1L122.831 123.31ZM96.8954 99.1066L96.9855 98.1106L96.9405 98.1066H96.8954V99.1066ZM13.0363 125.656C14.1531 116.153 18.8152 109.943 24.1849 106.012C29.5841 102.06 35.708 100.41 39.6574 100.104L39.5028 98.1096C35.2337 98.4404 28.7419 100.198 23.0035 104.398C17.2357 108.62 12.2385 115.308 11.0499 125.423L13.0363 125.656ZM13.0431 238.914V125.539H11.0431V238.914H13.0431ZM30.2453 290.095C22.9585 273.947 18.653 262.126 16.171 253.842C13.6818 245.534 13.0431 240.837 13.0431 238.914L11.0431 238.914C11.0431 241.132 11.7493 246.052 14.2551 254.416C16.7682 262.804 21.108 274.709 28.4223 290.918L30.2453 290.095ZM105.861 289.506H29.3338V291.506H105.861V289.506ZM108.129 282.421C106.981 285.163 105.893 287.762 104.934 290.131L106.788 290.882C107.742 288.526 108.825 285.938 109.974 283.193L108.129 282.421ZM121.831 238.914C121.831 244.217 119.945 251.454 117.255 259.249C114.576 267.016 111.144 275.218 108.129 282.421L109.974 283.193C112.984 276.001 116.442 267.74 119.146 259.901C121.84 252.091 123.831 244.579 123.831 238.914H121.831ZM121.831 123.31V238.914H123.831V123.31H121.831ZM96.8054 100.103C104.946 100.839 110.803 104.868 114.839 109.641C118.892 114.432 121.084 119.946 121.854 123.521L123.809 123.1C122.978 119.243 120.655 113.42 116.366 108.349C112.062 103.26 105.751 98.9032 96.9855 98.1106L96.8054 100.103ZM39.5801 100.107H96.8954V98.1066H39.5801V100.107ZM28.0924 126.176C28.0924 119.342 33.6332 113.801 40.4681 113.801V111.801C32.5286 111.801 26.0924 118.237 26.0924 126.176H28.0924ZM40.4681 138.552C33.6332 138.552 28.0924 133.011 28.0924 126.176H26.0924C26.0924 134.116 32.5286 140.552 40.4681 140.552V138.552ZM94.4065 138.552H40.4681V140.552H94.4065V138.552ZM106.782 126.176C106.782 133.011 101.241 138.552 94.4065 138.552V140.552C102.346 140.552 108.782 134.116 108.782 126.176H106.782ZM94.4065 113.801C101.241 113.801 106.782 119.342 106.782 126.176H108.782C108.782 118.237 102.346 111.801 94.4065 111.801V113.801ZM40.4681 113.801H94.4065V111.801H40.4681V113.801Z" fill="black"/>
<rect x="54.3488" y="77.4954" width="25.537" height="43.8595" rx="12.7685" fill="#CB97E7" stroke="black" stroke-width="2"/>
<path d="M27.0924 172.036C27.8609 163.119 35.9512 159.828 39.9003 159.297H94.9743C104.196 160.316 107.355 168.214 107.782 172.036V227.45C101.378 266.685 87.3963 275.008 81.2058 274.265H53.6688C38.0432 274.265 29.4405 243.055 27.0924 227.45V172.036Z" fill="#DCF5F8" stroke="black" stroke-width="1.5"/>
<path d="M31.0358 217.067V209.874H32.5413V212.795H35.7817V209.874H37.2873V217.067H35.7817V214.036H32.5413V217.067H31.0358ZM40.3831 217.152C39.3362 217.152 38.5934 216.504 38.5934 215.507V215.497C38.5934 214.51 39.3561 213.932 40.7221 213.852L42.0482 213.772V213.318C42.0482 212.845 41.7241 212.576 41.1259 212.576C40.6024 212.576 40.2684 212.76 40.1538 213.084L40.1438 213.104H38.7978L38.8028 213.059C38.9174 212.097 39.8248 211.459 41.2057 211.459C42.6613 211.459 43.4839 212.147 43.4839 213.318V217.067H42.0482V216.34H41.9584C41.6793 216.848 41.101 217.152 40.3831 217.152ZM40.0142 215.417C40.0142 215.836 40.3681 216.09 40.8716 216.09C41.5447 216.09 42.0482 215.647 42.0482 215.068V214.665L40.9414 214.734C40.3183 214.774 40.0142 215.008 40.0142 215.407V215.417ZM44.9097 217.067V211.579H46.3654V212.426H46.4551C46.7044 211.833 47.2477 211.459 48.0304 211.459C49.2518 211.459 49.9099 212.207 49.9099 213.518V217.067H48.4542V213.847C48.4542 213.074 48.1351 212.665 47.4472 212.665C46.7741 212.665 46.3654 213.149 46.3654 213.892V217.067H44.9097ZM53.2799 217.152C51.9089 217.152 51.0515 216.08 51.0515 214.326V214.316C51.0515 212.551 51.889 211.489 53.2799 211.489C54.0326 211.489 54.6458 211.858 54.92 212.456H55.0097V209.48H56.4654V217.067H55.0097V216.215H54.92C54.6358 216.808 54.0526 217.152 53.2799 217.152ZM53.7734 215.946C54.5461 215.946 55.0247 215.338 55.0247 214.33V214.321C55.0247 213.314 54.5411 212.695 53.7734 212.695C53.0057 212.695 52.5321 213.314 52.5321 214.316V214.326C52.5321 215.338 53.0057 215.946 53.7734 215.946ZM62.7867 217.182C61.2961 217.182 60.4486 216.514 60.3439 215.572L60.3389 215.552H61.7697L61.7797 215.572C61.8943 215.911 62.2283 216.155 62.8016 216.155C63.36 216.155 63.7389 215.916 63.7389 215.552V215.542C63.7389 215.248 63.5195 215.063 62.9612 214.939L62.0439 214.744C60.997 214.52 60.4785 214.006 60.4785 213.184V213.179C60.4785 212.147 61.3958 211.459 62.7667 211.459C64.2075 211.459 65.0051 212.177 65.0649 213.059V213.079H63.7139L63.7089 213.054C63.6292 212.76 63.3051 212.486 62.7618 212.486C62.2582 212.486 61.8993 212.72 61.8993 213.089V213.094C61.8993 213.388 62.1037 213.558 62.672 213.682L63.5843 213.877C64.6811 214.111 65.1945 214.57 65.1945 215.382V215.387C65.1945 216.474 64.1925 217.182 62.7867 217.182ZM67.8816 217.152C66.8347 217.152 66.0919 216.504 66.0919 215.507V215.497C66.0919 214.51 66.8546 213.932 68.2206 213.852L69.5466 213.772V213.318C69.5466 212.845 69.2226 212.576 68.6244 212.576C68.1009 212.576 67.7669 212.76 67.6523 213.084L67.6423 213.104H66.2963L66.3013 213.059C66.4159 212.097 67.3232 211.459 68.7041 211.459C70.1598 211.459 70.9824 212.147 70.9824 213.318V217.067H69.5466V216.34H69.4569C69.1777 216.848 68.5994 217.152 67.8816 217.152ZM67.5127 215.417C67.5127 215.836 67.8666 216.09 68.3701 216.09C69.0431 216.09 69.5466 215.647 69.5466 215.068V214.665L68.4399 214.734C67.8168 214.774 67.5127 215.008 67.5127 215.407V215.417ZM72.4082 217.067V211.579H73.8638V212.426H73.9536C74.2028 211.833 74.7462 211.459 75.5289 211.459C76.7503 211.459 77.4083 212.207 77.4083 213.518V217.067H75.9527V213.847C75.9527 213.074 75.6336 212.665 74.9456 212.665C74.2726 212.665 73.8638 213.149 73.8638 213.892V217.067H72.4082ZM79.562 210.736C79.1133 210.736 78.7394 210.377 78.7394 209.929C78.7394 209.475 79.1133 209.116 79.562 209.116C80.0106 209.116 80.3795 209.475 80.3795 209.929C80.3795 210.377 80.0106 210.736 79.562 210.736ZM78.8291 217.067V211.579H80.2848V217.067H78.8291ZM84.0287 217.087C82.6927 217.087 82.1543 216.654 82.1543 215.587V212.675H81.3068V211.579H82.1543V210.268H83.6249V211.579H84.7566V212.675H83.6249V215.253C83.6249 215.746 83.8343 215.966 84.3278 215.966C84.5173 215.966 84.617 215.956 84.7566 215.941V217.023C84.5771 217.057 84.3079 217.087 84.0287 217.087ZM86.7108 210.736C86.2621 210.736 85.8882 210.377 85.8882 209.929C85.8882 209.475 86.2621 209.116 86.7108 209.116C87.1594 209.116 87.5283 209.475 87.5283 209.929C87.5283 210.377 87.1594 210.736 86.7108 210.736ZM85.9779 217.067V211.579H87.4336V217.067H85.9779ZM88.7746 217.067V216.23L91.5713 212.765V212.675H88.8145V211.579H93.2913V212.506L90.6541 215.881V215.971H93.3561V217.067H88.7746ZM96.9654 217.182C95.2953 217.182 94.2833 216.09 94.2833 214.33V214.326C94.2833 212.581 95.3053 211.459 96.9055 211.459C98.5058 211.459 99.5028 212.556 99.5028 214.216V214.669H95.724C95.739 215.572 96.2226 216.095 96.9953 216.095C97.6334 216.095 97.9873 215.756 98.087 215.547L98.102 215.517H99.458L99.448 215.567C99.2785 216.255 98.5706 217.182 96.9654 217.182ZM96.9305 212.551C96.2973 212.551 95.8287 212.98 95.739 213.757H98.107C98.0172 212.96 97.5636 212.551 96.9305 212.551ZM100.694 217.067V211.579H102.15V212.431H102.24C102.414 211.838 102.913 211.489 103.626 211.489C103.82 211.489 104.024 211.519 104.169 211.559V212.83C103.95 212.78 103.725 212.745 103.501 212.745C102.673 212.745 102.15 213.219 102.15 213.996V217.067H100.694Z" fill="#303030"/>
</svg>
