<svg width="233" height="72" viewBox="0 0 233 72" fill="none" xmlns="http://www.w3.org/2000/svg">
<path d="M12.5002 15.5C12.5002 18.6832 10.7134 20.3985 9.86352 23.3546C9.16158 25.7962 8.47195 28.2392 7.79503 30.6973C7.44429 31.9709 8.84439 33.2233 8.50006 34.5C8.27604 35.3306 8.84561 36.4266 9.00004 37.3564C9.05349 37.6781 7.29415 37.1806 7.50024 37C9.27533 35.4441 10.2244 34.1566 11.932 32.4723C16.643 27.8257 21.2285 22.9397 26.1972 18.7792C28.7509 16.6409 31.4169 14.9607 34.1497 13.3218C35.2201 12.6799 32.2143 17.6113 33.2262 16.8167C33.7323 16.4193 35.1724 13.221 35.8317 13.221C35.8317 13.7612 37.154 12.8801 36.9517 13.3328C35.6308 16.2887 34.2403 19.1833 32.6334 21.8772C29.234 27.5763 25.663 33.0789 22.052 38.536C19.3753 42.5811 16.8205 47.1595 15.3932 52.2512C14.976 53.7395 14.6164 55.1982 14.4043 56.7714C14.3335 57.2965 13.6954 59.3722 14.2065 58.2488C15.6003 55.1854 18.1719 52.84 20.1895 50.6084C25.5666 44.6613 31.1614 39.0894 36.2924 32.7589C37.3713 31.4278 38.4763 30.1365 39.5888 28.8561C40.0481 28.3274 40.5218 27.6905 41.0804 27.3456C41.4986 27.0874 41.9243 26.8519 42.3248 26.5408C42.895 26.0979 47.2781 21.5818 47.5166 22.0206C47.8638 22.6592 45.5118 26.2752 45.2833 26.6841C42.7444 31.2283 39.9433 35.5127 37.3802 40.0354C34.8335 44.5292 32.8199 49.4114 30.8781 54.4011C29.701 57.4256 28.7136 60.6089 27.4416 63.5628C27.2003 64.1232 28.6397 62.2655 28.3875 62.8091C28.0256 63.5891 28.0511 60.3228 27.6431 61.0246C27.0509 62.0432 26.8245 65.5379 27.4086 64.511C30.8663 58.4325 34.5975 52.6085 38.4103 46.9261C43.2103 39.7725 47.9859 32.6256 52.5272 25.1737C53.8365 23.0252 55.5277 19.8207 57.6283 18.9115C60.0234 17.8749 61.796 15.6825 64.0646 14.3471C64.4003 14.1495 64.7234 14.07 65.0535 13.8841C65.8698 13.4243 64.8459 15.2883 64.7815 15.4166C62.7128 19.5372 60.6488 23.7343 59.0705 28.2387C57.5809 32.4901 56.5916 37.0815 55.7082 41.612C55.0137 45.1736 53.9266 48.6473 53.5161 52.2953C53.2496 54.6636 53.2508 56.9824 53.1782 59.3623C53.1227 61.1819 52.6922 62.968 52.3953 64.7315C52.3095 65.2411 53.2102 65.0022 53.5161 64.1251C57.1976 53.5711 60.4406 44.4246 64.6579 34.2363C67.0766 28.3932 69.5114 22.0049 73.2615 17.4562C74.4749 15.9845 75.8522 14.8149 77.1018 13.399C79.1643 11.062 76.6868 19.8618 78.6359 17.3585C79.1715 16.6706 80.5593 14.3433 81.2553 13.9243C81.3479 13.8686 72.3686 30.0433 79.7526 15.7108C75.8134 25.8279 77.0079 20.3785 76.7749 20.6903C74.8025 23.3289 81.9242 11.6609 80.9174 15.0638C79.8459 18.6851 78.7024 22.2795 77.8105 25.9896C76.8339 30.0524 76.0886 34.2097 75.0581 38.2494C73.8499 42.9856 72.2298 47.5 70.8387 52.1409C70.0901 54.6383 69.5746 57.1991 68.9268 59.7372C68.559 61.178 68.3336 62.7355 67.8719 64.1251C67.8156 64.2947 68.2825 62.9883 68.5312 62.6147C70.3387 59.8984 72.2639 57.3185 74.0444 54.5664C76.7455 50.3915 79.0732 45.9041 81.2553 41.2261C81.9444 39.7488 82.6834 38.3088 83.3403 36.8051C83.7496 35.868 84.0768 34.8837 84.6341 34.0819C87.2549 30.3111 90.0808 26.8242 92.7927 23.1672C93.958 21.5957 94.9848 19.8252 96.3363 18.5256C96.942 17.9432 97.5955 17.522 98.1329 16.8167C98.3399 16.545 99.0948 15.0527 99.3855 15.0527C99.6048 15.0527 97.2671 25.1027 97.0615 25.8793C95.0834 33.3516 93.4655 40.9359 91.9933 48.6129C91.1036 53.2523 90.2513 57.8022 88.9359 62.2619C87.3051 67.7907 94.2874 55.4399 92.7799 61.0246C92.7799 61.0246 92.3342 61.626 92.4077 61.5225C93.1681 60.4517 87.34 65.3399 87.9412 64.1251C90.1981 59.5646 91.3494 66.9442 93.6168 62.3942C97.0781 55.4482 99.8147 47.9832 103.621 41.3143C106.923 35.5299 110.451 30.0739 114.046 24.6114C114.199 24.3797 116.85 20.1475 117.087 20.433C117.235 20.6106 116.824 21.7256 116.807 21.778C115.868 24.7291 114.59 27.4817 113.428 30.2783C108.17 42.9298 103.722 49.915 100.056 63.5628C99.7553 64.6808 100.154 63.0125 99.8519 64.1251C99.3234 66.0697 98.0838 56.3583 95.7576 67C102.992 49.2373 114.116 36.2615 124.652 21.6237C126.083 19.6364 127.351 17.4182 128.806 15.4717C129.189 14.9595 128.785 16.3604 128.765 16.475C126.32 30.2848 124.228 44.2187 121.504 57.9401C121.143 59.7581 120.685 61.588 120.433 63.4416C120.36 63.977 121.007 62.663 121.241 62.2178C125.304 54.4818 129.5 46.8619 134.154 39.7378C138.267 33.4423 142.78 27.5116 147.826 22.5608C149.806 20.6179 151.812 18.7495 153.842 16.9049C154.634 16.1856 154.209 17.2829 154.023 18.1397C152.609 24.6778 150.169 30.9259 148.172 37.1689C146.532 42.2975 144.95 47.4669 143.211 52.5378C142.302 55.1883 141.185 57.5728 140.129 60.101C139.899 60.6509 140.766 59.1729 141.068 58.6898C143.347 55.0465 145.989 51.8806 148.617 48.7011C155.344 40.5624 162.175 32.5848 168.865 24.3909C170.472 22.4235 172.081 20.4566 173.769 18.6138C174.012 18.3478 175.06 16.8828 175.499 17.0593C175.742 17.1567 173.596 22.0924 173.571 22.1529C169.732 31.3498 166.482 41.0089 163.055 50.4872C160.583 57.3249 157.172 67 159.778 64.5102C159.999 63.8186 157.572 65.0105 157.917 64.5102C160.874 60.2181 163.471 60.7521 166.508 56.562C170.549 50.9882 174.757 45.6852 179.249 40.7631C184.387 35.1335 189.957 30.1509 194.8 24.0492C196.036 22.4913 197.455 20.6823 198.047 18.4705C198.109 18.2391 198.113 17.932 198.113 18.3161C198.113 18.9849 198.117 19.654 198.113 20.3227C198.023 34.2431 191.909 46.3188 185.108 56.1981C184.923 56.468 184.269 57.1536 184.235 57.6093C184.192 58.1808 185.041 57.1514 185.356 56.7604C189.019 52.2043 191.909 46.1166 193.943 40.0575C194.804 37.49 195.445 34.83 195.937 32.0974C196.261 30.2957 196.271 29.4991 197.404 28.393C200.836 25.042 204.338 21.7646 207.837 18.5366C210.158 16.3952 212.264 16.0193 214.493 13.719C214.641 13.5665 215.239 14.1721 215.465 14.2169C215.818 14.2869 215.556 13.2074 215.534 13.4541C215.199 17.2948 214.692 21.1635 213.919 24.8871C211.353 37.236 206.883 48.316 202.414 59.5497C202.039 60.4945 200.931 62.1864 200.931 63.3203C200.931 63.52 200.974 62.9209 201.03 62.736C201.283 61.9055 201.778 61.1318 202.184 60.4317C205.064 55.4597 208.403 50.9276 211.669 46.4189C216.158 40.2218 220.82 34.6462 226 29.5176" stroke="#A8DAFD" stroke-width="14" stroke-linecap="round"/>
<rect x="2" y="7" width="229" height="63" rx="18" stroke="black" stroke-width="4"/>
<path d="M61.168 26.472C61.936 26.472 62.432 27.672 62.656 30.072L62.848 32.664C62.848 34.616 62.496 39.704 61.792 47.928H62.08V48.072L62.272 47.928H62.656L68.272 48.36H68.656L71.056 47.64H71.392C71.904 47.96 72.256 48.408 72.448 48.984C72.448 50.2 71.088 50.952 68.368 51.24L63.472 50.76H62.56L60.256 51.384C59.392 51.064 58.96 50.552 58.96 49.848L59.968 33.384V32.664L59.68 27.864C59.68 27.064 60.176 26.6 61.168 26.472ZM78.3726 33.768C79.6526 33.8 81.8126 36.04 84.8526 40.488L84.9486 41.304C84.9486 42.2 82.7566 42.888 78.3726 43.368L78.2286 43.512V43.704C78.9006 46.584 79.6046 48.024 80.3406 48.024H80.9166C81.9406 48.024 83.4926 46.92 85.5726 44.712H85.8606C86.5006 44.712 86.9966 45.176 87.3486 46.104C87.3486 46.872 86.0046 48.2 83.3166 50.088C82.6126 50.504 81.7646 50.808 80.7726 51C78.1806 51 76.3726 48.568 75.3486 43.704C73.8766 43.48 73.1406 42.872 73.1406 41.88C73.1406 41.176 73.6846 40.712 74.7726 40.488V40.68L75.2526 40.488V39.288C75.2526 35.608 76.2926 33.768 78.3726 33.768ZM78.6606 37.224H78.2286L78.0366 39V40.488H78.2286C80.0206 40.424 80.9166 40.232 80.9166 39.912C80.0846 38.664 79.3326 37.768 78.6606 37.224ZM94.8572 21.864C95.7532 22.056 96.2012 22.504 96.2012 23.208L95.9132 25.32V25.944C95.9132 27.352 96.0732 28.84 96.3932 30.408H96.4892C100.201 29.288 102.505 28.728 103.401 28.728C104.329 28.984 104.793 29.448 104.793 30.12C104.793 31.208 103.689 31.752 101.481 31.752L96.4892 33.528C96.4892 37.848 96.9532 43.72 97.8812 51.144C97.6892 52.008 97.2252 52.44 96.4892 52.44H96.3932C95.2732 52.44 94.7132 51 94.7132 48.12C94.2972 45.976 93.9452 41.32 93.6572 34.152H92.7932C89.7852 33.96 88.2812 33.256 88.2812 32.04C88.2812 31.688 88.6172 31.256 89.2892 30.744H89.7692L91.9772 31.32H93.5132L93.0812 25.32C93.0812 23.016 93.6732 21.864 94.8572 21.864ZM108.416 22.584C109.408 22.584 110.048 23.784 110.336 26.184V26.472C110.336 27.56 109.824 28.104 108.8 28.104C107.808 28.104 107.312 27.064 107.312 24.984C107.088 24.984 106.944 24.616 106.88 23.88C107.2 23.016 107.712 22.584 108.416 22.584ZM122.794 31.56C123.658 31.56 124.25 33.016 124.57 35.928C124.25 36.728 123.722 37.128 122.986 37.128C122.474 37.032 121.962 36.44 121.45 35.352L120.586 35.064C119.082 35.064 117.722 36.056 116.506 38.04V38.472C116.506 38.952 118.762 39.752 123.274 40.872C125.162 41.992 126.106 43.352 126.106 44.952C126.106 47.576 123.994 49.816 119.77 51.672L117.994 51.96C115.306 51.672 113.962 50.328 113.962 47.928V47.784C113.962 47.016 114.458 46.568 115.45 46.44C116.218 46.44 116.73 47.24 116.986 48.84L117.37 49.128H118.186C120.01 49.128 121.706 47.88 123.274 45.384V44.76C123.274 43.8 121.178 42.904 116.986 42.072C114.778 41.176 113.674 39.928 113.674 38.328C113.674 36.248 115.418 34.296 118.906 32.472C120.442 32.28 121.738 31.976 122.794 31.56ZM153.687 32.568C155.159 32.568 155.895 33.272 155.895 34.68C156.087 34.68 156.183 34.92 156.183 35.4H156.375L156.183 36.792L156.375 46.488L156.087 54.168C158.967 54.168 160.903 56.28 161.895 60.504C161.895 61.368 161.303 61.864 160.119 61.992C159.575 61.992 158.967 60.792 158.295 58.392C157.655 57.464 156.919 57 156.087 57H155.895C154.871 63.816 153.975 67.224 153.207 67.224C152.279 68.92 150.935 69.768 149.175 69.768C146.583 69.16 145.287 67.864 145.287 65.88V65.592C145.287 62.584 147.431 59.32 151.719 55.8L153.207 54.888L153.399 49.704V48.504H153.207C152.119 49.88 151.079 50.568 150.087 50.568H149.799C147.591 50.568 146.327 48.872 146.007 45.48V44.424C146.007 40.328 147.511 36.776 150.519 33.768C151.447 32.968 152.503 32.568 153.687 32.568ZM148.887 43.8V46.104C149.015 47.16 149.255 47.688 149.607 47.688H150.087C150.983 47.688 152.087 44.392 153.399 37.8V35.4C151.479 35.4 149.975 38.2 148.887 43.8ZM148.119 65.688C148.247 66.488 148.695 66.888 149.463 66.888C150.999 66.888 152.103 64.152 152.775 58.68H152.487C149.575 61.208 148.119 63.544 148.119 65.688ZM166.576 32.904C168.944 32.904 170.736 34.664 171.952 38.184L172.144 39.192C172.144 42.616 170.544 46.12 167.344 49.704C166.064 50.888 164.768 51.48 163.456 51.48C161.536 51.48 160.176 50.376 159.376 48.168C159.088 47.144 158.944 46.248 158.944 45.48V44.904C158.944 39.848 160.784 36.008 164.464 33.384C165.104 33.064 165.808 32.904 166.576 32.904ZM161.776 45.384C161.776 47.56 162.336 48.648 163.456 48.648C165.792 48.648 167.728 45.656 169.264 39.672V38.76C168.72 36.776 167.712 35.784 166.24 35.784C165.664 35.784 165.376 36.184 165.376 36.984C165.376 37.528 164.736 37.96 163.456 38.28C162.336 40.168 161.776 42.536 161.776 45.384Z" fill="black"/>
</svg>
