<svg width="1074" height="549" viewBox="0 0 1074 549" fill="none" xmlns="http://www.w3.org/2000/svg">
<path d="M279.803 374.93L284.084 369.871C284.604 369.257 285.213 368.724 285.892 368.292C288.943 366.351 292.919 366.702 295.581 369.149L323.857 395.133C327.791 398.747 326.3 405.268 321.186 406.814L316.859 408.122C313.348 409.184 312.481 413.756 315.36 416.029C317.447 417.677 317.677 420.757 315.859 422.696L302.335 437.122L298.146 442.567C293.682 448.371 286.775 451.772 279.453 451.772H271.666C266.098 451.772 261.163 455.355 259.44 460.649L256.278 470.361C255.338 473.247 251.959 474.51 249.356 472.949C248.992 472.73 248.659 472.463 248.366 472.156L228.628 451.431C221.114 443.542 221.456 431.046 229.389 423.579C232.484 420.666 234.551 416.828 235.279 412.64L235.719 410.111C237.52 399.757 245.095 391.351 255.206 388.486L261.552 386.688C268.67 384.671 275.025 380.577 279.803 374.93Z" fill="white"/>
<path d="M298.77 174.899L296.91 163.182C295.541 154.559 300.92 146.3 309.36 144.066C310.781 143.69 312.244 143.5 313.714 143.5H314.5L367.119 138.467C369.736 138.217 372 140.274 372 142.903C372 143.299 372.053 143.694 372.157 144.076L375.784 157.373C377.162 162.427 375.833 167.834 372.268 171.673C367.91 176.367 366.973 183.294 369.928 188.977L375.404 199.507C377.121 202.81 378.249 206.388 378.737 210.079L387.315 275.027C388.051 280.601 385.835 286.157 381.465 289.695C379.197 291.531 376.475 292.718 373.587 293.13L324.864 300.091C317.811 301.098 311.5 295.625 311.5 288.5L303.564 228.75C303.19 225.929 303.193 223.071 303.574 220.251L307.061 194.451C307.65 190.089 306.098 185.71 302.892 182.693C300.693 180.623 299.243 177.882 298.77 174.899Z" fill="white"/>
<path d="M321.076 184.22L319.737 174.692L356.355 169.546L357.695 179.074C367.138 191.997 370.168 199.992 370.503 202.374L378.205 262.828C380.102 276.326 379.506 279.649 376.653 280.05L329.127 286.729C324.968 287.314 324.448 276.051 323.667 270.493L315.186 210.149C314.74 206.973 318.445 191.878 321.076 184.22Z" fill="#EAD9D1" stroke="black"/>
<path d="M309.885 171.219L307.988 157.721L362.526 150.056L364.423 163.554C365.048 168 362.607 169.477 361.308 169.659L316.12 176.01C311.757 176.623 310.145 173.071 309.885 171.219Z" fill="#384A59"/>
<path d="M307.988 157.721L309.885 171.219C310.145 173.071 311.757 176.623 316.12 176.01L361.308 169.659C362.607 169.477 365.048 168 364.423 163.554L362.526 150.056L307.558 157.781" stroke="black"/>
<path d="M362.031 150.126C362.035 150.154 362.032 150.295 361.741 150.571C361.464 150.832 361.012 151.131 360.373 151.457C359.101 152.105 357.199 152.803 354.793 153.506C349.989 154.909 343.259 156.307 335.745 157.363C328.232 158.419 321.377 158.93 316.372 158.906C313.866 158.893 311.845 158.746 310.444 158.474C309.74 158.337 309.223 158.174 308.885 157.999C308.529 157.815 308.487 157.679 308.483 157.651C308.479 157.623 308.483 157.481 308.773 157.206C309.05 156.944 309.502 156.645 310.141 156.32C311.413 155.672 313.315 154.974 315.721 154.271C320.525 152.868 327.255 151.469 334.769 150.413C342.283 149.357 349.137 148.846 354.142 148.871C356.648 148.884 358.669 149.03 360.071 149.303C360.775 149.439 361.291 149.602 361.629 149.778C361.985 149.962 362.027 150.097 362.031 150.126Z" fill="#2C3E49" stroke="black"/>
<path d="M370.838 204.756C356.04 210.075 327.883 212.143 315.258 212.568L323.739 272.912C349.682 273.152 370.543 267.953 378.525 265.212L370.838 204.756Z" fill="#6AB872" stroke="black"/>
<path d="M327.422 244.028L326.164 235.076L328.037 234.813L329.295 243.764L327.422 244.028ZM331.286 243.484L330.327 236.655L332.138 236.4L332.286 237.455L332.398 237.439C332.604 236.657 333.215 236.097 334.189 235.96C335.709 235.747 336.658 236.562 336.887 238.193L337.508 242.61L335.697 242.865L335.134 238.857C334.999 237.896 334.53 237.443 333.674 237.563C332.837 237.681 332.412 238.354 332.542 239.278L333.098 243.23L331.286 243.484ZM342.001 242.124C340.146 242.385 338.975 241.702 338.68 240.548L338.67 240.524L340.45 240.274L340.466 240.297C340.668 240.698 341.126 240.944 341.84 240.844C342.534 240.746 342.964 240.382 342.9 239.929L342.899 239.917C342.847 239.551 342.542 239.36 341.825 239.302L340.65 239.221C339.308 239.125 338.573 238.576 338.429 237.553L338.429 237.547C338.248 236.263 339.269 235.246 340.975 235.006C342.768 234.754 343.886 235.508 344.115 236.596L344.118 236.621L342.437 236.857L342.426 236.827C342.276 236.475 341.825 236.19 341.148 236.285C340.522 236.373 340.116 236.727 340.181 237.187L340.182 237.193C340.233 237.559 340.517 237.734 341.246 237.79L342.415 237.872C343.821 237.972 344.54 238.453 344.682 239.464L344.683 239.47C344.873 240.822 343.75 241.878 342.001 242.124ZM348.737 241.177C347.205 241.393 346.287 240.573 346.058 238.948L345.437 234.531L347.249 234.276L347.811 238.278C347.947 239.245 348.384 239.696 349.24 239.576C350.133 239.45 350.532 238.781 350.402 237.856L349.848 233.911L351.659 233.657L352.619 240.486L350.808 240.741L350.66 239.686L350.548 239.702C350.342 240.49 349.711 241.04 348.737 241.177ZM354.499 240.222L353.172 230.781L354.983 230.526L356.31 239.968L354.499 240.222ZM358 231.696C357.442 231.775 356.914 231.394 356.836 230.835C356.756 230.271 357.159 229.759 357.717 229.68C358.275 229.602 358.797 229.984 358.876 230.549C358.955 231.107 358.559 231.618 358 231.696ZM358.196 239.703L357.236 232.873L359.047 232.618L360.007 239.448L358.196 239.703ZM361.831 239.192L360.871 232.362L362.682 232.107L362.83 233.162L362.942 233.146C363.149 232.365 363.759 231.804 364.733 231.667C366.253 231.454 367.203 232.269 367.432 233.901L368.053 238.317L366.241 238.572L365.678 234.565C365.543 233.603 365.074 233.15 364.218 233.271C363.381 233.388 362.957 234.061 363.087 234.986L363.642 238.937L361.831 239.192Z" fill="white"/>
<path d="M135.5 94.5L126.284 73.1346C125.229 70.6889 125.928 67.8401 127.995 66.1605C130.501 64.1245 134.173 64.4588 136.27 66.9139L153 86.5L169.219 101.998C173.389 105.983 177.036 110.483 180.07 115.388L242 215.5L256.342 233.319C257.776 235.1 259.41 236.711 261.212 238.119L261.586 238.411C276.424 250.003 276.712 272.355 262.177 284.325L259.24 286.744C242.978 300.136 218.32 290.803 215 270L208.167 245.545C206.398 239.215 203.721 233.175 200.219 227.613L171.5 182L146 126L135.5 94.5Z" fill="white"/>
<path d="M147.664 99.231L164.664 114.154L151.493 121.608L146.545 99.6982L131.614 70L132.707 70.3132L147.664 99.231Z" fill="#B3B3B3" stroke="black"/>
<rect x="254.014" y="265.86" width="13.3122" height="24.1907" transform="rotate(150 254.014 265.86)" fill="#5B6670" stroke="black"/>
<path d="M268.771 263.564C269.044 264.018 269.018 264.771 268.451 265.894C267.898 266.991 266.895 268.304 265.496 269.749C262.704 272.633 258.42 275.961 253.303 279.035C248.187 282.109 243.237 284.33 239.38 285.441C237.447 285.997 235.817 286.267 234.589 286.241C233.332 286.213 232.655 285.883 232.382 285.429C232.109 284.974 232.135 284.221 232.701 283.098C233.254 282.002 234.258 280.689 235.656 279.244C238.448 276.359 242.733 273.032 247.849 269.957C252.965 266.883 257.915 264.663 261.773 263.552C263.705 262.995 265.335 262.726 266.563 262.752C267.821 262.779 268.498 263.11 268.771 263.564Z" fill="#4A565E" stroke="black"/>
<path d="M256.305 241.075C256.578 241.529 256.551 242.282 255.985 243.405C255.432 244.501 254.428 245.814 253.03 247.259C250.238 250.144 245.954 253.472 240.837 256.546C235.721 259.62 230.771 261.841 226.914 262.952C224.981 263.508 223.351 263.778 222.123 263.751C220.866 263.724 220.188 263.394 219.915 262.939C219.642 262.485 219.669 261.732 220.235 260.609C220.788 259.513 221.792 258.2 223.19 256.755C225.982 253.87 230.266 250.542 235.383 247.468C240.499 244.394 245.449 242.173 249.306 241.062C251.239 240.506 252.869 240.236 254.097 240.263C255.354 240.29 256.032 240.62 256.305 241.075Z" fill="#4A565E" stroke="black"/>
<path d="M168.2 116.941L243.213 242.877L227.022 252.618L152.555 126.839C149.438 121.216 152.197 119.84 153.837 118.931L161.802 114.516C165.508 112.584 167.291 115.302 168.2 116.941Z" fill="#EBF9FF" stroke="black"/>
<rect x="194.978" y="162" width="6.85871" height="8.1408" transform="rotate(59 194.978 162)" fill="#5B6670"/>
<rect x="202.978" y="175" width="6.85871" height="8.1408" transform="rotate(59 202.978 175)" fill="#5B6670"/>
<rect x="209.978" y="188" width="6.85871" height="8.1408" transform="rotate(59 209.978 188)" fill="#5B6670"/>
<rect x="217.978" y="201" width="6.85871" height="8.1408" transform="rotate(59 217.978 201)" fill="#5B6670"/>
<rect x="224.978" y="213" width="6.85871" height="8.1408" transform="rotate(59 224.978 213)" fill="#5B6670"/>
<rect x="231.978" y="225" width="6.85871" height="8.1408" transform="rotate(59 231.978 225)" fill="#5B6670"/>
<rect x="186.978" y="149" width="6.85871" height="8.1408" transform="rotate(59 186.978 149)" fill="#5B6670"/>
<path d="M399 442.5V439.964C399 429.355 405.28 419.752 415 415.5L454.738 394.103C458.544 392.053 462.708 390.755 467.004 390.277L473.295 389.578C476.744 389.195 480.232 389.346 483.635 390.027L497.102 392.72C502.931 393.886 508.347 396.571 512.804 400.503L519.29 406.226C521.747 408.395 523.838 410.945 525.483 413.78L531.759 424.602C535.128 430.41 534.083 437.768 529.231 442.409C527.126 444.423 525.674 447.023 525.063 449.872L523.969 454.976C522.412 462.245 517.577 468.383 510.875 471.6C509.627 472.199 508.434 472.904 507.307 473.709L506.251 474.463C503.434 476.476 500.323 478.042 497.029 479.108L488.538 481.855C486.186 482.616 483.926 483.633 481.796 484.888L464.925 494.83C459.737 497.887 453.824 499.5 447.801 499.5H434.174C427.852 499.5 421.658 497.723 416.297 494.373L411.118 491.136C409.377 490.048 407.754 488.784 406.273 487.362C399.776 481.125 396.447 472.285 397.216 463.312L399 442.5Z" fill="white"/>
<path d="M422.586 424.353C403.922 424.308 403.602 438.126 405.775 445.041C399.487 450.237 402.336 457.118 404.547 459.908C401.61 476.385 413.199 480.768 419.36 480.9C427.827 493.662 439.156 489.264 443.763 485.47C457.539 491.434 466.82 483.315 469.738 478.51C486.005 482.709 494.25 472.399 496.34 466.719C513.993 466.268 517.548 452.03 517.118 444.968C524.591 436.822 520.109 429.172 516.934 426.365C516.187 412.522 504.208 409.752 498.312 410.097C490.962 401.095 480.866 404.532 476.736 407.375C462.084 399.781 449.517 407.308 445.066 412.021C431.916 411.266 424.601 419.928 422.586 424.353Z" stroke="black" stroke-width="6"/>
<path d="M505 444C507.167 447.333 505.6 458 494 456" stroke="black" stroke-width="3" stroke-linecap="round"/>
<path d="M451.5 419.5C452.188 415.585 467.38 408.625 474.5 418" stroke="black" stroke-width="3" stroke-linecap="round"/>
<path d="M426.132 471.073C422.275 472.036 411.464 466.39 417.132 456.072" stroke="black" stroke-width="3" stroke-linecap="round"/>
<path d="M462 462.5C467 475.5 459.479 482.194 449.064 476.708" stroke="black" stroke-width="3" stroke-linecap="round"/>
<path d="M147.007 145.511C139.904 145.511 129.261 140.673 122.795 137.799C114.665 134.186 112.818 133.019 104 130.5C89.9342 126.481 94.8969 127.632 81 123" stroke="#5B6670" stroke-width="3" stroke-linecap="round"/>
<path d="M711.723 516.626C712.267 516.626 712.618 517.476 712.777 519.176L712.913 521.012C712.913 522.395 712.663 525.999 712.165 531.824H712.369V531.926L712.505 531.824H712.777L716.755 532.13H717.027L718.727 531.62H718.965C719.327 531.847 719.577 532.164 719.713 532.572C719.713 533.433 718.749 533.966 716.823 534.17L713.355 533.83H712.709L711.077 534.272C710.465 534.045 710.159 533.683 710.159 533.184L710.873 521.522V521.012L710.669 517.612C710.669 517.045 711.02 516.717 711.723 516.626ZM727.207 520.876C728.204 520.876 728.703 521.273 728.703 522.066L728.397 522.712L728.193 528.934C728.193 531.745 728.76 533.49 729.893 534.17L729.961 534.68C729.893 535.337 729.587 535.666 729.043 535.666H728.839C727.139 534.51 726.289 532.742 726.289 530.362H726.051C725.144 532.901 724.045 534.17 722.753 534.17C721.552 533.83 720.951 532.935 720.951 531.484C720.951 528.288 722.232 525.103 724.793 521.93C725.654 521.227 726.459 520.876 727.207 520.876ZM723.093 530.124L722.957 531.076V531.722H723.297C724.997 527.483 725.847 524.899 725.847 523.97H725.711C724.396 525.443 723.524 527.495 723.093 530.124ZM735.197 522.542C737.124 522.701 738.087 523.641 738.087 525.364L738.155 525.806L738.087 531.11C738.087 531.722 738.438 532.549 739.141 533.592V533.66C738.96 534.317 738.631 534.646 738.155 534.646C736.75 534.057 736.047 532.81 736.047 530.906V530.464L735.945 530.396L736.047 530.26V530.192L736.149 525.5C736.149 524.843 735.866 524.514 735.299 524.514H734.891C733.758 524.967 733.191 527.449 733.191 531.96C733.191 533.524 732.794 534.306 732.001 534.306C731.389 534.306 731.072 533.921 731.049 533.15V529.75C731.049 525.353 731.434 523.154 732.205 523.154L732.545 523.052L733.259 523.154C733.871 522.746 734.517 522.542 735.197 522.542ZM743.675 522.474L745.069 522.27C745.635 522.27 745.953 522.621 746.021 523.324C746.021 523.936 745.284 524.333 743.811 524.514C742.881 525.239 742.417 526.169 742.417 527.302V528.424C742.87 530.917 743.641 532.164 744.729 532.164H745.069C745.703 532.164 746.655 531.563 747.925 530.362H748.129C748.582 530.362 748.945 530.679 749.217 531.314C748.899 532.289 747.879 533.173 746.157 533.966C745.839 534.102 745.443 534.17 744.967 534.17C742.632 534.17 741.113 532.334 740.411 528.662V527.914C740.411 525.262 741.499 523.449 743.675 522.474ZM753.991 521.794C754.898 521.817 756.428 523.403 758.581 526.554L758.649 527.132C758.649 527.767 757.096 528.254 753.991 528.594L753.889 528.696V528.832C754.365 530.872 754.864 531.892 755.385 531.892H755.793C756.518 531.892 757.618 531.11 759.091 529.546H759.295C759.748 529.546 760.1 529.875 760.349 530.532C760.349 531.076 759.397 532.017 757.493 533.354C756.994 533.649 756.394 533.864 755.691 534C753.855 534 752.574 532.277 751.849 528.832C750.806 528.673 750.285 528.243 750.285 527.54C750.285 527.041 750.67 526.713 751.441 526.554V526.69L751.781 526.554V525.704C751.781 523.097 752.518 521.794 753.991 521.794ZM754.195 524.242H753.889L753.753 525.5V526.554H753.889C755.158 526.509 755.793 526.373 755.793 526.146C755.204 525.262 754.671 524.627 754.195 524.242ZM765.668 513.362C766.302 513.498 766.62 513.815 766.62 514.314L766.416 515.81V516.252C766.416 517.249 766.529 518.303 766.756 519.414H766.824C769.453 518.621 771.085 518.224 771.72 518.224C772.377 518.405 772.706 518.734 772.706 519.21C772.706 519.981 771.924 520.366 770.36 520.366L766.824 521.624C766.824 524.684 767.152 528.843 767.81 534.102C767.674 534.714 767.345 535.02 766.824 535.02H766.756C765.962 535.02 765.566 534 765.566 531.96C765.271 530.441 765.022 527.143 764.818 522.066H764.206C762.075 521.93 761.01 521.431 761.01 520.57C761.01 520.321 761.248 520.015 761.724 519.652H762.064L763.628 520.06H764.716L764.41 515.81C764.41 514.178 764.829 513.362 765.668 513.362ZM780.576 520.23C781.188 520.23 781.607 521.261 781.834 523.324C781.607 523.891 781.233 524.174 780.712 524.174C780.349 524.106 779.986 523.687 779.624 522.916L779.012 522.712C777.946 522.712 776.983 523.415 776.122 524.82V525.126C776.122 525.466 777.72 526.033 780.916 526.826C782.253 527.619 782.922 528.583 782.922 529.716C782.922 531.575 781.426 533.161 778.434 534.476L777.176 534.68C775.272 534.476 774.32 533.524 774.32 531.824V531.722C774.32 531.178 774.671 530.861 775.374 530.77C775.918 530.77 776.28 531.337 776.462 532.47L776.734 532.674H777.312C778.604 532.674 779.805 531.79 780.916 530.022V529.58C780.916 528.9 779.431 528.265 776.462 527.676C774.898 527.041 774.116 526.157 774.116 525.024C774.116 523.551 775.351 522.168 777.822 520.876C778.91 520.74 779.828 520.525 780.576 520.23Z" fill="black"/>
<path d="M866.871 72.466C867.234 72.466 867.562 72.8173 867.857 73.52C867.857 74.064 867.03 74.5173 865.375 74.88C863.29 76.036 861.669 78.0533 860.513 80.932C859.38 83.8107 858.813 86.6553 858.813 89.466C858.813 93.9767 860.264 96.878 863.165 98.17L864.253 98.374C866.678 98.374 868.401 96.2547 869.421 92.016L869.557 90.622C869.557 88.8087 868.945 87.29 867.721 86.066H867.517C867.041 86.61 866.089 88.5253 864.661 91.812L863.913 92.322C863.278 92.322 862.916 91.9367 862.825 91.166C864.978 86.066 866.44 83.516 867.211 83.516H867.415C870.18 85.1253 871.563 87.494 871.563 90.622C871.563 94.158 870.112 97.1047 867.211 99.462C866.735 99.87 865.772 100.176 864.321 100.38C861.578 100.38 859.312 98.3967 857.521 94.43C857.045 92.73 856.807 91.1773 856.807 89.772V89.262C856.807 84.4113 858.36 79.8327 861.465 75.526C863.482 73.486 865.284 72.466 866.871 72.466ZM875.047 79.266C875.682 79.4927 875.999 79.844 875.999 80.32L876.339 93.274V97.456C876.339 98.2267 876.01 98.612 875.353 98.612H874.911C874.503 98.34 874.299 98.0227 874.299 97.66V93.716L873.993 80.252C873.993 79.6853 874.344 79.3567 875.047 79.266ZM880.147 87.766L880.759 87.426C881.303 87.426 881.699 87.7547 881.949 88.412C881.586 90.0893 881.405 91.812 881.405 93.58C881.405 94.464 881.665 95.4273 882.187 96.47H882.391C883.048 96.47 883.83 93.8747 884.737 88.684C885.054 88.412 885.36 88.276 885.655 88.276C886.357 88.276 886.709 89.5227 886.709 92.016C887.003 94.7587 887.332 96.13 887.695 96.13L888.205 95.926C888.862 96.1753 889.191 96.5267 889.191 96.98C888.783 97.8413 888.216 98.272 887.491 98.272C886.675 98.272 885.893 97.456 885.145 95.824C884.238 97.728 883.32 98.68 882.391 98.68C881.008 98.68 880.045 97.2407 879.501 94.362L879.399 93.274V92.934C879.399 91.1207 879.648 89.398 880.147 87.766ZM893.378 86.474L894.772 86.27C895.338 86.27 895.656 86.6213 895.724 87.324C895.724 87.936 894.987 88.3327 893.514 88.514C892.584 89.2393 892.12 90.1687 892.12 91.302V92.424C892.573 94.9173 893.344 96.164 894.432 96.164H894.772C895.406 96.164 896.358 95.5633 897.628 94.362H897.832C898.285 94.362 898.648 94.6793 898.92 95.314C898.602 96.2887 897.582 97.1727 895.86 97.966C895.542 98.102 895.146 98.17 894.67 98.17C892.335 98.17 890.816 96.334 890.114 92.662V91.914C890.114 89.262 891.202 87.4487 893.378 86.474ZM906.074 85.182C907.752 85.182 909.021 86.4287 909.882 88.922L910.018 89.636C910.018 92.0613 908.885 94.5433 906.618 97.082C905.712 97.9207 904.794 98.34 903.864 98.34C902.504 98.34 901.541 97.558 900.974 95.994C900.77 95.2687 900.668 94.634 900.668 94.09V93.682C900.668 90.1007 901.972 87.3807 904.578 85.522C905.032 85.2953 905.53 85.182 906.074 85.182ZM902.674 94.022C902.674 95.5633 903.071 96.334 903.864 96.334C905.519 96.334 906.89 94.2147 907.978 89.976V89.33C907.593 87.9247 906.879 87.222 905.836 87.222C905.428 87.222 905.224 87.5053 905.224 88.072C905.224 88.4573 904.771 88.7633 903.864 88.99C903.071 90.3273 902.674 92.0047 902.674 94.022ZM912.069 86.1C912.228 85.5333 912.59 85.25 913.157 85.25C913.724 85.25 914.098 85.8167 914.279 86.95H914.415L915.979 86.61C916.704 86.61 917.407 87.29 918.087 88.65H918.223C919.22 87.086 920.24 86.304 921.283 86.304C923.504 86.712 924.615 88.1627 924.615 90.656L924.683 91.846L924.377 98.714V99.36C924.377 99.9267 924.026 100.255 923.323 100.346C922.62 100.346 922.269 99.5187 922.269 97.864L922.677 91.71C922.677 89.4433 922.144 88.31 921.079 88.31C920.467 88.31 919.73 89.7947 918.869 92.764C918.438 96.164 918.087 97.864 917.815 97.864C917.43 97.864 917.237 97.9433 917.237 98.102C916.534 98.0113 916.183 97.6487 916.183 97.014L916.625 92.9C916.557 90.0667 916.274 88.65 915.775 88.65H915.673C915.106 89.0807 914.823 89.9307 914.823 91.2V93.002L914.687 98.204C914.528 98.7707 914.177 99.054 913.633 99.054C913.157 99.054 912.851 98.6573 912.715 97.864L912.579 93.852L912.783 90.554C912.647 88.854 912.409 87.3693 912.069 86.1ZM929.626 85.794C930.533 85.8167 932.063 87.4033 934.216 90.554L934.284 91.132C934.284 91.7667 932.731 92.254 929.626 92.594L929.524 92.696V92.832C930 94.872 930.499 95.892 931.02 95.892H931.428C932.153 95.892 933.253 95.11 934.726 93.546H934.93C935.383 93.546 935.735 93.8747 935.984 94.532C935.984 95.076 935.032 96.0167 933.128 97.354C932.629 97.6487 932.029 97.864 931.326 98C929.49 98 928.209 96.2773 927.484 92.832C926.441 92.6733 925.92 92.2427 925.92 91.54C925.92 91.0413 926.305 90.7127 927.076 90.554V90.69L927.416 90.554V89.704C927.416 87.0973 928.153 85.794 929.626 85.794ZM929.83 88.242H929.524L929.388 89.5V90.554H929.524C930.793 90.5087 931.428 90.3727 931.428 90.146C930.839 89.262 930.306 88.6273 929.83 88.242ZM941.303 77.362C941.937 77.498 942.255 77.8153 942.255 78.314L942.051 79.81V80.252C942.051 81.2493 942.164 82.3033 942.391 83.414H942.459C945.088 82.6207 946.72 82.224 947.355 82.224C948.012 82.4053 948.341 82.734 948.341 83.21C948.341 83.9807 947.559 84.366 945.995 84.366L942.459 85.624C942.459 88.684 942.787 92.8433 943.445 98.102C943.309 98.714 942.98 99.02 942.459 99.02H942.391C941.597 99.02 941.201 98 941.201 95.96C940.906 94.4413 940.657 91.1433 940.453 86.066H939.841C937.71 85.93 936.645 85.4313 936.645 84.57C936.645 84.3207 936.883 84.0147 937.359 83.652H937.699L939.263 84.06H940.351L940.045 79.81C940.045 78.178 940.464 77.362 941.303 77.362ZM952.436 85.794C953.343 85.8167 954.873 87.4033 957.026 90.554L957.094 91.132C957.094 91.7667 955.542 92.254 952.436 92.594L952.334 92.696V92.832C952.81 94.872 953.309 95.892 953.83 95.892H954.238C954.964 95.892 956.063 95.11 957.536 93.546H957.74C958.194 93.546 958.545 93.8747 958.794 94.532C958.794 95.076 957.842 96.0167 955.938 97.354C955.44 97.6487 954.839 97.864 954.136 98C952.3 98 951.02 96.2773 950.294 92.832C949.252 92.6733 948.73 92.2427 948.73 91.54C948.73 91.0413 949.116 90.7127 949.886 90.554V90.69L950.226 90.554V89.704C950.226 87.0973 950.963 85.794 952.436 85.794ZM952.64 88.242H952.334L952.198 89.5V90.554H952.334C953.604 90.5087 954.238 90.3727 954.238 90.146C953.649 89.262 953.116 88.6273 952.64 88.242ZM964.589 84.604C966.017 84.604 966.867 85.6013 967.139 87.596V87.902C967.139 90.1007 966.006 92.118 963.739 93.954C965.054 95.246 967.354 95.892 970.641 95.892C971.14 96.0507 971.389 96.402 971.389 96.946C971.389 97.558 970.992 97.864 970.199 97.864C967.978 97.864 965.643 97.2973 963.195 96.164V97.15C963.195 99.4847 962.696 100.652 961.699 100.652C960.996 100.652 960.645 99.3033 960.645 96.606V93.954L960.543 93.002L960.781 91.914L960.543 88.65V88.514C960.543 87.902 960.86 87.4827 961.495 87.256C962.379 85.488 963.41 84.604 964.589 84.604ZM962.889 92.05C963.546 92.05 964.283 90.8713 965.099 88.514V87.052L964.691 86.61H964.385C963.388 87.29 962.889 89.1033 962.889 92.05Z" fill="black"/>
<path d="M532.846 17.062C533.64 17.062 534.036 18.4447 534.036 21.21L534.24 26.514H534.308L539.748 24.406C540.292 19.782 540.791 17.47 541.244 17.47L541.686 17.402C542.072 17.402 542.423 17.708 542.74 18.32C541.947 22.2187 541.55 25.596 541.55 28.452V29.914C541.55 31.9993 542.049 33.9827 543.046 35.864C542.82 36.4987 542.457 36.816 541.958 36.816C540.87 36.816 540.066 34.6173 539.544 30.22V26.752H539.34C535.94 27.9533 534.24 28.724 534.24 29.064C534.24 34.4587 533.742 37.156 532.744 37.156H532.608C532.132 37.156 531.826 36.7593 531.69 35.966C532.03 33.4953 532.2 31.58 532.2 30.22L530.704 31.002L530.398 31.07C529.832 30.866 529.548 30.5147 529.548 30.016C529.548 29.5173 530.432 28.7353 532.2 27.67V27.602C532.132 23.7033 531.985 20.4733 531.758 17.912C531.758 17.4133 532.121 17.13 532.846 17.062ZM550.828 22.876C551.826 22.876 552.324 23.2727 552.324 24.066L552.018 24.712L551.814 30.934C551.814 33.7447 552.381 35.49 553.514 36.17L553.582 36.68C553.514 37.3373 553.208 37.666 552.664 37.666H552.46C550.76 36.51 549.91 34.742 549.91 32.362H549.672C548.766 34.9007 547.666 36.17 546.374 36.17C545.173 35.83 544.572 34.9347 544.572 33.484C544.572 30.288 545.853 27.1033 548.414 23.93C549.276 23.2273 550.08 22.876 550.828 22.876ZM546.714 32.124L546.578 33.076V33.722H546.918C548.618 29.4833 549.468 26.8993 549.468 25.97H549.332C548.018 27.4433 547.145 29.4947 546.714 32.124ZM558.818 24.542C560.745 24.7007 561.708 25.6413 561.708 27.364L561.776 27.806L561.708 33.11C561.708 33.722 562.059 34.5493 562.762 35.592V35.66C562.581 36.3173 562.252 36.646 561.776 36.646C560.371 36.0567 559.668 34.81 559.668 32.906V32.464L559.566 32.396L559.668 32.26V32.192L559.77 27.5C559.77 26.8427 559.487 26.514 558.92 26.514H558.512C557.379 26.9673 556.812 29.4493 556.812 33.96C556.812 35.524 556.415 36.306 555.622 36.306C555.01 36.306 554.693 35.9207 554.67 35.15V31.75C554.67 27.3527 555.055 25.154 555.826 25.154L556.166 25.052L556.88 25.154C557.492 24.746 558.138 24.542 558.818 24.542ZM571.818 17.334C572.203 17.334 572.554 17.6967 572.872 18.422L571.376 27.874V30.526C571.376 33.2913 571.806 34.674 572.668 34.674C573.234 34.946 573.518 35.3087 573.518 35.762C573.518 36.2833 573.064 36.5893 572.158 36.68C571.16 36.68 570.378 35.762 569.812 33.926H569.472C568.633 35.762 567.613 36.68 566.412 36.68C565.006 36.68 564.156 35.6147 563.862 33.484C563.862 31.0133 565.516 28.3953 568.826 25.63C569.483 25.63 569.812 24.712 569.812 22.876C570.31 19.1813 570.979 17.334 571.818 17.334ZM565.868 33.212V34.13L566.412 34.674H566.616C567.341 34.674 568.191 32.4867 569.166 28.112H568.962C566.899 30.1747 565.868 31.8747 565.868 33.212ZM594.369 22.23C594.981 22.23 595.4 23.2613 595.627 25.324C595.4 25.8907 595.026 26.174 594.505 26.174C594.142 26.106 593.779 25.6867 593.417 24.916L592.805 24.712C591.739 24.712 590.776 25.4147 589.915 26.82V27.126C589.915 27.466 591.513 28.0327 594.709 28.826C596.046 29.6193 596.715 30.5827 596.715 31.716C596.715 33.5747 595.219 35.1613 592.227 36.476L590.969 36.68C589.065 36.476 588.113 35.524 588.113 33.824V33.722C588.113 33.178 588.464 32.8607 589.167 32.77C589.711 32.77 590.073 33.3367 590.255 34.47L590.527 34.674H591.105C592.397 34.674 593.598 33.79 594.709 32.022V31.58C594.709 30.9 593.224 30.2653 590.255 29.676C588.691 29.0413 587.909 28.1573 587.909 27.024C587.909 25.5507 589.144 24.168 591.615 22.876C592.703 22.74 593.621 22.5247 594.369 22.23ZM604.318 22.876C605.316 22.876 605.814 23.2727 605.814 24.066L605.508 24.712L605.304 30.934C605.304 33.7447 605.871 35.49 607.004 36.17L607.072 36.68C607.004 37.3373 606.698 37.666 606.154 37.666H605.95C604.25 36.51 603.4 34.742 603.4 32.362H603.162C602.256 34.9007 601.156 36.17 599.864 36.17C598.663 35.83 598.062 34.9347 598.062 33.484C598.062 30.288 599.343 27.1033 601.904 23.93C602.766 23.2273 603.57 22.876 604.318 22.876ZM600.204 32.124L600.068 33.076V33.722H600.408C602.108 29.4833 602.958 26.8993 602.958 25.97H602.822C601.508 27.4433 600.635 29.4947 600.204 32.124ZM612.308 24.542C614.235 24.7007 615.198 25.6413 615.198 27.364L615.266 27.806L615.198 33.11C615.198 33.722 615.55 34.5493 616.252 35.592V35.66C616.071 36.3173 615.742 36.646 615.266 36.646C613.861 36.0567 613.158 34.81 613.158 32.906V32.464L613.056 32.396L613.158 32.26V32.192L613.26 27.5C613.26 26.8427 612.977 26.514 612.41 26.514H612.002C610.869 26.9673 610.302 29.4493 610.302 33.96C610.302 35.524 609.906 36.306 609.112 36.306C608.5 36.306 608.183 35.9207 608.16 35.15V31.75C608.16 27.3527 608.546 25.154 609.316 25.154L609.656 25.052L610.37 25.154C610.982 24.746 611.628 24.542 612.308 24.542ZM617.726 18.286C618.587 18.4673 619.018 18.8527 619.018 19.442C618.791 20.0767 618.429 20.394 617.93 20.394C617.091 20.2353 616.672 19.816 616.672 19.136C616.899 18.5693 617.25 18.286 617.726 18.286ZM619.018 23.046C619.381 23.046 619.687 23.3747 619.936 24.032L619.63 26.446V28.044C619.63 29.9027 619.947 32.3393 620.582 35.354C620.355 35.7847 619.97 36 619.426 36C618.497 36 617.885 33.28 617.59 27.84V26.65C617.59 24.2473 618.066 23.046 619.018 23.046ZM626.344 15.362C626.978 15.498 627.296 15.8153 627.296 16.314L627.092 17.81V18.252C627.092 19.2493 627.205 20.3033 627.432 21.414H627.5C630.129 20.6207 631.761 20.224 632.396 20.224C633.053 20.4053 633.382 20.734 633.382 21.21C633.382 21.9807 632.6 22.366 631.036 22.366L627.5 23.624C627.5 26.684 627.828 30.8433 628.486 36.102C628.35 36.714 628.021 37.02 627.5 37.02H627.432C626.638 37.02 626.242 36 626.242 33.96C625.947 32.4413 625.698 29.1433 625.494 24.066H624.882C622.751 23.93 621.686 23.4313 621.686 22.57C621.686 22.3207 621.924 22.0147 622.4 21.652H622.74L624.304 22.06H625.392L625.086 17.81C625.086 16.178 625.505 15.362 626.344 15.362ZM634.825 18.286C635.687 18.4673 636.117 18.8527 636.117 19.442C635.891 20.0767 635.528 20.394 635.029 20.394C634.191 20.2353 633.771 19.816 633.771 19.136C633.998 18.5693 634.349 18.286 634.825 18.286ZM636.117 23.046C636.48 23.046 636.786 23.3747 637.035 24.032L636.729 26.446V28.044C636.729 29.9027 637.047 32.3393 637.681 35.354C637.455 35.7847 637.069 36 636.525 36C635.596 36 634.984 33.28 634.689 27.84V26.65C634.689 24.2473 635.165 23.046 636.117 23.046ZM644.633 25.732C645.064 25.732 645.381 26.0493 645.585 26.684C643.568 31.8067 642.502 34.64 642.389 35.184L642.525 35.286H643.579C644.667 35.286 646.152 34.7873 648.033 33.79C648.668 33.79 648.985 34.1867 648.985 34.98C647.716 36.544 645.732 37.326 643.035 37.326L641.471 37.122C640.95 37.462 640.587 37.632 640.383 37.632C639.68 37.632 639.329 36.986 639.329 35.694C639.329 35.422 639.714 35.0027 640.485 34.436L642.831 28.18V28.044H642.729L639.839 28.282C639.068 28.1233 638.683 27.738 638.683 27.126C638.683 26.5593 639 26.276 639.635 26.276C640.859 26.276 642.525 26.0947 644.633 25.732ZM653.083 23.794C653.99 23.8167 655.52 25.4033 657.673 28.554L657.741 29.132C657.741 29.7667 656.188 30.254 653.083 30.594L652.981 30.696V30.832C653.457 32.872 653.956 33.892 654.477 33.892H654.885C655.61 33.892 656.71 33.11 658.183 31.546H658.387C658.84 31.546 659.192 31.8747 659.441 32.532C659.441 33.076 658.489 34.0167 656.585 35.354C656.086 35.6487 655.486 35.864 654.783 36C652.947 36 651.666 34.2773 650.941 30.832C649.898 30.6733 649.377 30.2427 649.377 29.54C649.377 29.0413 649.762 28.7127 650.533 28.554V28.69L650.873 28.554V27.704C650.873 25.0973 651.61 23.794 653.083 23.794ZM653.287 26.242H652.981L652.845 27.5V28.554H652.981C654.25 28.5087 654.885 28.3727 654.885 28.146C654.296 27.262 653.763 26.6273 653.287 26.242ZM665.236 22.604C666.664 22.604 667.514 23.6013 667.786 25.596V25.902C667.786 28.1007 666.652 30.118 664.386 31.954C665.7 33.246 668.001 33.892 671.288 33.892C671.786 34.0507 672.036 34.402 672.036 34.946C672.036 35.558 671.639 35.864 670.846 35.864C668.624 35.864 666.29 35.2973 663.842 34.164V35.15C663.842 37.4847 663.343 38.652 662.346 38.652C661.643 38.652 661.292 37.3033 661.292 34.606V31.954L661.19 31.002L661.428 29.914L661.19 26.65V26.514C661.19 25.902 661.507 25.4827 662.142 25.256C663.026 23.488 664.057 22.604 665.236 22.604ZM663.536 30.05C664.193 30.05 664.93 28.8713 665.746 26.514V25.052L665.338 24.61H665.032C664.034 25.29 663.536 27.1033 663.536 30.05Z" fill="black"/>
<path d="M329.689 82.164C330.233 82.164 330.585 82.4473 330.743 83.014L330.539 85.02V85.666C331.106 90.358 331.457 94.0073 331.593 96.614C331.843 99.0393 332.103 100.252 332.375 100.252C332.375 100.728 331.979 101.034 331.185 101.17C330.052 101.17 329.485 98.8807 329.485 94.302L328.533 85.462V85.156C328.533 83.1613 328.919 82.164 329.689 82.164ZM338.521 89.542C340.448 89.7007 341.411 90.6413 341.411 92.364L341.479 92.806L341.411 98.11C341.411 98.722 341.762 99.5493 342.465 100.592V100.66C342.284 101.317 341.955 101.646 341.479 101.646C340.074 101.057 339.371 99.81 339.371 97.906V97.464L339.269 97.396L339.371 97.26V97.192L339.473 92.5C339.473 91.8427 339.19 91.514 338.623 91.514H338.215C337.082 91.9673 336.515 94.4493 336.515 98.96C336.515 100.524 336.118 101.306 335.325 101.306C334.713 101.306 334.396 100.921 334.373 100.15V96.75C334.373 92.3527 334.758 90.154 335.529 90.154L335.869 90.052L336.583 90.154C337.195 89.746 337.841 89.542 338.521 89.542ZM350.365 87.23C350.977 87.23 351.396 88.2613 351.623 90.324C351.396 90.8907 351.022 91.174 350.501 91.174C350.138 91.106 349.775 90.6867 349.413 89.916L348.801 89.712C347.735 89.712 346.772 90.4147 345.911 91.82V92.126C345.911 92.466 347.509 93.0327 350.705 93.826C352.042 94.6193 352.711 95.5827 352.711 96.716C352.711 98.5747 351.215 100.161 348.223 101.476L346.965 101.68C345.061 101.476 344.109 100.524 344.109 98.824V98.722C344.109 98.178 344.46 97.8607 345.163 97.77C345.707 97.77 346.069 98.3367 346.251 99.47L346.523 99.674H347.101C348.393 99.674 349.594 98.79 350.705 97.022V96.58C350.705 95.9 349.22 95.2653 346.251 94.676C344.687 94.0413 343.905 93.1573 343.905 92.024C343.905 90.5507 345.14 89.168 347.611 87.876C348.699 87.74 349.617 87.5247 350.365 87.23ZM355.317 90.766L355.929 90.426C356.473 90.426 356.869 90.7547 357.119 91.412C356.756 93.0893 356.575 94.812 356.575 96.58C356.575 97.464 356.835 98.4273 357.357 99.47H357.561C358.218 99.47 359 96.8747 359.907 91.684C360.224 91.412 360.53 91.276 360.825 91.276C361.527 91.276 361.879 92.5227 361.879 95.016C362.173 97.7587 362.502 99.13 362.865 99.13L363.375 98.926C364.032 99.1753 364.361 99.5267 364.361 99.98C363.953 100.841 363.386 101.272 362.661 101.272C361.845 101.272 361.063 100.456 360.315 98.824C359.408 100.728 358.49 101.68 357.561 101.68C356.178 101.68 355.215 100.241 354.671 97.362L354.569 96.274V95.934C354.569 94.1207 354.818 92.398 355.317 90.766ZM367.018 82.266C367.652 82.4927 367.97 82.844 367.97 83.32L368.31 96.274V100.456C368.31 101.227 367.981 101.612 367.324 101.612H366.882C366.474 101.34 366.27 101.023 366.27 100.66V96.716L365.964 83.252C365.964 82.6853 366.315 82.3567 367.018 82.266ZM371.165 83.286C372.027 83.4673 372.457 83.8527 372.457 84.442C372.231 85.0767 371.868 85.394 371.369 85.394C370.531 85.2353 370.111 84.816 370.111 84.136C370.338 83.5693 370.689 83.286 371.165 83.286ZM372.457 88.046C372.82 88.046 373.126 88.3747 373.375 89.032L373.069 91.446V93.044C373.069 94.9027 373.387 97.3393 374.021 100.354C373.795 100.785 373.409 101 372.865 101C371.936 101 371.324 98.28 371.029 92.84V91.65C371.029 89.2473 371.505 88.046 372.457 88.046ZM380.191 89.542C382.118 89.7007 383.081 90.6413 383.081 92.364L383.149 92.806L383.081 98.11C383.081 98.722 383.432 99.5493 384.135 100.592V100.66C383.954 101.317 383.625 101.646 383.149 101.646C381.744 101.057 381.041 99.81 381.041 97.906V97.464L380.939 97.396L381.041 97.26V97.192L381.143 92.5C381.143 91.8427 380.86 91.514 380.293 91.514H379.885C378.752 91.9673 378.185 94.4493 378.185 98.96C378.185 100.524 377.788 101.306 376.995 101.306C376.383 101.306 376.066 100.921 376.043 100.15V96.75C376.043 92.3527 376.428 90.154 377.199 90.154L377.539 90.052L378.253 90.154C378.865 89.746 379.511 89.542 380.191 89.542Z" fill="black"/>
<path d="M18.9744 98.872H19.3144C19.949 98.872 20.3117 99.246 20.4024 99.994C20.4024 100.651 19.507 100.98 17.7164 100.98C14.8377 102.068 12.8997 103.655 11.9024 105.74L11.6644 106.726V106.93C11.6644 107.927 12.333 108.426 13.6704 108.426L17.4104 108.222C19.9264 108.222 21.6264 109.446 22.5104 111.894L22.7144 113.084C22.7144 115.441 20.8104 117.595 17.0024 119.544C15.869 119.861 14.8717 120.077 14.0104 120.19C11.6984 120.19 10.0664 118.887 9.11437 116.28C8.84237 115.396 8.70637 114.501 8.70637 113.594C8.70637 113.322 8.9217 113.039 9.35237 112.744H9.76037C10.463 112.744 10.8144 113.639 10.8144 115.43C11.4037 117.198 12.333 118.082 13.6024 118.082H14.5204C16.3564 118.082 18.1697 117.017 19.9604 114.886C20.4364 114.206 20.6744 113.469 20.6744 112.676C20.6744 111.565 19.8017 110.783 18.0564 110.33H17.9204L13.4664 110.432C10.9957 110.137 9.76037 109.117 9.76037 107.372L9.62437 106.93C9.62437 104.595 11.3697 102.329 14.8604 100.13C16.379 99.2913 17.7504 98.872 18.9744 98.872ZM27.205 106.794C28.1117 106.817 29.6417 108.403 31.795 111.554L31.863 112.132C31.863 112.767 30.3104 113.254 27.205 113.594L27.103 113.696V113.832C27.579 115.872 28.0777 116.892 28.599 116.892H29.007C29.7324 116.892 30.8317 116.11 32.305 114.546H32.509C32.9624 114.546 33.3137 114.875 33.563 115.532C33.563 116.076 32.611 117.017 30.707 118.354C30.2084 118.649 29.6077 118.864 28.905 119C27.069 119 25.7884 117.277 25.063 113.832C24.0204 113.673 23.499 113.243 23.499 112.54C23.499 112.041 23.8844 111.713 24.655 111.554V111.69L24.995 111.554V110.704C24.995 108.097 25.7317 106.794 27.205 106.794ZM27.409 109.242H27.103L26.967 110.5V111.554H27.103C28.3724 111.509 29.007 111.373 29.007 111.146C28.4177 110.262 27.885 109.627 27.409 109.242ZM39.3576 105.604C40.7856 105.604 41.6356 106.601 41.9076 108.596V108.902C41.9076 111.101 40.7743 113.118 38.5076 114.954C39.8223 116.246 42.123 116.892 45.4096 116.892C45.9083 117.051 46.1576 117.402 46.1576 117.946C46.1576 118.558 45.761 118.864 44.9676 118.864C42.7463 118.864 40.4116 118.297 37.9636 117.164V118.15C37.9636 120.485 37.465 121.652 36.4676 121.652C35.765 121.652 35.4136 120.303 35.4136 117.606V114.954L35.3116 114.002L35.5496 112.914L35.3116 109.65V109.514C35.3116 108.902 35.629 108.483 36.2636 108.256C37.1476 106.488 38.179 105.604 39.3576 105.604ZM37.6576 113.05C38.315 113.05 39.0516 111.871 39.8676 109.514V108.052L39.4596 107.61H39.1536C38.1563 108.29 37.6576 110.103 37.6576 113.05ZM47.6956 101.286C48.5569 101.467 48.9876 101.853 48.9876 102.442C48.7609 103.077 48.3983 103.394 47.8996 103.394C47.0609 103.235 46.6416 102.816 46.6416 102.136C46.8683 101.569 47.2196 101.286 47.6956 101.286ZM48.9876 106.046C49.3503 106.046 49.6563 106.375 49.9056 107.032L49.5996 109.446V111.044C49.5996 112.903 49.9169 115.339 50.5516 118.354C50.3249 118.785 49.9396 119 49.3956 119C48.4663 119 47.8543 116.28 47.5596 110.84V109.65C47.5596 107.247 48.0356 106.046 48.9876 106.046ZM56.7213 107.542C58.6479 107.701 59.6113 108.641 59.6113 110.364L59.6793 110.806L59.6113 116.11C59.6113 116.722 59.9626 117.549 60.6653 118.592V118.66C60.4839 119.317 60.1553 119.646 59.6793 119.646C58.2739 119.057 57.5713 117.81 57.5713 115.906V115.464L57.4693 115.396L57.5713 115.26V115.192L57.6733 110.5C57.6733 109.843 57.3899 109.514 56.8233 109.514H56.4153C55.2819 109.967 54.7153 112.449 54.7153 116.96C54.7153 118.524 54.3186 119.306 53.5253 119.306C52.9133 119.306 52.5959 118.921 52.5733 118.15V114.75C52.5733 110.353 52.9586 108.154 53.7293 108.154L54.0693 108.052L54.7833 108.154C55.3953 107.746 56.0413 107.542 56.7213 107.542ZM67.205 105.944C68.2476 105.944 68.769 106.443 68.769 107.44C68.905 107.44 68.973 107.61 68.973 107.95H69.109L68.973 108.936L69.109 115.804L68.905 121.244C70.945 121.244 72.3163 122.74 73.019 125.732C73.019 126.344 72.5996 126.695 71.761 126.786C71.3756 126.786 70.945 125.936 70.469 124.236C70.0156 123.579 69.4943 123.25 68.905 123.25H68.769C68.0436 128.078 67.409 130.492 66.865 130.492C66.2076 131.693 65.2556 132.294 64.009 132.294C62.173 131.863 61.255 130.945 61.255 129.54V129.336C61.255 127.205 62.7736 124.893 65.811 122.4L66.865 121.754L67.001 118.082V117.232H66.865C66.0943 118.207 65.3576 118.694 64.655 118.694H64.451C62.887 118.694 61.9916 117.493 61.765 115.09V114.342C61.765 111.441 62.8303 108.925 64.961 106.794C65.6183 106.227 66.3663 105.944 67.205 105.944ZM63.805 113.9V115.532C63.8956 116.28 64.0656 116.654 64.315 116.654H64.655C65.2896 116.654 66.0716 114.319 67.001 109.65V107.95C65.641 107.95 64.5756 109.933 63.805 113.9ZM63.261 129.404C63.3516 129.971 63.669 130.254 64.213 130.254C65.301 130.254 66.083 128.316 66.559 124.44H66.355C64.2923 126.231 63.261 127.885 63.261 129.404ZM73.955 106.794C74.8617 106.817 76.3917 108.403 78.545 111.554L78.613 112.132C78.613 112.767 77.0604 113.254 73.955 113.594L73.853 113.696V113.832C74.329 115.872 74.8277 116.892 75.349 116.892H75.757C76.4824 116.892 77.5817 116.11 79.055 114.546H79.259C79.7124 114.546 80.0637 114.875 80.313 115.532C80.313 116.076 79.361 117.017 77.457 118.354C76.9584 118.649 76.3577 118.864 75.655 119C73.819 119 72.5384 117.277 71.813 113.832C70.7704 113.673 70.249 113.243 70.249 112.54C70.249 112.041 70.6344 111.713 71.405 111.554V111.69L71.745 111.554V110.704C71.745 108.097 72.4817 106.794 73.955 106.794ZM74.159 109.242H73.853L73.717 110.5V111.554H73.853C75.1224 111.509 75.757 111.373 75.757 111.146C75.1677 110.262 74.635 109.627 74.159 109.242Z" fill="black"/>
<path d="M6.2293 395.7C7.29463 395.7 8.0313 396.833 8.4393 399.1V399.236C8.4393 399.757 8.08796 400.063 7.3853 400.154C6.81863 400.154 6.4333 399.451 6.2293 398.046L6.0933 397.944H5.6853C5.18663 398.669 4.9373 399.621 4.9373 400.8L5.0393 402.5C5.94596 402.5 6.93196 402.262 7.9973 401.786C8.42796 401.786 8.82463 402.092 9.1873 402.704C9.1873 403.633 7.91796 404.245 5.3793 404.54L6.2293 410.082C6.2293 410.558 5.83263 410.864 5.0393 411C4.33663 411 3.9853 409.912 3.9853 407.736L3.3393 404.846L1.1293 405.186C0.653297 405.186 0.369964 404.835 0.279297 404.132C0.279297 403.452 1.1973 403.021 3.0333 402.84L2.8973 400.732C3.25996 397.377 4.37063 395.7 6.2293 395.7ZM16.4474 397.876C17.4447 397.876 17.9434 398.273 17.9434 399.066L17.6374 399.712L17.4334 405.934C17.4334 408.745 18 410.49 19.1334 411.17L19.2014 411.68C19.1334 412.337 18.8274 412.666 18.2834 412.666H18.0794C16.3794 411.51 15.5294 409.742 15.5294 407.362H15.2914C14.3847 409.901 13.2854 411.17 11.9934 411.17C10.792 410.83 10.1914 409.935 10.1914 408.484C10.1914 405.288 11.472 402.103 14.0334 398.93C14.8947 398.227 15.6994 397.876 16.4474 397.876ZM12.3334 407.124L12.1974 408.076V408.722H12.5374C14.2374 404.483 15.0874 401.899 15.0874 400.97H14.9514C13.6367 402.443 12.764 404.495 12.3334 407.124ZM26.8511 397.23C27.4631 397.23 27.8824 398.261 28.1091 400.324C27.8824 400.891 27.5084 401.174 26.9871 401.174C26.6244 401.106 26.2618 400.687 25.8991 399.916L25.2871 399.712C24.2218 399.712 23.2584 400.415 22.3971 401.82V402.126C22.3971 402.466 23.9951 403.033 27.1911 403.826C28.5284 404.619 29.1971 405.583 29.1971 406.716C29.1971 408.575 27.7011 410.161 24.7091 411.476L23.4511 411.68C21.5471 411.476 20.5951 410.524 20.5951 408.824V408.722C20.5951 408.178 20.9464 407.861 21.6491 407.77C22.1931 407.77 22.5558 408.337 22.7371 409.47L23.0091 409.674H23.5871C24.8791 409.674 26.0804 408.79 27.1911 407.022V406.58C27.1911 405.9 25.7064 405.265 22.7371 404.676C21.1731 404.041 20.3911 403.157 20.3911 402.024C20.3911 400.551 21.6264 399.168 24.0971 397.876C25.1851 397.74 26.1031 397.525 26.8511 397.23ZM34.4549 390.362C35.0895 390.498 35.4069 390.815 35.4069 391.314L35.2029 392.81V393.252C35.2029 394.249 35.3162 395.303 35.5429 396.414H35.6109C38.2402 395.621 39.8722 395.224 40.5069 395.224C41.1642 395.405 41.4929 395.734 41.4929 396.21C41.4929 396.981 40.7109 397.366 39.1469 397.366L35.6109 398.624C35.6109 401.684 35.9395 405.843 36.5969 411.102C36.4609 411.714 36.1322 412.02 35.6109 412.02H35.5429C34.7495 412.02 34.3529 411 34.3529 408.96C34.0582 407.441 33.8089 404.143 33.6049 399.066H32.9929C30.8622 398.93 29.7969 398.431 29.7969 397.57C29.7969 397.321 30.0349 397.015 30.5109 396.652H30.8509L32.4149 397.06H33.5029L33.1969 392.81C33.1969 391.178 33.6162 390.362 34.4549 390.362ZM46.5068 401.65L52.6608 401.242C53.2275 401.242 53.5561 401.593 53.6468 402.296C53.6468 402.999 52.5815 403.35 50.4508 403.35C48.8868 403.577 47.5041 403.69 46.3028 403.69C44.8295 403.509 44.0928 403.089 44.0928 402.432C44.0928 401.979 44.3988 401.616 45.0108 401.344L46.3028 401.65H46.5068ZM63.131 397.876C64.1283 397.876 64.627 398.273 64.627 399.066L64.321 399.712L64.117 405.934C64.117 408.745 64.6836 410.49 65.817 411.17L65.885 411.68C65.817 412.337 65.511 412.666 64.967 412.666H64.763C63.063 411.51 62.213 409.742 62.213 407.362H61.975C61.0683 409.901 59.969 411.17 58.677 411.17C57.4756 410.83 56.875 409.935 56.875 408.484C56.875 405.288 58.1556 402.103 60.717 398.93C61.5783 398.227 62.383 397.876 63.131 397.876ZM59.017 407.124L58.881 408.076V408.722H59.221C60.921 404.483 61.771 401.899 61.771 400.97H61.635C60.3203 402.443 59.4476 404.495 59.017 407.124ZM66.9727 394.85C68.1514 394.85 68.9107 397.162 69.2507 401.786L69.4547 402.84C70.4974 400.709 71.3474 399.644 72.0047 399.644C72.0047 399.553 72.2427 399.485 72.7187 399.44H72.8547C74.3507 399.44 75.3027 400.607 75.7107 402.942V403.044C75.7107 405.039 74.7134 407.237 72.7187 409.64C71.88 410.547 70.962 411 69.9647 411C68.8314 410.751 68.2647 410.184 68.2647 409.3L66.5647 397.094L66.0547 395.836C66.0547 395.428 66.3607 395.099 66.9727 394.85ZM70.5087 408.654H70.6107C71.7894 408.178 72.8207 406.557 73.7047 403.792V402.5C73.5007 401.797 73.24 401.446 72.9227 401.446H72.6507C71.6534 402.035 70.9394 404.438 70.5087 408.654ZM84.2593 397.23C84.8713 397.23 85.2906 398.261 85.5173 400.324C85.2906 400.891 84.9166 401.174 84.3953 401.174C84.0326 401.106 83.67 400.687 83.3073 399.916L82.6953 399.712C81.63 399.712 80.6666 400.415 79.8053 401.82V402.126C79.8053 402.466 81.4033 403.033 84.5993 403.826C85.9366 404.619 86.6053 405.583 86.6053 406.716C86.6053 408.575 85.1093 410.161 82.1173 411.476L80.8593 411.68C78.9553 411.476 78.0033 410.524 78.0033 408.824V408.722C78.0033 408.178 78.3546 407.861 79.0573 407.77C79.6013 407.77 79.964 408.337 80.1453 409.47L80.4173 409.674H80.9953C82.2873 409.674 83.4886 408.79 84.5993 407.022V406.58C84.5993 405.9 83.1146 405.265 80.1453 404.676C78.5813 404.041 77.7993 403.157 77.7993 402.024C77.7993 400.551 79.0346 399.168 81.5053 397.876C82.5933 397.74 83.5113 397.525 84.2593 397.23ZM93.2911 398.182C94.9684 398.182 96.2377 399.429 97.0991 401.922L97.2351 402.636C97.2351 405.061 96.1017 407.543 93.8351 410.082C92.9284 410.921 92.0104 411.34 91.0811 411.34C89.7211 411.34 88.7577 410.558 88.1911 408.994C87.9871 408.269 87.8851 407.634 87.8851 407.09V406.682C87.8851 403.101 89.1884 400.381 91.7951 398.522C92.2484 398.295 92.7471 398.182 93.2911 398.182ZM89.8911 407.022C89.8911 408.563 90.2877 409.334 91.0811 409.334C92.7357 409.334 94.1071 407.215 95.1951 402.976V402.33C94.8097 400.925 94.0957 400.222 93.0531 400.222C92.6451 400.222 92.4411 400.505 92.4411 401.072C92.4411 401.457 91.9877 401.763 91.0811 401.99C90.2877 403.327 89.8911 405.005 89.8911 407.022ZM103.23 397.604C104.658 397.604 105.508 398.601 105.78 400.596V400.902C105.78 403.101 104.646 405.118 102.38 406.954C103.694 408.246 105.995 408.892 109.282 408.892C109.78 409.051 110.03 409.402 110.03 409.946C110.03 410.558 109.633 410.864 108.84 410.864C106.618 410.864 104.284 410.297 101.836 409.164V410.15C101.836 412.485 101.337 413.652 100.34 413.652C99.637 413.652 99.2857 412.303 99.2857 409.606V406.954L99.1837 406.002L99.4217 404.914L99.1837 401.65V401.514C99.1837 400.902 99.501 400.483 100.136 400.256C101.02 398.488 102.051 397.604 103.23 397.604ZM101.53 405.05C102.187 405.05 102.924 403.871 103.74 401.514V400.052L103.332 399.61H103.026C102.028 400.29 101.53 402.103 101.53 405.05ZM111.432 394.85C112.61 394.85 113.37 397.162 113.71 401.786L113.914 402.84C114.956 400.709 115.806 399.644 116.464 399.644C116.464 399.553 116.702 399.485 117.178 399.44H117.314C118.81 399.44 119.762 400.607 120.17 402.942V403.044C120.17 405.039 119.172 407.237 117.178 409.64C116.339 410.547 115.421 411 114.424 411C113.29 410.751 112.724 410.184 112.724 409.3L111.024 397.094L110.514 395.836C110.514 395.428 110.82 395.099 111.432 394.85ZM114.968 408.654H115.07C116.248 408.178 117.28 406.557 118.164 403.792V402.5C117.96 401.797 117.699 401.446 117.382 401.446H117.11C116.112 402.035 115.398 404.438 114.968 408.654ZM122.292 393.286C123.154 393.467 123.584 393.853 123.584 394.442C123.358 395.077 122.995 395.394 122.496 395.394C121.658 395.235 121.238 394.816 121.238 394.136C121.465 393.569 121.816 393.286 122.292 393.286ZM123.584 398.046C123.947 398.046 124.253 398.375 124.502 399.032L124.196 401.446V403.044C124.196 404.903 124.514 407.339 125.148 410.354C124.922 410.785 124.536 411 123.992 411C123.063 411 122.451 408.28 122.156 402.84V401.65C122.156 399.247 122.632 398.046 123.584 398.046ZM131.318 399.542C133.245 399.701 134.208 400.641 134.208 402.364L134.276 402.806L134.208 408.11C134.208 408.722 134.559 409.549 135.262 410.592V410.66C135.081 411.317 134.752 411.646 134.276 411.646C132.871 411.057 132.168 409.81 132.168 407.906V407.464L132.066 407.396L132.168 407.26V407.192L132.27 402.5C132.27 401.843 131.987 401.514 131.42 401.514H131.012C129.879 401.967 129.312 404.449 129.312 408.96C129.312 410.524 128.915 411.306 128.122 411.306C127.51 411.306 127.193 410.921 127.17 410.15V406.75C127.17 402.353 127.555 400.154 128.326 400.154L128.666 400.052L129.38 400.154C129.992 399.746 130.638 399.542 131.318 399.542ZM141.802 397.944C142.844 397.944 143.366 398.443 143.366 399.44C143.502 399.44 143.57 399.61 143.57 399.95H143.706L143.57 400.936L143.706 407.804L143.502 413.244C145.542 413.244 146.913 414.74 147.616 417.732C147.616 418.344 147.196 418.695 146.358 418.786C145.972 418.786 145.542 417.936 145.066 416.236C144.612 415.579 144.091 415.25 143.502 415.25H143.366C142.64 420.078 142.006 422.492 141.462 422.492C140.804 423.693 139.852 424.294 138.606 424.294C136.77 423.863 135.852 422.945 135.852 421.54V421.336C135.852 419.205 137.37 416.893 140.408 414.4L141.462 413.754L141.598 410.082V409.232H141.462C140.691 410.207 139.954 410.694 139.252 410.694H139.048C137.484 410.694 136.588 409.493 136.362 407.09V406.342C136.362 403.441 137.427 400.925 139.558 398.794C140.215 398.227 140.963 397.944 141.802 397.944ZM138.402 405.9V407.532C138.492 408.28 138.662 408.654 138.912 408.654H139.252C139.886 408.654 140.668 406.319 141.598 401.65V399.95C140.238 399.95 139.172 401.933 138.402 405.9ZM137.858 421.404C137.948 421.971 138.266 422.254 138.81 422.254C139.898 422.254 140.68 420.316 141.156 416.44H140.952C138.889 418.231 137.858 419.885 137.858 421.404ZM165.142 397.23C165.754 397.23 166.173 398.261 166.4 400.324C166.173 400.891 165.799 401.174 165.278 401.174C164.915 401.106 164.553 400.687 164.19 399.916L163.578 399.712C162.513 399.712 161.549 400.415 160.688 401.82V402.126C160.688 402.466 162.286 403.033 165.482 403.826C166.819 404.619 167.488 405.583 167.488 406.716C167.488 408.575 165.992 410.161 163 411.476L161.742 411.68C159.838 411.476 158.886 410.524 158.886 408.824V408.722C158.886 408.178 159.237 407.861 159.94 407.77C160.484 407.77 160.847 408.337 161.028 409.47L161.3 409.674H161.878C163.17 409.674 164.371 408.79 165.482 407.022V406.58C165.482 405.9 163.997 405.265 161.028 404.676C159.464 404.041 158.682 403.157 158.682 402.024C158.682 400.551 159.917 399.168 162.388 397.876C163.476 397.74 164.394 397.525 165.142 397.23ZM170.094 400.766L170.706 400.426C171.25 400.426 171.647 400.755 171.896 401.412C171.533 403.089 171.352 404.812 171.352 406.58C171.352 407.464 171.613 408.427 172.134 409.47H172.338C172.995 409.47 173.777 406.875 174.684 401.684C175.001 401.412 175.307 401.276 175.602 401.276C176.305 401.276 176.656 402.523 176.656 405.016C176.951 407.759 177.279 409.13 177.642 409.13L178.152 408.926C178.809 409.175 179.138 409.527 179.138 409.98C178.73 410.841 178.163 411.272 177.438 411.272C176.622 411.272 175.84 410.456 175.092 408.824C174.185 410.728 173.267 411.68 172.338 411.68C170.955 411.68 169.992 410.241 169.448 407.362L169.346 406.274V405.934C169.346 404.121 169.595 402.398 170.094 400.766ZM185.331 397.944C186.374 397.944 186.895 398.443 186.895 399.44C187.031 399.44 187.099 399.61 187.099 399.95H187.235L187.099 400.936L187.235 407.804L187.031 413.244C189.071 413.244 190.442 414.74 191.145 417.732C191.145 418.344 190.726 418.695 189.887 418.786C189.502 418.786 189.071 417.936 188.595 416.236C188.142 415.579 187.62 415.25 187.031 415.25H186.895C186.17 420.078 185.535 422.492 184.991 422.492C184.334 423.693 183.382 424.294 182.135 424.294C180.299 423.863 179.381 422.945 179.381 421.54V421.336C179.381 419.205 180.9 416.893 183.937 414.4L184.991 413.754L185.127 410.082V409.232H184.991C184.22 410.207 183.484 410.694 182.781 410.694H182.577C181.013 410.694 180.118 409.493 179.891 407.09V406.342C179.891 403.441 180.956 400.925 183.087 398.794C183.744 398.227 184.492 397.944 185.331 397.944ZM181.931 405.9V407.532C182.022 408.28 182.192 408.654 182.441 408.654H182.781C183.416 408.654 184.198 406.319 185.127 401.65V399.95C183.767 399.95 182.702 401.933 181.931 405.9ZM181.387 421.404C181.478 421.971 181.795 422.254 182.339 422.254C183.427 422.254 184.209 420.316 184.685 416.44H184.481C182.418 418.231 181.387 419.885 181.387 421.404ZM195.379 397.876C196.376 397.876 196.875 398.273 196.875 399.066L196.569 399.712L196.365 405.934C196.365 408.745 196.932 410.49 198.065 411.17L198.133 411.68C198.065 412.337 197.759 412.666 197.215 412.666H197.011C195.311 411.51 194.461 409.742 194.461 407.362H194.223C193.316 409.901 192.217 411.17 190.925 411.17C189.724 410.83 189.123 409.935 189.123 408.484C189.123 405.288 190.404 402.103 192.965 398.93C193.826 398.227 194.631 397.876 195.379 397.876ZM191.265 407.124L191.129 408.076V408.722H191.469C193.169 404.483 194.019 401.899 194.019 400.97H193.883C192.568 402.443 191.696 404.495 191.265 407.124ZM203.437 397.604C204.865 397.604 205.715 398.601 205.987 400.596V400.902C205.987 403.101 204.853 405.118 202.587 406.954C203.901 408.246 206.202 408.892 209.489 408.892C209.987 409.051 210.237 409.402 210.237 409.946C210.237 410.558 209.84 410.864 209.047 410.864C206.825 410.864 204.491 410.297 202.043 409.164V410.15C202.043 412.485 201.544 413.652 200.547 413.652C199.844 413.652 199.493 412.303 199.493 409.606V406.954L199.391 406.002L199.629 404.914L199.391 401.65V401.514C199.391 400.902 199.708 400.483 200.343 400.256C201.227 398.488 202.258 397.604 203.437 397.604ZM201.737 405.05C202.394 405.05 203.131 403.871 203.947 401.514V400.052L203.539 399.61H203.233C202.235 400.29 201.737 402.103 201.737 405.05Z" fill="black"/>
<path d="M418.273 516.354C419.814 516.354 420.709 517.465 420.959 519.686C420.959 521.522 420.528 522.678 419.667 523.154H419.463C418.805 523.109 418.477 522.871 418.477 522.44L418.613 519.89V518.632L418.409 518.394H418.069C417.343 518.394 416.493 520.411 415.519 524.446L415.315 526.996V527.744C415.315 530.101 416.369 531.484 418.477 531.892H419.905C422.262 531.892 425.118 530.373 428.473 527.336H428.609C429.221 527.336 429.572 527.721 429.663 528.492C429.141 529.852 428.529 530.532 427.827 530.532C424.585 532.844 421.673 534 419.089 534C416.505 534 414.68 532.583 413.615 529.75L413.309 527.336V526.894C413.309 523.381 414.295 520.151 416.267 517.204C416.901 516.637 417.57 516.354 418.273 516.354ZM436.395 521.182C438.072 521.182 439.341 522.429 440.203 524.922L440.339 525.636C440.339 528.061 439.205 530.543 436.939 533.082C436.032 533.921 435.114 534.34 434.185 534.34C432.825 534.34 431.861 533.558 431.295 531.994C431.091 531.269 430.989 530.634 430.989 530.09V529.682C430.989 526.101 432.292 523.381 434.899 521.522C435.352 521.295 435.851 521.182 436.395 521.182ZM432.995 530.022C432.995 531.563 433.391 532.334 434.185 532.334C435.839 532.334 437.211 530.215 438.299 525.976V525.33C437.913 523.925 437.199 523.222 436.157 523.222C435.749 523.222 435.545 523.505 435.545 524.072C435.545 524.457 435.091 524.763 434.185 524.99C433.391 526.327 432.995 528.005 432.995 530.022ZM445.857 513.362C446.492 513.498 446.809 513.815 446.809 514.314L446.605 515.81V516.252C446.605 517.249 446.719 518.303 446.945 519.414H447.013C449.643 518.621 451.275 518.224 451.909 518.224C452.567 518.405 452.895 518.734 452.895 519.21C452.895 519.981 452.113 520.366 450.549 520.366L447.013 521.624C447.013 524.684 447.342 528.843 447.999 534.102C447.863 534.714 447.535 535.02 447.013 535.02H446.945C446.152 535.02 445.755 534 445.755 531.96C445.461 530.441 445.211 527.143 445.007 522.066H444.395C442.265 521.93 441.199 521.431 441.199 520.57C441.199 520.321 441.437 520.015 441.913 519.652H442.253L443.817 520.06H444.905L444.599 515.81C444.599 514.178 445.019 513.362 445.857 513.362ZM457.943 513.362C458.578 513.498 458.895 513.815 458.895 514.314L458.691 515.81V516.252C458.691 517.249 458.804 518.303 459.031 519.414H459.099C461.728 518.621 463.36 518.224 463.995 518.224C464.652 518.405 464.981 518.734 464.981 519.21C464.981 519.981 464.199 520.366 462.635 520.366L459.099 521.624C459.099 524.684 459.428 528.843 460.085 534.102C459.949 534.714 459.62 535.02 459.099 535.02H459.031C458.238 535.02 457.841 534 457.841 531.96C457.546 530.441 457.297 527.143 457.093 522.066H456.481C454.35 521.93 453.285 521.431 453.285 520.57C453.285 520.321 453.523 520.015 453.999 519.652H454.339L455.903 520.06H456.991L456.685 515.81C456.685 514.178 457.104 513.362 457.943 513.362ZM471.457 521.182C473.134 521.182 474.404 522.429 475.265 524.922L475.401 525.636C475.401 528.061 474.268 530.543 472.001 533.082C471.094 533.921 470.176 534.34 469.247 534.34C467.887 534.34 466.924 533.558 466.357 531.994C466.153 531.269 466.051 530.634 466.051 530.09V529.682C466.051 526.101 467.354 523.381 469.961 521.522C470.414 521.295 470.913 521.182 471.457 521.182ZM468.057 530.022C468.057 531.563 468.454 532.334 469.247 532.334C470.902 532.334 472.273 530.215 473.361 525.976V525.33C472.976 523.925 472.262 523.222 471.219 523.222C470.811 523.222 470.607 523.505 470.607 524.072C470.607 524.457 470.154 524.763 469.247 524.99C468.454 526.327 468.057 528.005 468.057 530.022ZM481.328 522.542C483.254 522.701 484.218 523.641 484.218 525.364L484.286 525.806L484.218 531.11C484.218 531.722 484.569 532.549 485.272 533.592V533.66C485.09 534.317 484.762 534.646 484.286 534.646C482.88 534.057 482.178 532.81 482.178 530.906V530.464L482.076 530.396L482.178 530.26V530.192L482.28 525.5C482.28 524.843 481.996 524.514 481.43 524.514H481.022C479.888 524.967 479.322 527.449 479.322 531.96C479.322 533.524 478.925 534.306 478.132 534.306C477.52 534.306 477.202 533.921 477.18 533.15V529.75C477.18 525.353 477.565 523.154 478.336 523.154L478.676 523.052L479.39 523.154C480.002 522.746 480.648 522.542 481.328 522.542Z" fill="black"/>
<path d="M337.245 136.752C337.245 127.045 343.705 118.457 350.208 111.954" stroke="#5B6670" stroke-width="3" stroke-linecap="round"/>
<path d="M547 70.7987C547 61.0909 553.46 52.503 559.963 46" stroke="#5B6670" stroke-width="3" stroke-linecap="round"/>
<path d="M804.804 104.367C804.804 94.937 818.35 88.5826 826.568 88.5826C830.076 88.5826 833.584 88.5826 837.091 88.5826C839.864 88.5826 844.02 87.8615 846.419 89.061" stroke="#5B6670" stroke-width="3" stroke-linecap="round"/>
<path d="M841.367 340.095C841.367 337.676 840.638 333.945 841.77 331.808C842.994 329.495 845.29 327.241 847.064 325.363C850.466 321.761 858.124 319.378 863.119 319.378" stroke="#5B6670" stroke-width="3" stroke-linecap="round"/>
<path d="M688.903 496.674C688.135 497.634 687.915 499.404 687.362 500.526C686.467 502.343 685.617 504.204 684.537 505.919C683.658 507.316 682.969 509.385 682.483 510.969C682.054 512.369 681.456 513.817 681.456 515.292C681.456 517.404 680.589 520.821 682.626 522.126C684.576 523.375 685.946 524.152 688.247 524.152C692.751 524.152 697.424 524.408 702 524.408" stroke="#5B6670" stroke-width="3" stroke-linecap="round"/>
<path d="M390.337 488.158C386.761 491.958 383.223 498.879 383.223 504.165C383.223 509.478 380.304 514.691 381.543 520.271C384.203 532.238 391.503 532.621 401.898 532.621" stroke="#5B6670" stroke-width="3" stroke-linecap="round"/>
<path d="M289.366 373.11C285.036 375.212 284.609 389.395 284.967 396.553L293.419 405.569C308.229 406.738 313.782 402.937 316.171 400.429C316.668 399.908 316.474 399.069 315.859 398.696C311.584 396.104 306.138 390.506 303.399 385.975C303.131 385.532 302.733 385.188 302.27 384.954C298.111 382.854 292.966 376.822 290.457 373.459C290.198 373.111 289.756 372.92 289.366 373.11Z" fill="#CC98E8" stroke="black"/>
<path d="M251.733 465.291C256.063 463.189 256.49 449.005 256.132 441.847L247.68 432.832C232.87 431.663 227.317 435.464 224.928 437.971C224.432 438.492 224.625 439.331 225.241 439.704C229.515 442.296 234.961 447.895 237.7 452.425C237.969 452.869 238.366 453.213 238.829 453.447C242.988 455.547 248.133 461.579 250.642 464.942C250.902 465.29 251.343 465.481 251.733 465.291Z" fill="#CC98E8" stroke="black"/>
<path d="M299.018 419.091C299.018 434.365 286.385 446.764 270.782 446.764C255.178 446.764 242.546 434.365 242.546 419.091C242.546 403.817 255.178 391.419 270.782 391.419C286.385 391.419 299.018 403.817 299.018 419.091Z" fill="#FF73C6" stroke="black"/>
<path d="M266.274 392.046L258.386 394.299L256.132 442.756L266.274 446.137V392.046Z" fill="#FF94D4" stroke="black"/>
<path d="M276.98 392.046L284.305 394.863L287.122 441.629L276.98 445.574V392.046Z" fill="#FF94D4" stroke="black"/>
<path d="M208.353 455.448C202.028 455.448 195.703 455.448 189.378 455.448C181.742 455.448 172.09 448.712 166.857 443.478C164.176 440.797 162.718 438.131 161.093 434.7C160.051 432.5 159.903 430.37 158.876 428.316" stroke="#5B6670" stroke-width="3" stroke-linecap="round"/>
<path d="M877.854 306.892C878.783 305.827 879.781 305.294 880.846 305.294C881.911 305.294 882.546 306.11 882.75 307.742L882.75 307.844C882.75 308.66 882.285 310.439 881.356 313.182L882.954 312.842C884.903 312.842 886.037 314.089 886.354 316.582L886.354 317.092C886.354 320.084 884.473 322.815 880.71 325.286C879.486 325.762 878.602 326 878.058 326C876.222 326 874.953 324.935 874.25 322.804C874.295 322.555 874.579 322.203 875.1 321.75C875.349 311.505 875.565 306.382 875.746 306.382C876.131 305.997 876.483 305.804 876.8 305.804C877.412 306.031 877.718 306.393 877.718 306.892L877.854 306.892ZM877.514 316.242L877.65 316.242C879.509 312.729 880.495 310.009 880.608 308.082L880.608 307.3L880.268 307.3C879.792 307.3 879.157 308.581 878.364 311.142C877.797 313.567 877.514 315.267 877.514 316.242ZM878.806 318.35L878.296 318.554L877.446 318.486L877.446 318.554L877.31 318.996L877.31 322.532L877.208 323.79L877.956 323.994C879.883 323.994 881.787 322.543 883.668 319.642C884.189 318.35 884.45 317.285 884.45 316.446C884.45 315.403 883.951 314.882 882.954 314.882L882.818 314.882C881.73 314.882 880.393 316.038 878.806 318.35ZM889.65 307.266C890.285 307.493 890.602 307.844 890.602 308.32L890.942 321.274L890.942 325.456C890.942 326.227 890.614 326.612 889.956 326.612L889.514 326.612C889.106 326.34 888.902 326.023 888.902 325.66L888.902 321.716L888.596 308.252C888.596 307.685 888.948 307.357 889.65 307.266ZM898.83 313.182C900.507 313.182 901.777 314.429 902.638 316.922L902.774 317.636C902.774 320.061 901.641 322.543 899.374 325.082C898.467 325.921 897.549 326.34 896.62 326.34C895.26 326.34 894.297 325.558 893.73 323.994C893.526 323.269 893.424 322.634 893.424 322.09L893.424 321.682C893.424 318.101 894.727 315.381 897.334 313.522C897.787 313.295 898.286 313.182 898.83 313.182ZM895.43 322.022C895.43 323.563 895.827 324.334 896.62 324.334C898.275 324.334 899.646 322.215 900.734 317.976L900.734 317.33C900.349 315.925 899.635 315.222 898.592 315.222C898.184 315.222 897.98 315.505 897.98 316.072C897.98 316.457 897.527 316.763 896.62 316.99C895.827 318.327 895.43 320.005 895.43 322.022ZM909.721 313.182C911.398 313.182 912.667 314.429 913.529 316.922L913.665 317.636C913.665 320.061 912.531 322.543 910.265 325.082C909.358 325.921 908.44 326.34 907.511 326.34C906.151 326.34 905.187 325.558 904.621 323.994C904.417 323.269 904.315 322.634 904.315 322.09L904.315 321.682C904.315 318.101 905.618 315.381 908.225 313.522C908.678 313.295 909.177 313.182 909.721 313.182ZM906.321 322.022C906.321 323.563 906.717 324.334 907.511 324.334C909.165 324.334 910.537 322.215 911.625 317.976L911.625 317.33C911.239 315.925 910.525 315.222 909.483 315.222C909.075 315.222 908.871 315.505 908.871 316.072C908.871 316.457 908.417 316.763 907.511 316.99C906.717 318.327 906.321 320.005 906.321 322.022ZM923.161 307.334C923.547 307.334 923.898 307.697 924.215 308.422L922.719 317.874L922.719 320.526C922.719 323.291 923.15 324.674 924.011 324.674C924.578 324.946 924.861 325.309 924.861 325.762C924.861 326.283 924.408 326.589 923.501 326.68C922.504 326.68 921.722 325.762 921.155 323.926L920.815 323.926C919.977 325.762 918.957 326.68 917.755 326.68C916.35 326.68 915.5 325.615 915.205 323.484C915.205 321.013 916.86 318.395 920.169 315.63C920.827 315.63 921.155 314.712 921.155 312.876C921.654 309.181 922.323 307.334 923.161 307.334ZM917.211 323.212L917.211 324.13L917.755 324.674L917.959 324.674C918.685 324.674 919.535 322.487 920.509 318.112L920.305 318.112C918.243 320.175 917.211 321.875 917.211 323.212ZM944.352 312.944C945.395 312.944 945.916 313.443 945.916 314.44C946.052 314.44 946.12 314.61 946.12 314.95L946.256 314.95L946.12 315.936L946.256 322.804L946.052 328.244C948.092 328.244 949.464 329.74 950.166 332.732C950.166 333.344 949.747 333.695 948.908 333.786C948.523 333.786 948.092 332.936 947.616 331.236C947.163 330.579 946.642 330.25 946.052 330.25L945.916 330.25C945.191 335.078 944.556 337.492 944.012 337.492C943.355 338.693 942.403 339.294 941.156 339.294C939.32 338.863 938.402 337.945 938.402 336.54L938.402 336.336C938.402 334.205 939.921 331.893 942.958 329.4L944.012 328.754L944.148 325.082L944.148 324.232L944.012 324.232C943.242 325.207 942.505 325.694 941.802 325.694L941.598 325.694C940.034 325.694 939.139 324.493 938.912 322.09L938.912 321.342C938.912 318.441 939.978 315.925 942.108 313.794C942.766 313.227 943.514 312.944 944.352 312.944ZM940.952 320.9L940.952 322.532C941.043 323.28 941.213 323.654 941.462 323.654L941.802 323.654C942.437 323.654 943.219 321.319 944.148 316.65L944.148 314.95C942.788 314.95 941.723 316.933 940.952 320.9ZM940.408 336.404C940.499 336.971 940.816 337.254 941.36 337.254C942.448 337.254 943.23 335.316 943.706 331.44L943.502 331.44C941.44 333.231 940.408 334.885 940.408 336.404ZM949.98 307.266C950.615 307.493 950.932 307.844 950.932 308.32L951.272 321.274L951.272 325.456C951.272 326.227 950.944 326.612 950.286 326.612L949.844 326.612C949.436 326.34 949.232 326.023 949.232 325.66L949.232 321.716L948.926 308.252C948.926 307.685 949.278 307.357 949.98 307.266ZM955.08 315.766L955.692 315.426C956.236 315.426 956.633 315.755 956.882 316.412C956.52 318.089 956.338 319.812 956.338 321.58C956.338 322.464 956.599 323.427 957.12 324.47L957.324 324.47C957.982 324.47 958.764 321.875 959.67 316.684C959.988 316.412 960.294 316.276 960.588 316.276C961.291 316.276 961.642 317.523 961.642 320.016C961.937 322.759 962.266 324.13 962.628 324.13L963.138 323.926C963.796 324.175 964.124 324.527 964.124 324.98C963.716 325.841 963.15 326.272 962.424 326.272C961.608 326.272 960.826 325.456 960.078 323.824C959.172 325.728 958.254 326.68 957.324 326.68C955.942 326.68 954.978 325.241 954.434 322.362L954.332 321.274L954.332 320.934C954.332 319.121 954.582 317.398 955.08 315.766ZM968.311 314.474L969.705 314.27C970.272 314.27 970.589 314.621 970.657 315.324C970.657 315.936 969.921 316.333 968.447 316.514C967.518 317.239 967.053 318.169 967.053 319.302L967.053 320.424C967.507 322.917 968.277 324.164 969.365 324.164L969.705 324.164C970.34 324.164 971.292 323.563 972.561 322.362L972.765 322.362C973.219 322.362 973.581 322.679 973.853 323.314C973.536 324.289 972.516 325.173 970.793 325.966C970.476 326.102 970.079 326.17 969.603 326.17C967.269 326.17 965.75 324.334 965.047 320.662L965.047 319.914C965.047 317.262 966.135 315.449 968.311 314.474ZM981.008 313.182C982.685 313.182 983.955 314.429 984.816 316.922L984.952 317.636C984.952 320.061 983.819 322.543 981.552 325.082C980.645 325.921 979.727 326.34 978.798 326.34C977.438 326.34 976.475 325.558 975.908 323.994C975.704 323.269 975.602 322.634 975.602 322.09L975.602 321.682C975.602 318.101 976.905 315.381 979.512 313.522C979.965 313.295 980.464 313.182 981.008 313.182ZM977.608 322.022C977.608 323.563 978.005 324.334 978.798 324.334C980.453 324.334 981.824 322.215 982.912 317.976L982.912 317.33C982.527 315.925 981.813 315.222 980.77 315.222C980.362 315.222 980.158 315.505 980.158 316.072C980.158 316.457 979.705 316.763 978.798 316.99C978.005 318.327 977.608 320.005 977.608 322.022ZM993.293 312.23C993.905 312.23 994.324 313.261 994.551 315.324C994.324 315.891 993.95 316.174 993.429 316.174C993.066 316.106 992.703 315.687 992.341 314.916L991.729 314.712C990.663 314.712 989.7 315.415 988.839 316.82L988.839 317.126C988.839 317.466 990.437 318.033 993.633 318.826C994.97 319.619 995.639 320.583 995.639 321.716C995.639 323.575 994.143 325.161 991.151 326.476L989.893 326.68C987.989 326.476 987.037 325.524 987.037 323.824L987.037 323.722C987.037 323.178 987.388 322.861 988.091 322.77C988.635 322.77 988.997 323.337 989.179 324.47L989.451 324.674L990.029 324.674C991.321 324.674 992.522 323.79 993.633 322.022L993.633 321.58C993.633 320.9 992.148 320.265 989.179 319.676C987.615 319.041 986.833 318.157 986.833 317.024C986.833 315.551 988.068 314.168 990.539 312.876C991.627 312.74 992.545 312.525 993.293 312.23ZM999.944 313.794C1000.85 313.817 1002.38 315.403 1004.53 318.554L1004.6 319.132C1004.6 319.767 1003.05 320.254 999.944 320.594L999.842 320.696L999.842 320.832C1000.32 322.872 1000.82 323.892 1001.34 323.892L1001.75 323.892C1002.47 323.892 1003.57 323.11 1005.04 321.546L1005.25 321.546C1005.7 321.546 1006.05 321.875 1006.3 322.532C1006.3 323.076 1005.35 324.017 1003.45 325.354C1002.95 325.649 1002.35 325.864 1001.64 326C999.808 326 998.528 324.277 997.802 320.832C996.76 320.673 996.238 320.243 996.238 319.54C996.238 319.041 996.624 318.713 997.394 318.554L997.394 318.69L997.734 318.554L997.734 317.704C997.734 315.097 998.471 313.794 999.944 313.794ZM1000.15 316.242L999.842 316.242L999.706 317.5L999.706 318.554L999.842 318.554C1001.11 318.509 1001.75 318.373 1001.75 318.146C1001.16 317.262 1000.62 316.627 1000.15 316.242ZM1027.26 312.23C1027.87 312.23 1028.29 313.261 1028.52 315.324C1028.29 315.891 1027.92 316.174 1027.4 316.174C1027.03 316.106 1026.67 315.687 1026.31 314.916L1025.7 314.712C1024.63 314.712 1023.67 315.415 1022.81 316.82L1022.81 317.126C1022.81 317.466 1024.4 318.033 1027.6 318.826C1028.94 319.619 1029.61 320.583 1029.61 321.716C1029.61 323.575 1028.11 325.161 1025.12 326.476L1023.86 326.68C1021.96 326.476 1021 325.524 1021 323.824L1021 323.722C1021 323.178 1021.35 322.861 1022.06 322.77C1022.6 322.77 1022.96 323.337 1023.15 324.47L1023.42 324.674L1024 324.674C1025.29 324.674 1026.49 323.79 1027.6 322.022L1027.6 321.58C1027.6 320.9 1026.11 320.265 1023.15 319.676C1021.58 319.041 1020.8 318.157 1020.8 317.024C1020.8 315.551 1022.03 314.168 1024.51 312.876C1025.59 312.74 1026.51 312.525 1027.26 312.23ZM1034.86 305.362C1035.5 305.498 1035.82 305.815 1035.82 306.314L1035.61 307.81L1035.61 308.252C1035.61 309.249 1035.72 310.303 1035.95 311.414L1036.02 311.414C1038.65 310.621 1040.28 310.224 1040.92 310.224C1041.57 310.405 1041.9 310.734 1041.9 311.21C1041.9 311.981 1041.12 312.366 1039.56 312.366L1036.02 313.624C1036.02 316.684 1036.35 320.843 1037.01 326.102C1036.87 326.714 1036.54 327.02 1036.02 327.02L1035.95 327.02C1035.16 327.02 1034.76 326 1034.76 323.96C1034.47 322.441 1034.22 319.143 1034.01 314.066L1033.4 314.066C1031.27 313.93 1030.21 313.431 1030.21 312.57C1030.21 312.321 1030.44 312.015 1030.92 311.652L1031.26 311.652L1032.82 312.06L1033.91 312.06L1033.61 307.81C1033.61 306.178 1034.02 305.362 1034.86 305.362ZM1047.43 312.604C1048.85 312.604 1049.7 313.601 1049.98 315.596L1049.98 315.902C1049.98 318.101 1048.84 320.118 1046.58 321.954C1047.89 323.246 1050.19 323.892 1053.48 323.892C1053.98 324.051 1054.23 324.402 1054.23 324.946C1054.23 325.558 1053.83 325.864 1053.04 325.864C1050.81 325.864 1048.48 325.297 1046.03 324.164L1046.03 325.15C1046.03 327.485 1045.53 328.652 1044.54 328.652C1043.83 328.652 1043.48 327.303 1043.48 324.606L1043.48 321.954L1043.38 321.002L1043.62 319.914L1043.38 316.65L1043.38 316.514C1043.38 315.902 1043.7 315.483 1044.33 315.256C1045.22 313.488 1046.25 312.604 1047.43 312.604ZM1045.73 320.05C1046.38 320.05 1047.12 318.871 1047.94 316.514L1047.94 315.052L1047.53 314.61L1047.22 314.61C1046.22 315.29 1045.73 317.103 1045.73 320.05ZM1055.76 308.286C1056.62 308.467 1057.05 308.853 1057.05 309.442C1056.83 310.077 1056.47 310.394 1055.97 310.394C1055.13 310.235 1054.71 309.816 1054.71 309.136C1054.94 308.569 1055.29 308.286 1055.76 308.286ZM1057.05 313.046C1057.42 313.046 1057.72 313.375 1057.97 314.032L1057.67 316.446L1057.67 318.044C1057.67 319.903 1057.98 322.339 1058.62 325.354C1058.39 325.785 1058.01 326 1057.46 326C1056.53 326 1055.92 323.28 1055.63 317.84L1055.63 316.65C1055.63 314.247 1056.1 313.046 1057.05 313.046ZM1064.55 315.902C1066.95 315.902 1068.37 317.409 1068.8 320.424C1068.8 323.099 1067.55 325.014 1065.06 326.17C1064.79 326.306 1064.41 326.374 1063.94 326.374L1063.7 326.374L1062.95 326.306L1062.95 326.374L1063.09 335.452C1062.93 336.155 1062.57 336.506 1062 336.506C1061.37 336.302 1061.05 335.973 1061.05 335.52L1060.74 317.024C1060.74 316.435 1061.09 316.129 1061.8 316.106L1062.51 316.412C1063.15 316.072 1063.83 315.902 1064.55 315.902ZM1062.85 319.506L1062.75 320.56L1062.85 324.164L1063.8 324.402C1065.32 324.402 1066.31 323.291 1066.76 321.07L1066.76 320.56C1066.6 318.769 1065.97 317.874 1064.86 317.874L1064.35 317.874C1063.35 317.874 1062.85 318.418 1062.85 319.506Z" fill="black"/>
<path d="M489.821 82.4821L491.1 81.4169C496.851 76.6245 504.1 74 511.586 74H531.139C538.488 74 545.614 76.5298 551.318 81.1644L571.341 97.4335C578.439 103.2 582.73 111.728 583.131 120.864L588.292 238.268C588.43 241.406 588.105 244.546 587.328 247.589L584.218 259.771C583.086 264.205 581.016 268.345 578.147 271.911L571.065 280.716C566.493 286.401 564 293.477 564 300.773V314.5C564 332.173 549.673 346.5 532 346.5H500.5C482.827 346.5 468.5 332.173 468.5 314.5V300.803C468.5 296.966 467.81 293.16 466.463 289.567L451.216 248.91C449.753 245.008 449.066 240.857 449.194 236.691L452.804 119.158C453.221 105.583 462.162 93.7503 475.106 89.6408L479.018 88.399C482.968 87.145 486.637 85.1354 489.821 82.4821Z" fill="white"/>
<path d="M479.048 291.404H553.983V321.533C553.983 330.068 547.064 336.986 538.53 336.986H494.501C485.966 336.986 479.048 330.068 479.048 321.533V291.404Z" fill="#A2A2A2" stroke="black"/>
<path fill-rule="evenodd" clip-rule="evenodd" d="M488.439 99.1526C480.25 99.7907 463.297 105.98 461 125.634V239.217C461 243.365 463.68 258.488 478.229 290.904H554.483C555.436 288.538 556.518 285.94 557.662 283.191C563.665 268.769 571.393 250.204 571.393 239.217V123.401C569.797 115.956 562.395 100.684 545.549 99.1526H488.439ZM489.396 112.872C481.995 112.872 475.996 118.871 475.996 126.272C475.996 133.673 481.995 139.672 489.396 139.672H542.997C550.398 139.672 556.397 133.673 556.397 126.272C556.397 118.871 550.398 112.872 542.997 112.872H489.396Z" fill="#2ED1E2"/>
<path d="M461 125.634L460.504 125.576L460.5 125.605V125.634H461ZM488.439 99.1526V98.6526H488.419L488.4 98.6541L488.439 99.1526ZM461 239.217H460.5H461ZM478.229 290.904L477.773 291.109L477.905 291.404H478.229V290.904ZM554.483 290.904V291.404H554.821L554.947 291.091L554.483 290.904ZM557.662 283.191L558.123 283.383L557.662 283.191ZM571.393 123.401H571.893V123.348L571.882 123.296L571.393 123.401ZM545.549 99.1526L545.595 98.6546L545.572 98.6526H545.549V99.1526ZM461.497 125.692C462.628 116.017 467.357 109.676 472.806 105.665C478.27 101.644 484.464 99.9639 488.478 99.6511L488.4 98.6541C484.225 98.9794 477.847 100.713 472.214 104.86C466.565 109.017 461.67 115.597 460.504 125.576L461.497 125.692ZM461.5 239.217V125.634H460.5V239.217H461.5ZM478.685 290.699C471.418 274.507 467.119 262.643 464.638 254.317C462.153 245.98 461.5 241.218 461.5 239.217H460.5C460.5 241.365 461.187 246.238 463.68 254.603C466.176 262.98 470.492 274.886 477.773 291.109L478.685 290.699ZM554.483 290.404H478.229V291.404H554.483V290.404ZM557.2 282.999C556.056 285.747 554.974 288.348 554.019 290.717L554.947 291.091C555.899 288.728 556.979 286.132 558.123 283.383L557.2 282.999ZM570.893 239.217C570.893 244.621 568.987 251.94 566.306 259.754C563.629 267.553 560.203 275.785 557.2 282.999L558.123 283.383C561.124 276.175 564.563 267.914 567.251 260.078C569.935 252.257 571.893 244.801 571.893 239.217H570.893ZM570.893 123.401V239.217H571.893V123.401H570.893ZM545.504 99.6505C553.77 100.402 559.718 104.52 563.807 109.381C567.904 114.251 570.121 119.853 570.904 123.505L571.882 123.296C571.069 119.503 568.787 113.747 564.573 108.737C560.351 103.718 554.175 99.4347 545.595 98.6546L545.504 99.6505ZM488.439 99.6526H545.549V98.6526H488.439V99.6526ZM476.496 126.272C476.496 119.148 482.271 113.372 489.396 113.372V112.372C481.719 112.372 475.496 118.595 475.496 126.272H476.496ZM489.396 139.172C482.271 139.172 476.496 133.397 476.496 126.272H475.496C475.496 133.949 481.719 140.172 489.396 140.172V139.172ZM542.997 139.172H489.396V140.172H542.997V139.172ZM555.897 126.272C555.897 133.397 550.122 139.172 542.997 139.172V140.172C550.674 140.172 556.897 133.949 556.897 126.272H555.897ZM542.997 113.372C550.122 113.372 555.897 119.148 555.897 126.272H556.897C556.897 118.595 550.674 112.372 542.997 112.372V113.372ZM489.396 113.372H542.997V112.372H489.396V113.372Z" fill="black"/>
<rect x="502.658" y="77" width="26.4386" height="44.9438" rx="13.2193" fill="#CB97E7" stroke="black"/>
<path d="M475.996 172.216C476.761 163.283 484.823 159.986 488.758 159.454H543.635C552.824 160.475 555.972 168.388 556.397 172.216V227.732C550.016 267.039 536.084 275.377 529.916 274.633H502.477C486.907 274.633 478.335 243.365 475.996 227.732V172.216Z" fill="#DCF5F8" stroke="black"/>
<path d="M479.795 217.312V210.118H481.301V213.04H484.541V210.118H486.047V217.312H484.541V214.281H481.301V217.312H479.795ZM489.143 217.397C488.096 217.397 487.353 216.749 487.353 215.752V215.742C487.353 214.755 488.116 214.176 489.482 214.097L490.808 214.017V213.563C490.808 213.09 490.484 212.82 489.886 212.82C489.362 212.82 489.028 213.005 488.913 213.329L488.903 213.349H487.557L487.562 213.304C487.677 212.342 488.584 211.704 489.965 211.704C491.421 211.704 492.244 212.392 492.244 213.563V217.312H490.808V216.584H490.718C490.439 217.093 489.861 217.397 489.143 217.397ZM488.774 215.662C488.774 216.081 489.128 216.335 489.631 216.335C490.304 216.335 490.808 215.891 490.808 215.313V214.909L489.701 214.979C489.078 215.019 488.774 215.253 488.774 215.652V215.662ZM493.669 217.312V211.823H495.125V212.671H495.215C495.464 212.078 496.007 211.704 496.79 211.704C498.011 211.704 498.669 212.451 498.669 213.763V217.312H497.214V214.092C497.214 213.319 496.895 212.91 496.207 212.91C495.534 212.91 495.125 213.394 495.125 214.136V217.312H493.669ZM502.039 217.397C500.669 217.397 499.811 216.325 499.811 214.57V214.56C499.811 212.795 500.649 211.734 502.039 211.734C502.792 211.734 503.405 212.102 503.68 212.701H503.769V209.725H505.225V217.312H503.769V216.46H503.68C503.395 217.053 502.812 217.397 502.039 217.397ZM502.533 216.19C503.306 216.19 503.784 215.582 503.784 214.575V214.565C503.784 213.558 503.301 212.94 502.533 212.94C501.765 212.94 501.292 213.558 501.292 214.56V214.57C501.292 215.582 501.765 216.19 502.533 216.19ZM511.546 217.427C510.056 217.427 509.208 216.759 509.104 215.816L509.099 215.797H510.529L510.539 215.816C510.654 216.155 510.988 216.4 511.561 216.4C512.12 216.4 512.498 216.16 512.498 215.797V215.787C512.498 215.492 512.279 215.308 511.721 215.183L510.804 214.989C509.757 214.765 509.238 214.251 509.238 213.429V213.424C509.238 212.392 510.155 211.704 511.526 211.704C512.967 211.704 513.765 212.422 513.825 213.304V213.324H512.474L512.469 213.299C512.389 213.005 512.065 212.731 511.521 212.731C511.018 212.731 510.659 212.965 510.659 213.334V213.339C510.659 213.633 510.863 213.802 511.432 213.927L512.344 214.121C513.441 214.356 513.954 214.814 513.954 215.627V215.632C513.954 216.719 512.952 217.427 511.546 217.427ZM516.641 217.397C515.594 217.397 514.852 216.749 514.852 215.752V215.742C514.852 214.755 515.614 214.176 516.98 214.097L518.306 214.017V213.563C518.306 213.09 517.982 212.82 517.384 212.82C516.861 212.82 516.527 213.005 516.412 213.329L516.402 213.349H515.056L515.061 213.304C515.176 212.342 516.083 211.704 517.464 211.704C518.919 211.704 519.742 212.392 519.742 213.563V217.312H518.306V216.584H518.217C517.937 217.093 517.359 217.397 516.641 217.397ZM516.272 215.662C516.272 216.081 516.626 216.335 517.13 216.335C517.803 216.335 518.306 215.891 518.306 215.313V214.909L517.2 214.979C516.576 215.019 516.272 215.253 516.272 215.652V215.662ZM521.168 217.312V211.823H522.623V212.671H522.713C522.962 212.078 523.506 211.704 524.289 211.704C525.51 211.704 526.168 212.451 526.168 213.763V217.312H524.712V214.092C524.712 213.319 524.393 212.91 523.705 212.91C523.032 212.91 522.623 213.394 522.623 214.136V217.312H521.168ZM528.322 210.981C527.873 210.981 527.499 210.622 527.499 210.173C527.499 209.72 527.873 209.361 528.322 209.361C528.77 209.361 529.139 209.72 529.139 210.173C529.139 210.622 528.77 210.981 528.322 210.981ZM527.589 217.312V211.823H529.044V217.312H527.589ZM532.788 217.332C531.452 217.332 530.914 216.898 530.914 215.831V212.92H530.066V211.823H530.914V210.512H532.385V211.823H533.516V212.92H532.385V215.497C532.385 215.991 532.594 216.21 533.087 216.21C533.277 216.21 533.377 216.2 533.516 216.185V217.267C533.337 217.302 533.068 217.332 532.788 217.332ZM535.47 210.981C535.022 210.981 534.648 210.622 534.648 210.173C534.648 209.72 535.022 209.361 535.47 209.361C535.919 209.361 536.288 209.72 536.288 210.173C536.288 210.622 535.919 210.981 535.47 210.981ZM534.738 217.312V211.823H536.193V217.312H534.738ZM537.534 217.312V216.474L540.331 213.01V212.92H537.574V211.823H542.051V212.751L539.414 216.126V216.215H542.116V217.312H537.534ZM545.725 217.427C544.055 217.427 543.043 216.335 543.043 214.575V214.57C543.043 212.825 544.065 211.704 545.665 211.704C547.265 211.704 548.262 212.8 548.262 214.46V214.914H544.484C544.499 215.816 544.982 216.34 545.755 216.34C546.393 216.34 546.747 216.001 546.847 215.792L546.862 215.762H548.218L548.208 215.811C548.038 216.499 547.33 217.427 545.725 217.427ZM545.69 212.795C545.057 212.795 544.588 213.224 544.499 214.002H546.867C546.777 213.204 546.323 212.795 545.69 212.795ZM549.454 217.312V211.823H550.91V212.676H550.999C551.174 212.083 551.672 211.734 552.385 211.734C552.58 211.734 552.784 211.763 552.929 211.803V213.075C552.709 213.025 552.485 212.99 552.261 212.99C551.433 212.99 550.91 213.463 550.91 214.241V217.312H549.454Z" fill="#303030"/>
<path d="M651.953 260.335L684.572 120.426C688.044 105.535 701.318 95 716.608 95C718.863 95 721.113 95.232 723.321 95.6924L845.498 121.164C854.82 123.107 861.5 131.324 861.5 140.846C861.5 141.947 861.41 143.046 861.23 144.132L838.111 283.653C834.912 302.959 822.4 319.447 804.666 327.723C793.81 332.789 781.675 334.45 769.857 332.488L691.427 319.468C673.106 316.427 658.107 303.235 652.751 285.452C650.293 277.293 650.018 268.633 651.953 260.335Z" fill="white"/>
<rect x="701.391" y="101.593" width="151.246" height="196.228" rx="20.2608" transform="rotate(12 701.391 101.593)" fill="#A2A2A2" stroke="black"/>
<rect x="718.627" y="127.492" width="108.242" height="62.2711" rx="9.88041" transform="rotate(12 718.627 127.492)" fill="#A9C869" stroke="black"/>
<circle cx="715.154" cy="222.259" r="13.3406" transform="rotate(12 715.154 222.259)" fill="#F4F4F4" stroke="black"/>
<circle cx="751.417" cy="229.967" r="13.3406" transform="rotate(12 751.417 229.967)" fill="#F4F4F4" stroke="black"/>
<circle cx="788.647" cy="237.881" r="13.3406" transform="rotate(12 788.647 237.881)" fill="#F4F4F4" stroke="black"/>
<path d="M696.458 269.83C697.535 264.76 702.52 261.523 707.59 262.601L778.182 277.606C783.252 278.683 786.489 283.668 785.411 288.738L779.041 318.71L690.087 299.802L696.458 269.83Z" fill="#FDD546" stroke="black"/>
<path d="M717.725 291.028C718.235 288.627 720.594 287.095 722.995 287.605L753.455 294.08C755.856 294.59 757.388 296.95 756.878 299.35L753.898 313.366L714.746 305.044L717.725 291.028Z" fill="#4C4C4C" stroke="black"/>
<path d="M756.063 168.43C761.396 161.838 766.001 157.187 767 155.455C766.766 156.557 771.153 166.714 772.077 171.834C774.152 183.333 765.246 185.908 760.731 184.948C750.753 182.828 753.115 172.072 756.063 168.43Z" fill="#2C3E49"/>
<path d="M785.529 231.154L794.076 238.099C794.382 238.348 794.287 238.838 793.91 238.955L783.165 242.274" stroke="black" stroke-width="1.97722" stroke-linecap="round"/>
<path d="M721.464 217.536L710.831 220.404C710.45 220.507 710.337 220.994 710.635 221.254L719.101 228.657" stroke="black" stroke-width="1.97722" stroke-linecap="round"/>
<path fill-rule="evenodd" clip-rule="evenodd" d="M750.13 224.134C750.125 224.16 750.105 224.181 750.079 224.186C747.906 224.691 746.11 226.407 745.615 228.734C744.934 231.938 746.979 235.088 750.184 235.769C753.388 236.45 756.538 234.404 757.219 231.2C757.714 228.873 756.771 226.575 754.99 225.23C754.969 225.214 754.96 225.188 754.965 225.162L755.376 223.228C755.386 223.181 755.44 223.155 755.482 223.18C758.301 224.868 759.875 228.217 759.153 231.611C758.245 235.884 754.045 238.611 749.773 237.703C745.5 236.795 742.773 232.595 743.681 228.322C744.403 224.928 747.202 222.509 750.464 222.113C750.513 222.107 750.551 222.153 750.541 222.2L750.13 224.134Z" fill="black"/>
<path d="M752.239 226.099L753.267 221.264" stroke="black" stroke-width="1.97722" stroke-linecap="round"/>
<path d="M855.396 348.485L834.814 339.606C826.309 335.937 816.433 339.752 812.603 348.185L762.827 457.769C758.647 466.972 763.372 477.768 772.969 480.94L800.224 489.95C808.794 492.783 818.083 488.426 821.383 480.025L864.485 370.31C867.839 361.774 863.817 352.117 855.396 348.485Z" fill="white"/>
<rect x="822.345" y="344.661" width="36.7732" height="134.835" transform="rotate(23 822.345 344.661)" fill="#FDD546" stroke="#4C4C4C" stroke-width="2.04296"/>
<path d="M817.494 377.002C817.274 377.522 817.516 378.121 818.035 378.342C818.555 378.562 819.154 378.32 819.375 377.8L817.494 377.002ZM824.969 363.855C824.758 363.332 824.163 363.079 823.64 363.29L815.116 366.734C814.593 366.946 814.34 367.541 814.551 368.064C814.763 368.587 815.358 368.84 815.881 368.628L823.458 365.567L826.519 373.144C826.73 373.667 827.326 373.92 827.849 373.708C828.372 373.497 828.624 372.902 828.413 372.379L824.969 363.855ZM819.375 377.8L824.962 364.637L823.082 363.838L817.494 377.002L819.375 377.8Z" fill="#4C4C4C"/>
<path d="M834.419 384.186C834.199 384.706 834.441 385.305 834.96 385.526C835.48 385.746 836.079 385.504 836.3 384.985L834.419 384.186ZM841.894 371.039C841.683 370.516 841.088 370.263 840.565 370.474L832.041 373.918C831.518 374.13 831.265 374.725 831.476 375.248C831.688 375.771 832.283 376.024 832.806 375.813L840.383 372.751L843.444 380.328C843.655 380.851 844.251 381.104 844.774 380.893C845.297 380.681 845.55 380.086 845.338 379.563L841.894 371.039ZM836.3 384.985L841.888 371.821L840.007 371.022L834.419 384.186L836.3 384.985Z" fill="#4C4C4C"/>
<rect x="781.634" y="440.569" width="36.7732" height="30.6444" transform="rotate(23 781.634 440.569)" fill="#4C4C4C" stroke="#4C4C4C" stroke-width="2.04296"/>
<rect x="790.982" y="457" width="6.12887" height="20.4296" transform="rotate(23 790.982 457)" fill="#CBC308"/>
<path d="M720.163 371.717L720.391 371.743C725.983 372.393 730.617 376.378 732.098 381.809L733.147 385.653C734.363 390.111 733.163 394.879 729.983 398.231L727.419 400.934C724.15 404.379 724.058 409.752 727.207 413.307C730.418 416.932 730.251 422.43 726.827 425.853L696.251 456.43C693.109 459.572 690.932 463.547 689.976 467.886L688.329 475.361C687.276 480.138 684.746 484.463 681.096 487.721L669.901 497.717C667.741 499.646 664.632 500.084 662.022 498.828L659.809 497.763C657.908 496.847 655.623 497.451 654.422 499.186C653.672 500.27 653.461 501.639 653.852 502.898L654.605 505.323C655.754 509.028 654.536 513.06 651.527 515.508L647.378 518.884C640.39 524.568 630.221 523.986 623.928 517.541L586.086 478.781C579.898 472.444 579.834 462.347 585.939 455.931L594.709 446.716C595.701 445.673 597.33 445.572 598.445 446.483C599.58 447.412 601.244 447.287 602.228 446.2L604.958 443.183C606.481 441.499 607.097 439.184 606.612 436.966L606.167 434.932C605.341 431.158 606.542 427.228 609.334 424.56L615.506 418.662C619.207 415.126 623.969 412.907 629.058 412.35L640.175 411.131C645.112 410.59 649.747 408.485 653.402 405.123L682.599 378.273C685.956 375.185 691.115 375.171 694.49 378.239C697.901 381.339 703.125 381.288 706.473 378.12L709.493 375.264C712.35 372.561 716.257 371.262 720.163 371.717Z" fill="white"/>
<path d="M605.041 459.613L617.187 447.466L627.585 457.864L615.439 470.011L605.041 459.613Z" fill="#BFBEDE" stroke="black" stroke-width="1.47354"/>
<path d="M633.627 488.199L645.774 476.053L656.172 486.451L644.026 498.598L633.627 488.199Z" fill="#BFBEDE" stroke="black" stroke-width="1.47354"/>
<path d="M615.945 470.517L628.091 458.37L644.93 475.21L632.784 487.356L615.945 470.517Z" fill="#BFBEDE" stroke="black" stroke-width="1.47354"/>
<path d="M588.058 469.471C586.044 467.457 586.044 464.192 588.058 462.178L597.238 452.997C597.526 452.71 597.992 452.71 598.28 452.997L650.822 505.539C651.109 505.827 651.109 506.293 650.822 506.581L641.642 515.761C639.627 517.775 636.362 517.775 634.348 515.761L588.058 469.471Z" fill="#AF9CCA" stroke="black" stroke-width="1.47354"/>
<path d="M712.781 380.042L699.096 392.988C698.015 394.01 697.986 395.72 699.032 396.779L707.359 405.208C708.383 406.244 710.052 406.26 711.096 405.244L725.206 391.505C725.719 391.006 726.008 390.321 726.008 389.605V381.454C726.008 379.928 724.723 378.717 723.2 378.807L714.448 379.321C713.825 379.358 713.234 379.613 712.781 380.042Z" fill="#9A81BB" stroke="black" stroke-width="1.47354"/>
<path d="M661.276 491.192L612.653 442.98C611.616 441.951 611.605 440.278 612.629 439.236L627.637 423.977C628.073 423.533 628.661 423.256 629.281 423.194C645.374 421.576 647.619 419.925 655.278 413.712L685.076 384.607C686.118 383.589 687.787 383.602 688.813 384.637L719.885 415.972C720.909 417.005 720.91 418.671 719.887 419.705L694.474 445.393C680.255 457.219 680.832 467.251 680.783 475.361C680.778 476.08 680.474 476.762 679.948 477.252L664.953 491.247C663.911 492.22 662.288 492.195 661.276 491.192Z" fill="#FFF9E3" stroke="black" stroke-width="1.76825"/>
</svg>
