<svg width="1074" height="549" viewBox="0 0 1074 549" fill="none" xmlns="http://www.w3.org/2000/svg">
<path d="M298.77 174.899L296.91 163.182C295.541 154.559 300.92 146.3 309.36 144.066C310.781 143.69 312.244 143.5 313.714 143.5H314.5L367.119 138.467C369.736 138.217 372 140.274 372 142.903C372 143.299 372.053 143.694 372.157 144.076L375.784 157.373C377.162 162.427 375.833 167.834 372.268 171.673C367.91 176.367 366.973 183.294 369.928 188.977L375.404 199.507C377.121 202.81 378.249 206.388 378.737 210.079L387.315 275.027C388.051 280.601 385.835 286.157 381.465 289.695C379.197 291.531 376.475 292.718 373.587 293.13L324.864 300.091C317.811 301.098 311.5 295.625 311.5 288.5L303.564 228.75C303.19 225.929 303.193 223.071 303.574 220.251L307.061 194.451C307.65 190.089 306.098 185.71 302.892 182.693C300.693 180.623 299.243 177.882 298.77 174.899Z" fill="white"/>
<path d="M319.076 184.22L317.737 174.692L354.355 169.546L355.695 179.074C365.138 191.997 368.168 199.992 368.503 202.374L376.205 262.828C378.102 276.326 377.506 279.649 374.653 280.05L327.127 286.729C322.968 287.314 322.448 276.051 321.667 270.493L313.186 210.148C312.74 206.972 316.445 191.877 319.076 184.22Z" fill="#EAD9D1" stroke="black" stroke-width="2"/>
<path d="M307.885 171.219L305.988 157.721L360.526 150.056L362.423 163.554C363.048 168 360.607 169.477 359.308 169.66L314.12 176.01C309.757 176.624 308.145 173.071 307.885 171.219Z" fill="#384A59"/>
<path d="M305.988 157.721L307.885 171.219C308.145 173.071 309.757 176.624 314.12 176.01L359.308 169.66C360.607 169.477 363.048 168 362.423 163.554L360.526 150.056L305.558 157.781" stroke="black" stroke-width="2"/>
<path d="M359.55 150.029C359.551 150.029 359.55 150.032 359.546 150.037C359.549 150.032 359.55 150.029 359.55 150.029ZM357.975 149.793C358.651 149.925 359.111 150.074 359.388 150.216C359.161 150.428 358.76 150.699 358.146 151.011C356.915 151.638 355.048 152.326 352.653 153.026C347.879 154.42 341.174 155.814 333.676 156.868C326.178 157.922 319.349 158.43 314.374 158.405C311.88 158.393 309.895 158.247 308.539 157.983C307.863 157.852 307.403 157.702 307.126 157.561C307.353 157.348 307.754 157.078 308.368 156.765C309.599 156.138 311.466 155.45 313.861 154.751C318.636 153.356 325.341 151.962 332.838 150.908C340.336 149.855 347.165 149.346 352.14 149.371C354.634 149.383 356.619 149.53 357.975 149.793ZM306.919 157.426C306.919 157.426 306.921 157.428 306.925 157.433C306.92 157.428 306.918 157.426 306.919 157.426ZM306.964 157.747C306.963 157.747 306.965 157.745 306.968 157.739C306.966 157.745 306.964 157.747 306.964 157.747ZM359.59 150.344C359.594 150.348 359.596 150.35 359.596 150.35C359.595 150.35 359.593 150.348 359.59 150.344Z" fill="#2C3E49" stroke="black" stroke-width="2"/>
<path d="M368.838 204.756C354.04 210.075 325.883 212.143 313.258 212.568L321.739 272.912C347.682 273.152 368.543 267.953 376.525 265.212L368.838 204.756Z" fill="#6AB872" stroke="black" stroke-width="1.5"/>
<path d="M325.422 244.028L324.164 235.077L326.037 234.813L327.295 243.764L325.422 244.028ZM329.286 243.485L328.327 236.655L330.138 236.4L330.286 237.455L330.398 237.439C330.604 236.657 331.215 236.097 332.189 235.96C333.709 235.747 334.658 236.562 334.887 238.193L335.508 242.61L333.697 242.865L333.134 238.857C332.999 237.896 332.53 237.443 331.674 237.563C330.837 237.681 330.412 238.354 330.542 239.279L331.098 243.23L329.286 243.485ZM340.001 242.124C338.146 242.385 336.975 241.702 336.68 240.548L336.67 240.524L338.45 240.274L338.466 240.297C338.668 240.698 339.126 240.944 339.84 240.844C340.534 240.746 340.964 240.382 340.9 239.929L340.899 239.917C340.847 239.551 340.542 239.36 339.825 239.302L338.65 239.221C337.308 239.125 336.573 238.576 336.429 237.553L336.429 237.547C336.248 236.263 337.269 235.246 338.975 235.006C340.768 234.755 341.886 235.508 342.115 236.596L342.118 236.621L340.437 236.857L340.426 236.827C340.276 236.475 339.825 236.19 339.148 236.285C338.522 236.373 338.116 236.728 338.181 237.187L338.182 237.193C338.233 237.559 338.517 237.734 339.246 237.79L340.415 237.872C341.821 237.972 342.54 238.453 342.682 239.464L342.683 239.47C342.873 240.822 341.75 241.878 340.001 242.124ZM346.737 241.177C345.205 241.393 344.287 240.573 344.058 238.948L343.437 234.531L345.249 234.277L345.811 238.278C345.947 239.245 346.384 239.696 347.24 239.576C348.133 239.451 348.532 238.781 348.402 237.857L347.848 233.911L349.659 233.657L350.619 240.486L348.808 240.741L348.66 239.686L348.548 239.702C348.342 240.49 347.711 241.041 346.737 241.177ZM352.499 240.222L351.172 230.781L352.983 230.526L354.31 239.968L352.499 240.222ZM356 231.697C355.442 231.775 354.914 231.394 354.836 230.835C354.756 230.271 355.159 229.759 355.717 229.68C356.275 229.602 356.797 229.984 356.876 230.549C356.955 231.107 356.559 231.618 356 231.697ZM356.196 239.703L355.236 232.873L357.047 232.618L358.007 239.448L356.196 239.703ZM359.831 239.192L358.871 232.362L360.682 232.108L360.83 233.162L360.942 233.146C361.149 232.365 361.759 231.804 362.733 231.668C364.253 231.454 365.203 232.269 365.432 233.901L366.053 238.317L364.241 238.572L363.678 234.565C363.543 233.603 363.074 233.15 362.218 233.271C361.381 233.388 360.957 234.062 361.087 234.986L361.642 238.937L359.831 239.192Z" fill="white"/>
<path d="M135.408 94.4371L126.208 73.1153C125.155 70.6736 125.853 67.8292 127.917 66.1526C130.418 64.1208 134.083 64.4545 136.177 66.9045L152.878 86.4528L169.058 101.909C173.229 105.894 176.876 110.393 179.912 115.299L241.727 215.199L256.045 232.984C257.476 234.761 259.107 236.369 260.906 237.774L261.272 238.059C276.088 249.631 276.375 271.947 261.862 283.896L258.932 286.308C242.699 299.673 218.087 290.357 214.773 269.592L207.957 245.206C206.188 238.875 203.51 232.834 200.007 227.271L171.347 181.765L145.89 125.875L135.408 94.4371Z" fill="white"/>
<path d="M148.191 99.465L165.076 114.384L151.963 121.871L147.077 99.9348L132.274 70.2141L133.36 70.5261L148.191 99.465Z" fill="#B3B3B3" stroke="black" stroke-width="2"/>
<rect x="-1.36066" y="-0.365246" width="12.2873" height="23.1403" transform="matrix(-0.863726 0.503065 -0.496929 -0.868312 251.666 266.367)" fill="#5B6670" stroke="black" stroke-width="2"/>
<path d="M267.19 262.488C267.322 262.71 267.398 263.249 266.852 264.337C266.332 265.372 265.37 266.647 263.993 268.079C261.249 270.933 257.02 274.247 251.952 277.319C246.884 280.391 241.997 282.601 238.211 283.705C236.31 284.259 234.743 284.517 233.593 284.494C232.384 284.47 231.948 284.149 231.816 283.928C231.684 283.706 231.608 283.167 232.154 282.079C232.674 281.044 233.636 279.769 235.013 278.337C237.757 275.483 241.986 272.169 247.054 269.097C252.122 266.026 257.009 263.815 260.795 262.711C262.696 262.157 264.263 261.899 265.413 261.922C266.622 261.946 267.058 262.267 267.19 262.488Z" fill="#4A565E" stroke="black" stroke-width="2"/>
<path d="M255.595 241.615C255.727 241.836 255.803 242.375 255.257 243.463C254.737 244.498 253.775 245.773 252.398 247.205C249.654 250.06 245.425 253.374 240.357 256.445C235.289 259.517 230.402 261.728 226.616 262.831C224.715 263.385 223.148 263.643 221.998 263.62C220.789 263.596 220.353 263.276 220.221 263.054C220.088 262.832 220.013 262.293 220.559 261.205C221.079 260.17 222.041 258.895 223.418 257.463C226.162 254.609 230.391 251.295 235.459 248.223C240.527 245.152 245.414 242.941 249.2 241.837C251.101 241.283 252.668 241.025 253.818 241.048C255.027 241.073 255.463 241.393 255.595 241.615Z" fill="#4A565E" stroke="black" stroke-width="2"/>
<path d="M168.588 117.17L242.999 243.182L226.878 252.964L153.011 127.108C149.92 121.482 152.666 120.099 154.299 119.186L162.229 114.751C165.919 112.81 167.687 115.529 168.588 117.17Z" fill="#EBF9FF" stroke="black" stroke-width="2"/>
<rect width="6.85252" height="8.13428" transform="matrix(0.514625 0.857941 -0.856393 0.515451 194.785 162)" fill="#5B6670"/>
<rect width="6.85252" height="8.13428" transform="matrix(0.514625 0.857941 -0.856393 0.515451 202.771 175)" fill="#5B6670"/>
<rect width="6.85252" height="8.13428" transform="matrix(0.514625 0.857941 -0.856393 0.515451 209.759 188)" fill="#5B6670"/>
<rect width="6.85252" height="8.13428" transform="matrix(0.514625 0.857941 -0.856393 0.515451 217.746 201)" fill="#5B6670"/>
<rect width="6.85252" height="8.13428" transform="matrix(0.514625 0.857941 -0.856393 0.515451 224.734 213)" fill="#5B6670"/>
<rect width="6.85252" height="8.13428" transform="matrix(0.514625 0.857941 -0.856393 0.515451 231.722 225)" fill="#5B6670"/>
<rect width="6.85252" height="8.13428" transform="matrix(0.514625 0.857941 -0.856393 0.515451 186.799 149)" fill="#5B6670"/>
<path d="M398.926 444.64V441.936C398.926 431.556 405.042 422.152 414.53 417.944L453.239 396.812C456.98 394.77 461.083 393.474 465.319 392.997L471.314 392.321C474.723 391.937 478.172 392.089 481.534 392.771L494.534 395.407C500.261 396.568 505.575 399.233 509.929 403.129L516.193 408.732C518.621 410.904 520.683 413.453 522.301 416.28L528.431 426.996C531.708 432.724 530.686 439.944 525.949 444.538C523.886 446.538 522.467 449.109 521.873 451.92L520.775 457.113C519.274 464.216 514.577 470.229 508.049 473.406C506.822 474.003 505.649 474.706 504.544 475.506L503.539 476.234C500.782 478.231 497.731 479.787 494.497 480.848L486.276 483.545C483.965 484.303 481.745 485.315 479.657 486.562L463.284 496.344C458.184 499.391 452.354 501 446.413 501H433.34C427.105 501 420.999 499.228 415.733 495.891L410.78 492.753C409.058 491.662 407.455 490.396 405.994 488.975C399.667 482.816 396.431 474.148 397.175 465.35L398.926 444.64Z" fill="white"/>
<path d="M422.586 424.742C403.922 424.696 403.602 438.675 405.775 445.671C399.487 450.927 402.336 457.888 404.547 460.711C401.61 477.379 413.199 481.813 419.36 481.947C427.827 494.858 439.156 490.409 443.763 486.571C457.539 492.604 466.82 484.39 469.738 479.529C486.005 483.778 494.25 473.347 496.34 467.601C513.993 467.145 517.548 452.741 517.118 445.597C524.591 437.355 520.109 429.617 516.934 426.777C516.187 412.772 504.208 409.97 498.312 410.32C490.962 401.213 480.866 404.689 476.736 407.566C462.084 399.883 449.517 407.498 445.066 412.266C431.916 411.502 424.601 420.265 422.586 424.742Z" stroke="black" stroke-width="2.5"/>
<path d="M505 444.617C507.167 447.99 505.6 458.781 494 456.757" stroke="black" stroke-width="2.5" stroke-linecap="round"/>
<path d="M451.5 419.832C452.188 415.871 467.38 408.831 474.5 418.314" stroke="black" stroke-width="2.5" stroke-linecap="round"/>
<path d="M426.132 472.005C422.275 472.98 411.464 467.268 417.132 456.83" stroke="black" stroke-width="2.5" stroke-linecap="round"/>
<path d="M462 463.333C467 476.484 459.479 483.257 449.064 477.706" stroke="black" stroke-width="2.5" stroke-linecap="round"/>
<path d="M147.007 145.511C139.904 145.511 129.261 140.673 122.795 137.799C114.665 134.186 112.818 133.019 104 130.5C89.9342 126.481 94.8969 127.632 81 123" stroke="#5B6670" stroke-width="3" stroke-linecap="round"/>
<path d="M711.723 516.626C712.267 516.626 712.618 517.476 712.777 519.176L712.913 521.012C712.913 522.395 712.663 525.999 712.165 531.824H712.369V531.926L712.505 531.824H712.777L716.755 532.13H717.027L718.727 531.62H718.965C719.327 531.847 719.577 532.164 719.713 532.572C719.713 533.433 718.749 533.966 716.823 534.17L713.355 533.83H712.709L711.077 534.272C710.465 534.045 710.159 533.683 710.159 533.184L710.873 521.522V521.012L710.669 517.612C710.669 517.045 711.02 516.717 711.723 516.626ZM727.207 520.876C728.204 520.876 728.703 521.273 728.703 522.066L728.397 522.712L728.193 528.934C728.193 531.745 728.76 533.49 729.893 534.17L729.961 534.68C729.893 535.337 729.587 535.666 729.043 535.666H728.839C727.139 534.51 726.289 532.742 726.289 530.362H726.051C725.144 532.901 724.045 534.17 722.753 534.17C721.552 533.83 720.951 532.935 720.951 531.484C720.951 528.288 722.232 525.103 724.793 521.93C725.654 521.227 726.459 520.876 727.207 520.876ZM723.093 530.124L722.957 531.076V531.722H723.297C724.997 527.483 725.847 524.899 725.847 523.97H725.711C724.396 525.443 723.524 527.495 723.093 530.124ZM735.197 522.542C737.124 522.701 738.087 523.641 738.087 525.364L738.155 525.806L738.087 531.11C738.087 531.722 738.438 532.549 739.141 533.592V533.66C738.96 534.317 738.631 534.646 738.155 534.646C736.75 534.057 736.047 532.81 736.047 530.906V530.464L735.945 530.396L736.047 530.26V530.192L736.149 525.5C736.149 524.843 735.866 524.514 735.299 524.514H734.891C733.758 524.967 733.191 527.449 733.191 531.96C733.191 533.524 732.794 534.306 732.001 534.306C731.389 534.306 731.072 533.921 731.049 533.15V529.75C731.049 525.353 731.434 523.154 732.205 523.154L732.545 523.052L733.259 523.154C733.871 522.746 734.517 522.542 735.197 522.542ZM743.675 522.474L745.069 522.27C745.635 522.27 745.953 522.621 746.021 523.324C746.021 523.936 745.284 524.333 743.811 524.514C742.881 525.239 742.417 526.169 742.417 527.302V528.424C742.87 530.917 743.641 532.164 744.729 532.164H745.069C745.703 532.164 746.655 531.563 747.925 530.362H748.129C748.582 530.362 748.945 530.679 749.217 531.314C748.899 532.289 747.879 533.173 746.157 533.966C745.839 534.102 745.443 534.17 744.967 534.17C742.632 534.17 741.113 532.334 740.411 528.662V527.914C740.411 525.262 741.499 523.449 743.675 522.474ZM753.991 521.794C754.898 521.817 756.428 523.403 758.581 526.554L758.649 527.132C758.649 527.767 757.096 528.254 753.991 528.594L753.889 528.696V528.832C754.365 530.872 754.864 531.892 755.385 531.892H755.793C756.518 531.892 757.618 531.11 759.091 529.546H759.295C759.748 529.546 760.1 529.875 760.349 530.532C760.349 531.076 759.397 532.017 757.493 533.354C756.994 533.649 756.394 533.864 755.691 534C753.855 534 752.574 532.277 751.849 528.832C750.806 528.673 750.285 528.243 750.285 527.54C750.285 527.041 750.67 526.713 751.441 526.554V526.69L751.781 526.554V525.704C751.781 523.097 752.518 521.794 753.991 521.794ZM754.195 524.242H753.889L753.753 525.5V526.554H753.889C755.158 526.509 755.793 526.373 755.793 526.146C755.204 525.262 754.671 524.627 754.195 524.242ZM765.668 513.362C766.302 513.498 766.62 513.815 766.62 514.314L766.416 515.81V516.252C766.416 517.249 766.529 518.303 766.756 519.414H766.824C769.453 518.621 771.085 518.224 771.72 518.224C772.377 518.405 772.706 518.734 772.706 519.21C772.706 519.981 771.924 520.366 770.36 520.366L766.824 521.624C766.824 524.684 767.152 528.843 767.81 534.102C767.674 534.714 767.345 535.02 766.824 535.02H766.756C765.962 535.02 765.566 534 765.566 531.96C765.271 530.441 765.022 527.143 764.818 522.066H764.206C762.075 521.93 761.01 521.431 761.01 520.57C761.01 520.321 761.248 520.015 761.724 519.652H762.064L763.628 520.06H764.716L764.41 515.81C764.41 514.178 764.829 513.362 765.668 513.362ZM780.576 520.23C781.188 520.23 781.607 521.261 781.834 523.324C781.607 523.891 781.233 524.174 780.712 524.174C780.349 524.106 779.986 523.687 779.624 522.916L779.012 522.712C777.946 522.712 776.983 523.415 776.122 524.82V525.126C776.122 525.466 777.72 526.033 780.916 526.826C782.253 527.619 782.922 528.583 782.922 529.716C782.922 531.575 781.426 533.161 778.434 534.476L777.176 534.68C775.272 534.476 774.32 533.524 774.32 531.824V531.722C774.32 531.178 774.671 530.861 775.374 530.77C775.918 530.77 776.28 531.337 776.462 532.47L776.734 532.674H777.312C778.604 532.674 779.805 531.79 780.916 530.022V529.58C780.916 528.9 779.431 528.265 776.462 527.676C774.898 527.041 774.116 526.157 774.116 525.024C774.116 523.551 775.351 522.168 777.822 520.876C778.91 520.74 779.828 520.525 780.576 520.23Z" fill="black"/>
<path d="M866.871 72.466C867.234 72.466 867.562 72.8173 867.857 73.52C867.857 74.064 867.03 74.5173 865.375 74.88C863.29 76.036 861.669 78.0533 860.513 80.932C859.38 83.8107 858.813 86.6553 858.813 89.466C858.813 93.9767 860.264 96.878 863.165 98.17L864.253 98.374C866.678 98.374 868.401 96.2547 869.421 92.016L869.557 90.622C869.557 88.8087 868.945 87.29 867.721 86.066H867.517C867.041 86.61 866.089 88.5253 864.661 91.812L863.913 92.322C863.278 92.322 862.916 91.9367 862.825 91.166C864.978 86.066 866.44 83.516 867.211 83.516H867.415C870.18 85.1253 871.563 87.494 871.563 90.622C871.563 94.158 870.112 97.1047 867.211 99.462C866.735 99.87 865.772 100.176 864.321 100.38C861.578 100.38 859.312 98.3967 857.521 94.43C857.045 92.73 856.807 91.1773 856.807 89.772V89.262C856.807 84.4113 858.36 79.8327 861.465 75.526C863.482 73.486 865.284 72.466 866.871 72.466ZM875.047 79.266C875.682 79.4927 875.999 79.844 875.999 80.32L876.339 93.274V97.456C876.339 98.2267 876.01 98.612 875.353 98.612H874.911C874.503 98.34 874.299 98.0227 874.299 97.66V93.716L873.993 80.252C873.993 79.6853 874.344 79.3567 875.047 79.266ZM880.147 87.766L880.759 87.426C881.303 87.426 881.699 87.7547 881.949 88.412C881.586 90.0893 881.405 91.812 881.405 93.58C881.405 94.464 881.665 95.4273 882.187 96.47H882.391C883.048 96.47 883.83 93.8747 884.737 88.684C885.054 88.412 885.36 88.276 885.655 88.276C886.357 88.276 886.709 89.5227 886.709 92.016C887.003 94.7587 887.332 96.13 887.695 96.13L888.205 95.926C888.862 96.1753 889.191 96.5267 889.191 96.98C888.783 97.8413 888.216 98.272 887.491 98.272C886.675 98.272 885.893 97.456 885.145 95.824C884.238 97.728 883.32 98.68 882.391 98.68C881.008 98.68 880.045 97.2407 879.501 94.362L879.399 93.274V92.934C879.399 91.1207 879.648 89.398 880.147 87.766ZM893.378 86.474L894.772 86.27C895.338 86.27 895.656 86.6213 895.724 87.324C895.724 87.936 894.987 88.3327 893.514 88.514C892.584 89.2393 892.12 90.1687 892.12 91.302V92.424C892.573 94.9173 893.344 96.164 894.432 96.164H894.772C895.406 96.164 896.358 95.5633 897.628 94.362H897.832C898.285 94.362 898.648 94.6793 898.92 95.314C898.602 96.2887 897.582 97.1727 895.86 97.966C895.542 98.102 895.146 98.17 894.67 98.17C892.335 98.17 890.816 96.334 890.114 92.662V91.914C890.114 89.262 891.202 87.4487 893.378 86.474ZM906.074 85.182C907.752 85.182 909.021 86.4287 909.882 88.922L910.018 89.636C910.018 92.0613 908.885 94.5433 906.618 97.082C905.712 97.9207 904.794 98.34 903.864 98.34C902.504 98.34 901.541 97.558 900.974 95.994C900.77 95.2687 900.668 94.634 900.668 94.09V93.682C900.668 90.1007 901.972 87.3807 904.578 85.522C905.032 85.2953 905.53 85.182 906.074 85.182ZM902.674 94.022C902.674 95.5633 903.071 96.334 903.864 96.334C905.519 96.334 906.89 94.2147 907.978 89.976V89.33C907.593 87.9247 906.879 87.222 905.836 87.222C905.428 87.222 905.224 87.5053 905.224 88.072C905.224 88.4573 904.771 88.7633 903.864 88.99C903.071 90.3273 902.674 92.0047 902.674 94.022ZM912.069 86.1C912.228 85.5333 912.59 85.25 913.157 85.25C913.724 85.25 914.098 85.8167 914.279 86.95H914.415L915.979 86.61C916.704 86.61 917.407 87.29 918.087 88.65H918.223C919.22 87.086 920.24 86.304 921.283 86.304C923.504 86.712 924.615 88.1627 924.615 90.656L924.683 91.846L924.377 98.714V99.36C924.377 99.9267 924.026 100.255 923.323 100.346C922.62 100.346 922.269 99.5187 922.269 97.864L922.677 91.71C922.677 89.4433 922.144 88.31 921.079 88.31C920.467 88.31 919.73 89.7947 918.869 92.764C918.438 96.164 918.087 97.864 917.815 97.864C917.43 97.864 917.237 97.9433 917.237 98.102C916.534 98.0113 916.183 97.6487 916.183 97.014L916.625 92.9C916.557 90.0667 916.274 88.65 915.775 88.65H915.673C915.106 89.0807 914.823 89.9307 914.823 91.2V93.002L914.687 98.204C914.528 98.7707 914.177 99.054 913.633 99.054C913.157 99.054 912.851 98.6573 912.715 97.864L912.579 93.852L912.783 90.554C912.647 88.854 912.409 87.3693 912.069 86.1ZM929.626 85.794C930.533 85.8167 932.063 87.4033 934.216 90.554L934.284 91.132C934.284 91.7667 932.731 92.254 929.626 92.594L929.524 92.696V92.832C930 94.872 930.499 95.892 931.02 95.892H931.428C932.153 95.892 933.253 95.11 934.726 93.546H934.93C935.383 93.546 935.735 93.8747 935.984 94.532C935.984 95.076 935.032 96.0167 933.128 97.354C932.629 97.6487 932.029 97.864 931.326 98C929.49 98 928.209 96.2773 927.484 92.832C926.441 92.6733 925.92 92.2427 925.92 91.54C925.92 91.0413 926.305 90.7127 927.076 90.554V90.69L927.416 90.554V89.704C927.416 87.0973 928.153 85.794 929.626 85.794ZM929.83 88.242H929.524L929.388 89.5V90.554H929.524C930.793 90.5087 931.428 90.3727 931.428 90.146C930.839 89.262 930.306 88.6273 929.83 88.242ZM941.303 77.362C941.937 77.498 942.255 77.8153 942.255 78.314L942.051 79.81V80.252C942.051 81.2493 942.164 82.3033 942.391 83.414H942.459C945.088 82.6207 946.72 82.224 947.355 82.224C948.012 82.4053 948.341 82.734 948.341 83.21C948.341 83.9807 947.559 84.366 945.995 84.366L942.459 85.624C942.459 88.684 942.787 92.8433 943.445 98.102C943.309 98.714 942.98 99.02 942.459 99.02H942.391C941.597 99.02 941.201 98 941.201 95.96C940.906 94.4413 940.657 91.1433 940.453 86.066H939.841C937.71 85.93 936.645 85.4313 936.645 84.57C936.645 84.3207 936.883 84.0147 937.359 83.652H937.699L939.263 84.06H940.351L940.045 79.81C940.045 78.178 940.464 77.362 941.303 77.362ZM952.436 85.794C953.343 85.8167 954.873 87.4033 957.026 90.554L957.094 91.132C957.094 91.7667 955.542 92.254 952.436 92.594L952.334 92.696V92.832C952.81 94.872 953.309 95.892 953.83 95.892H954.238C954.964 95.892 956.063 95.11 957.536 93.546H957.74C958.194 93.546 958.545 93.8747 958.794 94.532C958.794 95.076 957.842 96.0167 955.938 97.354C955.44 97.6487 954.839 97.864 954.136 98C952.3 98 951.02 96.2773 950.294 92.832C949.252 92.6733 948.73 92.2427 948.73 91.54C948.73 91.0413 949.116 90.7127 949.886 90.554V90.69L950.226 90.554V89.704C950.226 87.0973 950.963 85.794 952.436 85.794ZM952.64 88.242H952.334L952.198 89.5V90.554H952.334C953.604 90.5087 954.238 90.3727 954.238 90.146C953.649 89.262 953.116 88.6273 952.64 88.242ZM964.589 84.604C966.017 84.604 966.867 85.6013 967.139 87.596V87.902C967.139 90.1007 966.006 92.118 963.739 93.954C965.054 95.246 967.354 95.892 970.641 95.892C971.14 96.0507 971.389 96.402 971.389 96.946C971.389 97.558 970.992 97.864 970.199 97.864C967.978 97.864 965.643 97.2973 963.195 96.164V97.15C963.195 99.4847 962.696 100.652 961.699 100.652C960.996 100.652 960.645 99.3033 960.645 96.606V93.954L960.543 93.002L960.781 91.914L960.543 88.65V88.514C960.543 87.902 960.86 87.4827 961.495 87.256C962.379 85.488 963.41 84.604 964.589 84.604ZM962.889 92.05C963.546 92.05 964.283 90.8713 965.099 88.514V87.052L964.691 86.61H964.385C963.388 87.29 962.889 89.1033 962.889 92.05Z" fill="black"/>
<path d="M532.846 17.062C533.64 17.062 534.036 18.4447 534.036 21.21L534.24 26.514H534.308L539.748 24.406C540.292 19.782 540.791 17.47 541.244 17.47L541.686 17.402C542.072 17.402 542.423 17.708 542.74 18.32C541.947 22.2187 541.55 25.596 541.55 28.452V29.914C541.55 31.9993 542.049 33.9827 543.046 35.864C542.82 36.4987 542.457 36.816 541.958 36.816C540.87 36.816 540.066 34.6173 539.544 30.22V26.752H539.34C535.94 27.9533 534.24 28.724 534.24 29.064C534.24 34.4587 533.742 37.156 532.744 37.156H532.608C532.132 37.156 531.826 36.7593 531.69 35.966C532.03 33.4953 532.2 31.58 532.2 30.22L530.704 31.002L530.398 31.07C529.832 30.866 529.548 30.5147 529.548 30.016C529.548 29.5173 530.432 28.7353 532.2 27.67V27.602C532.132 23.7033 531.985 20.4733 531.758 17.912C531.758 17.4133 532.121 17.13 532.846 17.062ZM550.828 22.876C551.826 22.876 552.324 23.2727 552.324 24.066L552.018 24.712L551.814 30.934C551.814 33.7447 552.381 35.49 553.514 36.17L553.582 36.68C553.514 37.3373 553.208 37.666 552.664 37.666H552.46C550.76 36.51 549.91 34.742 549.91 32.362H549.672C548.766 34.9007 547.666 36.17 546.374 36.17C545.173 35.83 544.572 34.9347 544.572 33.484C544.572 30.288 545.853 27.1033 548.414 23.93C549.276 23.2273 550.08 22.876 550.828 22.876ZM546.714 32.124L546.578 33.076V33.722H546.918C548.618 29.4833 549.468 26.8993 549.468 25.97H549.332C548.018 27.4433 547.145 29.4947 546.714 32.124ZM558.818 24.542C560.745 24.7007 561.708 25.6413 561.708 27.364L561.776 27.806L561.708 33.11C561.708 33.722 562.059 34.5493 562.762 35.592V35.66C562.581 36.3173 562.252 36.646 561.776 36.646C560.371 36.0567 559.668 34.81 559.668 32.906V32.464L559.566 32.396L559.668 32.26V32.192L559.77 27.5C559.77 26.8427 559.487 26.514 558.92 26.514H558.512C557.379 26.9673 556.812 29.4493 556.812 33.96C556.812 35.524 556.415 36.306 555.622 36.306C555.01 36.306 554.693 35.9207 554.67 35.15V31.75C554.67 27.3527 555.055 25.154 555.826 25.154L556.166 25.052L556.88 25.154C557.492 24.746 558.138 24.542 558.818 24.542ZM571.818 17.334C572.203 17.334 572.554 17.6967 572.872 18.422L571.376 27.874V30.526C571.376 33.2913 571.806 34.674 572.668 34.674C573.234 34.946 573.518 35.3087 573.518 35.762C573.518 36.2833 573.064 36.5893 572.158 36.68C571.16 36.68 570.378 35.762 569.812 33.926H569.472C568.633 35.762 567.613 36.68 566.412 36.68C565.006 36.68 564.156 35.6147 563.862 33.484C563.862 31.0133 565.516 28.3953 568.826 25.63C569.483 25.63 569.812 24.712 569.812 22.876C570.31 19.1813 570.979 17.334 571.818 17.334ZM565.868 33.212V34.13L566.412 34.674H566.616C567.341 34.674 568.191 32.4867 569.166 28.112H568.962C566.899 30.1747 565.868 31.8747 565.868 33.212ZM594.369 22.23C594.981 22.23 595.4 23.2613 595.627 25.324C595.4 25.8907 595.026 26.174 594.505 26.174C594.142 26.106 593.779 25.6867 593.417 24.916L592.805 24.712C591.739 24.712 590.776 25.4147 589.915 26.82V27.126C589.915 27.466 591.513 28.0327 594.709 28.826C596.046 29.6193 596.715 30.5827 596.715 31.716C596.715 33.5747 595.219 35.1613 592.227 36.476L590.969 36.68C589.065 36.476 588.113 35.524 588.113 33.824V33.722C588.113 33.178 588.464 32.8607 589.167 32.77C589.711 32.77 590.073 33.3367 590.255 34.47L590.527 34.674H591.105C592.397 34.674 593.598 33.79 594.709 32.022V31.58C594.709 30.9 593.224 30.2653 590.255 29.676C588.691 29.0413 587.909 28.1573 587.909 27.024C587.909 25.5507 589.144 24.168 591.615 22.876C592.703 22.74 593.621 22.5247 594.369 22.23ZM604.318 22.876C605.316 22.876 605.814 23.2727 605.814 24.066L605.508 24.712L605.304 30.934C605.304 33.7447 605.871 35.49 607.004 36.17L607.072 36.68C607.004 37.3373 606.698 37.666 606.154 37.666H605.95C604.25 36.51 603.4 34.742 603.4 32.362H603.162C602.256 34.9007 601.156 36.17 599.864 36.17C598.663 35.83 598.062 34.9347 598.062 33.484C598.062 30.288 599.343 27.1033 601.904 23.93C602.766 23.2273 603.57 22.876 604.318 22.876ZM600.204 32.124L600.068 33.076V33.722H600.408C602.108 29.4833 602.958 26.8993 602.958 25.97H602.822C601.508 27.4433 600.635 29.4947 600.204 32.124ZM612.308 24.542C614.235 24.7007 615.198 25.6413 615.198 27.364L615.266 27.806L615.198 33.11C615.198 33.722 615.55 34.5493 616.252 35.592V35.66C616.071 36.3173 615.742 36.646 615.266 36.646C613.861 36.0567 613.158 34.81 613.158 32.906V32.464L613.056 32.396L613.158 32.26V32.192L613.26 27.5C613.26 26.8427 612.977 26.514 612.41 26.514H612.002C610.869 26.9673 610.302 29.4493 610.302 33.96C610.302 35.524 609.906 36.306 609.112 36.306C608.5 36.306 608.183 35.9207 608.16 35.15V31.75C608.16 27.3527 608.546 25.154 609.316 25.154L609.656 25.052L610.37 25.154C610.982 24.746 611.628 24.542 612.308 24.542ZM617.726 18.286C618.587 18.4673 619.018 18.8527 619.018 19.442C618.791 20.0767 618.429 20.394 617.93 20.394C617.091 20.2353 616.672 19.816 616.672 19.136C616.899 18.5693 617.25 18.286 617.726 18.286ZM619.018 23.046C619.381 23.046 619.687 23.3747 619.936 24.032L619.63 26.446V28.044C619.63 29.9027 619.947 32.3393 620.582 35.354C620.355 35.7847 619.97 36 619.426 36C618.497 36 617.885 33.28 617.59 27.84V26.65C617.59 24.2473 618.066 23.046 619.018 23.046ZM626.344 15.362C626.978 15.498 627.296 15.8153 627.296 16.314L627.092 17.81V18.252C627.092 19.2493 627.205 20.3033 627.432 21.414H627.5C630.129 20.6207 631.761 20.224 632.396 20.224C633.053 20.4053 633.382 20.734 633.382 21.21C633.382 21.9807 632.6 22.366 631.036 22.366L627.5 23.624C627.5 26.684 627.828 30.8433 628.486 36.102C628.35 36.714 628.021 37.02 627.5 37.02H627.432C626.638 37.02 626.242 36 626.242 33.96C625.947 32.4413 625.698 29.1433 625.494 24.066H624.882C622.751 23.93 621.686 23.4313 621.686 22.57C621.686 22.3207 621.924 22.0147 622.4 21.652H622.74L624.304 22.06H625.392L625.086 17.81C625.086 16.178 625.505 15.362 626.344 15.362ZM634.825 18.286C635.687 18.4673 636.117 18.8527 636.117 19.442C635.891 20.0767 635.528 20.394 635.029 20.394C634.191 20.2353 633.771 19.816 633.771 19.136C633.998 18.5693 634.349 18.286 634.825 18.286ZM636.117 23.046C636.48 23.046 636.786 23.3747 637.035 24.032L636.729 26.446V28.044C636.729 29.9027 637.047 32.3393 637.681 35.354C637.455 35.7847 637.069 36 636.525 36C635.596 36 634.984 33.28 634.689 27.84V26.65C634.689 24.2473 635.165 23.046 636.117 23.046ZM644.633 25.732C645.064 25.732 645.381 26.0493 645.585 26.684C643.568 31.8067 642.502 34.64 642.389 35.184L642.525 35.286H643.579C644.667 35.286 646.152 34.7873 648.033 33.79C648.668 33.79 648.985 34.1867 648.985 34.98C647.716 36.544 645.732 37.326 643.035 37.326L641.471 37.122C640.95 37.462 640.587 37.632 640.383 37.632C639.68 37.632 639.329 36.986 639.329 35.694C639.329 35.422 639.714 35.0027 640.485 34.436L642.831 28.18V28.044H642.729L639.839 28.282C639.068 28.1233 638.683 27.738 638.683 27.126C638.683 26.5593 639 26.276 639.635 26.276C640.859 26.276 642.525 26.0947 644.633 25.732ZM653.083 23.794C653.99 23.8167 655.52 25.4033 657.673 28.554L657.741 29.132C657.741 29.7667 656.188 30.254 653.083 30.594L652.981 30.696V30.832C653.457 32.872 653.956 33.892 654.477 33.892H654.885C655.61 33.892 656.71 33.11 658.183 31.546H658.387C658.84 31.546 659.192 31.8747 659.441 32.532C659.441 33.076 658.489 34.0167 656.585 35.354C656.086 35.6487 655.486 35.864 654.783 36C652.947 36 651.666 34.2773 650.941 30.832C649.898 30.6733 649.377 30.2427 649.377 29.54C649.377 29.0413 649.762 28.7127 650.533 28.554V28.69L650.873 28.554V27.704C650.873 25.0973 651.61 23.794 653.083 23.794ZM653.287 26.242H652.981L652.845 27.5V28.554H652.981C654.25 28.5087 654.885 28.3727 654.885 28.146C654.296 27.262 653.763 26.6273 653.287 26.242ZM665.236 22.604C666.664 22.604 667.514 23.6013 667.786 25.596V25.902C667.786 28.1007 666.652 30.118 664.386 31.954C665.7 33.246 668.001 33.892 671.288 33.892C671.786 34.0507 672.036 34.402 672.036 34.946C672.036 35.558 671.639 35.864 670.846 35.864C668.624 35.864 666.29 35.2973 663.842 34.164V35.15C663.842 37.4847 663.343 38.652 662.346 38.652C661.643 38.652 661.292 37.3033 661.292 34.606V31.954L661.19 31.002L661.428 29.914L661.19 26.65V26.514C661.19 25.902 661.507 25.4827 662.142 25.256C663.026 23.488 664.057 22.604 665.236 22.604ZM663.536 30.05C664.193 30.05 664.93 28.8713 665.746 26.514V25.052L665.338 24.61H665.032C664.034 25.29 663.536 27.1033 663.536 30.05Z" fill="black"/>
<path d="M329.689 82.164C330.233 82.164 330.585 82.4473 330.743 83.014L330.539 85.02V85.666C331.106 90.358 331.457 94.0073 331.593 96.614C331.843 99.0393 332.103 100.252 332.375 100.252C332.375 100.728 331.979 101.034 331.185 101.17C330.052 101.17 329.485 98.8807 329.485 94.302L328.533 85.462V85.156C328.533 83.1613 328.919 82.164 329.689 82.164ZM338.521 89.542C340.448 89.7007 341.411 90.6413 341.411 92.364L341.479 92.806L341.411 98.11C341.411 98.722 341.762 99.5493 342.465 100.592V100.66C342.284 101.317 341.955 101.646 341.479 101.646C340.074 101.057 339.371 99.81 339.371 97.906V97.464L339.269 97.396L339.371 97.26V97.192L339.473 92.5C339.473 91.8427 339.19 91.514 338.623 91.514H338.215C337.082 91.9673 336.515 94.4493 336.515 98.96C336.515 100.524 336.118 101.306 335.325 101.306C334.713 101.306 334.396 100.921 334.373 100.15V96.75C334.373 92.3527 334.758 90.154 335.529 90.154L335.869 90.052L336.583 90.154C337.195 89.746 337.841 89.542 338.521 89.542ZM350.365 87.23C350.977 87.23 351.396 88.2613 351.623 90.324C351.396 90.8907 351.022 91.174 350.501 91.174C350.138 91.106 349.775 90.6867 349.413 89.916L348.801 89.712C347.735 89.712 346.772 90.4147 345.911 91.82V92.126C345.911 92.466 347.509 93.0327 350.705 93.826C352.042 94.6193 352.711 95.5827 352.711 96.716C352.711 98.5747 351.215 100.161 348.223 101.476L346.965 101.68C345.061 101.476 344.109 100.524 344.109 98.824V98.722C344.109 98.178 344.46 97.8607 345.163 97.77C345.707 97.77 346.069 98.3367 346.251 99.47L346.523 99.674H347.101C348.393 99.674 349.594 98.79 350.705 97.022V96.58C350.705 95.9 349.22 95.2653 346.251 94.676C344.687 94.0413 343.905 93.1573 343.905 92.024C343.905 90.5507 345.14 89.168 347.611 87.876C348.699 87.74 349.617 87.5247 350.365 87.23ZM355.317 90.766L355.929 90.426C356.473 90.426 356.869 90.7547 357.119 91.412C356.756 93.0893 356.575 94.812 356.575 96.58C356.575 97.464 356.835 98.4273 357.357 99.47H357.561C358.218 99.47 359 96.8747 359.907 91.684C360.224 91.412 360.53 91.276 360.825 91.276C361.527 91.276 361.879 92.5227 361.879 95.016C362.173 97.7587 362.502 99.13 362.865 99.13L363.375 98.926C364.032 99.1753 364.361 99.5267 364.361 99.98C363.953 100.841 363.386 101.272 362.661 101.272C361.845 101.272 361.063 100.456 360.315 98.824C359.408 100.728 358.49 101.68 357.561 101.68C356.178 101.68 355.215 100.241 354.671 97.362L354.569 96.274V95.934C354.569 94.1207 354.818 92.398 355.317 90.766ZM367.018 82.266C367.652 82.4927 367.97 82.844 367.97 83.32L368.31 96.274V100.456C368.31 101.227 367.981 101.612 367.324 101.612H366.882C366.474 101.34 366.27 101.023 366.27 100.66V96.716L365.964 83.252C365.964 82.6853 366.315 82.3567 367.018 82.266ZM371.165 83.286C372.027 83.4673 372.457 83.8527 372.457 84.442C372.231 85.0767 371.868 85.394 371.369 85.394C370.531 85.2353 370.111 84.816 370.111 84.136C370.338 83.5693 370.689 83.286 371.165 83.286ZM372.457 88.046C372.82 88.046 373.126 88.3747 373.375 89.032L373.069 91.446V93.044C373.069 94.9027 373.387 97.3393 374.021 100.354C373.795 100.785 373.409 101 372.865 101C371.936 101 371.324 98.28 371.029 92.84V91.65C371.029 89.2473 371.505 88.046 372.457 88.046ZM380.191 89.542C382.118 89.7007 383.081 90.6413 383.081 92.364L383.149 92.806L383.081 98.11C383.081 98.722 383.432 99.5493 384.135 100.592V100.66C383.954 101.317 383.625 101.646 383.149 101.646C381.744 101.057 381.041 99.81 381.041 97.906V97.464L380.939 97.396L381.041 97.26V97.192L381.143 92.5C381.143 91.8427 380.86 91.514 380.293 91.514H379.885C378.752 91.9673 378.185 94.4493 378.185 98.96C378.185 100.524 377.788 101.306 376.995 101.306C376.383 101.306 376.066 100.921 376.043 100.15V96.75C376.043 92.3527 376.428 90.154 377.199 90.154L377.539 90.052L378.253 90.154C378.865 89.746 379.511 89.542 380.191 89.542Z" fill="black"/>
<path d="M18.9744 98.872H19.3144C19.949 98.872 20.3117 99.246 20.4024 99.994C20.4024 100.651 19.507 100.98 17.7164 100.98C14.8377 102.068 12.8997 103.655 11.9024 105.74L11.6644 106.726V106.93C11.6644 107.927 12.333 108.426 13.6704 108.426L17.4104 108.222C19.9264 108.222 21.6264 109.446 22.5104 111.894L22.7144 113.084C22.7144 115.441 20.8104 117.595 17.0024 119.544C15.869 119.861 14.8717 120.077 14.0104 120.19C11.6984 120.19 10.0664 118.887 9.11437 116.28C8.84237 115.396 8.70637 114.501 8.70637 113.594C8.70637 113.322 8.9217 113.039 9.35237 112.744H9.76037C10.463 112.744 10.8144 113.639 10.8144 115.43C11.4037 117.198 12.333 118.082 13.6024 118.082H14.5204C16.3564 118.082 18.1697 117.017 19.9604 114.886C20.4364 114.206 20.6744 113.469 20.6744 112.676C20.6744 111.565 19.8017 110.783 18.0564 110.33H17.9204L13.4664 110.432C10.9957 110.137 9.76037 109.117 9.76037 107.372L9.62437 106.93C9.62437 104.595 11.3697 102.329 14.8604 100.13C16.379 99.2913 17.7504 98.872 18.9744 98.872ZM27.205 106.794C28.1117 106.817 29.6417 108.403 31.795 111.554L31.863 112.132C31.863 112.767 30.3104 113.254 27.205 113.594L27.103 113.696V113.832C27.579 115.872 28.0777 116.892 28.599 116.892H29.007C29.7324 116.892 30.8317 116.11 32.305 114.546H32.509C32.9624 114.546 33.3137 114.875 33.563 115.532C33.563 116.076 32.611 117.017 30.707 118.354C30.2084 118.649 29.6077 118.864 28.905 119C27.069 119 25.7884 117.277 25.063 113.832C24.0204 113.673 23.499 113.243 23.499 112.54C23.499 112.041 23.8844 111.713 24.655 111.554V111.69L24.995 111.554V110.704C24.995 108.097 25.7317 106.794 27.205 106.794ZM27.409 109.242H27.103L26.967 110.5V111.554H27.103C28.3724 111.509 29.007 111.373 29.007 111.146C28.4177 110.262 27.885 109.627 27.409 109.242ZM39.3576 105.604C40.7856 105.604 41.6356 106.601 41.9076 108.596V108.902C41.9076 111.101 40.7743 113.118 38.5076 114.954C39.8223 116.246 42.123 116.892 45.4096 116.892C45.9083 117.051 46.1576 117.402 46.1576 117.946C46.1576 118.558 45.761 118.864 44.9676 118.864C42.7463 118.864 40.4116 118.297 37.9636 117.164V118.15C37.9636 120.485 37.465 121.652 36.4676 121.652C35.765 121.652 35.4136 120.303 35.4136 117.606V114.954L35.3116 114.002L35.5496 112.914L35.3116 109.65V109.514C35.3116 108.902 35.629 108.483 36.2636 108.256C37.1476 106.488 38.179 105.604 39.3576 105.604ZM37.6576 113.05C38.315 113.05 39.0516 111.871 39.8676 109.514V108.052L39.4596 107.61H39.1536C38.1563 108.29 37.6576 110.103 37.6576 113.05ZM47.6956 101.286C48.5569 101.467 48.9876 101.853 48.9876 102.442C48.7609 103.077 48.3983 103.394 47.8996 103.394C47.0609 103.235 46.6416 102.816 46.6416 102.136C46.8683 101.569 47.2196 101.286 47.6956 101.286ZM48.9876 106.046C49.3503 106.046 49.6563 106.375 49.9056 107.032L49.5996 109.446V111.044C49.5996 112.903 49.9169 115.339 50.5516 118.354C50.3249 118.785 49.9396 119 49.3956 119C48.4663 119 47.8543 116.28 47.5596 110.84V109.65C47.5596 107.247 48.0356 106.046 48.9876 106.046ZM56.7213 107.542C58.6479 107.701 59.6113 108.641 59.6113 110.364L59.6793 110.806L59.6113 116.11C59.6113 116.722 59.9626 117.549 60.6653 118.592V118.66C60.4839 119.317 60.1553 119.646 59.6793 119.646C58.2739 119.057 57.5713 117.81 57.5713 115.906V115.464L57.4693 115.396L57.5713 115.26V115.192L57.6733 110.5C57.6733 109.843 57.3899 109.514 56.8233 109.514H56.4153C55.2819 109.967 54.7153 112.449 54.7153 116.96C54.7153 118.524 54.3186 119.306 53.5253 119.306C52.9133 119.306 52.5959 118.921 52.5733 118.15V114.75C52.5733 110.353 52.9586 108.154 53.7293 108.154L54.0693 108.052L54.7833 108.154C55.3953 107.746 56.0413 107.542 56.7213 107.542ZM67.205 105.944C68.2476 105.944 68.769 106.443 68.769 107.44C68.905 107.44 68.973 107.61 68.973 107.95H69.109L68.973 108.936L69.109 115.804L68.905 121.244C70.945 121.244 72.3163 122.74 73.019 125.732C73.019 126.344 72.5996 126.695 71.761 126.786C71.3756 126.786 70.945 125.936 70.469 124.236C70.0156 123.579 69.4943 123.25 68.905 123.25H68.769C68.0436 128.078 67.409 130.492 66.865 130.492C66.2076 131.693 65.2556 132.294 64.009 132.294C62.173 131.863 61.255 130.945 61.255 129.54V129.336C61.255 127.205 62.7736 124.893 65.811 122.4L66.865 121.754L67.001 118.082V117.232H66.865C66.0943 118.207 65.3576 118.694 64.655 118.694H64.451C62.887 118.694 61.9916 117.493 61.765 115.09V114.342C61.765 111.441 62.8303 108.925 64.961 106.794C65.6183 106.227 66.3663 105.944 67.205 105.944ZM63.805 113.9V115.532C63.8956 116.28 64.0656 116.654 64.315 116.654H64.655C65.2896 116.654 66.0716 114.319 67.001 109.65V107.95C65.641 107.95 64.5756 109.933 63.805 113.9ZM63.261 129.404C63.3516 129.971 63.669 130.254 64.213 130.254C65.301 130.254 66.083 128.316 66.559 124.44H66.355C64.2923 126.231 63.261 127.885 63.261 129.404ZM73.955 106.794C74.8617 106.817 76.3917 108.403 78.545 111.554L78.613 112.132C78.613 112.767 77.0604 113.254 73.955 113.594L73.853 113.696V113.832C74.329 115.872 74.8277 116.892 75.349 116.892H75.757C76.4824 116.892 77.5817 116.11 79.055 114.546H79.259C79.7124 114.546 80.0637 114.875 80.313 115.532C80.313 116.076 79.361 117.017 77.457 118.354C76.9584 118.649 76.3577 118.864 75.655 119C73.819 119 72.5384 117.277 71.813 113.832C70.7704 113.673 70.249 113.243 70.249 112.54C70.249 112.041 70.6344 111.713 71.405 111.554V111.69L71.745 111.554V110.704C71.745 108.097 72.4817 106.794 73.955 106.794ZM74.159 109.242H73.853L73.717 110.5V111.554H73.853C75.1224 111.509 75.757 111.373 75.757 111.146C75.1677 110.262 74.635 109.627 74.159 109.242Z" fill="black"/>
<path d="M6.2293 395.7C7.29463 395.7 8.0313 396.833 8.4393 399.1V399.236C8.4393 399.757 8.08796 400.063 7.3853 400.154C6.81863 400.154 6.4333 399.451 6.2293 398.046L6.0933 397.944H5.6853C5.18663 398.669 4.9373 399.621 4.9373 400.8L5.0393 402.5C5.94596 402.5 6.93196 402.262 7.9973 401.786C8.42796 401.786 8.82463 402.092 9.1873 402.704C9.1873 403.633 7.91796 404.245 5.3793 404.54L6.2293 410.082C6.2293 410.558 5.83263 410.864 5.0393 411C4.33663 411 3.9853 409.912 3.9853 407.736L3.3393 404.846L1.1293 405.186C0.653297 405.186 0.369964 404.835 0.279297 404.132C0.279297 403.452 1.1973 403.021 3.0333 402.84L2.8973 400.732C3.25996 397.377 4.37063 395.7 6.2293 395.7ZM16.4474 397.876C17.4447 397.876 17.9434 398.273 17.9434 399.066L17.6374 399.712L17.4334 405.934C17.4334 408.745 18 410.49 19.1334 411.17L19.2014 411.68C19.1334 412.337 18.8274 412.666 18.2834 412.666H18.0794C16.3794 411.51 15.5294 409.742 15.5294 407.362H15.2914C14.3847 409.901 13.2854 411.17 11.9934 411.17C10.792 410.83 10.1914 409.935 10.1914 408.484C10.1914 405.288 11.472 402.103 14.0334 398.93C14.8947 398.227 15.6994 397.876 16.4474 397.876ZM12.3334 407.124L12.1974 408.076V408.722H12.5374C14.2374 404.483 15.0874 401.899 15.0874 400.97H14.9514C13.6367 402.443 12.764 404.495 12.3334 407.124ZM26.8511 397.23C27.4631 397.23 27.8824 398.261 28.1091 400.324C27.8824 400.891 27.5084 401.174 26.9871 401.174C26.6244 401.106 26.2618 400.687 25.8991 399.916L25.2871 399.712C24.2218 399.712 23.2584 400.415 22.3971 401.82V402.126C22.3971 402.466 23.9951 403.033 27.1911 403.826C28.5284 404.619 29.1971 405.583 29.1971 406.716C29.1971 408.575 27.7011 410.161 24.7091 411.476L23.4511 411.68C21.5471 411.476 20.5951 410.524 20.5951 408.824V408.722C20.5951 408.178 20.9464 407.861 21.6491 407.77C22.1931 407.77 22.5558 408.337 22.7371 409.47L23.0091 409.674H23.5871C24.8791 409.674 26.0804 408.79 27.1911 407.022V406.58C27.1911 405.9 25.7064 405.265 22.7371 404.676C21.1731 404.041 20.3911 403.157 20.3911 402.024C20.3911 400.551 21.6264 399.168 24.0971 397.876C25.1851 397.74 26.1031 397.525 26.8511 397.23ZM34.4549 390.362C35.0895 390.498 35.4069 390.815 35.4069 391.314L35.2029 392.81V393.252C35.2029 394.249 35.3162 395.303 35.5429 396.414H35.6109C38.2402 395.621 39.8722 395.224 40.5069 395.224C41.1642 395.405 41.4929 395.734 41.4929 396.21C41.4929 396.981 40.7109 397.366 39.1469 397.366L35.6109 398.624C35.6109 401.684 35.9395 405.843 36.5969 411.102C36.4609 411.714 36.1322 412.02 35.6109 412.02H35.5429C34.7495 412.02 34.3529 411 34.3529 408.96C34.0582 407.441 33.8089 404.143 33.6049 399.066H32.9929C30.8622 398.93 29.7969 398.431 29.7969 397.57C29.7969 397.321 30.0349 397.015 30.5109 396.652H30.8509L32.4149 397.06H33.5029L33.1969 392.81C33.1969 391.178 33.6162 390.362 34.4549 390.362ZM46.5068 401.65L52.6608 401.242C53.2275 401.242 53.5561 401.593 53.6468 402.296C53.6468 402.999 52.5815 403.35 50.4508 403.35C48.8868 403.577 47.5041 403.69 46.3028 403.69C44.8295 403.509 44.0928 403.089 44.0928 402.432C44.0928 401.979 44.3988 401.616 45.0108 401.344L46.3028 401.65H46.5068ZM63.131 397.876C64.1283 397.876 64.627 398.273 64.627 399.066L64.321 399.712L64.117 405.934C64.117 408.745 64.6836 410.49 65.817 411.17L65.885 411.68C65.817 412.337 65.511 412.666 64.967 412.666H64.763C63.063 411.51 62.213 409.742 62.213 407.362H61.975C61.0683 409.901 59.969 411.17 58.677 411.17C57.4756 410.83 56.875 409.935 56.875 408.484C56.875 405.288 58.1556 402.103 60.717 398.93C61.5783 398.227 62.383 397.876 63.131 397.876ZM59.017 407.124L58.881 408.076V408.722H59.221C60.921 404.483 61.771 401.899 61.771 400.97H61.635C60.3203 402.443 59.4476 404.495 59.017 407.124ZM66.9727 394.85C68.1514 394.85 68.9107 397.162 69.2507 401.786L69.4547 402.84C70.4974 400.709 71.3474 399.644 72.0047 399.644C72.0047 399.553 72.2427 399.485 72.7187 399.44H72.8547C74.3507 399.44 75.3027 400.607 75.7107 402.942V403.044C75.7107 405.039 74.7134 407.237 72.7187 409.64C71.88 410.547 70.962 411 69.9647 411C68.8314 410.751 68.2647 410.184 68.2647 409.3L66.5647 397.094L66.0547 395.836C66.0547 395.428 66.3607 395.099 66.9727 394.85ZM70.5087 408.654H70.6107C71.7894 408.178 72.8207 406.557 73.7047 403.792V402.5C73.5007 401.797 73.24 401.446 72.9227 401.446H72.6507C71.6534 402.035 70.9394 404.438 70.5087 408.654ZM84.2593 397.23C84.8713 397.23 85.2906 398.261 85.5173 400.324C85.2906 400.891 84.9166 401.174 84.3953 401.174C84.0326 401.106 83.67 400.687 83.3073 399.916L82.6953 399.712C81.63 399.712 80.6666 400.415 79.8053 401.82V402.126C79.8053 402.466 81.4033 403.033 84.5993 403.826C85.9366 404.619 86.6053 405.583 86.6053 406.716C86.6053 408.575 85.1093 410.161 82.1173 411.476L80.8593 411.68C78.9553 411.476 78.0033 410.524 78.0033 408.824V408.722C78.0033 408.178 78.3546 407.861 79.0573 407.77C79.6013 407.77 79.964 408.337 80.1453 409.47L80.4173 409.674H80.9953C82.2873 409.674 83.4886 408.79 84.5993 407.022V406.58C84.5993 405.9 83.1146 405.265 80.1453 404.676C78.5813 404.041 77.7993 403.157 77.7993 402.024C77.7993 400.551 79.0346 399.168 81.5053 397.876C82.5933 397.74 83.5113 397.525 84.2593 397.23ZM93.2911 398.182C94.9684 398.182 96.2377 399.429 97.0991 401.922L97.2351 402.636C97.2351 405.061 96.1017 407.543 93.8351 410.082C92.9284 410.921 92.0104 411.34 91.0811 411.34C89.7211 411.34 88.7577 410.558 88.1911 408.994C87.9871 408.269 87.8851 407.634 87.8851 407.09V406.682C87.8851 403.101 89.1884 400.381 91.7951 398.522C92.2484 398.295 92.7471 398.182 93.2911 398.182ZM89.8911 407.022C89.8911 408.563 90.2877 409.334 91.0811 409.334C92.7357 409.334 94.1071 407.215 95.1951 402.976V402.33C94.8097 400.925 94.0957 400.222 93.0531 400.222C92.6451 400.222 92.4411 400.505 92.4411 401.072C92.4411 401.457 91.9877 401.763 91.0811 401.99C90.2877 403.327 89.8911 405.005 89.8911 407.022ZM103.23 397.604C104.658 397.604 105.508 398.601 105.78 400.596V400.902C105.78 403.101 104.646 405.118 102.38 406.954C103.694 408.246 105.995 408.892 109.282 408.892C109.78 409.051 110.03 409.402 110.03 409.946C110.03 410.558 109.633 410.864 108.84 410.864C106.618 410.864 104.284 410.297 101.836 409.164V410.15C101.836 412.485 101.337 413.652 100.34 413.652C99.637 413.652 99.2857 412.303 99.2857 409.606V406.954L99.1837 406.002L99.4217 404.914L99.1837 401.65V401.514C99.1837 400.902 99.501 400.483 100.136 400.256C101.02 398.488 102.051 397.604 103.23 397.604ZM101.53 405.05C102.187 405.05 102.924 403.871 103.74 401.514V400.052L103.332 399.61H103.026C102.028 400.29 101.53 402.103 101.53 405.05ZM111.432 394.85C112.61 394.85 113.37 397.162 113.71 401.786L113.914 402.84C114.956 400.709 115.806 399.644 116.464 399.644C116.464 399.553 116.702 399.485 117.178 399.44H117.314C118.81 399.44 119.762 400.607 120.17 402.942V403.044C120.17 405.039 119.172 407.237 117.178 409.64C116.339 410.547 115.421 411 114.424 411C113.29 410.751 112.724 410.184 112.724 409.3L111.024 397.094L110.514 395.836C110.514 395.428 110.82 395.099 111.432 394.85ZM114.968 408.654H115.07C116.248 408.178 117.28 406.557 118.164 403.792V402.5C117.96 401.797 117.699 401.446 117.382 401.446H117.11C116.112 402.035 115.398 404.438 114.968 408.654ZM122.292 393.286C123.154 393.467 123.584 393.853 123.584 394.442C123.358 395.077 122.995 395.394 122.496 395.394C121.658 395.235 121.238 394.816 121.238 394.136C121.465 393.569 121.816 393.286 122.292 393.286ZM123.584 398.046C123.947 398.046 124.253 398.375 124.502 399.032L124.196 401.446V403.044C124.196 404.903 124.514 407.339 125.148 410.354C124.922 410.785 124.536 411 123.992 411C123.063 411 122.451 408.28 122.156 402.84V401.65C122.156 399.247 122.632 398.046 123.584 398.046ZM131.318 399.542C133.245 399.701 134.208 400.641 134.208 402.364L134.276 402.806L134.208 408.11C134.208 408.722 134.559 409.549 135.262 410.592V410.66C135.081 411.317 134.752 411.646 134.276 411.646C132.871 411.057 132.168 409.81 132.168 407.906V407.464L132.066 407.396L132.168 407.26V407.192L132.27 402.5C132.27 401.843 131.987 401.514 131.42 401.514H131.012C129.879 401.967 129.312 404.449 129.312 408.96C129.312 410.524 128.915 411.306 128.122 411.306C127.51 411.306 127.193 410.921 127.17 410.15V406.75C127.17 402.353 127.555 400.154 128.326 400.154L128.666 400.052L129.38 400.154C129.992 399.746 130.638 399.542 131.318 399.542ZM141.802 397.944C142.844 397.944 143.366 398.443 143.366 399.44C143.502 399.44 143.57 399.61 143.57 399.95H143.706L143.57 400.936L143.706 407.804L143.502 413.244C145.542 413.244 146.913 414.74 147.616 417.732C147.616 418.344 147.196 418.695 146.358 418.786C145.972 418.786 145.542 417.936 145.066 416.236C144.612 415.579 144.091 415.25 143.502 415.25H143.366C142.64 420.078 142.006 422.492 141.462 422.492C140.804 423.693 139.852 424.294 138.606 424.294C136.77 423.863 135.852 422.945 135.852 421.54V421.336C135.852 419.205 137.37 416.893 140.408 414.4L141.462 413.754L141.598 410.082V409.232H141.462C140.691 410.207 139.954 410.694 139.252 410.694H139.048C137.484 410.694 136.588 409.493 136.362 407.09V406.342C136.362 403.441 137.427 400.925 139.558 398.794C140.215 398.227 140.963 397.944 141.802 397.944ZM138.402 405.9V407.532C138.492 408.28 138.662 408.654 138.912 408.654H139.252C139.886 408.654 140.668 406.319 141.598 401.65V399.95C140.238 399.95 139.172 401.933 138.402 405.9ZM137.858 421.404C137.948 421.971 138.266 422.254 138.81 422.254C139.898 422.254 140.68 420.316 141.156 416.44H140.952C138.889 418.231 137.858 419.885 137.858 421.404ZM165.142 397.23C165.754 397.23 166.173 398.261 166.4 400.324C166.173 400.891 165.799 401.174 165.278 401.174C164.915 401.106 164.553 400.687 164.19 399.916L163.578 399.712C162.513 399.712 161.549 400.415 160.688 401.82V402.126C160.688 402.466 162.286 403.033 165.482 403.826C166.819 404.619 167.488 405.583 167.488 406.716C167.488 408.575 165.992 410.161 163 411.476L161.742 411.68C159.838 411.476 158.886 410.524 158.886 408.824V408.722C158.886 408.178 159.237 407.861 159.94 407.77C160.484 407.77 160.847 408.337 161.028 409.47L161.3 409.674H161.878C163.17 409.674 164.371 408.79 165.482 407.022V406.58C165.482 405.9 163.997 405.265 161.028 404.676C159.464 404.041 158.682 403.157 158.682 402.024C158.682 400.551 159.917 399.168 162.388 397.876C163.476 397.74 164.394 397.525 165.142 397.23ZM170.094 400.766L170.706 400.426C171.25 400.426 171.647 400.755 171.896 401.412C171.533 403.089 171.352 404.812 171.352 406.58C171.352 407.464 171.613 408.427 172.134 409.47H172.338C172.995 409.47 173.777 406.875 174.684 401.684C175.001 401.412 175.307 401.276 175.602 401.276C176.305 401.276 176.656 402.523 176.656 405.016C176.951 407.759 177.279 409.13 177.642 409.13L178.152 408.926C178.809 409.175 179.138 409.527 179.138 409.98C178.73 410.841 178.163 411.272 177.438 411.272C176.622 411.272 175.84 410.456 175.092 408.824C174.185 410.728 173.267 411.68 172.338 411.68C170.955 411.68 169.992 410.241 169.448 407.362L169.346 406.274V405.934C169.346 404.121 169.595 402.398 170.094 400.766ZM185.331 397.944C186.374 397.944 186.895 398.443 186.895 399.44C187.031 399.44 187.099 399.61 187.099 399.95H187.235L187.099 400.936L187.235 407.804L187.031 413.244C189.071 413.244 190.442 414.74 191.145 417.732C191.145 418.344 190.726 418.695 189.887 418.786C189.502 418.786 189.071 417.936 188.595 416.236C188.142 415.579 187.62 415.25 187.031 415.25H186.895C186.17 420.078 185.535 422.492 184.991 422.492C184.334 423.693 183.382 424.294 182.135 424.294C180.299 423.863 179.381 422.945 179.381 421.54V421.336C179.381 419.205 180.9 416.893 183.937 414.4L184.991 413.754L185.127 410.082V409.232H184.991C184.22 410.207 183.484 410.694 182.781 410.694H182.577C181.013 410.694 180.118 409.493 179.891 407.09V406.342C179.891 403.441 180.956 400.925 183.087 398.794C183.744 398.227 184.492 397.944 185.331 397.944ZM181.931 405.9V407.532C182.022 408.28 182.192 408.654 182.441 408.654H182.781C183.416 408.654 184.198 406.319 185.127 401.65V399.95C183.767 399.95 182.702 401.933 181.931 405.9ZM181.387 421.404C181.478 421.971 181.795 422.254 182.339 422.254C183.427 422.254 184.209 420.316 184.685 416.44H184.481C182.418 418.231 181.387 419.885 181.387 421.404ZM195.379 397.876C196.376 397.876 196.875 398.273 196.875 399.066L196.569 399.712L196.365 405.934C196.365 408.745 196.932 410.49 198.065 411.17L198.133 411.68C198.065 412.337 197.759 412.666 197.215 412.666H197.011C195.311 411.51 194.461 409.742 194.461 407.362H194.223C193.316 409.901 192.217 411.17 190.925 411.17C189.724 410.83 189.123 409.935 189.123 408.484C189.123 405.288 190.404 402.103 192.965 398.93C193.826 398.227 194.631 397.876 195.379 397.876ZM191.265 407.124L191.129 408.076V408.722H191.469C193.169 404.483 194.019 401.899 194.019 400.97H193.883C192.568 402.443 191.696 404.495 191.265 407.124ZM203.437 397.604C204.865 397.604 205.715 398.601 205.987 400.596V400.902C205.987 403.101 204.853 405.118 202.587 406.954C203.901 408.246 206.202 408.892 209.489 408.892C209.987 409.051 210.237 409.402 210.237 409.946C210.237 410.558 209.84 410.864 209.047 410.864C206.825 410.864 204.491 410.297 202.043 409.164V410.15C202.043 412.485 201.544 413.652 200.547 413.652C199.844 413.652 199.493 412.303 199.493 409.606V406.954L199.391 406.002L199.629 404.914L199.391 401.65V401.514C199.391 400.902 199.708 400.483 200.343 400.256C201.227 398.488 202.258 397.604 203.437 397.604ZM201.737 405.05C202.394 405.05 203.131 403.871 203.947 401.514V400.052L203.539 399.61H203.233C202.235 400.29 201.737 402.103 201.737 405.05Z" fill="black"/>
<path d="M418.273 516.354C419.814 516.354 420.709 517.465 420.959 519.686C420.959 521.522 420.528 522.678 419.667 523.154H419.463C418.805 523.109 418.477 522.871 418.477 522.44L418.613 519.89V518.632L418.409 518.394H418.069C417.343 518.394 416.493 520.411 415.519 524.446L415.315 526.996V527.744C415.315 530.101 416.369 531.484 418.477 531.892H419.905C422.262 531.892 425.118 530.373 428.473 527.336H428.609C429.221 527.336 429.572 527.721 429.663 528.492C429.141 529.852 428.529 530.532 427.827 530.532C424.585 532.844 421.673 534 419.089 534C416.505 534 414.68 532.583 413.615 529.75L413.309 527.336V526.894C413.309 523.381 414.295 520.151 416.267 517.204C416.901 516.637 417.57 516.354 418.273 516.354ZM436.395 521.182C438.072 521.182 439.341 522.429 440.203 524.922L440.339 525.636C440.339 528.061 439.205 530.543 436.939 533.082C436.032 533.921 435.114 534.34 434.185 534.34C432.825 534.34 431.861 533.558 431.295 531.994C431.091 531.269 430.989 530.634 430.989 530.09V529.682C430.989 526.101 432.292 523.381 434.899 521.522C435.352 521.295 435.851 521.182 436.395 521.182ZM432.995 530.022C432.995 531.563 433.391 532.334 434.185 532.334C435.839 532.334 437.211 530.215 438.299 525.976V525.33C437.913 523.925 437.199 523.222 436.157 523.222C435.749 523.222 435.545 523.505 435.545 524.072C435.545 524.457 435.091 524.763 434.185 524.99C433.391 526.327 432.995 528.005 432.995 530.022ZM445.857 513.362C446.492 513.498 446.809 513.815 446.809 514.314L446.605 515.81V516.252C446.605 517.249 446.719 518.303 446.945 519.414H447.013C449.643 518.621 451.275 518.224 451.909 518.224C452.567 518.405 452.895 518.734 452.895 519.21C452.895 519.981 452.113 520.366 450.549 520.366L447.013 521.624C447.013 524.684 447.342 528.843 447.999 534.102C447.863 534.714 447.535 535.02 447.013 535.02H446.945C446.152 535.02 445.755 534 445.755 531.96C445.461 530.441 445.211 527.143 445.007 522.066H444.395C442.265 521.93 441.199 521.431 441.199 520.57C441.199 520.321 441.437 520.015 441.913 519.652H442.253L443.817 520.06H444.905L444.599 515.81C444.599 514.178 445.019 513.362 445.857 513.362ZM457.943 513.362C458.578 513.498 458.895 513.815 458.895 514.314L458.691 515.81V516.252C458.691 517.249 458.804 518.303 459.031 519.414H459.099C461.728 518.621 463.36 518.224 463.995 518.224C464.652 518.405 464.981 518.734 464.981 519.21C464.981 519.981 464.199 520.366 462.635 520.366L459.099 521.624C459.099 524.684 459.428 528.843 460.085 534.102C459.949 534.714 459.62 535.02 459.099 535.02H459.031C458.238 535.02 457.841 534 457.841 531.96C457.546 530.441 457.297 527.143 457.093 522.066H456.481C454.35 521.93 453.285 521.431 453.285 520.57C453.285 520.321 453.523 520.015 453.999 519.652H454.339L455.903 520.06H456.991L456.685 515.81C456.685 514.178 457.104 513.362 457.943 513.362ZM471.457 521.182C473.134 521.182 474.404 522.429 475.265 524.922L475.401 525.636C475.401 528.061 474.268 530.543 472.001 533.082C471.094 533.921 470.176 534.34 469.247 534.34C467.887 534.34 466.924 533.558 466.357 531.994C466.153 531.269 466.051 530.634 466.051 530.09V529.682C466.051 526.101 467.354 523.381 469.961 521.522C470.414 521.295 470.913 521.182 471.457 521.182ZM468.057 530.022C468.057 531.563 468.454 532.334 469.247 532.334C470.902 532.334 472.273 530.215 473.361 525.976V525.33C472.976 523.925 472.262 523.222 471.219 523.222C470.811 523.222 470.607 523.505 470.607 524.072C470.607 524.457 470.154 524.763 469.247 524.99C468.454 526.327 468.057 528.005 468.057 530.022ZM481.328 522.542C483.254 522.701 484.218 523.641 484.218 525.364L484.286 525.806L484.218 531.11C484.218 531.722 484.569 532.549 485.272 533.592V533.66C485.09 534.317 484.762 534.646 484.286 534.646C482.88 534.057 482.178 532.81 482.178 530.906V530.464L482.076 530.396L482.178 530.26V530.192L482.28 525.5C482.28 524.843 481.996 524.514 481.43 524.514H481.022C479.888 524.967 479.322 527.449 479.322 531.96C479.322 533.524 478.925 534.306 478.132 534.306C477.52 534.306 477.202 533.921 477.18 533.15V529.75C477.18 525.353 477.565 523.154 478.336 523.154L478.676 523.052L479.39 523.154C480.002 522.746 480.648 522.542 481.328 522.542Z" fill="black"/>
<path d="M337.245 136.752C337.245 127.045 343.705 118.457 350.208 111.954" stroke="#5B6670" stroke-width="3" stroke-linecap="round"/>
<path d="M547 70.7987C547 61.0909 553.46 52.503 559.963 46" stroke="#5B6670" stroke-width="3" stroke-linecap="round"/>
<path d="M804.804 104.367C804.804 94.937 818.35 88.5826 826.568 88.5826C830.076 88.5826 833.584 88.5826 837.091 88.5826C839.864 88.5826 844.02 87.8615 846.419 89.061" stroke="#5B6670" stroke-width="3" stroke-linecap="round"/>
<path d="M841.367 340.095C841.367 337.676 840.638 333.945 841.77 331.808C842.994 329.495 845.29 327.241 847.064 325.363C850.466 321.761 858.124 319.378 863.119 319.378" stroke="#5B6670" stroke-width="3" stroke-linecap="round"/>
<path d="M688.903 496.674C688.135 497.634 687.915 499.404 687.362 500.526C686.467 502.343 685.617 504.204 684.537 505.919C683.658 507.316 682.969 509.385 682.483 510.969C682.054 512.369 681.456 513.817 681.456 515.292C681.456 517.404 680.589 520.821 682.626 522.126C684.576 523.375 685.946 524.152 688.247 524.152C692.751 524.152 697.424 524.408 702 524.408" stroke="#5B6670" stroke-width="3" stroke-linecap="round"/>
<path d="M390.337 488.158C386.761 491.958 383.223 498.879 383.223 504.165C383.223 509.478 380.304 514.691 381.543 520.271C384.203 532.238 391.503 532.621 401.898 532.621" stroke="#5B6670" stroke-width="3" stroke-linecap="round"/>
<path d="M288.96 376.842L294.202 370.611C294.794 369.906 295.49 369.296 296.265 368.8C299.761 366.562 304.328 366.966 307.377 369.784L339.814 399.767C344.326 403.938 342.607 411.431 336.729 413.219L331.788 414.721C327.743 415.951 326.742 421.216 330.052 423.846C332.449 425.748 332.714 429.29 330.628 431.528L315.12 448.168L310.296 454.475C305.194 461.147 297.274 465.061 288.875 465.061H280C273.596 465.061 267.922 469.188 265.951 475.281L262.313 486.519C261.241 489.831 257.363 491.279 254.383 489.48C253.967 489.229 253.587 488.923 253.252 488.569L230.607 464.652C221.988 455.548 222.381 441.18 231.485 432.561C235.041 429.195 237.412 424.769 238.247 419.944L238.749 417.037C240.815 405.086 249.545 395.374 261.21 392.049L268.821 389.88C276.684 387.639 283.697 383.099 288.96 376.842Z" fill="white"/>
<path d="M300.782 374.338C295.761 376.72 295.266 393.192 295.68 401.497L305.424 411.935C322.613 413.298 328.987 408.829 331.712 405.927C332.254 405.35 332.042 404.428 331.364 404.018C326.415 401.029 320.074 394.488 316.909 389.213C316.615 388.722 316.177 388.342 315.666 388.085C310.853 385.664 304.88 378.626 301.988 374.728C301.702 374.343 301.215 374.132 300.782 374.338Z" fill="#CC98E8" stroke="black" stroke-width="2"/>
<path d="M257.331 481.098C262.352 478.716 262.846 462.244 262.433 453.94L252.688 443.501C235.499 442.139 229.125 446.607 226.4 449.509C225.859 450.087 226.07 451.009 226.748 451.418C231.698 454.407 238.038 460.948 241.203 466.224C241.497 466.714 241.935 467.095 242.446 467.351C247.259 469.772 253.232 476.811 256.124 480.708C256.41 481.094 256.897 481.304 257.331 481.098Z" fill="#CC98E8" stroke="black" stroke-width="2"/>
<path d="M311.456 427.592C311.456 445.04 297.085 459.211 279.324 459.211C261.563 459.211 247.191 445.04 247.191 427.592C247.191 410.144 261.563 395.973 279.324 395.973C297.085 395.973 311.456 410.144 311.456 427.592Z" fill="#FF73C6" stroke="black" stroke-width="2"/>
<path d="M274.126 396.712L264.615 399.595L262.308 454.369L274.126 458.405V396.712Z" fill="#FF94D4" stroke="black" stroke-width="1.65385"/>
<path d="M286.47 397.288L295.192 400.171L298.077 453.216L286.47 458.254V397.288Z" fill="#FF94D4" stroke="black" stroke-width="1.65385"/>
<path d="M208.353 455.448C202.028 455.448 195.703 455.448 189.378 455.448C181.742 455.448 172.09 448.712 166.857 443.478C164.176 440.797 162.718 438.131 161.093 434.7C160.051 432.5 159.903 430.37 158.876 428.316" stroke="#5B6670" stroke-width="3" stroke-linecap="round"/>
<path d="M877.854 306.892C878.783 305.827 879.781 305.294 880.846 305.294C881.911 305.294 882.546 306.11 882.75 307.742L882.75 307.844C882.75 308.66 882.285 310.439 881.356 313.182L882.954 312.842C884.903 312.842 886.037 314.089 886.354 316.582L886.354 317.092C886.354 320.084 884.473 322.815 880.71 325.286C879.486 325.762 878.602 326 878.058 326C876.222 326 874.953 324.935 874.25 322.804C874.295 322.555 874.579 322.203 875.1 321.75C875.349 311.505 875.565 306.382 875.746 306.382C876.131 305.997 876.483 305.804 876.8 305.804C877.412 306.031 877.718 306.393 877.718 306.892L877.854 306.892ZM877.514 316.242L877.65 316.242C879.509 312.729 880.495 310.009 880.608 308.082L880.608 307.3L880.268 307.3C879.792 307.3 879.157 308.581 878.364 311.142C877.797 313.567 877.514 315.267 877.514 316.242ZM878.806 318.35L878.296 318.554L877.446 318.486L877.446 318.554L877.31 318.996L877.31 322.532L877.208 323.79L877.956 323.994C879.883 323.994 881.787 322.543 883.668 319.642C884.189 318.35 884.45 317.285 884.45 316.446C884.45 315.403 883.951 314.882 882.954 314.882L882.818 314.882C881.73 314.882 880.393 316.038 878.806 318.35ZM889.65 307.266C890.285 307.493 890.602 307.844 890.602 308.32L890.942 321.274L890.942 325.456C890.942 326.227 890.614 326.612 889.956 326.612L889.514 326.612C889.106 326.34 888.902 326.023 888.902 325.66L888.902 321.716L888.596 308.252C888.596 307.685 888.948 307.357 889.65 307.266ZM898.83 313.182C900.507 313.182 901.777 314.429 902.638 316.922L902.774 317.636C902.774 320.061 901.641 322.543 899.374 325.082C898.467 325.921 897.549 326.34 896.62 326.34C895.26 326.34 894.297 325.558 893.73 323.994C893.526 323.269 893.424 322.634 893.424 322.09L893.424 321.682C893.424 318.101 894.727 315.381 897.334 313.522C897.787 313.295 898.286 313.182 898.83 313.182ZM895.43 322.022C895.43 323.563 895.827 324.334 896.62 324.334C898.275 324.334 899.646 322.215 900.734 317.976L900.734 317.33C900.349 315.925 899.635 315.222 898.592 315.222C898.184 315.222 897.98 315.505 897.98 316.072C897.98 316.457 897.527 316.763 896.62 316.99C895.827 318.327 895.43 320.005 895.43 322.022ZM909.721 313.182C911.398 313.182 912.667 314.429 913.529 316.922L913.665 317.636C913.665 320.061 912.531 322.543 910.265 325.082C909.358 325.921 908.44 326.34 907.511 326.34C906.151 326.34 905.187 325.558 904.621 323.994C904.417 323.269 904.315 322.634 904.315 322.09L904.315 321.682C904.315 318.101 905.618 315.381 908.225 313.522C908.678 313.295 909.177 313.182 909.721 313.182ZM906.321 322.022C906.321 323.563 906.717 324.334 907.511 324.334C909.165 324.334 910.537 322.215 911.625 317.976L911.625 317.33C911.239 315.925 910.525 315.222 909.483 315.222C909.075 315.222 908.871 315.505 908.871 316.072C908.871 316.457 908.417 316.763 907.511 316.99C906.717 318.327 906.321 320.005 906.321 322.022ZM923.161 307.334C923.547 307.334 923.898 307.697 924.215 308.422L922.719 317.874L922.719 320.526C922.719 323.291 923.15 324.674 924.011 324.674C924.578 324.946 924.861 325.309 924.861 325.762C924.861 326.283 924.408 326.589 923.501 326.68C922.504 326.68 921.722 325.762 921.155 323.926L920.815 323.926C919.977 325.762 918.957 326.68 917.755 326.68C916.35 326.68 915.5 325.615 915.205 323.484C915.205 321.013 916.86 318.395 920.169 315.63C920.827 315.63 921.155 314.712 921.155 312.876C921.654 309.181 922.323 307.334 923.161 307.334ZM917.211 323.212L917.211 324.13L917.755 324.674L917.959 324.674C918.685 324.674 919.535 322.487 920.509 318.112L920.305 318.112C918.243 320.175 917.211 321.875 917.211 323.212ZM944.352 312.944C945.395 312.944 945.916 313.443 945.916 314.44C946.052 314.44 946.12 314.61 946.12 314.95L946.256 314.95L946.12 315.936L946.256 322.804L946.052 328.244C948.092 328.244 949.464 329.74 950.166 332.732C950.166 333.344 949.747 333.695 948.908 333.786C948.523 333.786 948.092 332.936 947.616 331.236C947.163 330.579 946.642 330.25 946.052 330.25L945.916 330.25C945.191 335.078 944.556 337.492 944.012 337.492C943.355 338.693 942.403 339.294 941.156 339.294C939.32 338.863 938.402 337.945 938.402 336.54L938.402 336.336C938.402 334.205 939.921 331.893 942.958 329.4L944.012 328.754L944.148 325.082L944.148 324.232L944.012 324.232C943.242 325.207 942.505 325.694 941.802 325.694L941.598 325.694C940.034 325.694 939.139 324.493 938.912 322.09L938.912 321.342C938.912 318.441 939.978 315.925 942.108 313.794C942.766 313.227 943.514 312.944 944.352 312.944ZM940.952 320.9L940.952 322.532C941.043 323.28 941.213 323.654 941.462 323.654L941.802 323.654C942.437 323.654 943.219 321.319 944.148 316.65L944.148 314.95C942.788 314.95 941.723 316.933 940.952 320.9ZM940.408 336.404C940.499 336.971 940.816 337.254 941.36 337.254C942.448 337.254 943.23 335.316 943.706 331.44L943.502 331.44C941.44 333.231 940.408 334.885 940.408 336.404ZM949.98 307.266C950.615 307.493 950.932 307.844 950.932 308.32L951.272 321.274L951.272 325.456C951.272 326.227 950.944 326.612 950.286 326.612L949.844 326.612C949.436 326.34 949.232 326.023 949.232 325.66L949.232 321.716L948.926 308.252C948.926 307.685 949.278 307.357 949.98 307.266ZM955.08 315.766L955.692 315.426C956.236 315.426 956.633 315.755 956.882 316.412C956.52 318.089 956.338 319.812 956.338 321.58C956.338 322.464 956.599 323.427 957.12 324.47L957.324 324.47C957.982 324.47 958.764 321.875 959.67 316.684C959.988 316.412 960.294 316.276 960.588 316.276C961.291 316.276 961.642 317.523 961.642 320.016C961.937 322.759 962.266 324.13 962.628 324.13L963.138 323.926C963.796 324.175 964.124 324.527 964.124 324.98C963.716 325.841 963.15 326.272 962.424 326.272C961.608 326.272 960.826 325.456 960.078 323.824C959.172 325.728 958.254 326.68 957.324 326.68C955.942 326.68 954.978 325.241 954.434 322.362L954.332 321.274L954.332 320.934C954.332 319.121 954.582 317.398 955.08 315.766ZM968.311 314.474L969.705 314.27C970.272 314.27 970.589 314.621 970.657 315.324C970.657 315.936 969.921 316.333 968.447 316.514C967.518 317.239 967.053 318.169 967.053 319.302L967.053 320.424C967.507 322.917 968.277 324.164 969.365 324.164L969.705 324.164C970.34 324.164 971.292 323.563 972.561 322.362L972.765 322.362C973.219 322.362 973.581 322.679 973.853 323.314C973.536 324.289 972.516 325.173 970.793 325.966C970.476 326.102 970.079 326.17 969.603 326.17C967.269 326.17 965.75 324.334 965.047 320.662L965.047 319.914C965.047 317.262 966.135 315.449 968.311 314.474ZM981.008 313.182C982.685 313.182 983.955 314.429 984.816 316.922L984.952 317.636C984.952 320.061 983.819 322.543 981.552 325.082C980.645 325.921 979.727 326.34 978.798 326.34C977.438 326.34 976.475 325.558 975.908 323.994C975.704 323.269 975.602 322.634 975.602 322.09L975.602 321.682C975.602 318.101 976.905 315.381 979.512 313.522C979.965 313.295 980.464 313.182 981.008 313.182ZM977.608 322.022C977.608 323.563 978.005 324.334 978.798 324.334C980.453 324.334 981.824 322.215 982.912 317.976L982.912 317.33C982.527 315.925 981.813 315.222 980.77 315.222C980.362 315.222 980.158 315.505 980.158 316.072C980.158 316.457 979.705 316.763 978.798 316.99C978.005 318.327 977.608 320.005 977.608 322.022ZM993.293 312.23C993.905 312.23 994.324 313.261 994.551 315.324C994.324 315.891 993.95 316.174 993.429 316.174C993.066 316.106 992.703 315.687 992.341 314.916L991.729 314.712C990.663 314.712 989.7 315.415 988.839 316.82L988.839 317.126C988.839 317.466 990.437 318.033 993.633 318.826C994.97 319.619 995.639 320.583 995.639 321.716C995.639 323.575 994.143 325.161 991.151 326.476L989.893 326.68C987.989 326.476 987.037 325.524 987.037 323.824L987.037 323.722C987.037 323.178 987.388 322.861 988.091 322.77C988.635 322.77 988.997 323.337 989.179 324.47L989.451 324.674L990.029 324.674C991.321 324.674 992.522 323.79 993.633 322.022L993.633 321.58C993.633 320.9 992.148 320.265 989.179 319.676C987.615 319.041 986.833 318.157 986.833 317.024C986.833 315.551 988.068 314.168 990.539 312.876C991.627 312.74 992.545 312.525 993.293 312.23ZM999.944 313.794C1000.85 313.817 1002.38 315.403 1004.53 318.554L1004.6 319.132C1004.6 319.767 1003.05 320.254 999.944 320.594L999.842 320.696L999.842 320.832C1000.32 322.872 1000.82 323.892 1001.34 323.892L1001.75 323.892C1002.47 323.892 1003.57 323.11 1005.04 321.546L1005.25 321.546C1005.7 321.546 1006.05 321.875 1006.3 322.532C1006.3 323.076 1005.35 324.017 1003.45 325.354C1002.95 325.649 1002.35 325.864 1001.64 326C999.808 326 998.528 324.277 997.802 320.832C996.76 320.673 996.238 320.243 996.238 319.54C996.238 319.041 996.624 318.713 997.394 318.554L997.394 318.69L997.734 318.554L997.734 317.704C997.734 315.097 998.471 313.794 999.944 313.794ZM1000.15 316.242L999.842 316.242L999.706 317.5L999.706 318.554L999.842 318.554C1001.11 318.509 1001.75 318.373 1001.75 318.146C1001.16 317.262 1000.62 316.627 1000.15 316.242ZM1027.26 312.23C1027.87 312.23 1028.29 313.261 1028.52 315.324C1028.29 315.891 1027.92 316.174 1027.4 316.174C1027.03 316.106 1026.67 315.687 1026.31 314.916L1025.7 314.712C1024.63 314.712 1023.67 315.415 1022.81 316.82L1022.81 317.126C1022.81 317.466 1024.4 318.033 1027.6 318.826C1028.94 319.619 1029.61 320.583 1029.61 321.716C1029.61 323.575 1028.11 325.161 1025.12 326.476L1023.86 326.68C1021.96 326.476 1021 325.524 1021 323.824L1021 323.722C1021 323.178 1021.35 322.861 1022.06 322.77C1022.6 322.77 1022.96 323.337 1023.15 324.47L1023.42 324.674L1024 324.674C1025.29 324.674 1026.49 323.79 1027.6 322.022L1027.6 321.58C1027.6 320.9 1026.11 320.265 1023.15 319.676C1021.58 319.041 1020.8 318.157 1020.8 317.024C1020.8 315.551 1022.03 314.168 1024.51 312.876C1025.59 312.74 1026.51 312.525 1027.26 312.23ZM1034.86 305.362C1035.5 305.498 1035.82 305.815 1035.82 306.314L1035.61 307.81L1035.61 308.252C1035.61 309.249 1035.72 310.303 1035.95 311.414L1036.02 311.414C1038.65 310.621 1040.28 310.224 1040.92 310.224C1041.57 310.405 1041.9 310.734 1041.9 311.21C1041.9 311.981 1041.12 312.366 1039.56 312.366L1036.02 313.624C1036.02 316.684 1036.35 320.843 1037.01 326.102C1036.87 326.714 1036.54 327.02 1036.02 327.02L1035.95 327.02C1035.16 327.02 1034.76 326 1034.76 323.96C1034.47 322.441 1034.22 319.143 1034.01 314.066L1033.4 314.066C1031.27 313.93 1030.21 313.431 1030.21 312.57C1030.21 312.321 1030.44 312.015 1030.92 311.652L1031.26 311.652L1032.82 312.06L1033.91 312.06L1033.61 307.81C1033.61 306.178 1034.02 305.362 1034.86 305.362ZM1047.43 312.604C1048.85 312.604 1049.7 313.601 1049.98 315.596L1049.98 315.902C1049.98 318.101 1048.84 320.118 1046.58 321.954C1047.89 323.246 1050.19 323.892 1053.48 323.892C1053.98 324.051 1054.23 324.402 1054.23 324.946C1054.23 325.558 1053.83 325.864 1053.04 325.864C1050.81 325.864 1048.48 325.297 1046.03 324.164L1046.03 325.15C1046.03 327.485 1045.53 328.652 1044.54 328.652C1043.83 328.652 1043.48 327.303 1043.48 324.606L1043.48 321.954L1043.38 321.002L1043.62 319.914L1043.38 316.65L1043.38 316.514C1043.38 315.902 1043.7 315.483 1044.33 315.256C1045.22 313.488 1046.25 312.604 1047.43 312.604ZM1045.73 320.05C1046.38 320.05 1047.12 318.871 1047.94 316.514L1047.94 315.052L1047.53 314.61L1047.22 314.61C1046.22 315.29 1045.73 317.103 1045.73 320.05ZM1055.76 308.286C1056.62 308.467 1057.05 308.853 1057.05 309.442C1056.83 310.077 1056.47 310.394 1055.97 310.394C1055.13 310.235 1054.71 309.816 1054.71 309.136C1054.94 308.569 1055.29 308.286 1055.76 308.286ZM1057.05 313.046C1057.42 313.046 1057.72 313.375 1057.97 314.032L1057.67 316.446L1057.67 318.044C1057.67 319.903 1057.98 322.339 1058.62 325.354C1058.39 325.785 1058.01 326 1057.46 326C1056.53 326 1055.92 323.28 1055.63 317.84L1055.63 316.65C1055.63 314.247 1056.1 313.046 1057.05 313.046ZM1064.55 315.902C1066.95 315.902 1068.37 317.409 1068.8 320.424C1068.8 323.099 1067.55 325.014 1065.06 326.17C1064.79 326.306 1064.41 326.374 1063.94 326.374L1063.7 326.374L1062.95 326.306L1062.95 326.374L1063.09 335.452C1062.93 336.155 1062.57 336.506 1062 336.506C1061.37 336.302 1061.05 335.973 1061.05 335.52L1060.74 317.024C1060.74 316.435 1061.09 316.129 1061.8 316.106L1062.51 316.412C1063.15 316.072 1063.83 315.902 1064.55 315.902ZM1062.85 319.506L1062.75 320.56L1062.85 324.164L1063.8 324.402C1065.32 324.402 1066.31 323.291 1066.76 321.07L1066.76 320.56C1066.6 318.769 1065.97 317.874 1064.86 317.874L1064.35 317.874C1063.35 317.874 1062.85 318.418 1062.85 319.506Z" fill="black"/>
<path d="M489.947 82.4837L491.3 81.3625C497.041 76.6041 504.264 74 511.72 74H531.522C538.842 74 545.941 76.5099 551.635 81.111L571.76 97.3743C578.893 103.139 583.21 111.688 583.615 120.85L588.79 237.933C588.929 241.087 588.601 244.244 587.816 247.302L584.711 259.398C583.569 263.845 581.484 267.994 578.597 271.564L571.531 280.303C566.925 285.998 564.412 293.1 564.412 300.425V314C564.412 331.673 550.085 346 532.412 346H500.57C482.897 346 468.57 331.673 468.57 314V300.427C468.57 296.57 467.873 292.746 466.512 289.137L451.238 248.626C449.76 244.707 449.067 240.535 449.196 236.349L452.815 119.15C453.235 105.559 462.198 93.7173 475.165 89.6231L479.162 88.3612C483.103 87.1169 486.765 85.121 489.947 82.4837Z" fill="white"/>
<path d="M480 290H554.207V319.544C554.207 327.802 547.512 334.496 539.254 334.496H494.953C486.695 334.496 480 327.802 480 319.544V290Z" fill="#A2A2A2" stroke="black" stroke-width="2"/>
<path fill-rule="evenodd" clip-rule="evenodd" d="M488.58 99.1066C480.362 99.7435 463.349 105.922 461.043 125.539V238.914C461.043 243.054 463.733 258.15 478.334 290.506H554.861C555.818 288.144 556.903 285.551 558.051 282.807C564.076 268.412 571.831 249.881 571.831 238.914V123.31C570.23 115.879 562.802 100.635 545.895 99.1066H488.58ZM489.468 112.801C482.081 112.801 476.092 118.789 476.092 126.176C476.092 133.564 482.081 139.552 489.468 139.552H543.407C550.794 139.552 556.782 133.564 556.782 126.176C556.782 118.789 550.794 112.801 543.407 112.801H489.468Z" fill="#2ED1E2"/>
<path d="M461.043 125.539L460.05 125.423L460.043 125.481V125.539H461.043ZM488.58 99.1066V98.1066H488.541L488.503 98.1096L488.58 99.1066ZM461.043 238.914H460.043V238.914L461.043 238.914ZM478.334 290.506L477.422 290.918L477.688 291.506H478.334V290.506ZM554.861 290.506V291.506H555.535L555.788 290.882L554.861 290.506ZM558.051 282.807L558.974 283.193V283.193L558.051 282.807ZM571.831 123.31H572.831V123.204L572.809 123.1L571.831 123.31ZM545.895 99.1066L545.985 98.1106L545.941 98.1066H545.895V99.1066ZM462.036 125.656C463.153 116.153 467.815 109.943 473.185 106.012C478.584 102.06 484.708 100.41 488.657 100.104L488.503 98.1096C484.234 98.4404 477.742 100.198 472.004 104.398C466.236 108.62 461.239 115.308 460.05 125.423L462.036 125.656ZM462.043 238.914V125.539H460.043V238.914H462.043ZM479.245 290.095C471.958 273.947 467.653 262.126 465.171 253.842C462.682 245.534 462.043 240.837 462.043 238.914L460.043 238.914C460.043 241.132 460.749 246.052 463.255 254.416C465.768 262.804 470.108 274.709 477.422 290.918L479.245 290.095ZM554.861 289.506H478.334V291.506H554.861V289.506ZM557.129 282.421C555.981 285.163 554.893 287.762 553.934 290.131L555.788 290.882C556.742 288.526 557.825 285.938 558.974 283.193L557.129 282.421ZM570.831 238.914C570.831 244.217 568.945 251.454 566.255 259.249C563.576 267.016 560.144 275.218 557.129 282.421L558.974 283.193C561.984 276.001 565.442 267.74 568.146 259.901C570.84 252.091 572.831 244.579 572.831 238.914H570.831ZM570.831 123.31V238.914H572.831V123.31H570.831ZM545.805 100.103C553.946 100.839 559.803 104.868 563.839 109.641C567.892 114.432 570.084 119.946 570.854 123.521L572.809 123.1C571.978 119.243 569.655 113.42 565.366 108.349C561.062 103.26 554.751 98.9032 545.985 98.1106L545.805 100.103ZM488.58 100.107H545.895V98.1066H488.58V100.107ZM477.092 126.176C477.092 119.342 482.633 113.801 489.468 113.801V111.801C481.529 111.801 475.092 118.237 475.092 126.176H477.092ZM489.468 138.552C482.633 138.552 477.092 133.011 477.092 126.176H475.092C475.092 134.116 481.529 140.552 489.468 140.552V138.552ZM543.407 138.552H489.468V140.552H543.407V138.552ZM555.782 126.176C555.782 133.011 550.241 138.552 543.407 138.552V140.552C551.346 140.552 557.782 134.116 557.782 126.176H555.782ZM543.407 113.801C550.241 113.801 555.782 119.342 555.782 126.176H557.782C557.782 118.237 551.346 111.801 543.407 111.801V113.801ZM489.468 113.801H543.407V111.801H489.468V113.801Z" fill="black"/>
<rect x="503.349" y="77.4954" width="25.537" height="43.8595" rx="12.7685" fill="#CB97E7" stroke="black" stroke-width="2"/>
<path d="M476.092 172.036C476.861 163.119 484.951 159.828 488.9 159.297H543.974C553.196 160.316 556.355 168.214 556.782 172.036V227.45C550.378 266.685 536.396 275.008 530.206 274.265H502.669C487.043 274.265 478.441 243.055 476.092 227.45V172.036Z" fill="#DCF5F8" stroke="black" stroke-width="1.5"/>
<path d="M480.036 217.067V209.874H481.541V212.795H484.782V209.874H486.287V217.067H484.782V214.036H481.541V217.067H480.036ZM489.383 217.152C488.336 217.152 487.593 216.504 487.593 215.507V215.497C487.593 214.51 488.356 213.932 489.722 213.852L491.048 213.772V213.318C491.048 212.845 490.724 212.576 490.126 212.576C489.602 212.576 489.268 212.76 489.154 213.084L489.144 213.104H487.798L487.803 213.059C487.917 212.097 488.825 211.459 490.206 211.459C491.661 211.459 492.484 212.147 492.484 213.318V217.067H491.048V216.34H490.958C490.679 216.848 490.101 217.152 489.383 217.152ZM489.014 215.417C489.014 215.836 489.368 216.09 489.872 216.09C490.545 216.09 491.048 215.647 491.048 215.068V214.665L489.941 214.734C489.318 214.774 489.014 215.008 489.014 215.407V215.417ZM493.91 217.067V211.579H495.365V212.426H495.455C495.704 211.833 496.248 211.459 497.03 211.459C498.252 211.459 498.91 212.207 498.91 213.518V217.067H497.454V213.847C497.454 213.074 497.135 212.665 496.447 212.665C495.774 212.665 495.365 213.149 495.365 213.892V217.067H493.91ZM502.28 217.152C500.909 217.152 500.051 216.08 500.051 214.326V214.316C500.051 212.551 500.889 211.489 502.28 211.489C503.033 211.489 503.646 211.858 503.92 212.456H504.01V209.48H505.465V217.067H504.01V216.215H503.92C503.636 216.808 503.053 217.152 502.28 217.152ZM502.773 215.946C503.546 215.946 504.025 215.338 504.025 214.33V214.321C504.025 213.314 503.541 212.695 502.773 212.695C502.006 212.695 501.532 213.314 501.532 214.316V214.326C501.532 215.338 502.006 215.946 502.773 215.946ZM511.787 217.182C510.296 217.182 509.449 216.514 509.344 215.572L509.339 215.552H510.77L510.78 215.572C510.894 215.911 511.228 216.155 511.802 216.155C512.36 216.155 512.739 215.916 512.739 215.552V215.542C512.739 215.248 512.52 215.063 511.961 214.939L511.044 214.744C509.997 214.52 509.479 214.006 509.479 213.184V213.179C509.479 212.147 510.396 211.459 511.767 211.459C513.207 211.459 514.005 212.177 514.065 213.059V213.079H512.714L512.709 213.054C512.629 212.76 512.305 212.486 511.762 212.486C511.258 212.486 510.899 212.72 510.899 213.089V213.094C510.899 213.388 511.104 213.558 511.672 213.682L512.584 213.877C513.681 214.111 514.195 214.57 514.195 215.382V215.387C514.195 216.474 513.193 217.182 511.787 217.182ZM516.882 217.152C515.835 217.152 515.092 216.504 515.092 215.507V215.497C515.092 214.51 515.855 213.932 517.221 213.852L518.547 213.772V213.318C518.547 212.845 518.223 212.576 517.624 212.576C517.101 212.576 516.767 212.76 516.652 213.084L516.642 213.104H515.296L515.301 213.059C515.416 212.097 516.323 211.459 517.704 211.459C519.16 211.459 519.982 212.147 519.982 213.318V217.067H518.547V216.34H518.457C518.178 216.848 517.599 217.152 516.882 217.152ZM516.513 215.417C516.513 215.836 516.867 216.09 517.37 216.09C518.043 216.09 518.547 215.647 518.547 215.068V214.665L517.44 214.734C516.817 214.774 516.513 215.008 516.513 215.407V215.417ZM521.408 217.067V211.579H522.864V212.426H522.954C523.203 211.833 523.746 211.459 524.529 211.459C525.75 211.459 526.408 212.207 526.408 213.518V217.067H524.953V213.847C524.953 213.074 524.634 212.665 523.946 212.665C523.273 212.665 522.864 213.149 522.864 213.892V217.067H521.408ZM528.562 210.736C528.113 210.736 527.739 210.377 527.739 209.929C527.739 209.475 528.113 209.116 528.562 209.116C529.011 209.116 529.38 209.475 529.38 209.929C529.38 210.377 529.011 210.736 528.562 210.736ZM527.829 217.067V211.579H529.285V217.067H527.829ZM533.029 217.087C531.693 217.087 531.154 216.654 531.154 215.587V212.675H530.307V211.579H531.154V210.268H532.625V211.579H533.757V212.675H532.625V215.253C532.625 215.746 532.834 215.966 533.328 215.966C533.517 215.966 533.617 215.956 533.757 215.941V217.023C533.577 217.057 533.308 217.087 533.029 217.087ZM535.711 210.736C535.262 210.736 534.888 210.377 534.888 209.929C534.888 209.475 535.262 209.116 535.711 209.116C536.159 209.116 536.528 209.475 536.528 209.929C536.528 210.377 536.159 210.736 535.711 210.736ZM534.978 217.067V211.579H536.434V217.067H534.978ZM537.775 217.067V216.23L540.571 212.765V212.675H537.815V211.579H542.291V212.506L539.654 215.881V215.971H542.356V217.067H537.775ZM545.965 217.182C544.295 217.182 543.283 216.09 543.283 214.33V214.326C543.283 212.581 544.305 211.459 545.906 211.459C547.506 211.459 548.503 212.556 548.503 214.216V214.669H544.724C544.739 215.572 545.223 216.095 545.995 216.095C546.633 216.095 546.987 215.756 547.087 215.547L547.102 215.517H548.458L548.448 215.567C548.279 216.255 547.571 217.182 545.965 217.182ZM545.93 212.551C545.297 212.551 544.829 212.98 544.739 213.757H547.107C547.017 212.96 546.564 212.551 545.93 212.551ZM549.694 217.067V211.579H551.15V212.431H551.24C551.414 211.838 551.913 211.489 552.626 211.489C552.82 211.489 553.024 211.519 553.169 211.559V212.83C552.95 212.78 552.725 212.745 552.501 212.745C551.673 212.745 551.15 213.219 551.15 213.996V217.067H549.694Z" fill="#303030"/>
<path d="M651.945 259.994L684.49 120.366C687.953 105.51 701.195 95 716.448 95C718.699 95 720.943 95.2316 723.147 95.6911L845.032 121.109C854.334 123.049 861 131.248 861 140.751C861 141.849 860.91 142.946 860.73 144.03L837.665 283.272C834.474 302.531 821.993 318.98 804.303 327.237C793.471 332.294 781.361 333.952 769.568 331.994L691.338 319.003C673.053 315.967 658.085 302.801 652.741 285.053C650.29 276.913 650.015 268.273 651.945 259.994Z" fill="white"/>
<rect x="0.770279" y="1.18613" width="149.89" height="194.816" rx="19.7608" transform="matrix(0.978136 0.207966 -0.207857 0.978159 701.147 100.853)" fill="#A2A2A2" stroke="black" stroke-width="2"/>
<rect x="0.577709" y="0.889594" width="107.486" height="61.6388" rx="9.63041" transform="matrix(0.978136 0.207966 -0.207857 0.978159 718.277 126.732)" fill="#A9C869" stroke="black" stroke-width="1.5"/>
<path d="M727.771 224.71C726.272 231.767 719.338 236.271 712.284 234.771C705.23 233.271 700.726 226.335 702.226 219.279C703.725 212.223 710.66 207.719 717.714 209.218C724.767 210.718 729.271 217.654 727.771 224.71Z" fill="#F4F4F4" stroke="black" stroke-width="1.5"/>
<path d="M763.949 232.402C762.449 239.459 755.515 243.963 748.461 242.463C741.407 240.963 736.904 234.027 738.404 226.971C739.903 219.915 746.837 215.41 753.891 216.91C760.945 218.41 765.448 225.346 763.949 232.402Z" fill="#F4F4F4" stroke="black" stroke-width="1.5"/>
<path d="M801.091 240.299C799.592 247.355 792.658 251.86 785.604 250.36C778.55 248.86 774.046 241.924 775.546 234.868C777.045 227.811 783.979 223.307 791.033 224.807C798.087 226.307 802.591 233.243 801.091 240.299Z" fill="#F4F4F4" stroke="black" stroke-width="1.5"/>
<path d="M697.189 268.826C698.238 263.891 703.089 260.74 708.024 261.79L778.404 276.753C783.34 277.803 786.49 282.655 785.442 287.59L779.142 317.234L690.89 298.47L697.189 268.826Z" fill="#FDD546" stroke="black" stroke-width="1.5"/>
<path d="M718.408 289.969C718.889 287.704 721.116 286.258 723.381 286.74L753.747 293.196C756.013 293.678 757.459 295.904 756.977 298.169L754.059 311.901L715.49 303.7L718.408 289.969Z" fill="#4C4C4C" stroke="black" stroke-width="1.5"/>
<path d="M755.811 168.277C761.132 161.699 765.726 157.058 766.722 155.33C766.489 156.429 770.866 166.565 771.788 171.674C773.858 183.149 764.972 185.719 760.468 184.761C750.514 182.645 752.87 171.912 755.811 168.277Z" fill="#2C3E49"/>
<path d="M785.207 230.87L793.733 237.8C794.04 238.049 793.945 238.539 793.567 238.656L782.849 241.968" stroke="black" stroke-width="1.97722" stroke-linecap="round"/>
<path d="M721.294 217.281L710.687 220.143C710.306 220.246 710.194 220.733 710.491 220.993L718.936 228.379" stroke="black" stroke-width="1.97722" stroke-linecap="round"/>
<path fill-rule="evenodd" clip-rule="evenodd" d="M750.3 221.936C750.31 221.888 750.271 221.843 750.223 221.849C746.969 222.245 744.178 224.658 743.458 228.045C742.552 232.308 745.273 236.499 749.536 237.406C753.798 238.312 757.988 235.59 758.894 231.327C759.614 227.94 758.045 224.6 755.234 222.914C755.192 222.889 755.138 222.915 755.128 222.963L754.718 224.891C754.712 224.92 754.723 224.951 754.747 224.969C756.516 226.311 757.452 228.599 756.96 230.915C756.281 234.111 753.141 236.151 749.947 235.472C746.753 234.793 744.713 231.652 745.392 228.456C745.885 226.139 747.671 224.43 749.833 223.924C749.862 223.917 749.884 223.894 749.89 223.865L750.3 221.936Z" fill="black"/>
<path d="M751.996 225.827L753.022 221.001" stroke="black" stroke-width="1.97722" stroke-linecap="round"/>
<path d="M854.952 348.481L834.574 339.652C826.055 335.961 816.151 339.787 812.326 348.245L762.776 457.807C758.619 466.998 763.334 477.767 772.909 480.946L799.927 489.916C808.509 492.766 817.821 488.397 821.115 479.975L864.026 370.272C867.36 361.75 863.349 352.119 854.952 348.481Z" fill="white"/>
<rect x="-0.530597" y="-1.31328" width="36.6029" height="134.705" transform="matrix(0.919893 0.392169 -0.389296 0.921112 822.038 346.104)" fill="#FDD546" stroke="#4C4C4C" stroke-width="2"/>
<path d="M817.24 377.009C817.025 377.518 817.262 378.106 817.77 378.322C818.279 378.539 818.865 378.302 819.08 377.793L817.24 377.009ZM824.649 363.863C824.442 363.35 823.859 363.102 823.348 363.309L815.017 366.675C814.505 366.881 814.259 367.465 814.466 367.978C814.673 368.49 815.256 368.739 815.767 368.532L823.173 365.54L826.174 372.969C826.381 373.482 826.964 373.73 827.475 373.524C827.986 373.317 828.233 372.734 828.026 372.221L824.649 363.863ZM819.08 377.793L824.643 364.63L822.803 363.845L817.24 377.009L819.08 377.793Z" fill="#4C4C4C"/>
<path d="M834.092 384.193C833.877 384.702 834.114 385.29 834.622 385.507C835.13 385.723 835.716 385.486 835.931 384.978L834.092 384.193ZM841.501 371.048C841.294 370.535 840.711 370.286 840.2 370.493L831.868 373.859C831.357 374.066 831.111 374.649 831.318 375.162C831.525 375.675 832.107 375.923 832.619 375.716L840.025 372.724L843.026 380.153C843.233 380.666 843.816 380.914 844.327 380.708C844.838 380.501 845.085 379.918 844.878 379.405L841.501 371.048ZM835.931 384.978L841.495 371.814L839.655 371.029L834.092 384.193L835.931 384.978Z" fill="#4C4C4C"/>
<rect x="-0.530597" y="-1.31328" width="36.6029" height="30.5825" transform="matrix(0.919893 0.392169 -0.389296 0.921112 781.504 442.013)" fill="#4C4C4C" stroke="#4C4C4C" stroke-width="2"/>
<rect width="6.1064" height="20.4161" transform="matrix(0.919893 0.392169 -0.389296 0.921112 790.827 457)" fill="#CBC308"/>
<path d="M726.165 368.775L726.413 368.804C732.326 369.501 737.219 373.73 738.766 379.479L739.93 383.809C741.217 388.593 739.941 393.702 736.556 397.32L733.842 400.22C730.357 403.944 730.259 409.702 733.614 413.543C737.036 417.46 736.857 423.352 733.205 427.054L700.529 460.182C697.333 463.423 695.123 467.504 694.157 471.951L692.251 480.719C691.186 485.619 688.615 490.063 684.897 493.428L672.756 504.418C670.473 506.484 667.164 506.953 664.397 505.603L662.107 504.485C660.062 503.487 657.594 504.14 656.311 506.019C655.525 507.169 655.305 508.614 655.713 509.946L656.523 512.591C657.747 516.591 656.442 520.933 653.215 523.595L648.99 527.079C641.519 533.242 630.563 532.614 623.845 525.638L583.615 483.863C577.107 477.105 577.039 466.433 583.459 459.593L592.93 449.504C593.978 448.387 595.715 448.279 596.894 449.257C598.094 450.253 599.868 450.12 600.907 448.956L603.852 445.656C605.444 443.871 606.088 441.433 605.583 439.094L605.093 436.823C604.215 432.754 605.499 428.521 608.488 425.625L615.168 419.153C618.993 415.448 623.94 413.119 629.232 412.531L641.363 411.183C646.499 410.612 651.314 408.401 655.094 404.877L686.249 375.829C689.801 372.517 695.305 372.502 698.875 375.793C702.483 379.118 708.056 379.063 711.597 375.667L714.814 372.582C717.838 369.681 722.002 368.284 726.165 368.775Z" fill="white"/>
<path d="M605.989 463.593L618.51 450.899L629.231 461.768L616.711 474.462L605.989 463.593Z" fill="#BFBEDE" stroke="black" stroke-width="1.5"/>
<path d="M635.412 493.422L647.933 480.728L658.654 491.598L646.133 504.291L635.412 493.422Z" fill="#BFBEDE" stroke="black" stroke-width="1.5"/>
<path d="M617.212 474.971L629.733 462.277L647.083 479.868L634.563 492.561L617.212 474.971Z" fill="#BFBEDE" stroke="black" stroke-width="1.5"/>
<mask id="path-79-inside-1_142_2" fill="white">
<path d="M587.844 474.269C585.557 471.953 585.557 468.196 587.844 465.879L597.484 456.113C598.056 455.534 598.982 455.534 599.554 456.113L653.725 510.996C654.296 511.576 654.296 512.515 653.725 513.094L644.085 522.861C641.798 525.177 638.091 525.177 635.804 522.861L587.844 474.269Z"/>
</mask>
<path d="M587.844 474.269C585.557 471.953 585.557 468.196 587.844 465.879L597.484 456.113C598.056 455.534 598.982 455.534 599.554 456.113L653.725 510.996C654.296 511.576 654.296 512.515 653.725 513.094L644.085 522.861C641.798 525.177 638.091 525.177 635.804 522.861L587.844 474.269Z" fill="#AF9CCA" stroke="black" stroke-width="4" mask="url(#path-79-inside-1_142_2)"/>
<path d="M716.917 380.546L702.716 394.165C701.653 395.185 701.624 396.875 702.653 397.93L711.36 406.866C712.387 407.92 714.075 407.936 715.123 406.902L729.723 392.489C730.228 391.991 730.512 391.311 730.512 390.602V381.917C730.512 380.39 729.226 379.179 727.702 379.27L718.595 379.813C717.966 379.85 717.371 380.11 716.917 380.546Z" fill="#9A81BB" stroke="black" stroke-width="2"/>
<path d="M663.928 496.585L613.75 446.143C612.73 445.118 612.72 443.464 613.727 442.426L629.284 426.389C629.721 425.938 630.313 425.657 630.938 425.593C647.519 423.904 649.829 422.183 657.714 415.697L688.425 385.285C689.471 384.25 691.159 384.264 692.188 385.315L724.302 418.15C725.31 419.18 725.311 420.825 724.304 421.857L698.057 448.755C683.388 461.123 684.018 471.612 683.964 480.085C683.96 480.798 683.66 481.474 683.143 481.964L667.632 496.641C666.586 497.63 664.943 497.605 663.928 496.585Z" fill="#FFF9E3" stroke="black" stroke-width="2"/>
</svg>
