<svg width="323" height="273" viewBox="0 0 323 273" fill="none" xmlns="http://www.w3.org/2000/svg">
<path d="M217.871 10.466C218.234 10.466 218.562 10.8173 218.857 11.52C218.857 12.064 218.03 12.5173 216.375 12.88C214.29 14.036 212.669 16.0533 211.513 18.932C210.38 21.8107 209.813 24.6553 209.813 27.466C209.813 31.9767 211.264 34.878 214.165 36.17L215.253 36.374C217.678 36.374 219.401 34.2547 220.421 30.016L220.557 28.622C220.557 26.8087 219.945 25.29 218.721 24.066H218.517C218.041 24.61 217.089 26.5253 215.661 29.812L214.913 30.322C214.278 30.322 213.916 29.9367 213.825 29.166C215.978 24.066 217.44 21.516 218.211 21.516H218.415C221.18 23.1253 222.563 25.494 222.563 28.622C222.563 32.158 221.112 35.1047 218.211 37.462C217.735 37.87 216.772 38.176 215.321 38.38C212.578 38.38 210.312 36.3967 208.521 32.43C208.045 30.73 207.807 29.1773 207.807 27.772V27.262C207.807 22.4113 209.36 17.8327 212.465 13.526C214.482 11.486 216.284 10.466 217.871 10.466ZM226.047 17.266C226.682 17.4927 226.999 17.844 226.999 18.32L227.339 31.274V35.456C227.339 36.2267 227.01 36.612 226.353 36.612H225.911C225.503 36.34 225.299 36.0227 225.299 35.66V31.716L224.993 18.252C224.993 17.6853 225.344 17.3567 226.047 17.266ZM231.147 25.766L231.759 25.426C232.303 25.426 232.699 25.7547 232.949 26.412C232.586 28.0893 232.405 29.812 232.405 31.58C232.405 32.464 232.665 33.4273 233.187 34.47H233.391C234.048 34.47 234.83 31.8747 235.737 26.684C236.054 26.412 236.36 26.276 236.655 26.276C237.357 26.276 237.709 27.5227 237.709 30.016C238.003 32.7587 238.332 34.13 238.695 34.13L239.205 33.926C239.862 34.1753 240.191 34.5267 240.191 34.98C239.783 35.8413 239.216 36.272 238.491 36.272C237.675 36.272 236.893 35.456 236.145 33.824C235.238 35.728 234.32 36.68 233.391 36.68C232.008 36.68 231.045 35.2407 230.501 32.362L230.399 31.274V30.934C230.399 29.1207 230.648 27.398 231.147 25.766ZM244.378 24.474L245.772 24.27C246.338 24.27 246.656 24.6213 246.724 25.324C246.724 25.936 245.987 26.3327 244.514 26.514C243.584 27.2393 243.12 28.1687 243.12 29.302V30.424C243.573 32.9173 244.344 34.164 245.432 34.164H245.772C246.406 34.164 247.358 33.5633 248.628 32.362H248.832C249.285 32.362 249.648 32.6793 249.92 33.314C249.602 34.2887 248.582 35.1727 246.86 35.966C246.542 36.102 246.146 36.17 245.67 36.17C243.335 36.17 241.816 34.334 241.114 30.662V29.914C241.114 27.262 242.202 25.4487 244.378 24.474ZM257.074 23.182C258.752 23.182 260.021 24.4287 260.882 26.922L261.018 27.636C261.018 30.0613 259.885 32.5433 257.618 35.082C256.712 35.9207 255.794 36.34 254.864 36.34C253.504 36.34 252.541 35.558 251.974 33.994C251.77 33.2687 251.668 32.634 251.668 32.09V31.682C251.668 28.1007 252.972 25.3807 255.578 23.522C256.032 23.2953 256.53 23.182 257.074 23.182ZM253.674 32.022C253.674 33.5633 254.071 34.334 254.864 34.334C256.519 34.334 257.89 32.2147 258.978 27.976V27.33C258.593 25.9247 257.879 25.222 256.836 25.222C256.428 25.222 256.224 25.5053 256.224 26.072C256.224 26.4573 255.771 26.7633 254.864 26.99C254.071 28.3273 253.674 30.0047 253.674 32.022ZM263.069 24.1C263.228 23.5333 263.59 23.25 264.157 23.25C264.724 23.25 265.098 23.8167 265.279 24.95H265.415L266.979 24.61C267.704 24.61 268.407 25.29 269.087 26.65H269.223C270.22 25.086 271.24 24.304 272.283 24.304C274.504 24.712 275.615 26.1627 275.615 28.656L275.683 29.846L275.377 36.714V37.36C275.377 37.9267 275.026 38.2553 274.323 38.346C273.62 38.346 273.269 37.5187 273.269 35.864L273.677 29.71C273.677 27.4433 273.144 26.31 272.079 26.31C271.467 26.31 270.73 27.7947 269.869 30.764C269.438 34.164 269.087 35.864 268.815 35.864C268.43 35.864 268.237 35.9433 268.237 36.102C267.534 36.0113 267.183 35.6487 267.183 35.014L267.625 30.9C267.557 28.0667 267.274 26.65 266.775 26.65H266.673C266.106 27.0807 265.823 27.9307 265.823 29.2V31.002L265.687 36.204C265.528 36.7707 265.177 37.054 264.633 37.054C264.157 37.054 263.851 36.6573 263.715 35.864L263.579 31.852L263.783 28.554C263.647 26.854 263.409 25.3693 263.069 24.1ZM280.626 23.794C281.533 23.8167 283.063 25.4033 285.216 28.554L285.284 29.132C285.284 29.7667 283.731 30.254 280.626 30.594L280.524 30.696V30.832C281 32.872 281.499 33.892 282.02 33.892H282.428C283.153 33.892 284.253 33.11 285.726 31.546H285.93C286.383 31.546 286.735 31.8747 286.984 32.532C286.984 33.076 286.032 34.0167 284.128 35.354C283.629 35.6487 283.029 35.864 282.326 36C280.49 36 279.209 34.2773 278.484 30.832C277.441 30.6733 276.92 30.2427 276.92 29.54C276.92 29.0413 277.305 28.7127 278.076 28.554V28.69L278.416 28.554V27.704C278.416 25.0973 279.153 23.794 280.626 23.794ZM280.83 26.242H280.524L280.388 27.5V28.554H280.524C281.793 28.5087 282.428 28.3727 282.428 28.146C281.839 27.262 281.306 26.6273 280.83 26.242ZM292.303 15.362C292.937 15.498 293.255 15.8153 293.255 16.314L293.051 17.81V18.252C293.051 19.2493 293.164 20.3033 293.391 21.414H293.459C296.088 20.6207 297.72 20.224 298.355 20.224C299.012 20.4053 299.341 20.734 299.341 21.21C299.341 21.9807 298.559 22.366 296.995 22.366L293.459 23.624C293.459 26.684 293.787 30.8433 294.445 36.102C294.309 36.714 293.98 37.02 293.459 37.02H293.391C292.597 37.02 292.201 36 292.201 33.96C291.906 32.4413 291.657 29.1433 291.453 24.066H290.841C288.71 23.93 287.645 23.4313 287.645 22.57C287.645 22.3207 287.883 22.0147 288.359 21.652H288.699L290.263 22.06H291.351L291.045 17.81C291.045 16.178 291.464 15.362 292.303 15.362ZM303.436 23.794C304.343 23.8167 305.873 25.4033 308.026 28.554L308.094 29.132C308.094 29.7667 306.542 30.254 303.436 30.594L303.334 30.696V30.832C303.81 32.872 304.309 33.892 304.83 33.892H305.238C305.964 33.892 307.063 33.11 308.536 31.546H308.74C309.194 31.546 309.545 31.8747 309.794 32.532C309.794 33.076 308.842 34.0167 306.938 35.354C306.44 35.6487 305.839 35.864 305.136 36C303.3 36 302.02 34.2773 301.294 30.832C300.252 30.6733 299.73 30.2427 299.73 29.54C299.73 29.0413 300.116 28.7127 300.886 28.554V28.69L301.226 28.554V27.704C301.226 25.0973 301.963 23.794 303.436 23.794ZM303.64 26.242H303.334L303.198 27.5V28.554H303.334C304.604 28.5087 305.238 28.3727 305.238 28.146C304.649 27.262 304.116 26.6273 303.64 26.242ZM315.589 22.604C317.017 22.604 317.867 23.6013 318.139 25.596V25.902C318.139 28.1007 317.006 30.118 314.739 31.954C316.054 33.246 318.354 33.892 321.641 33.892C322.14 34.0507 322.389 34.402 322.389 34.946C322.389 35.558 321.992 35.864 321.199 35.864C318.978 35.864 316.643 35.2973 314.195 34.164V35.15C314.195 37.4847 313.696 38.652 312.699 38.652C311.996 38.652 311.645 37.3033 311.645 34.606V31.954L311.543 31.002L311.781 29.914L311.543 26.65V26.514C311.543 25.902 311.86 25.4827 312.495 25.256C313.379 23.488 314.41 22.604 315.589 22.604ZM313.889 30.05C314.546 30.05 315.283 28.8713 316.099 26.514V25.052L315.691 24.61H315.385C314.388 25.29 313.889 27.1033 313.889 30.05Z" fill="black"/>
<path d="M155.804 42.3674C155.804 32.937 169.35 26.5826 177.568 26.5826C181.076 26.5826 184.584 26.5826 188.091 26.5826C190.864 26.5826 195.02 25.8615 197.419 27.061" stroke="#5B6670" stroke-width="3" stroke-linecap="round"/>
<path d="M2.94519 197.994L35.4901 58.3656C38.9525 43.5105 52.1946 33 67.4478 33C69.6986 33 71.9434 33.2316 74.1468 33.6911L196.032 59.1086C205.334 61.0486 212 69.248 212 78.7506C212 79.8492 211.91 80.9459 211.73 82.0297L188.665 221.272C185.474 240.531 172.993 256.98 155.303 265.237C144.471 270.294 132.361 271.952 120.568 269.994L42.3377 257.003C24.0534 253.967 9.08514 240.801 3.74099 223.053C1.28987 214.913 1.01548 206.273 2.94519 197.994Z" fill="white"/>
<rect x="0.770279" y="1.18613" width="149.89" height="194.816" rx="19.7608" transform="matrix(0.978136 0.207966 -0.207857 0.978159 52.1472 38.8533)" fill="#A2A2A2" stroke="black" stroke-width="2"/>
<rect x="0.577709" y="0.889594" width="107.486" height="61.6388" rx="9.63041" transform="matrix(0.978136 0.207966 -0.207857 0.978159 69.2765 64.7322)" fill="#A9C869" stroke="black" stroke-width="1.5"/>
<path d="M78.7712 162.71C77.2718 169.767 70.3376 174.271 63.2836 172.771C56.2297 171.271 51.7265 164.335 53.2259 157.279C54.7254 150.223 61.6596 145.719 68.7135 147.218C75.7675 148.718 80.2707 155.654 78.7712 162.71Z" fill="#F4F4F4" stroke="black" stroke-width="1.5"/>
<path d="M114.949 170.402C113.449 177.459 106.515 181.963 99.4612 180.463C92.4073 178.963 87.9041 172.027 89.4035 164.971C90.903 157.915 97.8372 153.41 104.891 154.91C111.945 156.41 116.448 163.346 114.949 170.402Z" fill="#F4F4F4" stroke="black" stroke-width="1.5"/>
<path d="M152.091 178.299C150.592 185.355 143.658 189.86 136.604 188.36C129.55 186.86 125.046 179.924 126.546 172.868C128.045 165.811 134.979 161.307 142.033 162.807C149.087 164.307 153.591 171.243 152.091 178.299Z" fill="#F4F4F4" stroke="black" stroke-width="1.5"/>
<path d="M48.1887 206.826C49.2375 201.891 54.0887 198.74 59.0241 199.79L129.404 214.753C134.34 215.803 137.49 220.655 136.442 225.59L130.142 255.234L41.8895 236.47L48.1887 206.826Z" fill="#FDD546" stroke="black" stroke-width="1.5"/>
<path d="M69.4081 227.969C69.8894 225.704 72.1159 224.258 74.381 224.74L104.747 231.196C107.013 231.678 108.459 233.904 107.977 236.169L105.059 249.901L66.4902 241.7L69.4081 227.969Z" fill="#4C4C4C" stroke="black" stroke-width="1.5"/>
<path d="M106.811 106.277C112.132 99.6993 116.726 95.0578 117.722 93.3298C117.489 94.429 121.866 104.565 122.788 109.674C124.858 121.149 115.972 123.719 111.468 122.761C101.514 120.645 103.87 109.912 106.811 106.277Z" fill="#2C3E49"/>
<path d="M136.207 168.87L144.733 175.8C145.04 176.049 144.945 176.539 144.567 176.656L133.849 179.968" stroke="black" stroke-width="1.97722" stroke-linecap="round"/>
<path d="M72.2938 155.281L61.6875 158.143C61.3062 158.246 61.1936 158.733 61.4909 158.993L69.9356 166.379" stroke="black" stroke-width="1.97722" stroke-linecap="round"/>
<path fill-rule="evenodd" clip-rule="evenodd" d="M101.3 159.936C101.31 159.888 101.271 159.843 101.223 159.849C97.9691 160.245 95.1779 162.658 94.4583 166.045C93.5523 170.308 96.2733 174.499 100.536 175.406C104.798 176.312 108.988 173.59 109.894 169.327C110.614 165.94 109.045 162.6 106.234 160.914C106.192 160.889 106.138 160.915 106.128 160.963L105.718 162.891C105.712 162.92 105.723 162.951 105.747 162.969C107.516 164.311 108.452 166.599 107.96 168.915C107.281 172.111 104.141 174.151 100.947 173.472C97.7528 172.793 95.7132 169.652 96.3923 166.456C96.8847 164.139 98.6707 162.43 100.833 161.924C100.862 161.917 100.884 161.894 100.89 161.865L101.3 159.936Z" fill="black"/>
<path d="M102.996 163.827L104.022 159.001" stroke="black" stroke-width="1.97722" stroke-linecap="round"/>
</svg>
