<svg width="171" height="163" viewBox="0 0 171 163" fill="none" xmlns="http://www.w3.org/2000/svg">
<path d="M93.6731 15.0919L100.329 7.1376C101.075 6.24559 101.952 5.47173 102.93 4.84232C107.357 1.99321 113.153 2.50727 117.009 6.09116L158.123 44.2973C163.84 49.6105 161.653 59.1216 154.189 61.4037L147.952 63.3104C142.806 64.8837 141.529 71.5797 145.734 74.9371C148.774 77.3638 149.111 81.8618 146.466 84.7141L126.818 105.909L120.684 113.973C114.239 122.447 104.204 127.421 93.5584 127.421H82.3788C74.243 127.421 67.0369 132.672 64.5436 140.416L59.9215 154.773C58.5702 158.97 53.6533 160.804 49.8835 158.516C49.3575 158.197 48.8771 157.809 48.4553 157.361L19.7517 126.882C8.82627 115.281 9.32529 97.0329 20.8684 86.0462C25.381 81.7512 28.3884 76.1155 29.4443 69.9758L30.0787 66.287C32.6985 51.0533 43.8084 38.6643 58.6679 34.4067L68.1467 31.6907C78.1227 28.8323 87.0137 23.0508 93.6731 15.0919Z" fill="white"/>
<path d="M108.654 11.8928C102.297 14.9315 101.67 35.9023 102.194 46.4764L114.538 59.7688C136.332 61.5058 144.4 55.8024 147.845 52.1071C148.527 51.3758 148.26 50.2123 147.405 49.6938C141.133 45.8891 133.094 37.5525 129.083 30.8301C128.712 30.2077 128.157 29.7245 127.511 29.3975C121.414 26.3148 113.849 17.352 110.185 12.3883C109.823 11.8976 109.204 11.6298 108.654 11.8928Z" fill="#CC98E8" stroke="black" stroke-width="2.53333"/>
<path d="M53.6216 147.843C59.9789 144.804 60.605 123.833 60.0813 113.259L47.7379 99.9666C25.9439 98.2296 17.8754 103.933 14.4304 107.628C13.7486 108.36 14.0157 109.523 14.8705 110.042C21.1427 113.846 29.1818 122.183 33.1925 128.905C33.5637 129.528 34.118 130.011 34.7647 130.338C40.8616 133.421 48.4269 142.383 52.0904 147.347C52.4525 147.838 53.0714 148.106 53.6216 147.843Z" fill="#CC98E8" stroke="black" stroke-width="2.53333"/>
<path d="M122.178 79.7071C122.178 101.936 103.968 119.979 81.4766 119.979C58.9857 119.979 40.7755 101.936 40.7755 79.7071C40.7755 57.4777 58.9857 39.4351 81.4766 39.4351C103.968 39.4351 122.178 57.4777 122.178 79.7071Z" fill="#FF73C6" stroke="black" stroke-width="2.53333"/>
<path d="M74.8934 40.3833L62.8461 44.0545L59.923 113.807L74.8934 118.946V40.3833Z" fill="#FF94D4" stroke="black" stroke-width="2.09487"/>
<path d="M90.5284 41.1177L101.577 44.7888L105.231 112.338L90.5284 118.754V41.1177Z" fill="#FF94D4" stroke="black" stroke-width="2.09487"/>
</svg>
