<svg width="215" height="360" viewBox="0 0 215 360" fill="none" xmlns="http://www.w3.org/2000/svg">
<path d="M3.01046 165.63L35.9325 25.7329C39.4807 10.6556 52.9349 0 68.4241 0C70.6923 0 72.9546 0.231194 75.1759 0.689997L198.965 26.2581C208.302 28.1866 215 36.4092 215 45.9435C215 47.0544 214.908 48.1635 214.725 49.2593L191.397 188.739C188.123 208.312 175.389 225.003 157.376 233.331C146.467 238.375 134.296 240.028 122.437 238.078L42.5815 224.944C24.2526 221.93 9.22589 208.768 3.82274 190.996C1.31887 182.761 1.03863 174.009 3.01046 165.63Z" fill="white"/>
<rect x="0.768764" y="1.18381" width="151.976" height="195.777" rx="19.7608" transform="matrix(0.978538 0.206064 -0.209774 0.97775 52.8828 5.88221)" fill="#A2A2A2" stroke="black" stroke-width="2"/>
<rect x="0.384382" y="0.591907" width="109.483" height="62.4471" rx="9.88041" transform="matrix(0.978538 0.206064 -0.209774 0.97775 70.1891 31.9088)" fill="#A9C869" stroke="black"/>
<path d="M79.8961 130.291C78.3763 137.375 71.3439 141.907 64.1785 140.398C57.0131 138.89 52.4494 131.915 53.9692 124.832C55.489 117.748 62.5213 113.216 69.6868 114.725C76.8522 116.233 81.4159 123.208 79.8961 130.291Z" fill="#F4F4F4" stroke="black" stroke-width="1.5"/>
<path d="M116.586 138.017C115.066 145.101 108.034 149.633 100.868 148.125C93.7028 146.616 89.1391 139.641 90.6589 132.558C92.1787 125.474 99.211 120.942 106.376 122.451C113.542 123.96 118.106 130.934 116.586 138.017Z" fill="#F4F4F4" stroke="black" stroke-width="1.5"/>
<path d="M154.254 145.95C152.734 153.033 145.701 157.566 138.536 156.057C131.37 154.548 126.807 147.574 128.327 140.49C129.846 133.406 136.879 128.874 144.044 130.383C151.21 131.892 155.773 138.866 154.254 145.95Z" fill="#F4F4F4" stroke="black" stroke-width="1.5"/>
<path d="M59.1174 168.219L130.759 183.306C135.697 184.345 138.841 189.188 137.783 194.121L131.384 223.948L41.8616 205.096L48.2609 175.269C49.3193 170.336 54.18 167.179 59.1174 168.219Z" fill="#FDD546" stroke="black" stroke-width="1.5"/>
<path d="M74.7583 193.294L105.687 199.807C107.953 200.285 109.397 202.507 108.911 204.771L105.946 218.591L66.8106 210.35L69.7756 196.53C70.2614 194.266 72.4922 192.817 74.7583 193.294Z" fill="#4C4C4C" stroke="black" stroke-width="1.5"/>
<path d="M108.526 70.01C113.91 63.4165 118.557 58.764 119.566 57.0319C119.33 58.1337 123.758 68.2942 124.691 73.415C126.785 84.9172 117.795 87.4934 113.238 86.5335C103.166 84.412 105.55 73.6536 108.526 70.01Z" fill="#2C3E49"/>
<path d="M138.135 136.477L146.783 143.439C147.092 143.687 146.995 144.18 146.616 144.296L135.743 147.624" stroke="black" stroke-width="1.97722" stroke-linecap="round"/>
<path d="M73.3169 122.827L62.5577 125.703C62.174 125.805 62.0598 126.294 62.3591 126.553L70.9253 133.974" stroke="black" stroke-width="1.97722" stroke-linecap="round"/>
<path fill-rule="evenodd" clip-rule="evenodd" d="M104.37 129.367C104.37 129.367 104.369 129.367 104.369 129.368V129.368C104.369 129.368 104.369 129.369 104.37 129.369L104.559 129.409C104.577 129.412 104.594 129.415 104.611 129.417L104.37 129.367ZM105.128 129.526C105.145 129.531 105.162 129.535 105.179 129.54V129.54C105.284 129.562 105.387 129.494 105.41 129.389L105.577 128.61C105.578 128.607 105.576 128.604 105.573 128.604V128.604C105.57 128.603 105.567 128.605 105.566 128.608L105.408 129.345C105.381 129.472 105.256 129.553 105.128 129.526V129.526ZM102.331 129.443V129.443C102.327 129.461 102.314 129.474 102.296 129.478C100.068 129.973 98.2313 131.708 97.7296 134.047C97.0432 137.246 99.1032 140.42 102.373 141.109C105.643 141.797 108.828 139.728 109.514 136.528C110.016 134.189 109.05 131.864 107.216 130.513C107.203 130.503 107.197 130.487 107.2 130.47V130.47L107.617 128.529V128.529C107.627 128.48 107.682 128.454 107.725 128.479C110.584 130.17 112.18 133.53 111.449 136.936C110.53 141.218 106.281 143.952 101.958 143.042C97.6354 142.132 94.876 137.922 95.7948 133.639C96.5256 130.233 99.3629 127.807 102.668 127.414C102.718 127.408 102.757 127.455 102.747 127.503V127.503L102.331 129.443Z" fill="black"/>
<path d="M104.454 131.41L105.494 126.564" stroke="black" stroke-width="1.97722" stroke-linecap="round"/>
<path d="M96.4295 219.459L74.2986 215.239C65.1983 213.504 56.4001 219.356 54.5047 228.406L34.5535 323.669C32.5496 333.237 39.0295 342.537 48.7147 343.994L71.5719 347.431C80.5136 348.775 88.9274 342.901 90.727 334.057L109.952 239.577C111.841 230.292 105.755 221.238 96.4295 219.459Z" fill="white"/>
<rect x="-0.768692" y="-1.18386" width="37.1269" height="135.153" transform="matrix(0.978479 0.206052 -0.209787 0.97781 70.8984 200.734)" fill="#FDD546" stroke="#4C4C4C" stroke-width="2"/>
<path d="M71.826 232.145C71.7101 232.685 72.0543 233.215 72.5947 233.329C73.1351 233.443 73.6671 233.097 73.7829 232.557L71.826 232.145ZM76.6529 217.784C76.3527 217.322 75.7332 217.191 75.2692 217.493L67.7071 222.404C67.243 222.705 67.1102 223.325 67.4104 223.787C67.7106 224.249 68.3301 224.38 68.7942 224.078L75.516 219.713L79.8644 226.41C80.1646 226.872 80.7841 227.002 81.2482 226.701C81.7122 226.4 81.8451 225.78 81.5449 225.318L76.6529 217.784ZM73.7829 232.557L76.7912 218.536L74.8342 218.124L71.826 232.145L73.7829 232.557Z" fill="#4C4C4C"/>
<path d="M90.0223 235.977C89.9064 236.517 90.2505 237.047 90.7909 237.161C91.3313 237.275 91.8633 236.929 91.9792 236.389L90.0223 235.977ZM94.8492 221.616C94.549 221.154 93.9295 221.023 93.4654 221.324L85.9034 226.236C85.4393 226.537 85.3065 227.156 85.6067 227.619C85.9069 228.081 86.5264 228.212 86.9905 227.91L93.7123 223.544L98.0607 230.241C98.3609 230.704 98.9804 230.834 99.4445 230.533C99.9085 230.231 100.041 229.612 99.7412 229.15L94.8492 221.616ZM91.9792 236.389L94.9875 222.368L93.0305 221.956L90.0223 235.977L91.9792 236.389Z" fill="#4C4C4C"/>
<rect x="-0.768692" y="-1.18386" width="37.1269" height="30.6792" transform="matrix(0.978479 0.206052 -0.209787 0.97781 48.9809 302.89)" fill="#4C4C4C" stroke="#4C4C4C" stroke-width="2"/>
<rect width="6.19887" height="20.4852" transform="matrix(0.978479 0.206052 -0.209787 0.97781 60.9563 315.748)" fill="#CBC308"/>
</svg>
