<svg width="140" height="272" viewBox="0 0 140 272" fill="none" xmlns="http://www.w3.org/2000/svg">
<path d="M40.947 8.48374L42.2999 7.36248C48.0409 2.60408 55.2635 0 62.7202 0H82.5215C89.8419 0 96.941 2.50988 102.635 7.111L122.76 23.3743C129.893 29.1391 134.21 37.6877 134.615 46.8505L139.79 163.933C139.929 167.087 139.601 170.244 138.816 173.302L135.711 185.398C134.569 189.845 132.484 193.994 129.597 197.564L122.531 206.303C117.925 211.998 115.412 219.1 115.412 226.425V240C115.412 257.673 101.085 272 83.4122 272H51.5699C33.8968 272 19.5699 257.673 19.5699 240V226.427C19.5699 222.57 18.8728 218.746 17.5123 215.137L2.23814 174.626C0.760426 170.707 0.066536 166.535 0.195833 162.349L3.81533 45.1504C4.23508 31.5591 13.1983 19.7173 26.1651 15.6231L30.1616 14.3612C34.1026 13.1169 37.7652 11.121 40.947 8.48374Z" fill="white"/>
<path d="M31 216H105.207V245.544C105.207 253.802 98.5125 260.496 90.2543 260.496H45.9527C37.6946 260.496 31 253.802 31 245.544V216Z" fill="#A2A2A2" stroke="black" stroke-width="2"/>
<path fill-rule="evenodd" clip-rule="evenodd" d="M39.5801 25.1064C31.3617 25.7434 14.3485 31.9217 12.0431 51.5393V164.914C12.0431 169.054 14.7328 184.15 29.3338 216.506H105.861C106.818 214.144 107.903 211.551 109.051 208.807C115.076 194.412 122.831 175.881 122.831 164.914V49.3101C121.23 41.8791 113.802 26.6351 96.8954 25.1064H39.5801ZM40.4681 38.8006C33.0809 38.8006 27.0924 44.7891 27.0924 52.1763C27.0924 59.5635 33.0809 65.552 40.4681 65.552H94.4065C101.794 65.552 107.782 59.5635 107.782 52.1763C107.782 44.7891 101.794 38.8006 94.4065 38.8006H40.4681Z" fill="#2ED1E2"/>
<path d="M12.0431 51.5393L11.0499 51.4226L11.0431 51.4808V51.5393H12.0431ZM39.5801 25.1064V24.1064H39.5414L39.5028 24.1094L39.5801 25.1064ZM12.0431 164.914H11.0431V164.914L12.0431 164.914ZM29.3338 216.506L28.4223 216.917L28.6879 217.506H29.3338V216.506ZM105.861 216.506V217.506H106.535L106.788 216.882L105.861 216.506ZM109.051 208.807L109.974 209.193V209.193L109.051 208.807ZM122.831 49.3101H123.831V49.2036L123.809 49.0994L122.831 49.3101ZM96.8954 25.1064L96.9855 24.1105L96.9405 24.1064H96.8954V25.1064ZM13.0363 51.6561C14.1531 42.1528 18.8152 35.9427 24.1849 32.012C29.5841 28.0598 35.708 26.4095 39.6574 26.1035L39.5028 24.1094C35.2337 24.4403 28.7419 26.1977 23.0035 30.3982C17.2357 34.6203 12.2385 41.3082 11.0499 51.4226L13.0363 51.6561ZM13.0431 164.914V51.5393H11.0431V164.914H13.0431ZM30.2453 216.095C22.9585 199.947 18.653 188.126 16.171 179.842C13.6818 171.534 13.0431 166.837 13.0431 164.914L11.0431 164.914C11.0431 167.132 11.7493 172.052 14.2551 180.416C16.7682 188.804 21.108 200.709 28.4223 216.917L30.2453 216.095ZM105.861 215.506H29.3338V217.506H105.861V215.506ZM108.129 208.421C106.981 211.163 105.893 213.762 104.934 216.131L106.788 216.882C107.742 214.526 108.825 211.938 109.974 209.193L108.129 208.421ZM121.831 164.914C121.831 170.217 119.945 177.453 117.255 185.249C114.576 193.016 111.144 201.218 108.129 208.421L109.974 209.193C112.984 202.001 116.442 193.74 119.146 185.901C121.84 178.091 123.831 170.579 123.831 164.914H121.831ZM121.831 49.3101V164.914H123.831V49.3101H121.831ZM96.8054 26.1024C104.946 26.8384 110.803 30.8678 114.839 35.6407C118.892 40.4321 121.084 45.9464 121.854 49.5207L123.809 49.0994C122.978 45.2428 120.655 39.4196 116.366 34.3491C112.062 29.2601 105.751 24.9031 96.9855 24.1105L96.8054 26.1024ZM39.5801 26.1064H96.8954V24.1064H39.5801V26.1064ZM28.0924 52.1763C28.0924 45.3414 33.6332 39.8006 40.4681 39.8006V37.8006C32.5286 37.8006 26.0924 44.2368 26.0924 52.1763H28.0924ZM40.4681 64.552C33.6332 64.552 28.0924 59.0112 28.0924 52.1763H26.0924C26.0924 60.1158 32.5286 66.552 40.4681 66.552V64.552ZM94.4065 64.552H40.4681V66.552H94.4065V64.552ZM106.782 52.1763C106.782 59.0112 101.241 64.552 94.4065 64.552V66.552C102.346 66.552 108.782 60.1158 108.782 52.1763H106.782ZM94.4065 39.8006C101.241 39.8006 106.782 45.3414 106.782 52.1763H108.782C108.782 44.2368 102.346 37.8006 94.4065 37.8006V39.8006ZM40.4681 39.8006H94.4065V37.8006H40.4681V39.8006Z" fill="black"/>
<rect x="54.3488" y="3.49536" width="25.537" height="43.8595" rx="12.7685" fill="#CB97E7" stroke="black" stroke-width="2"/>
<path d="M27.0924 98.0361C27.8609 89.119 35.9512 85.8281 39.9003 85.2974H94.9743C104.196 86.3165 107.355 94.2145 107.782 98.0361V153.45C101.378 192.685 87.3963 201.008 81.2058 200.265H53.6688C38.0432 200.265 29.4405 169.055 27.0924 153.45V98.0361Z" fill="#DCF5F8" stroke="black" stroke-width="1.5"/>
<path d="M31.0358 143.067V135.874H32.5413V138.795H35.7817V135.874H37.2873V143.067H35.7817V140.036H32.5413V143.067H31.0358ZM40.3831 143.152C39.3362 143.152 38.5934 142.504 38.5934 141.507V141.497C38.5934 140.51 39.3561 139.932 40.7221 139.852L42.0482 139.772V139.318C42.0482 138.845 41.7241 138.576 41.1259 138.576C40.6024 138.576 40.2684 138.76 40.1538 139.084L40.1438 139.104H38.7978L38.8028 139.059C38.9174 138.097 39.8248 137.459 41.2057 137.459C42.6613 137.459 43.4839 138.147 43.4839 139.318V143.067H42.0482V142.34H41.9584C41.6793 142.848 41.101 143.152 40.3831 143.152ZM40.0142 141.417C40.0142 141.836 40.3681 142.09 40.8716 142.09C41.5447 142.09 42.0482 141.647 42.0482 141.068V140.665L40.9414 140.734C40.3183 140.774 40.0142 141.008 40.0142 141.407V141.417ZM44.9097 143.067V137.579H46.3654V138.426H46.4551C46.7044 137.833 47.2477 137.459 48.0304 137.459C49.2518 137.459 49.9099 138.207 49.9099 139.518V143.067H48.4542V139.847C48.4542 139.074 48.1351 138.665 47.4472 138.665C46.7741 138.665 46.3654 139.149 46.3654 139.892V143.067H44.9097ZM53.2799 143.152C51.9089 143.152 51.0515 142.08 51.0515 140.326V140.316C51.0515 138.551 51.889 137.489 53.2799 137.489C54.0326 137.489 54.6458 137.858 54.92 138.456H55.0097V135.48H56.4654V143.067H55.0097V142.215H54.92C54.6358 142.808 54.0526 143.152 53.2799 143.152ZM53.7734 141.946C54.5461 141.946 55.0247 141.338 55.0247 140.33V140.321C55.0247 139.314 54.5411 138.695 53.7734 138.695C53.0057 138.695 52.5321 139.314 52.5321 140.316V140.326C52.5321 141.338 53.0057 141.946 53.7734 141.946ZM62.7867 143.182C61.2961 143.182 60.4486 142.514 60.3439 141.572L60.3389 141.552H61.7697L61.7797 141.572C61.8943 141.911 62.2283 142.155 62.8016 142.155C63.36 142.155 63.7389 141.916 63.7389 141.552V141.542C63.7389 141.248 63.5195 141.063 62.9612 140.939L62.0439 140.744C60.997 140.52 60.4785 140.006 60.4785 139.184V139.179C60.4785 138.147 61.3958 137.459 62.7667 137.459C64.2075 137.459 65.0051 138.177 65.0649 139.059V139.079H63.7139L63.7089 139.054C63.6292 138.76 63.3051 138.486 62.7618 138.486C62.2582 138.486 61.8993 138.72 61.8993 139.089V139.094C61.8993 139.388 62.1037 139.558 62.672 139.682L63.5843 139.877C64.6811 140.111 65.1945 140.57 65.1945 141.382V141.387C65.1945 142.474 64.1925 143.182 62.7867 143.182ZM67.8816 143.152C66.8347 143.152 66.0919 142.504 66.0919 141.507V141.497C66.0919 140.51 66.8546 139.932 68.2206 139.852L69.5466 139.772V139.318C69.5466 138.845 69.2226 138.576 68.6244 138.576C68.1009 138.576 67.7669 138.76 67.6523 139.084L67.6423 139.104H66.2963L66.3013 139.059C66.4159 138.097 67.3232 137.459 68.7041 137.459C70.1598 137.459 70.9824 138.147 70.9824 139.318V143.067H69.5466V142.34H69.4569C69.1777 142.848 68.5994 143.152 67.8816 143.152ZM67.5127 141.417C67.5127 141.836 67.8666 142.09 68.3701 142.09C69.0431 142.09 69.5466 141.647 69.5466 141.068V140.665L68.4399 140.734C67.8168 140.774 67.5127 141.008 67.5127 141.407V141.417ZM72.4082 143.067V137.579H73.8638V138.426H73.9536C74.2028 137.833 74.7462 137.459 75.5289 137.459C76.7503 137.459 77.4083 138.207 77.4083 139.518V143.067H75.9527V139.847C75.9527 139.074 75.6336 138.665 74.9456 138.665C74.2726 138.665 73.8638 139.149 73.8638 139.892V143.067H72.4082ZM79.562 136.736C79.1133 136.736 78.7394 136.377 78.7394 135.929C78.7394 135.475 79.1133 135.116 79.562 135.116C80.0106 135.116 80.3795 135.475 80.3795 135.929C80.3795 136.377 80.0106 136.736 79.562 136.736ZM78.8291 143.067V137.579H80.2848V143.067H78.8291ZM84.0287 143.087C82.6927 143.087 82.1543 142.654 82.1543 141.587V138.675H81.3068V137.579H82.1543V136.268H83.6249V137.579H84.7566V138.675H83.6249V141.253C83.6249 141.746 83.8343 141.966 84.3278 141.966C84.5173 141.966 84.617 141.956 84.7566 141.941V143.023C84.5771 143.057 84.3079 143.087 84.0287 143.087ZM86.7108 136.736C86.2621 136.736 85.8882 136.377 85.8882 135.929C85.8882 135.475 86.2621 135.116 86.7108 135.116C87.1594 135.116 87.5283 135.475 87.5283 135.929C87.5283 136.377 87.1594 136.736 86.7108 136.736ZM85.9779 143.067V137.579H87.4336V143.067H85.9779ZM88.7746 143.067V142.23L91.5713 138.765V138.675H88.8145V137.579H93.2913V138.506L90.6541 141.881V141.971H93.3561V143.067H88.7746ZM96.9654 143.182C95.2953 143.182 94.2833 142.09 94.2833 140.33V140.326C94.2833 138.581 95.3053 137.459 96.9055 137.459C98.5058 137.459 99.5028 138.556 99.5028 140.216V140.669H95.724C95.739 141.572 96.2226 142.095 96.9953 142.095C97.6334 142.095 97.9873 141.756 98.087 141.547L98.102 141.517H99.458L99.448 141.567C99.2785 142.255 98.5706 143.182 96.9654 143.182ZM96.9305 138.551C96.2973 138.551 95.8287 138.98 95.739 139.757H98.107C98.0172 138.96 97.5636 138.551 96.9305 138.551ZM100.694 143.067V137.579H102.15V138.431H102.24C102.414 137.838 102.913 137.489 103.626 137.489C103.82 137.489 104.024 137.519 104.169 137.559V138.83C103.95 138.78 103.725 138.745 103.501 138.745C102.673 138.745 102.15 139.219 102.15 139.996V143.067H100.694Z" fill="#303030"/>
</svg>
