<svg width="140" height="273" viewBox="0 0 140 273" fill="none" xmlns="http://www.w3.org/2000/svg">
<path d="M40.8214 8.48213L42.0997 7.41692C47.8506 2.62452 55.0996 0 62.5856 0H82.1387C89.4882 0 96.6136 2.52984 102.318 7.16435L122.341 23.4335C129.439 29.2002 133.73 37.7279 134.131 46.8639L139.292 164.268C139.43 167.406 139.105 170.546 138.328 173.589L135.218 185.771C134.086 190.205 132.016 194.345 129.147 197.911L122.065 206.716C117.493 212.401 115 219.477 115 226.773V240.5C115 258.173 100.673 272.5 83 272.5H51.5C33.8269 272.5 19.5 258.173 19.5 240.5V226.803C19.5 222.966 18.8099 219.16 17.4625 215.567L2.21616 174.91C0.752817 171.008 0.0658261 166.857 0.193781 162.691L3.80401 45.1583C4.22099 31.5833 13.1616 19.7503 26.1064 15.6408L30.0181 14.399C33.9684 13.145 37.6375 11.1354 40.8214 8.48213Z" fill="white"/>
<path d="M30.048 217.404H104.983V247.533C104.983 256.068 98.0644 262.986 89.5301 262.986H45.5007C36.9664 262.986 30.048 256.068 30.048 247.533V217.404Z" fill="#A2A2A2" stroke="black"/>
<path fill-rule="evenodd" clip-rule="evenodd" d="M39.4388 25.1526C31.2498 25.7907 14.2974 31.9803 12.0002 51.6341V165.217C12.0002 169.365 14.6802 184.488 29.2291 216.904H105.483C106.436 214.538 107.518 211.94 108.662 209.191C114.665 194.769 122.393 176.204 122.393 165.217V49.4007C120.798 41.9561 113.396 26.684 96.5494 25.1526H39.4388ZM40.396 38.8719C32.9952 38.8719 26.9957 44.8714 26.9957 52.2722C26.9957 59.6729 32.9952 65.6724 40.396 65.6724H93.997C101.398 65.6724 107.397 59.6729 107.397 52.2722C107.397 44.8714 101.398 38.8719 93.997 38.8719H40.396Z" fill="#2ED1E2"/>
<path d="M12.0002 51.6341L11.5036 51.576L11.5002 51.6049V51.6341H12.0002ZM39.4388 25.1526V24.6526H39.4194L39.4 24.6541L39.4388 25.1526ZM12.0002 165.217H11.5002H12.0002ZM29.2291 216.904L28.7729 217.109L28.9055 217.404H29.2291V216.904ZM105.483 216.904V217.404H105.821L105.947 217.091L105.483 216.904ZM108.662 209.191L109.124 209.383L108.662 209.191ZM122.393 49.4007H122.893V49.3477L122.882 49.2959L122.393 49.4007ZM96.5494 25.1526L96.5947 24.6546L96.5721 24.6526H96.5494V25.1526ZM12.4968 51.6921C13.6276 42.0171 18.3571 35.6758 23.8064 31.6652C29.2705 27.6437 35.4636 25.9639 39.4777 25.6511L39.4 24.6541C35.225 24.9794 28.8474 26.7135 23.2137 30.8598C17.5652 35.0169 12.6699 41.5973 11.5036 51.576L12.4968 51.6921ZM12.5002 165.217V51.6341H11.5002V165.217H12.5002ZM29.6853 216.699C22.4177 200.507 18.119 188.643 15.638 180.317C13.1535 171.98 12.5002 167.218 12.5002 165.217H11.5002C11.5002 167.365 12.1869 172.238 14.6797 180.603C17.1759 188.98 21.4917 200.886 28.7729 217.109L29.6853 216.699ZM105.483 216.404H29.2291V217.404H105.483V216.404ZM108.2 208.999C107.056 211.747 105.974 214.348 105.019 216.717L105.947 217.091C106.899 214.728 107.979 212.132 109.124 209.383L108.2 208.999ZM121.893 165.217C121.893 170.621 119.987 177.94 117.306 185.754C114.629 193.553 111.203 201.785 108.2 208.999L109.124 209.383C112.124 202.175 115.563 193.914 118.251 186.078C120.935 178.257 122.893 170.801 122.893 165.217H121.893ZM121.893 49.4007V165.217H122.893V49.4007H121.893ZM96.5042 25.6505C104.77 26.402 110.718 30.5201 114.808 35.3811C118.905 40.2513 121.121 45.8534 121.904 49.5055L122.882 49.2959C122.069 45.5034 119.787 39.7472 115.573 34.7373C111.351 29.7183 105.175 25.4347 96.5947 24.6546L96.5042 25.6505ZM39.4388 25.6526H96.5494V24.6526H39.4388V25.6526ZM27.4957 52.2722C27.4957 45.1475 33.2713 39.3719 40.396 39.3719V38.3719C32.719 38.3719 26.4957 44.5953 26.4957 52.2722H27.4957ZM40.396 65.1724C33.2713 65.1724 27.4957 59.3968 27.4957 52.2722H26.4957C26.4957 59.9491 32.7191 66.1724 40.396 66.1724V65.1724ZM93.997 65.1724H40.396V66.1724H93.997V65.1724ZM106.897 52.2722C106.897 59.3968 101.122 65.1724 93.997 65.1724V66.1724C101.674 66.1724 107.897 59.9491 107.897 52.2722H106.897ZM93.997 39.3719C101.122 39.3719 106.897 45.1475 106.897 52.2722H107.897C107.897 44.5953 101.674 38.3719 93.997 38.3719V39.3719ZM40.396 39.3719H93.997V38.3719H40.396V39.3719Z" fill="black"/>
<rect x="53.6581" y="3" width="26.4386" height="44.9438" rx="13.2193" fill="#CB97E7" stroke="black"/>
<path d="M26.9956 98.2163C27.7613 89.2827 35.8228 85.9859 39.7578 85.4541H94.6351C103.824 86.4751 106.972 94.3876 107.397 98.2163V153.732C101.016 193.039 87.0841 201.377 80.9157 200.633H53.4771C37.9073 200.633 29.3353 169.365 26.9956 153.732V98.2163Z" fill="#DCF5F8" stroke="black"/>
<path d="M30.7954 143.312V136.118H32.301V139.04H35.5414V136.118H37.0469V143.312H35.5414V140.281H32.301V143.312H30.7954ZM40.1427 143.397C39.0958 143.397 38.353 142.749 38.353 141.752V141.742C38.353 140.755 39.1158 140.176 40.4817 140.097L41.8078 140.017V139.563C41.8078 139.09 41.4838 138.82 40.8855 138.82C40.3621 138.82 40.0281 139.005 39.9134 139.329L39.9034 139.349H38.5574L38.5624 139.304C38.6771 138.342 39.5844 137.704 40.9653 137.704C42.421 137.704 43.2435 138.392 43.2435 139.563V143.312H41.8078V142.584H41.7181C41.4389 143.093 40.8606 143.397 40.1427 143.397ZM39.7738 141.662C39.7738 142.081 40.1278 142.335 40.6313 142.335C41.3043 142.335 41.8078 141.891 41.8078 141.313V140.909L40.7011 140.979C40.0779 141.019 39.7738 141.253 39.7738 141.652V141.662ZM44.6693 143.312V137.823H46.125V138.671H46.2147C46.464 138.078 47.0074 137.704 47.7901 137.704C49.0114 137.704 49.6695 138.451 49.6695 139.763V143.312H48.2138V140.092C48.2138 139.319 47.8948 138.91 47.2068 138.91C46.5338 138.91 46.125 139.394 46.125 140.136V143.312H44.6693ZM53.0395 143.397C51.6686 143.397 50.8111 142.325 50.8111 140.57V140.56C50.8111 138.795 51.6486 137.734 53.0395 137.734C53.7923 137.734 54.4054 138.102 54.6796 138.701H54.7694V135.725H56.2251V143.312H54.7694V142.46H54.6796C54.3955 143.053 53.8122 143.397 53.0395 143.397ZM53.533 142.19C54.3057 142.19 54.7843 141.582 54.7843 140.575V140.565C54.7843 139.558 54.3008 138.94 53.533 138.94C52.7653 138.94 52.2917 139.558 52.2917 140.56V140.57C52.2917 141.582 52.7653 142.19 53.533 142.19ZM62.5463 143.427C61.0557 143.427 60.2082 142.759 60.1036 141.816L60.0986 141.797H61.5293L61.5393 141.816C61.654 142.155 61.988 142.4 62.5613 142.4C63.1196 142.4 63.4985 142.16 63.4985 141.797V141.787C63.4985 141.492 63.2791 141.308 62.7208 141.183L61.8035 140.989C60.7566 140.765 60.2382 140.251 60.2382 139.429V139.424C60.2382 138.392 61.1554 137.704 62.5264 137.704C63.9671 137.704 64.7647 138.422 64.8246 139.304V139.324H63.4736L63.4686 139.299C63.3888 139.005 63.0648 138.731 62.5214 138.731C62.0179 138.731 61.6589 138.965 61.6589 139.334V139.339C61.6589 139.633 61.8633 139.802 62.4317 139.927L63.344 140.121C64.4407 140.356 64.9542 140.814 64.9542 141.627V141.632C64.9542 142.719 63.9522 143.427 62.5463 143.427ZM67.6412 143.397C66.5943 143.397 65.8515 142.749 65.8515 141.752V141.742C65.8515 140.755 66.6143 140.176 67.9802 140.097L69.3063 140.017V139.563C69.3063 139.09 68.9822 138.82 68.384 138.82C67.8606 138.82 67.5266 139.005 67.4119 139.329L67.4019 139.349H66.0559L66.0609 139.304C66.1756 138.342 67.0829 137.704 68.4638 137.704C69.9195 137.704 70.742 138.392 70.742 139.563V143.312H69.3063V142.584H69.2165C68.9374 143.093 68.3591 143.397 67.6412 143.397ZM67.2723 141.662C67.2723 142.081 67.6263 142.335 68.1298 142.335C68.8028 142.335 69.3063 141.891 69.3063 141.313V140.909L68.1996 140.979C67.5764 141.019 67.2723 141.253 67.2723 141.652V141.662ZM72.1678 143.312V137.823H73.6235V138.671H73.7132C73.9625 138.078 74.5059 137.704 75.2885 137.704C76.5099 137.704 77.168 138.451 77.168 139.763V143.312H75.7123V140.092C75.7123 139.319 75.3932 138.91 74.7053 138.91C74.0323 138.91 73.6235 139.394 73.6235 140.136V143.312H72.1678ZM79.3216 136.981C78.8729 136.981 78.499 136.622 78.499 136.173C78.499 135.72 78.8729 135.361 79.3216 135.361C79.7703 135.361 80.1392 135.72 80.1392 136.173C80.1392 136.622 79.7703 136.981 79.3216 136.981ZM78.5888 143.312V137.823H80.0444V143.312H78.5888ZM83.7883 143.332C82.4523 143.332 81.9139 142.898 81.9139 141.831V138.92H81.0664V137.823H81.9139V136.512H83.3845V137.823H84.5162V138.92H83.3845V141.497C83.3845 141.991 83.5939 142.21 84.0875 142.21C84.2769 142.21 84.3766 142.2 84.5162 142.185V143.267C84.3367 143.302 84.0675 143.332 83.7883 143.332ZM86.4704 136.981C86.0217 136.981 85.6478 136.622 85.6478 136.173C85.6478 135.72 86.0217 135.361 86.4704 135.361C86.9191 135.361 87.288 135.72 87.288 136.173C87.288 136.622 86.9191 136.981 86.4704 136.981ZM85.7376 143.312V137.823H87.1933V143.312H85.7376ZM88.5343 143.312V142.474L91.331 139.01V138.92H88.5742V137.823H93.0509V138.751L90.4137 142.126V142.215H93.1157V143.312H88.5343ZM96.725 143.427C95.0549 143.427 94.0429 142.335 94.0429 140.575V140.57C94.0429 138.825 95.0649 137.704 96.6652 137.704C98.2654 137.704 99.2625 138.8 99.2625 140.46V140.914H95.4837C95.4986 141.816 95.9822 142.34 96.7549 142.34C97.393 142.34 97.747 142.001 97.8467 141.792L97.8616 141.762H99.2176L99.2076 141.811C99.0381 142.499 98.3302 143.427 96.725 143.427ZM96.6901 138.795C96.057 138.795 95.5884 139.224 95.4986 140.002H97.8666C97.7769 139.204 97.3232 138.795 96.6901 138.795ZM100.454 143.312V137.823H101.91V138.676H101.999C102.174 138.083 102.672 137.734 103.385 137.734C103.58 137.734 103.784 137.763 103.929 137.803V139.075C103.709 139.025 103.485 138.99 103.261 138.99C102.433 138.99 101.91 139.463 101.91 140.241V143.312H100.454Z" fill="#303030"/>
</svg>
