<svg width="142" height="110" viewBox="0 0 142 110" fill="none" xmlns="http://www.w3.org/2000/svg">
<path d="M6.9258 53.6405V50.9356C6.9258 40.5565 13.0423 31.1522 22.53 26.9439L61.239 5.81216C64.9804 3.76968 69.0831 2.47382 73.3189 1.99666L79.3143 1.32129C82.7234 0.937259 86.1715 1.08887 89.5337 1.77062L102.534 4.40672C108.261 5.56786 113.575 8.23329 117.929 12.1289L124.193 17.7323C126.621 19.9042 128.683 22.4527 130.301 25.2802L136.431 35.996C139.708 41.7237 138.686 48.9439 133.949 53.5377C131.886 55.5382 130.467 58.1085 129.873 60.92L128.775 66.1126C127.274 73.2162 122.577 79.2289 116.049 82.406C114.822 83.0031 113.649 83.7058 112.544 84.5062L111.539 85.2342C108.782 87.2308 105.731 88.7873 102.497 89.8482L94.2759 92.5448C91.9648 93.3028 89.7449 94.3148 87.657 95.5623L71.2844 105.344C66.1842 108.391 60.3541 110 54.413 110H41.3397C35.1052 110 28.999 108.228 23.7327 104.891L18.7799 101.753C17.0585 100.662 15.4547 99.3959 13.9943 97.9745C7.6672 91.8164 4.43111 83.148 5.17491 74.3501L6.9258 53.6405Z" fill="white"/>
<path d="M30.5863 33.742C11.922 33.6956 11.6018 47.6754 13.7747 54.6711C7.48668 59.9274 10.336 66.8878 12.5466 69.711C9.61038 86.3793 21.1989 90.8135 27.3601 90.947C35.8269 103.858 47.1563 99.4091 51.7626 95.5706C65.5392 101.604 74.8201 93.3902 77.7385 88.5293C94.0048 92.7776 102.25 82.3473 104.34 76.601C121.993 76.1445 125.548 61.7413 125.118 54.5967C132.591 46.3554 128.109 38.6166 124.934 35.7774C124.187 21.7724 112.208 18.9703 106.312 19.3199C98.9623 10.2125 88.8657 13.6894 84.7361 16.5662C70.0836 8.88347 57.5173 16.4984 53.0656 21.2663C39.9165 20.5018 32.6006 29.2649 30.5863 33.742Z" stroke="black" stroke-width="2.5"/>
<path d="M113 53.6174C115.167 56.9896 113.6 67.7805 102 65.7572" stroke="black" stroke-width="2.5" stroke-linecap="round"/>
<path d="M59.5 28.832C60.1885 24.8709 75.3795 17.8308 82.4999 27.3144" stroke="black" stroke-width="2.5" stroke-linecap="round"/>
<path d="M34.1316 81.0053C30.2746 81.9801 19.4638 76.2684 25.1316 65.8305" stroke="black" stroke-width="2.5" stroke-linecap="round"/>
<path d="M70.0001 72.3327C75.0001 85.4842 67.4786 92.2565 57.0639 86.7062" stroke="black" stroke-width="2.5" stroke-linecap="round"/>
</svg>
