<svg width="156" height="158" viewBox="0 0 156 158" fill="none" xmlns="http://www.w3.org/2000/svg">
<path d="M19.9532 53.6405V50.9577C19.9532 40.5662 26.0801 31.1518 35.5816 26.9439L74.3644 5.80456C78.1025 3.76705 82.2006 2.47452 86.4312 1.99868L92.4696 1.31951C95.8736 0.936652 99.3164 1.08781 102.674 1.7675L115.731 4.41099C121.453 5.56937 126.763 8.2295 131.117 12.1183L137.408 17.737C139.836 19.9057 141.898 22.4514 143.517 25.2761L149.656 35.9902C152.939 41.7195 151.916 48.9459 147.172 53.5392C145.107 55.5386 143.686 58.109 143.09 60.9211L141.995 66.0974C140.489 73.2103 135.783 79.2294 129.244 82.4068C128.016 83.0034 126.842 83.7055 125.736 84.5054L124.72 85.24C121.964 87.2327 118.916 88.786 115.684 89.8445L107.43 92.5475C105.121 93.3038 102.903 94.3135 100.816 95.5582L84.3922 105.355C79.2965 108.395 73.4735 110 67.5401 110H54.3931C48.1664 110 42.0676 108.233 36.8056 104.904L31.8215 101.75C30.1002 100.661 28.4962 99.3968 27.0354 97.9772C20.6974 91.8181 17.4551 83.1416 18.2008 74.3354L19.9532 53.6405Z" fill="white"/>
<path d="M43.6505 33.742C24.9572 33.6956 24.6365 47.6754 26.8128 54.6711C20.515 59.9274 23.3687 66.8878 25.5828 69.711C22.642 86.3793 34.2484 90.8135 40.4193 90.947C48.8991 103.858 60.2461 99.4091 64.8595 95.5706C78.6575 101.604 87.9528 93.3902 90.8757 88.5293C107.167 92.7776 115.426 82.3473 117.518 76.601C135.199 76.1445 138.759 61.7413 138.329 54.5967C145.813 46.3554 141.324 38.6166 138.144 35.7774C137.396 21.7724 125.399 18.9703 119.493 19.3199C112.132 10.2125 102.02 13.6894 97.8841 16.5662C83.209 8.88347 70.6231 16.4984 66.1646 21.2663C52.995 20.5018 45.6678 29.2649 43.6505 33.742Z" stroke="black" stroke-width="2.5"/>
<path d="M126.192 53.6174C128.362 56.9896 126.793 67.7805 115.175 65.7572" stroke="black" stroke-width="2.5" stroke-linecap="round"/>
<path d="M72.6088 28.832C73.2984 24.8709 88.513 17.8308 95.6444 27.3144" stroke="black" stroke-width="2.5" stroke-linecap="round"/>
<path d="M47.2011 81.0053C43.3381 81.9801 32.5106 76.2684 38.1872 65.8305" stroke="black" stroke-width="2.5" stroke-linecap="round"/>
<path d="M83.1253 72.3327C88.133 85.4842 80.5999 92.2565 70.1691 86.7062" stroke="black" stroke-width="2.5" stroke-linecap="round"/>
<path d="M39.3783 125.354C40.9197 125.354 41.815 126.465 42.0643 128.686C42.0643 130.522 41.6337 131.678 40.7723 132.154H40.5683C39.911 132.109 39.5823 131.871 39.5823 131.44L39.7183 128.89V127.632L39.5143 127.394H39.1743C38.449 127.394 37.599 129.411 36.6243 133.446L36.4203 135.996V136.744C36.4203 139.101 37.4743 140.484 39.5823 140.892H41.0103C43.3677 140.892 46.2237 139.373 49.5783 136.336H49.7143C50.3263 136.336 50.6777 136.721 50.7683 137.492C50.247 138.852 49.635 139.532 48.9323 139.532C45.691 141.844 42.7783 143 40.1943 143C37.6103 143 35.7857 141.583 34.7203 138.75L34.4143 136.336V135.894C34.4143 132.381 35.4003 129.151 37.3723 126.204C38.007 125.637 38.6757 125.354 39.3783 125.354ZM57.5003 130.182C59.1777 130.182 60.447 131.429 61.3083 133.922L61.4443 134.636C61.4443 137.061 60.311 139.543 58.0443 142.082C57.1377 142.921 56.2197 143.34 55.2903 143.34C53.9303 143.34 52.967 142.558 52.4003 140.994C52.1963 140.269 52.0943 139.634 52.0943 139.09V138.682C52.0943 135.101 53.3977 132.381 56.0043 130.522C56.4577 130.295 56.9563 130.182 57.5003 130.182ZM54.1003 139.022C54.1003 140.563 54.497 141.334 55.2903 141.334C56.945 141.334 58.3163 139.215 59.4043 134.976V134.33C59.019 132.925 58.305 132.222 57.2623 132.222C56.8543 132.222 56.6503 132.505 56.6503 133.072C56.6503 133.457 56.197 133.763 55.2903 133.99C54.497 135.327 54.1003 137.005 54.1003 139.022ZM66.963 122.362C67.5976 122.498 67.915 122.815 67.915 123.314L67.711 124.81V125.252C67.711 126.249 67.8243 127.303 68.051 128.414H68.119C70.7483 127.621 72.3803 127.224 73.015 127.224C73.6723 127.405 74.001 127.734 74.001 128.21C74.001 128.981 73.219 129.366 71.655 129.366L68.119 130.624C68.119 133.684 68.4476 137.843 69.105 143.102C68.969 143.714 68.6403 144.02 68.119 144.02H68.051C67.2576 144.02 66.861 143 66.861 140.96C66.5663 139.441 66.317 136.143 66.113 131.066H65.501C63.3703 130.93 62.305 130.431 62.305 129.57C62.305 129.321 62.543 129.015 63.019 128.652H63.359L64.923 129.06H66.011L65.705 124.81C65.705 123.178 66.1243 122.362 66.963 122.362ZM79.0489 122.362C79.6836 122.498 80.0009 122.815 80.0009 123.314L79.7969 124.81V125.252C79.7969 126.249 79.9102 127.303 80.1369 128.414H80.2049C82.8342 127.621 84.4662 127.224 85.1009 127.224C85.7582 127.405 86.0869 127.734 86.0869 128.21C86.0869 128.981 85.3049 129.366 83.7409 129.366L80.2049 130.624C80.2049 133.684 80.5336 137.843 81.1909 143.102C81.0549 143.714 80.7262 144.02 80.2049 144.02H80.1369C79.3436 144.02 78.9469 143 78.9469 140.96C78.6522 139.441 78.4029 136.143 78.1989 131.066H77.5869C75.4562 130.93 74.3909 130.431 74.3909 129.57C74.3909 129.321 74.6289 129.015 75.1049 128.652H75.4449L77.0089 129.06H78.0969L77.7909 124.81C77.7909 123.178 78.2102 122.362 79.0489 122.362ZM92.5628 130.182C94.2402 130.182 95.5095 131.429 96.3708 133.922L96.5068 134.636C96.5068 137.061 95.3735 139.543 93.1068 142.082C92.2002 142.921 91.2822 143.34 90.3528 143.34C88.9928 143.34 88.0295 142.558 87.4628 140.994C87.2588 140.269 87.1568 139.634 87.1568 139.09V138.682C87.1568 135.101 88.4602 132.381 91.0668 130.522C91.5202 130.295 92.0188 130.182 92.5628 130.182ZM89.1628 139.022C89.1628 140.563 89.5595 141.334 90.3528 141.334C92.0075 141.334 93.3788 139.215 94.4668 134.976V134.33C94.0815 132.925 93.3675 132.222 92.3248 132.222C91.9168 132.222 91.7128 132.505 91.7128 133.072C91.7128 133.457 91.2595 133.763 90.3528 133.99C89.5595 135.327 89.1628 137.005 89.1628 139.022ZM102.433 131.542C104.36 131.701 105.323 132.641 105.323 134.364L105.391 134.806L105.323 140.11C105.323 140.722 105.675 141.549 106.377 142.592V142.66C106.196 143.317 105.867 143.646 105.391 143.646C103.986 143.057 103.283 141.81 103.283 139.906V139.464L103.181 139.396L103.283 139.26V139.192L103.385 134.5C103.385 133.843 103.102 133.514 102.535 133.514H102.127C100.994 133.967 100.427 136.449 100.427 140.96C100.427 142.524 100.031 143.306 99.2375 143.306C98.6255 143.306 98.3081 142.921 98.2855 142.15V138.75C98.2855 134.353 98.6708 132.154 99.4415 132.154L99.7815 132.052L100.495 132.154C101.107 131.746 101.753 131.542 102.433 131.542Z" fill="black"/>
<path d="M11.3514 97.1582C7.76963 100.958 4.22622 107.879 4.22622 113.165C4.22622 118.478 1.30209 123.691 2.5439 129.271C5.20735 141.238 12.5187 141.621 22.9297 141.621" stroke="#5B6670" stroke-width="3" stroke-linecap="round"/>
</svg>
