<svg width="475" height="407" viewBox="0 0 475 407" fill="none" xmlns="http://www.w3.org/2000/svg">
<path d="M85.5735 303.844L43.6742 315.497C24.1738 320.92 9.24172 336.637 4.82344 356.389C3.94382 360.321 3.5 364.339 3.5 368.368V380.869C3.5 381.825 3.43209 382.781 3.2968 383.728C1.55677 395.908 11.008 406.805 23.3119 406.805H25.5H46.9569C60.9401 406.805 74.8777 405.212 88.5 402.055L92.8938 401.037C103.596 398.557 114.547 397.305 125.533 397.305C133.497 397.305 141.448 396.647 149.304 395.338L194.5 387.805L206.642 383.96C218.477 380.213 230.818 378.305 243.232 378.305C256.651 378.305 269.977 376.077 282.666 371.711L301.618 365.189C307.187 363.273 312.516 360.719 317.498 357.578C327.688 351.154 336.214 342.411 342.379 332.062L347 324.305L361 300.805L388 253.305L396.5 235.305L403.477 221.986C405.95 217.264 410.84 214.305 416.17 214.305C424.084 214.305 430.5 207.89 430.5 199.976V198.153C430.5 194.375 431.825 190.716 434.244 187.813L440.893 179.834C443.945 176.172 446.393 172.046 448.146 167.613L454 152.805L458.793 143.501C461.229 138.773 462.5 133.53 462.5 128.211V125.378C462.5 119.202 464.718 113.233 468.75 108.555C472.782 103.878 475 97.9085 475 91.7333V77.8054V74.2064C475 60.7176 468.715 47.9991 458 39.8054L454.612 37.2242C442.902 28.3025 430.297 20.6217 417 14.3054C410.695 10.987 403.974 8.52704 397.017 6.99099L386.248 4.61349C374.783 2.08228 363.077 0.80542 351.336 0.80542H347C335.311 0.80542 324.579 7.26671 319.11 17.5974L310 34.8054L290 71.3054L272 112.805L259.004 136.848C254.599 144.997 254.322 154.753 258.259 163.139C261.61 170.278 261.93 178.468 259.148 185.847L252 204.805L239.626 244.815C237.946 250.248 234.16 254.782 229.115 257.406C226.083 258.982 222.716 259.805 219.298 259.805H205.261C198.12 259.805 191.013 260.777 184.134 262.694L176 264.961C168.016 267.186 160.244 270.114 152.776 273.71L106.718 295.885C99.9195 299.159 92.8435 301.822 85.5735 303.844Z" fill="white"/>
<path d="M294.392 142.506C309.226 39.4659 372.116 27.0687 401.98 33.8069C402.103 33.8346 402.223 33.8489 402.349 33.851C403.349 33.8683 404.146 34.693 404.128 35.693L401.593 182.521C401.583 183.075 401.46 183.623 401.234 184.128C367.687 258.899 328.923 321.012 312.97 343.853C312.506 344.517 311.887 344.993 311.131 345.283C224.949 378.256 88.9371 393.659 27.1874 397.586C24.8064 397.737 22.853 395.817 22.8942 393.431L23.8614 337.425C23.8928 335.608 25.1165 334.029 26.8681 333.544L106.682 311.476C107.108 311.358 107.511 311.172 107.879 310.927C153.931 280.178 214.414 268.582 247.636 263.705C249.438 263.44 250.854 262.01 251.129 260.209C260.338 199.754 281.187 162.426 293.699 144.294C294.066 143.763 294.3 143.145 294.392 142.506Z" fill="#FED90F" stroke="black" stroke-width="4"/>
<path d="M311.05 300.003C309.697 310.814 299.375 333.206 268.918 336.281" stroke="black" stroke-width="3.7" stroke-linecap="round"/>
<path d="M250.5 262.747C258.167 260.913 272.8 259.547 284 262.747" stroke="black" stroke-width="4" stroke-linecap="round"/>
<path d="M418.301 200.789C349.262 210.655 291.872 174.386 270.87 153.768C266.751 149.984 274.151 137.003 276.972 135.805C286.831 98.4099 307.41 51.8008 316 39.4998C325.126 26.4324 343.483 8.43582 376.5 19.9999L402.5 28.4999L421.105 35.5C448.938 52.0155 455.71 70.766 455.5 86.9999C456.591 108.943 435.474 156.249 421.105 182.821C423.047 185.298 419.468 199.643 418.301 200.789Z" fill="#C9C4ED"/>
<path d="M421.105 182.821C423.047 185.298 419.468 199.643 418.301 200.789C349.262 210.655 291.872 174.386 270.87 153.768C266.751 149.984 274.151 137.003 276.972 135.805M421.105 182.821C395.977 186.025 331.971 181.108 276.972 135.805M421.105 182.821C435.474 156.249 456.591 108.943 455.5 86.9999C455.71 70.766 448.938 52.0155 421.105 35.5L402.5 28.4999L376.5 19.9999C343.483 8.43582 325.126 26.4324 316 39.4998C307.41 51.8008 286.831 98.4099 276.972 135.805" stroke="black" stroke-width="4"/>
</svg>
