<svg width="381" height="377" viewBox="0 0 381 377" fill="none" xmlns="http://www.w3.org/2000/svg">
<path d="M271.163 116.043C283.018 14.3982 343.759 -1.95061 375.705 2.7026C377.635 2.9837 379 4.6769 379 6.62714V150.93C379 151.49 378.894 152.023 378.672 152.537C355.421 206.307 306.168 312.397 290.518 317.377C290.141 317.497 289.831 317.586 289.475 317.759C265.271 329.556 176.002 356.937 6.57398 374.873C4.15407 375.129 2 373.235 2 370.802V316.104C2 313.466 4.48941 310.779 7.05378 310.16C22.092 306.527 65.3557 291.763 88.6044 283.59C88.853 283.502 89.0804 283.396 89.3078 283.263C133.221 257.566 194.757 236.747 227.167 235.522C228.916 235.456 230.47 234.355 231.04 232.7L270.964 116.923C271.061 116.641 271.128 116.339 271.163 116.043Z" fill="#FED90F" stroke="black" stroke-width="3.7"/>
<path d="M292.5 273C291.333 283.833 281.4 306.4 251 310" stroke="black" stroke-width="3.7" stroke-linecap="round"/>
</svg>
